<svg xmlns="http://www.w3.org/2000/svg" xmlns:xlink="http://www.w3.org/1999/xlink" width="1080" zoomAndPan="magnify" viewBox="0 0 810 1012.49997" height="1350" preserveAspectRatio="xMidYMid meet" version="1.0"><path fill="#5b3e36" d="M 242.636719 499.46875 C 220.199219 495.59375 204.816406 423.941406 222.570312 363.214844 C 242.058594 296.363281 300.933594 245.527344 314.175781 253.335938 C 320.480469 257.035156 317.125 274.558594 313.597656 287.859375 C 350.492188 261.664062 384.671875 246.972656 408.847656 238.472656 C 449.734375 224.1875 483.21875 220.488281 506.988281 219.734375 C 543.941406 218.578125 570.082031 217.769531 581.9375 234.886719 C 599.578125 260.332031 571.414062 304.691406 570.082031 306.714844 C 579.625 301.683594 599.171875 292.835938 608.714844 300.46875 C 622.074219 311.167969 608.65625 348.179688 599.578125 366.050781 C 592.984375 378.945312 585.410156 388.316406 580.085938 394.15625 C 587.257812 416.363281 595.472656 453.433594 584.945312 491.3125 C 581.996094 501.839844 579.796875 503.863281 578.003906 504.039062 C 563.835938 505.136719 565.746094 387.273438 515.027344 367.03125 C 497.214844 359.917969 491.375 372.238281 434.292969 382.417969 C 370.332031 393.808594 362.292969 381.027344 333.953125 392.535156 C 269.644531 418.675781 265.363281 503.460938 242.636719 499.46875 Z M 242.636719 499.46875 " fill-opacity="1" fill-rule="nonzero"/></svg>