<svg xmlns="http://www.w3.org/2000/svg" xmlns:xlink="http://www.w3.org/1999/xlink" width="1080" zoomAndPan="magnify" viewBox="0 0 810 1012.49997" height="1350" preserveAspectRatio="xMidYMid meet" version="1.0"><defs><clipPath id="dc4f65efe3"><path d="M 192 228.164062 L 623.121094 228.164062 L 623.121094 571 L 192 571 Z M 192 228.164062 " clip-rule="nonzero"/></clipPath></defs><g clip-path="url(#dc4f65efe3)"><path fill="#624332" d="M 528.980469 351.691406 C 528.757812 351.800781 528.203125 352.21875 527.296875 352.902344 C 520.242188 358.242188 491.886719 379.855469 432.640625 400.179688 C 365.792969 423.117188 364.15625 422.132812 364.15625 422.132812 L 411.339844 381.832031 C 411.339844 381.832031 364.15625 414.925781 312.710938 422.132812 C 312.710938 422.132812 276.007812 431.308594 261.589844 431.636719 C 261.589844 431.636719 253.070312 461.449219 246.191406 483.074219 C 239.308594 504.699219 239.960938 530.910156 239.636719 540.410156 C 239.3125 549.914062 238.324219 556.027344 236.03125 556.246094 C 233.738281 556.464844 186.878906 443.429688 193.105469 395.265625 C 199.332031 347.101562 249.464844 305.820312 248.15625 306.148438 C 246.847656 306.476562 212.765625 310.734375 206.542969 300.578125 C 206.542969 300.578125 224.890625 303.855469 247.5 280.589844 C 270.113281 257.328125 309.871094 238.652344 360.769531 235.703125 C 411.664062 232.757812 455.25 253.398438 455.25 253.398438 C 455.25 253.398438 436.898438 232.101562 424.449219 228.167969 C 424.449219 228.167969 453.996094 229.207031 488.074219 247.882812 C 522.152344 266.558594 525.757812 280.976562 525.757812 280.976562 C 525.757812 280.976562 514.289062 250.503906 515.597656 251.15625 C 516.910156 251.8125 531.328125 260.660156 542.140625 281.957031 C 552.953125 303.253906 545.089844 318.980469 545.089844 318.980469 C 545.089844 318.980469 555.90625 308.496094 574.582031 310.460938 C 593.261719 312.425781 604.402344 322.257812 604.402344 322.257812 C 604.402344 322.257812 578.1875 321.273438 570.324219 328.480469 C 570.324219 328.480469 588.671875 329.792969 603.089844 343.554688 C 617.507812 357.3125 623.078125 368.78125 623.078125 368.78125 L 598.175781 360.589844 C 598.175781 360.589844 618.492188 382.214844 616.851562 428.085938 C 615.214844 473.953125 573.273438 572.246094 573.597656 570.605469 C 573.925781 568.964844 570.320312 540.460938 569.339844 512.941406 C 568.355469 485.417969 565.734375 447.085938 561.472656 441.1875 C 557.214844 435.289062 540.503906 412.355469 531.984375 389.09375 C 523.460938 365.828125 528.980469 351.691406 528.980469 351.691406 Z M 528.980469 351.691406 " fill-opacity="1" fill-rule="nonzero"/></g></svg>