<svg xmlns="http://www.w3.org/2000/svg" xmlns:xlink="http://www.w3.org/1999/xlink" width="1080" zoomAndPan="magnify" viewBox="0 0 810 1012.49997" height="1350" preserveAspectRatio="xMidYMid meet" version="1.0"><defs><clipPath id="33784a7cd6"><path d="M 136.378906 206.84375 L 673.863281 206.84375 L 673.863281 1012 L 136.378906 1012 Z M 136.378906 206.84375 " clip-rule="nonzero"/></clipPath></defs><g clip-path="url(#33784a7cd6)"><path fill="#5b3e36" d="M 322.84375 973.941406 C 351.351562 927.527344 351.398438 854.828125 314.664062 812.902344 L 314.488281 812.699219 L 314.625 812.46875 C 320.386719 802.425781 324.726562 792.925781 328.34375 781.953125 C 331.539062 772.277344 334.3125 763.296875 338.507812 753.9375 C 326.765625 742.992188 314.738281 732.292969 303.164062 721.183594 C 294.316406 712.691406 285.816406 703.894531 278.546875 693.988281 C 260.839844 669.859375 251.558594 639.230469 243.734375 610.699219 L 227.253906 607.03125 L 227.171875 606.902344 C 212.960938 585.183594 202.519531 542.144531 203.347656 516.378906 C 203.5 511.679688 204.691406 497.488281 212.273438 505.792969 C 220.933594 515.273438 231.015625 545.71875 235.492188 559.554688 C 241.09375 470.066406 294.285156 440.167969 368.464844 404.542969 C 387.257812 396.28125 406.4375 387.492188 423.125 375.414062 C 439.46875 363.589844 453.875 348.375 467.730469 333.789062 L 468.046875 333.457031 L 468.308594 333.835938 C 481.929688 353.421875 496.675781 370.980469 513.097656 388.230469 C 524.449219 400.148438 536.871094 412.035156 546.699219 425.238281 C 556.894531 438.941406 563.046875 452.945312 566.726562 469.644531 C 571.925781 493.246094 571.910156 519.796875 570.832031 543.957031 C 576.632812 530.3125 586.183594 509.695312 596.632812 499.980469 C 602.230469 494.773438 608.804688 492.539062 613.28125 500.179688 C 617.757812 507.820312 617.839844 521.261719 617.222656 529.832031 C 616.191406 544.125 612.570312 558.894531 607.164062 572.148438 C 600.089844 589.480469 593.222656 624.101562 567.203125 607.277344 C 561.960938 623.125 556.683594 639.140625 550.605469 654.683594 C 546.476562 665.242188 541.90625 675.519531 536.132812 685.292969 C 530.574219 694.699219 524.0625 703.355469 517.191406 711.835938 C 507.441406 723.871094 497.195312 735.59375 487.15625 747.390625 C 488.933594 771.542969 499.773438 796.519531 510.171875 818.117188 C 522.460938 843.644531 536.285156 868.425781 547.234375 894.59375 C 571.695312 953.0625 574.523438 1004.503906 530.539062 1054.625 C 552.945312 1041.34375 577.277344 1025.699219 595.625 1007.308594 C 608.535156 994.367188 617.890625 980.472656 623.089844 962.863281 C 628.128906 945.808594 628.871094 927.007812 629.390625 909.324219 C 630.136719 883.914062 630.589844 859 632.878906 833.613281 C 635.445312 815.640625 645.453125 799.519531 651.3125 782.558594 C 679.667969 700.457031 684.242188 607.78125 645.890625 528.011719 C 631.871094 498.847656 637.480469 477.109375 639.089844 446.511719 C 643.421875 392.097656 627.492188 331.652344 596.238281 286.769531 C 563.308594 239.480469 514.867188 211.121094 455.949219 217.691406 C 431.804688 212.382812 398.925781 204.109375 374.519531 207.921875 C 223.804688 231.464844 192.722656 320.898438 188.613281 459.980469 C 187.027344 513.679688 171.507812 569.308594 158.109375 621.257812 C 151.660156 646.261719 145.175781 671.5625 140.816406 697.027344 C 137.261719 717.816406 134.777344 740.597656 137.601562 761.605469 C 150.972656 861.132812 329.609375 944.585938 245.398438 1055.007812 C 334.476562 1007.027344 330.835938 948.605469 298.402344 861.222656 L 297.550781 858.921875 L 299.050781 860.867188 C 329.253906 899.996094 328.027344 927.664062 322.84375 973.941406 Z M 322.84375 973.941406 " fill-opacity="1" fill-rule="evenodd"/></g></svg>