<svg xmlns="http://www.w3.org/2000/svg" xmlns:xlink="http://www.w3.org/1999/xlink" width="1080" zoomAndPan="magnify" viewBox="0 0 810 1012.49997" height="1350" preserveAspectRatio="xMidYMid meet" version="1.0"><path fill="#000000" d="M 568.335938 312.027344 C 558.996094 260.636719 546.761719 219.664062 500.875 196.96875 C 507.5 190.667969 511.917969 183.46875 513.90625 175.335938 C 519.386719 152.957031 505.941406 128.617188 492.28125 110.832031 C 474.367188 72.59375 434.121094 45.355469 384.03125 61.894531 C 364.558594 68.207031 348.90625 83.175781 339.664062 100.8125 C 332.007812 110.011719 323.652344 123.613281 320.289062 141.613281 C 317.660156 155.699219 322.007812 173.28125 331.578125 188.429688 C 326.0625 190.050781 320.613281 191.828125 315.328125 193.941406 C 264.097656 215.914062 251.265625 258.3125 241.503906 312.027344 C 236.96875 337.773438 240.582031 388.21875 248.035156 430.035156 C 252.597656 455.648438 260.902344 482.667969 265.046875 489.5 C 269.191406 496.332031 276.296875 499.148438 276.246094 490.917969 C 276.203125 483.527344 264.039062 440.148438 268.5 420.875 C 329.097656 425.789062 366.121094 371.867188 382.03125 313.394531 C 384.210938 308.652344 386.316406 303.945312 388.449219 299.234375 C 398.859375 276.214844 463.90625 247.703125 489.519531 311.367188 C 499.613281 343.84375 504.242188 376.003906 539.046875 386.089844 C 541.367188 391.132812 543.792969 397.589844 546.925781 406.191406 C 557.921875 436.375 536.53125 479.386719 536.25 492.566406 C 535.96875 505.75 544.785156 489.503906 544.785156 489.503906 C 551.382812 477.765625 557.507812 454.644531 562.109375 428.324219 C 569.355469 386.847656 572.808594 337.421875 568.335938 312.027344 Z M 325.871094 142.621094 C 326.605469 138.6875 327.28125 136.027344 330.644531 131.878906 C 330.511719 134 330.460938 136.117188 330.535156 138.214844 C 330.792969 151.007812 334.515625 170.367188 342.53125 185.609375 C 341.417969 185.871094 336.859375 186.753906 335.75 187.03125 C 326.289062 173.027344 323.464844 155.484375 325.871094 142.621094 Z M 270.613281 415.316406 C 270.628906 415.296875 270.632812 415.265625 270.648438 415.246094 C 275.515625 407.90625 315.949219 404.398438 342.335938 374.871094 C 351.765625 364.320312 358.941406 354.636719 364.828125 345.460938 C 346.503906 386.421875 315.609375 418.144531 270.613281 415.316406 Z M 496.304688 194.878906 C 494.679688 194.238281 490.144531 192.382812 488.496094 191.792969 C 495.769531 183.800781 500.867188 174.75 501.875 165.097656 C 502.757812 156.515625 502.414062 147.792969 501.03125 139.203125 C 506.296875 150.421875 512.65625 162.601562 509.941406 173.691406 C 508.097656 181.234375 503.175781 189.082031 496.304688 194.878906 Z M 512.554688 359.273438 C 516.171875 363.242188 520.496094 366.652344 526.25 370.164062 C 529.839844 372.355469 532.535156 374.96875 534.988281 378.644531 C 524.667969 374.335938 517.703125 367.554688 512.554688 359.273438 Z M 512.554688 359.273438 " fill-opacity="1" fill-rule="nonzero"/><path fill="#d1bb9f" d="M 263.78125 377.695312 C 263.78125 377.695312 264.464844 377.511719 265.746094 377.167969 C 267.011719 376.789062 268.925781 376.402344 271.253906 375.558594 C 275.980469 374.128906 282.519531 371.410156 290.019531 367.511719 C 305.027344 359.746094 323.234375 345.824219 337.925781 328.738281 C 345.390625 320.292969 351.3125 310.636719 356.058594 301.1875 C 360.847656 291.761719 364.675781 282.5625 369.382812 275.410156 C 371.691406 271.820312 374.273438 268.8125 376.914062 266.554688 C 379.539062 264.269531 382.160156 262.71875 384.386719 261.632812 C 386.644531 260.597656 388.488281 259.960938 389.765625 259.601562 C 391.042969 259.246094 391.722656 259.058594 391.722656 259.058594 C 391.722656 259.058594 391.050781 259.269531 389.785156 259.660156 C 388.523438 260.0625 386.703125 260.757812 384.496094 261.855469 C 382.320312 263.003906 379.777344 264.621094 377.273438 266.953125 C 374.746094 269.261719 372.316406 272.292969 370.050781 275.84375 C 365.480469 282.949219 361.757812 292.160156 357.054688 301.683594 C 352.398438 311.226562 346.5 321.078125 339.054688 329.695312 C 324.019531 346.792969 305.578125 360.5625 290.382812 368.21875 C 286.597656 370.164062 283.011719 371.703125 279.796875 372.957031 C 276.5625 374.175781 273.710938 375.140625 271.320312 375.796875 C 268.960938 376.566406 267.042969 376.890625 265.761719 377.230469 C 264.472656 377.535156 263.78125 377.695312 263.78125 377.695312 Z M 285.417969 340.976562 C 285.417969 340.976562 286.546875 340.34375 288.519531 339.238281 C 289.523438 338.710938 290.710938 338.015625 291.960938 337.070312 C 293.226562 336.140625 294.730469 335.234375 296.179688 333.949219 C 299.1875 331.554688 302.472656 328.46875 305.585938 324.804688 C 307.253906 323.074219 308.636719 320.992188 310.222656 319.03125 C 311.601562 316.917969 313.160156 314.875 314.398438 312.625 C 317.160156 308.296875 319.382812 303.648438 321.289062 299.234375 C 323.144531 294.792969 324.609375 290.535156 325.601562 286.804688 C 326.578125 283.074219 327.175781 279.90625 327.460938 277.664062 C 327.648438 275.414062 327.753906 274.125 327.753906 274.125 C 327.753906 274.125 327.738281 275.421875 327.710938 277.6875 C 327.546875 279.945312 327.273438 283.195312 326.410156 287 C 324.765625 294.625 321.105469 304.492188 315.660156 313.394531 C 314.371094 315.660156 312.761719 317.722656 311.335938 319.847656 C 309.695312 321.824219 308.265625 323.914062 306.542969 325.65625 C 303.332031 329.34375 299.804688 332.285156 296.683594 334.609375 C 295.1875 335.863281 293.566406 336.6875 292.230469 337.53125 C 290.898438 338.398438 289.671875 339.003906 288.632812 339.460938 C 286.589844 340.425781 285.417969 340.976562 285.417969 340.976562 Z M 498.96875 277.34375 C 498.96875 277.34375 501.167969 283.582031 504.46875 292.9375 C 507.769531 302.28125 512.855469 314.519531 519.328125 326 C 521.019531 328.824219 522.511719 331.773438 524.339844 334.449219 C 526.058594 337.199219 527.851562 339.839844 529.730469 342.289062 C 531.488281 344.835938 533.5 347.039062 535.308594 349.21875 C 537.101562 351.410156 539.109375 353.195312 540.800781 354.996094 C 542.535156 356.753906 544.328125 358.144531 545.796875 359.523438 C 547.253906 360.917969 548.707031 361.902344 549.867188 362.761719 C 552.199219 364.476562 553.53125 365.453125 553.53125 365.453125 C 553.53125 365.453125 552.144531 364.550781 549.722656 362.964844 C 548.511719 362.164062 546.996094 361.253906 545.460938 359.9375 C 543.910156 358.648438 542.015625 357.335938 540.253906 355.578125 C 538.515625 353.792969 536.453125 352.027344 534.601562 349.851562 C 532.738281 347.691406 530.664062 345.496094 528.84375 342.964844 C 526.898438 340.527344 525.042969 337.898438 523.253906 335.15625 C 521.355469 332.484375 519.792969 329.546875 518.039062 326.71875 C 511.726562 315.011719 506.855469 302.625 503.71875 293.203125 C 502.09375 288.503906 501.042969 284.496094 500.214844 281.71875 C 499.421875 278.933594 498.96875 277.34375 498.96875 277.34375 Z M 364.441406 105.585938 C 364.441406 105.585938 364.152344 107.226562 363.648438 110.101562 C 363.292969 111.527344 363.363281 113.308594 363.242188 115.316406 C 363.050781 117.328125 363.285156 119.601562 363.402344 122.082031 C 363.40625 124.570312 364.074219 127.207031 364.441406 130.023438 C 365.078125 132.789062 365.726562 135.730469 366.714844 138.667969 C 367.714844 141.609375 368.777344 144.628906 370.21875 147.554688 C 371.4375 150.582031 373.261719 153.355469 374.824219 156.261719 C 376.699219 158.96875 378.316406 161.875 380.484375 164.304688 C 382.429688 166.921875 384.71875 169.152344 386.933594 171.316406 C 389.234375 173.359375 391.582031 175.257812 393.957031 176.777344 C 396.402344 178.207031 398.65625 179.683594 401.019531 180.457031 C 402.167969 180.925781 403.265625 181.371094 404.3125 181.796875 C 405.40625 182.066406 406.445312 182.320312 407.421875 182.558594 C 409.375 183.074219 411.09375 183.46875 412.558594 183.445312 C 415.464844 183.628906 417.125 183.734375 417.125 183.734375 C 417.125 183.734375 415.457031 183.71875 412.539062 183.695312 C 411.0625 183.792969 409.316406 183.496094 407.3125 183.082031 C 406.304688 182.890625 405.234375 182.6875 404.105469 182.476562 C 403.03125 182.070312 401.902344 181.644531 400.722656 181.199219 C 398.292969 180.449219 395.972656 178.992188 393.449219 177.578125 C 390.996094 176.074219 388.570312 174.183594 386.183594 172.144531 C 383.890625 169.984375 381.511719 167.75 379.480469 165.125 C 377.226562 162.683594 375.515625 159.769531 373.5625 157.03125 C 372.023438 154.042969 370.226562 151.183594 369.039062 148.085938 C 367.632812 145.085938 366.609375 142 365.65625 139 C 364.710938 136.003906 364.105469 133.007812 363.515625 130.195312 C 363.195312 127.332031 362.566406 124.660156 362.609375 122.128906 C 362.503906 119.617188 362.402344 117.3125 362.710938 115.273438 C 362.949219 113.242188 362.972656 111.449219 363.40625 110.046875 C 364.066406 107.210938 364.441406 105.585938 364.441406 105.585938 Z M 364.441406 105.585938 " fill-opacity="1" fill-rule="nonzero"/></svg>