<svg xmlns="http://www.w3.org/2000/svg" xmlns:xlink="http://www.w3.org/1999/xlink" width="1080" zoomAndPan="magnify" viewBox="0 0 810 1012.49997" height="1350" preserveAspectRatio="xMidYMid meet" version="1.0"><defs><filter x="0%" y="0%" width="100%" height="100%" id="80e2a8feb8"><feColorMatrix values="0 0 0 0 1 0 0 0 0 1 0 0 0 0 1 0 0 0 1 0" color-interpolation-filters="sRGB"/></filter><mask id="e8f1c713ea"><g filter="url(#80e2a8feb8)"><rect x="-81" width="972" fill="#000000" y="-101.249997" height="1214.999964" fill-opacity="0.495"/></g></mask><clipPath id="1e0b88b649"><path d="M 1 1 L 282.667969 1 L 282.667969 711.984375 L 1 711.984375 Z M 1 1 " clip-rule="nonzero"/></clipPath><clipPath id="d2a73170c5"><rect x="0" width="283" y="0" height="712"/></clipPath><mask id="7e22cecd7c"><g filter="url(#80e2a8feb8)"><rect x="-81" width="972" fill="#000000" y="-101.249997" height="1214.999964" fill-opacity="0.502"/></g></mask><clipPath id="424a4e0fdb"><path d="M 0.167969 1 L 354 1 L 354 359 L 0.167969 359 Z M 0.167969 1 " clip-rule="nonzero"/></clipPath><clipPath id="8ac7103c0b"><rect x="0" width="355" y="0" height="361"/></clipPath></defs><path fill="#000000" d="M 665.386719 481.871094 C 695.476562 508.253906 710.355469 554.042969 698.007812 592.59375 C 695.375 601.90625 691.253906 610.601562 685.898438 618.636719 C 682.707031 624.066406 678.925781 629.523438 673.644531 633.027344 C 673.894531 632.144531 674.171875 631.261719 674.480469 630.40625 C 674.230469 630.6875 673.980469 630.953125 673.714844 631.214844 C 679.085938 618.445312 678.21875 603.628906 675.230469 590.28125 C 673.90625 583.648438 671.613281 577.320312 668.507812 571.417969 C 671.554688 585.691406 670.082031 601.097656 664.609375 614.605469 C 660.195312 626.714844 652.96875 637.457031 648.351562 649.476562 C 648.097656 650.242188 647.847656 651.007812 647.597656 651.773438 C 647.230469 656.304688 646.90625 660.910156 646.082031 665.351562 C 646.140625 667.234375 646.214844 669.121094 646.304688 671.003906 C 646.539062 672.710938 646.789062 674.429688 646.996094 676.167969 C 647.863281 678.652344 648.996094 681.050781 650.4375 683.289062 C 655.542969 690.261719 662.859375 695.929688 671.140625 698.429688 C 672.570312 698.648438 674.011719 698.914062 675.4375 699.09375 C 677.71875 698.695312 680 698.371094 682.324219 698.339844 C 682.03125 698.605469 681.71875 698.855469 681.410156 699.09375 C 675.128906 706.050781 664.636719 709.628906 655.28125 707.433594 C 652.675781 706.875 650.085938 705.992188 647.585938 704.859375 C 647.777344 705.242188 647.980469 705.625 648.171875 705.992188 C 654.898438 719.484375 658.148438 734.730469 656.53125 749.765625 C 653.910156 769.320312 643.980469 787.976562 629.441406 801.207031 C 622.554688 807.105469 615.980469 814.15625 607.3125 817.257812 C 609.34375 813.800781 611.917969 810.828125 614.714844 808.09375 C 617.363281 803.324219 619.894531 798.484375 622.378906 793.703125 C 625.660156 786.109375 627.558594 777.898438 627.734375 769.644531 C 627.75 769.761719 627.75 769.835938 627.75 769.9375 C 627.75 764.671875 626.957031 759.523438 625.351562 754.5625 C 625.367188 757.226562 625.277344 759.859375 625.191406 762.449219 C 624.203125 781.828125 613.992188 799.132812 602.265625 814.035156 C 597.367188 821.011719 591.289062 827.191406 585.183594 833.03125 C 585.078125 833.164062 584.949219 833.296875 584.816406 833.429688 C 584.828125 833.398438 584.84375 833.371094 584.84375 833.339844 C 583.695312 834.460938 582.535156 835.546875 581.355469 836.652344 C 583.210938 832.796875 585.417969 829.132812 587.816406 825.601562 C 589.613281 821.171875 591.523438 816.757812 593.304688 812.300781 C 586.625 822.777344 574.074219 834.53125 563.289062 838.902344 C 561.816406 839.949219 560.332031 840.933594 558.816406 841.800781 C 566.804688 832.0625 573.941406 821.097656 578.121094 809.226562 C 584.257812 790.332031 581.019531 769.054688 570.601562 752.3125 C 568.777344 749.238281 566.761719 746.277344 564.613281 743.410156 C 559.875 738.4375 555.476562 733.109375 551.707031 727.371094 C 551.398438 727.003906 551.074219 726.621094 550.78125 726.253906 C 550.765625 726.253906 550.765625 726.238281 550.753906 726.222656 C 548.617188 724.324219 546.75 721.988281 545.234375 719.398438 C 545.910156 722.265625 546.78125 725.089844 547.867188 727.84375 C 556.902344 748.089844 573.765625 760.273438 568.804688 784.667969 C 567.335938 777.78125 566.070312 770.777344 563.289062 764.273438 C 561.359375 761.039062 559.199219 757.933594 556.976562 754.855469 C 554.886719 752.53125 552.769531 750.207031 550.957031 747.675781 C 546.484375 741.613281 541.613281 735.816406 537.480469 729.503906 C 518.160156 698.445312 520.117188 668.664062 540.9375 639.414062 C 545.71875 629.671875 550.648438 620.003906 554.105469 609.703125 C 557.152344 600.683594 560.214844 591.472656 560.226562 581.882812 C 559.742188 567.417969 554.785156 553.617188 550.871094 539.800781 C 550.0625 537.09375 549.574219 534.3125 549.324219 531.5 C 545.984375 518.582031 545.925781 503.367188 547.457031 488.167969 C 547.234375 488.582031 547 488.976562 546.78125 489.375 C 548.382812 479.265625 548.074219 469.085938 549.648438 459.019531 C 551.621094 441.585938 551.578125 424.105469 553.296875 406.667969 C 555.902344 385.390625 557.050781 363.628906 551.707031 342.664062 C 545.617188 319.015625 531.566406 298.59375 518.792969 278.128906 C 497.695312 245.699219 479.507812 230.175781 441.046875 221.757812 C 424.550781 217.917969 403.261719 215.753906 395.683594 198.203125 C 395.433594 198.804688 394.875 199.21875 394.269531 199.378906 C 394.253906 201.234375 394.183594 203.070312 393.992188 204.925781 C 387.855469 195.214844 388.546875 182.929688 389.972656 171.96875 C 394.636719 140.730469 420.695312 114.496094 451.242188 107.652344 C 459.496094 105.652344 469.046875 105.003906 476.699219 108.992188 C 469.589844 108.359375 462.46875 109.609375 455.523438 111.316406 C 435.910156 119.6875 419.769531 136.890625 415.105469 157.914062 C 414.914062 158.84375 414.753906 159.769531 414.648438 160.710938 C 421.433594 150.734375 431.71875 143.203125 442.324219 137.582031 C 456.980469 128.972656 474.195312 125.5 491.074219 127.558594 C 507.773438 129.574219 521.308594 135.578125 532.433594 144.363281 C 535.375 146.171875 538.230469 148.101562 541.070312 150.058594 C 563.4375 164.550781 578.046875 187.945312 586.84375 212.679688 C 594.085938 232.339844 598.511719 253.347656 600.808594 274.066406 C 602.339844 292.695312 603.148438 311.335938 605.53125 329.789062 C 607.84375 350.578125 612.316406 371.238281 619.773438 390.746094 C 623.144531 399.765625 627.457031 408.550781 634.460938 415.261719 C 641.125 421.324219 648.304688 427.398438 656.882812 430.503906 C 662.0625 432.226562 667.492188 432.578125 672.6875 434.035156 C 674.039062 434.109375 675.378906 434.125 676.734375 434.09375 C 682.5 433.933594 688.679688 434.300781 694.199219 432.695312 L 694.199219 432.683594 C 694.183594 432.609375 693.875 432.5625 693.933594 432.492188 C 694.625 432.445312 694.375 433.003906 693.976562 433.242188 C 689.152344 440.214844 681.484375 444.304688 673.730469 447.308594 C 664.210938 451.117188 653.925781 453.765625 643.640625 452.074219 C 640.90625 451.664062 638.226562 451.015625 635.59375 450.164062 C 638.183594 453.855469 641.082031 457.355469 644.273438 460.460938 C 651.128906 467.804688 658.164062 474.925781 665.386719 481.871094 Z M 665.386719 481.871094 " fill-opacity="1" fill-rule="nonzero"/><g mask="url(#e8f1c713ea)"><g transform="matrix(1, 0, 0, 1, 388, 130)"><g clip-path="url(#d2a73170c5)"><g clip-path="url(#1e0b88b649)"><path fill="#1c1a1b" d="M 192.269531 390.582031 C 192.710938 391.128906 193.136719 391.671875 193.5625 392.203125 C 193.355469 391.480469 193.136719 390.757812 192.914062 390.039062 C 192.710938 389.496094 192.503906 388.921875 192.28125 388.332031 C 192.28125 389.082031 192.28125 389.832031 192.269531 390.582031 Z M 172.535156 619.488281 C 164.886719 610.953125 159.5 600.253906 156.644531 589.277344 C 152.410156 570.019531 159.605469 549.917969 170.535156 534.117188 C 171.726562 532.570312 173.507812 529.644531 174.863281 529.230469 C 172.449219 535.058594 171.890625 541.472656 170.433594 547.578125 C 159.164062 602.007812 172.609375 589.824219 189.753906 632.640625 C 188.941406 632.242188 188.148438 631.832031 187.355469 631.40625 C 186 628.257812 184.398438 625.195312 182.585938 622.269531 C 180.761719 619.191406 178.746094 616.234375 176.597656 613.367188 C 171.859375 608.390625 167.460938 603.066406 163.695312 597.328125 C 163.386719 596.960938 163.0625 596.578125 162.765625 596.210938 C 162.753906 596.210938 162.753906 596.195312 162.738281 596.179688 C 160.605469 594.28125 158.734375 591.941406 157.21875 589.351562 C 157.898438 592.222656 158.765625 595.046875 159.855469 597.796875 C 163.488281 605.890625 168.34375 612.6875 172.535156 619.488281 Z M 1.28125 60.492188 C 1.238281 60.050781 1.195312 59.609375 1.148438 59.167969 C 5.578125 55.253906 10.476562 52.132812 15.703125 49.664062 C 16.511719 38.804688 23.691406 24.53125 30.328125 17.808594 C 28.960938 21.058594 27.871094 24.441406 27.105469 27.929688 C 26.914062 28.855469 26.753906 29.785156 26.648438 30.726562 C 33.433594 20.75 43.71875 13.214844 54.324219 7.59375 C 58.402344 5.195312 62.683594 3.195312 67.097656 1.605469 C 60.152344 9.40625 52.839844 16.925781 48.085938 26.324219 C 47.894531 26.722656 47.691406 27.121094 47.5 27.503906 C 63.976562 14.4375 86.429688 9.023438 106.28125 17.910156 C 108.429688 18.808594 110.769531 19.777344 112.609375 21.074219 C 108.824219 20.660156 105 20.71875 101.203125 20.808594 C 82.296875 21.707031 62.050781 26.8125 48.660156 40.6875 C 49.910156 40.570312 51.164062 40.511719 52.457031 40.523438 C 52.605469 40.523438 52.738281 40.523438 52.882812 40.523438 C 62.519531 33.667969 73.6875 28.105469 85.5625 26.945312 C 108.324219 22.722656 132.015625 30.902344 148.582031 46.691406 C 150.820312 48.882812 153.1875 51.191406 154.203125 54.136719 C 152.097656 52 149.246094 50.898438 146.582031 49.78125 C 123.953125 40.953125 101.953125 32.726562 79.707031 38.878906 C 82.738281 38.878906 85.753906 39.1875 88.800781 39.832031 C 109.753906 44.894531 129.203125 56.726562 145.140625 71.042969 C 147.316406 73.351562 149.449219 75.925781 151.539062 78.722656 C 157.777344 85.976562 163.707031 94.703125 168.695312 104.03125 C 180.734375 119.773438 194.535156 175.523438 194.84375 182.691406 C 199.15625 199.007812 201.183594 215.898438 203.863281 232.613281 C 211.675781 251.640625 218.546875 270.988281 227.90625 289.292969 C 228.40625 289.867188 228.921875 290.425781 229.421875 290.984375 C 235.984375 298.03125 240.824219 306.773438 248.667969 312.539062 C 251.960938 315.558594 257.832031 318.601562 261.230469 320.867188 C 261.71875 321.117188 262.203125 321.367188 262.703125 321.632812 C 263.234375 321.957031 263.761719 322.265625 264.25 322.5625 C 261.394531 322.691406 258.523438 322.5625 255.671875 322.089844 C 252.933594 321.679688 250.257812 321.03125 247.621094 320.175781 C 250.210938 323.871094 253.109375 327.371094 256.304688 330.476562 C 258.140625 332.449219 260.011719 334.40625 261.878906 336.347656 C 261.085938 336.140625 260.289062 335.921875 259.496094 335.671875 C 256.863281 335.683594 254.257812 335.523438 251.625 335.097656 C 237.75 334.273438 225.199219 326.914062 215.015625 316.320312 C 216.972656 328.871094 218.695312 341.453125 222.816406 353.402344 C 226.699219 362.757812 233.804688 370.085938 239.71875 378.148438 C 246.886719 387.726562 253.09375 397.96875 260.054688 407.710938 C 269.664062 418.996094 277.566406 432.898438 281.539062 447.527344 C 283.066406 459.988281 281.316406 472.964844 276.609375 484.5625 C 276.035156 486.121094 275.429688 487.664062 274.785156 489.195312 C 269.515625 478 267.25 465.507812 263.160156 454.042969 C 258.511719 443.671875 253.390625 433.296875 247.976562 423.160156 C 247.476562 422.542969 246.976562 421.921875 246.460938 421.304688 C 249.433594 440.066406 248.59375 459.488281 242.898438 477.46875 C 239.910156 485.324219 237.367188 493.449219 233.410156 500.878906 C 232.320312 502.851562 231.15625 504.746094 229.921875 506.617188 C 229.4375 507.734375 228.789062 508.765625 228.15625 509.824219 C 222.285156 519.078125 217.664062 529.230469 215.621094 540.046875 C 215.191406 543.886719 214.972656 547.757812 214.957031 551.625 C 216.398438 561.191406 215.75 570.960938 219.386719 580.097656 C 220.769531 583.71875 222.371094 587.410156 224.019531 591.175781 C 232.9375 602.699219 239 616.617188 238.984375 631.066406 C 238.585938 628.859375 238.058594 626.667969 237.367188 624.535156 C 237.382812 627.195312 237.292969 629.832031 237.203125 632.421875 C 236.21875 651.796875 226.007812 669.101562 214.28125 684.007812 C 209.378906 690.980469 203.304688 697.160156 197.199219 703.003906 C 197.09375 703.136719 196.960938 703.269531 196.828125 703.398438 C 196.84375 703.371094 196.859375 703.339844 196.859375 703.3125 C 195.710938 704.429688 194.550781 705.519531 193.371094 706.621094 C 195.226562 702.765625 197.433594 699.105469 199.832031 695.574219 C 201.625 691.144531 203.539062 686.730469 205.320312 682.269531 C 198.640625 692.746094 186.089844 704.503906 175.304688 708.875 C 173.832031 709.917969 172.347656 710.902344 170.832031 711.773438 C 171.433594 711.050781 172.007812 710.316406 172.609375 709.578125 C 175.316406 708.445312 177.878906 706.988281 180.1875 705.019531 C 198.757812 689.171875 204.320312 670.351562 205.277344 649.664062 C 204.761719 647.707031 204.289062 645.734375 203.878906 643.75 C 202.847656 638.511719 202.054688 633.214844 201.449219 627.886719 C 201.316406 627.359375 201.199219 626.8125 201.066406 626.285156 C 200.109375 624.667969 199.257812 622.960938 198.582031 621.121094 C 187.441406 597.195312 186.542969 570.121094 190.089844 544.359375 C 194.359375 521.550781 205.746094 500.496094 208.511719 477.4375 C 209.378906 458.695312 206.054688 440.476562 200.039062 422.792969 C 199.273438 420.054688 198.640625 417.273438 198.082031 414.476562 C 196.785156 412.832031 195.417969 411.152344 193.960938 409.386719 C 195.667969 418.832031 197.402344 428.265625 197.359375 437.933594 C 198.535156 463.226562 190.78125 489.636719 173.964844 508.882812 C 169.710938 513.929688 164.605469 518.078125 159.414062 522.125 C 157.101562 525.023438 154.925781 527.90625 153.101562 530.761719 C 143.007812 548.09375 140.09375 569.0625 143.609375 588.691406 C 130.898438 561.515625 134.589844 535.265625 152.96875 509.414062 C 157.75 499.671875 162.679688 490.003906 166.136719 479.703125 C 169.183594 470.683594 172.242188 461.472656 172.257812 451.882812 C 171.773438 437.417969 166.8125 423.617188 162.898438 409.800781 C 162.089844 407.09375 161.605469 404.3125 161.355469 401.5 C 158.015625 388.582031 157.957031 373.367188 159.484375 358.167969 C 159.265625 358.582031 159.03125 358.976562 158.808594 359.375 C 160.414062 349.265625 160.105469 339.085938 161.679688 329.019531 C 163.5625 312.261719 163.605469 295.457031 165.136719 278.683594 C 166.078125 276.183594 167.652344 274.167969 170.402344 273.121094 C 170.609375 266.605469 167.152344 250.285156 178.628906 254.054688 C 177.894531 243.488281 176.628906 232.96875 175.304688 222.449219 C 175.523438 215.796875 170.257812 205.46875 177.230469 201.15625 C 175.066406 190.0625 172.347656 179.070312 168.917969 168.300781 C 168.019531 170.152344 167.003906 171.933594 165.871094 173.640625 C 163.78125 166.121094 163.578125 158.53125 163.398438 150.910156 C 161.605469 145.550781 159.308594 140.433594 155.261719 136.578125 C 154.761719 136.164062 154.054688 136.03125 153.601562 135.722656 C 157.265625 135.53125 160.355469 137.59375 163.003906 140.078125 C 162.945312 139.210938 162.855469 138.34375 162.78125 137.476562 C 162.621094 136.253906 162.457031 135.015625 162.265625 133.796875 C 161.8125 133.164062 161.339844 132.546875 160.867188 131.925781 C 144.90625 104.765625 120.316406 81.914062 91.109375 69.746094 C 77.308594 64.480469 62.859375 61.492188 48.203125 59.578125 C 45.703125 62.109375 43.1875 64.582031 40.421875 66.773438 C 40.671875 64.125 41.097656 61.433594 41.746094 58.800781 C 40.316406 58.636719 38.875 58.492188 37.433594 58.34375 C 36.550781 58.667969 35.683594 58.976562 34.800781 59.300781 C 31.476562 63.449219 27.898438 67.347656 23.882812 70.804688 C 24.042969 67.953125 24.425781 65.125 25.03125 62.375 C 22.5 62.976562 19.878906 63.40625 17.128906 63.539062 C 14.9375 63.875 12.539062 64.066406 9.90625 64.097656 C 10.183594 63.816406 10.492188 63.550781 10.773438 63.273438 C 9.082031 63.050781 7.34375 62.714844 5.503906 62.226562 C 6.785156 61.523438 8.050781 60.816406 9.332031 60.109375 C 6.636719 60.417969 3.988281 60.550781 1.28125 60.492188 Z M 1.28125 60.492188 " fill-opacity="1" fill-rule="evenodd"/></g></g></g></g><path fill="#1c1a1b" d="M 549.914062 456.621094 C 550.382812 455.136719 550.871094 453.664062 551.339844 452.179688 C 554.429688 442.054688 557.402344 431.859375 559.125 421.398438 C 561.167969 414.273438 559.316406 403.035156 567.160156 399.429688 C 568.070312 391.4375 569.160156 383.375 571.261719 375.605469 C 571.117188 373.089844 570.96875 370.589844 570.820312 368.089844 C 570.308594 358.964844 569.496094 349.859375 568.910156 340.75 C 565.90625 334.230469 563.273438 327.550781 562.273438 320.414062 C 563.90625 321.578125 565.464844 322.785156 566.953125 324.0625 C 561.609375 306.496094 554.121094 289.558594 544.882812 273.726562 C 540.171875 265.929688 536.789062 257.351562 532.859375 249.097656 C 526.28125 242.269531 519.089844 236.03125 511.347656 230.511719 C 505.757812 226.261719 500.269531 221.597656 495.472656 216.578125 C 501.035156 216.726562 506.875 217.609375 512.070312 219.699219 C 538.40625 233.367188 557.402344 258.984375 571.070312 284.777344 C 578.621094 298.359375 582.785156 313.410156 584.933594 328.730469 C 586.152344 332.671875 587.257812 336.644531 588.273438 340.648438 C 591.1875 353.167969 592.128906 366.042969 592.554688 378.933594 C 594.320312 391.292969 594.804688 403.902344 595.144531 415.554688 C 596.777344 435.683594 590.039062 455.28125 589.699219 475.292969 C 590.214844 488.152344 589.921875 501.074219 592.246094 513.800781 C 592.953125 522.113281 593.527344 530.265625 593.746094 538.386719 C 594.601562 542.566406 595.351562 546.757812 595.734375 550.96875 C 598.335938 563.636719 600.425781 576.394531 600.441406 589.386719 C 600.425781 589.472656 600.46875 591.636719 599.808594 591.253906 C 599.792969 591.238281 599.808594 591.222656 599.824219 591.222656 C 599.851562 591.238281 599.867188 591.222656 599.910156 591.222656 C 599.925781 591.210938 599.941406 591.195312 599.957031 591.179688 C 590.640625 570.257812 582.667969 548.496094 579.914062 525.570312 C 578.28125 516.125 577.28125 506.5 575.808594 497.261719 C 575.367188 493.613281 575 489.964844 574.707031 486.3125 C 572.632812 501.765625 570.234375 517.183594 569.703125 532.765625 C 569.453125 555.382812 576.308594 579.011719 567.410156 600.699219 C 562.980469 611.53125 555.871094 621.019531 549.488281 630.746094 C 546.207031 636.292969 542.027344 641.546875 536.921875 645.429688 C 538.171875 643.429688 539.511719 641.414062 540.9375 639.414062 C 545.71875 629.671875 550.648438 620.003906 554.105469 609.703125 C 557.152344 600.683594 560.214844 591.472656 560.226562 581.882812 C 559.742188 567.417969 554.785156 553.617188 550.871094 539.800781 C 550.0625 537.09375 549.574219 534.3125 549.324219 531.5 C 545.984375 518.582031 545.925781 503.367188 547.457031 488.167969 C 547.234375 488.582031 547 488.976562 546.78125 489.375 C 548.382812 479.265625 548.074219 469.085938 549.648438 459.019531 C 549.738281 458.226562 549.839844 457.417969 549.914062 456.621094 Z M 549.914062 456.621094 " fill-opacity="1" fill-rule="evenodd"/><path fill="#1c1a1b" d="M 586.992188 235.089844 C 572.648438 215.886719 561.832031 194.082031 551.164062 172.777344 C 571.101562 186.519531 595.746094 208.164062 587.007812 235.089844 C 587.007812 235.089844 586.992188 235.089844 586.992188 235.089844 Z M 609.929688 718 C 590.230469 701.859375 597.394531 673.488281 611.476562 656.070312 C 608.59375 676.492188 612.949219 697.636719 609.929688 718 Z M 633.753906 717.042969 C 593.039062 697.695312 625.527344 655.214844 635.695312 626.625 C 640.199219 659.054688 619.554688 684.480469 633.753906 717.042969 Z M 686.53125 567.433594 C 679.96875 555.351562 674.90625 542.625 670.125 529.765625 C 663.121094 516.640625 655.382812 503.058594 645.128906 492.289062 C 674.304688 502.382812 698.921875 536.28125 686.53125 567.433594 Z M 675.46875 562.0625 C 656.367188 548.230469 648.097656 525.867188 636.945312 506.089844 C 636.929688 506.089844 636.929688 506.089844 636.929688 506.089844 C 636.871094 506.148438 636.976562 506.308594 636.902344 506.308594 C 636.535156 505.929688 636.945312 505.617188 637.433594 505.855469 C 641.800781 508.105469 645.582031 511.488281 649.484375 514.492188 C 663.769531 526.175781 677.234375 542.550781 675.46875 562.0625 Z M 492.675781 368.484375 C 491.585938 367.410156 490.527344 366.308594 489.5 365.203125 L 489.484375 365.203125 C 489.46875 365.175781 489.453125 365.160156 489.425781 365.128906 C 477.933594 353.140625 467.515625 340.058594 457.714844 326.640625 C 449.828125 315.765625 442.664062 304.082031 437.515625 291.621094 C 441 301.433594 445.355469 310.953125 450.167969 320.089844 C 457.539062 333.6875 466.589844 346.398438 478.140625 356.730469 C 482.789062 360.90625 487.6875 364.75 492.675781 368.484375 Z M 575.164062 364.75 C 579.238281 380.726562 581.871094 397.722656 577.398438 413.761719 C 574.472656 425.222656 569.511719 435.976562 565.511719 447.074219 C 561.671875 457.402344 556.625 467.363281 550.695312 476.574219 C 550.253906 482.164062 549.75 487.769531 548.824219 493.273438 C 548.808594 493.480469 548.796875 493.671875 548.765625 493.878906 C 546.175781 516.199219 537.730469 535.015625 524.105469 552.761719 C 517.101562 561.886719 509.304688 570.84375 499.386719 576.878906 C 495.855469 579.027344 491.925781 580.261719 487.96875 581.351562 C 487.953125 581.351562 487.953125 581.351562 487.953125 581.367188 C 485.511719 582.453125 483.007812 583.207031 480.421875 583.542969 C 489.820312 578.363281 496.648438 569.710938 503.285156 561.488281 C 512.40625 549.804688 517.367188 535.8125 522.441406 522.097656 C 522.457031 522.082031 522.457031 522.070312 522.472656 522.054688 C 522.722656 521.140625 522.957031 520.246094 523.191406 519.332031 C 530.433594 490.757812 528.871094 460.828125 526.945312 431.742188 C 526.796875 429.855469 526.664062 428.089844 526.535156 426.457031 C 525.855469 415.996094 524.488281 405.609375 523.265625 395.207031 C 520.925781 393.777344 518.707031 392.128906 516.617188 390.320312 C 511.671875 387.273438 507.125 383.449219 502.328125 380.167969 C 490.574219 371.753906 478.773438 363.246094 468.738281 352.800781 C 451.082031 334.539062 432.804688 298.933594 429.023438 273.816406 C 428.980469 273.066406 428.921875 272.300781 428.863281 271.535156 C 418.105469 288.132812 403.820312 302.363281 389.445312 315.882812 C 369.917969 334.820312 348.746094 352.242188 330.558594 372.503906 C 320.496094 383.742188 312.726562 396.664062 305 409.566406 C 298.675781 431.5625 294.421875 454.136719 292.757812 477 L 292.757812 476.867188 C 292.671875 480.707031 292.539062 484.476562 292.449219 488.109375 C 292.347656 502.910156 294.15625 517.714844 296.027344 532.382812 C 296.378906 533.632812 296.71875 534.886719 297.128906 536.105469 C 299.320312 543.109375 303.03125 549.570312 307.164062 555.617188 C 311.179688 559.308594 314.960938 563.164062 319.816406 565.679688 L 319.816406 565.667969 C 319.890625 565.695312 320.054688 565.652344 320.023438 565.710938 C 319.433594 565.945312 318.730469 565.710938 318.140625 565.59375 C 300.824219 560.089844 287.710938 544.65625 281.945312 527.777344 C 278.574219 517.507812 277.296875 506.707031 276.367188 495.964844 C 275.984375 508.253906 276.398438 520.566406 277.867188 532.824219 C 279.605469 543.140625 281.386719 553.496094 284.109375 563.589844 C 285.476562 568.125 287.550781 572.492188 289.050781 577.011719 C 288.964844 576.9375 288.875 576.863281 288.800781 576.789062 C 287.683594 575.789062 286.59375 574.730469 285.503906 573.699219 C 285.050781 573.257812 284.609375 572.800781 284.167969 572.347656 C 283.667969 571.832031 283.164062 571.316406 282.636719 570.800781 C 282.621094 570.773438 282.605469 570.757812 282.59375 570.742188 C 282.386719 570.523438 282.164062 570.285156 281.960938 570.066406 C 281.738281 569.832031 281.519531 569.59375 281.28125 569.359375 C 280.957031 568.992188 280.605469 568.636719 280.253906 568.269531 C 279.605469 567.578125 278.941406 566.886719 278.296875 566.195312 C 275.117188 562.339844 272.527344 557.941406 269.996094 553.792969 C 260.109375 538.328125 255.53125 520.273438 253.207031 502.265625 C 251.382812 490.167969 250.515625 477.972656 250.484375 465.773438 C 248.632812 462.140625 247.21875 458.242188 246.175781 454.339844 C 243.351562 447.558594 241.761719 440.171875 239.1875 433.316406 C 235.523438 422.914062 232.769531 412.230469 230.828125 401.355469 C 229.253906 392.703125 227.886719 383.816406 227.988281 374.988281 C 227.839844 373.78125 227.710938 372.574219 227.546875 371.382812 C 224.179688 346.679688 227.339844 323.917969 239.832031 302.640625 C 241.023438 294.769531 243.292969 287.160156 246.191406 281.484375 C 250.015625 274.097656 258.300781 264.53125 266.890625 260.074219 C 267.644531 255.792969 269.894531 251.832031 271.953125 248.023438 C 277.972656 235.488281 289.183594 227.085938 300.117188 219.050781 C 325.351562 199.46875 356.867188 188.300781 388.574219 185.738281 C 392.105469 185.535156 395.742188 185.386719 399.316406 185.519531 C 401.949219 185.371094 404.527344 185.34375 406.984375 185.402344 C 422.449219 185.121094 437.648438 188.003906 452.609375 191.640625 C 472.3125 195.921875 491.898438 202.953125 507.980469 215.402344 C 510.832031 217.652344 513.820312 219.847656 516.632812 222.230469 C 521.472656 225.703125 525.929688 229.703125 529.726562 234.367188 C 535.171875 241.695312 540.027344 250.230469 542.558594 259.25 C 543.351562 260.25 544.117188 261.324219 544.867188 262.429688 C 545.882812 263.3125 546.867188 264.265625 547.808594 265.195312 C 552.945312 270.726562 557.136719 277.171875 560.566406 283.867188 C 562.730469 288.265625 565.421875 292.621094 565.980469 297.578125 C 566.230469 299.714844 566.171875 301.859375 565.835938 303.964844 C 566.6875 305.453125 567.453125 307.039062 568.171875 308.585938 C 572.734375 321.164062 576.015625 334.746094 576.988281 348.078125 C 577.324219 353.726562 576.457031 359.289062 575.164062 364.75 Z M 535.214844 187.726562 C 539.394531 185.222656 546.015625 189.726562 550.03125 191.90625 C 570.425781 204.617188 582.621094 230.644531 576.472656 254.230469 C 559.402344 234.546875 558.140625 201.660156 535.214844 187.726562 Z M 535.214844 187.726562 C 535.140625 187.785156 535.039062 187.828125 534.964844 187.886719 C 534.964844 187.886719 534.964844 187.871094 534.964844 187.871094 C 534.992188 187.84375 535.007812 187.8125 535.039062 187.800781 C 535.082031 187.769531 535.125 187.742188 535.199219 187.710938 C 535.199219 187.710938 535.214844 187.726562 535.214844 187.726562 Z M 535.214844 187.726562 " fill-opacity="1" fill-rule="evenodd"/><path fill="#000000" d="M 557.949219 425.105469 C 558.183594 424.648438 558.390625 424.207031 558.550781 423.78125 C 558.328125 423.839844 558.109375 423.882812 557.886719 423.925781 C 557.902344 424.324219 557.933594 424.722656 557.949219 425.105469 Z M 277.617188 565.386719 C 277.558594 565.105469 277.484375 564.828125 277.414062 564.546875 C 273.011719 555.644531 271.304688 544.992188 269.660156 535.429688 C 265.847656 510.386719 267.070312 484.355469 275.898438 460.476562 C 276.515625 458.976562 277.117188 456.429688 277.867188 455.621094 C 277.808594 461.742188 278 467.90625 277.574219 474.042969 C 277.207031 481.679688 276.410156 489.285156 275.824219 496.910156 C 275.824219 496.9375 275.839844 496.96875 275.839844 496.996094 C 276 497.570312 276.132812 498.144531 276.28125 498.734375 C 276.03125 510.105469 276.484375 521.480469 277.839844 532.824219 C 279.574219 543.140625 281.355469 553.496094 284.078125 563.589844 C 285.445312 568.125 287.519531 572.492188 289.023438 577.011719 C 288.933594 576.9375 288.84375 576.863281 288.773438 576.789062 C 287.652344 575.789062 286.566406 574.730469 285.476562 573.699219 C 285.019531 573.257812 284.578125 572.800781 284.136719 572.347656 C 283.636719 571.832031 283.136719 571.316406 282.605469 570.800781 C 282.59375 570.773438 282.578125 570.757812 282.5625 570.742188 C 282.355469 570.523438 282.136719 570.285156 281.929688 570.066406 C 281.710938 569.832031 281.488281 569.59375 281.253906 569.359375 C 280.929688 568.992188 280.574219 568.636719 280.222656 568.269531 C 279.574219 567.578125 278.914062 566.886719 278.265625 566.195312 C 278.058594 565.929688 277.839844 565.652344 277.617188 565.386719 Z M 276.824219 501.085938 C 278.265625 507.621094 279.238281 514.269531 279.972656 520.949219 C 278.398438 514.449219 277.484375 507.765625 276.824219 501.085938 Z M 424.890625 277.347656 C 425.890625 267.445312 425.683594 257.394531 427.816406 247.609375 C 427.746094 246.285156 428.316406 245.140625 428.980469 246.183594 C 430.15625 255.203125 430.585938 266.136719 429.582031 276.980469 C 429.378906 275.90625 429.1875 274.847656 429.039062 273.800781 C 428.996094 273.050781 428.9375 272.285156 428.878906 271.519531 C 427.582031 273.492188 426.257812 275.433594 424.890625 277.347656 Z M 516.71875 390.410156 C 516.617188 389.101562 516.484375 387.777344 516.320312 386.480469 C 516.351562 386.6875 516.367188 386.730469 516.410156 386.996094 C 514.613281 369.664062 508.183594 353.402344 500.710938 337.808594 C 496.238281 328.566406 492.207031 318.605469 488.394531 309.234375 C 486.703125 305.773438 485.46875 301.847656 482.773438 299.066406 C 482.757812 299.066406 482.746094 299.066406 482.746094 299.066406 C 482.746094 299.066406 482.730469 299.066406 482.730469 299.066406 C 482.714844 299.34375 482.640625 299.199219 482.640625 299.050781 C 482.640625 298.960938 482.6875 298.859375 482.804688 298.902344 C 486.980469 300.609375 489.851562 304.628906 492.691406 307.96875 C 499.09375 316.117188 503.476562 325.519531 507.671875 334.921875 C 509.878906 339.515625 511.996094 344.191406 513.9375 348.960938 C 514.21875 349.859375 514.511719 350.753906 514.804688 351.667969 C 515.1875 353.152344 515.628906 354.625 516.058594 356.097656 C 516.410156 357.199219 516.75 358.316406 517.085938 359.40625 C 517.234375 359.863281 517.382812 360.335938 517.527344 360.789062 C 517.585938 360.980469 517.632812 361.203125 517.703125 361.394531 C 517.703125 361.394531 517.703125 361.410156 517.71875 361.410156 C 517.71875 361.421875 517.71875 361.4375 517.734375 361.453125 C 517.75 361.511719 517.765625 361.570312 517.777344 361.644531 C 517.765625 361.613281 517.765625 361.597656 517.75 361.570312 C 517.894531 362.039062 518.027344 362.511719 518.160156 362.996094 L 518.691406 365.308594 C 519.207031 367.574219 519.589844 369.867188 520.03125 372.148438 C 520.925781 376.621094 521.632812 381.125 522.371094 385.628906 C 522.53125 386.613281 522.679688 387.585938 522.839844 388.570312 C 522.941406 390.777344 523.0625 392.984375 523.164062 395.191406 C 520.898438 393.765625 518.75 392.175781 516.71875 390.410156 Z M 550.074219 483.578125 C 550.253906 478.164062 551.136719 472.703125 551.871094 467.261719 C 551.679688 459.019531 551.457031 450.796875 551.238281 442.554688 C 550.914062 428.753906 549.898438 414.996094 548.058594 401.3125 C 546.660156 392 545.058594 382.699219 544.703125 373.253906 C 544.46875 367.632812 544.277344 361.777344 544.703125 356.230469 C 546.027344 360.011719 547.367188 363.777344 548.546875 367.601562 C 550.472656 373.871094 552.03125 380.226562 553.28125 386.628906 C 563.1875 380.257812 570.628906 370.148438 575.191406 359.289062 C 575.839844 357.6875 576.382812 356.039062 576.898438 354.359375 C 576.621094 357.847656 575.972656 361.304688 575.164062 364.734375 C 575.808594 367.25 576.414062 369.78125 576.957031 372.339844 C 571.527344 380.402344 563.140625 386.554688 553.636719 388.453125 C 555.710938 399.472656 556.960938 410.640625 557.742188 421.867188 C 563.289062 418.335938 566.597656 408.023438 569.246094 403.09375 C 573.148438 395.058594 576.117188 386.863281 578.105469 378.300781 C 580.152344 390.128906 580.621094 402.195312 577.398438 413.761719 C 574.472656 425.222656 569.511719 435.976562 565.511719 447.074219 C 561.671875 457.402344 556.625 467.363281 550.695312 476.574219 C 550.503906 478.914062 550.3125 481.253906 550.074219 483.578125 Z M 571.21875 317.882812 C 569.1875 334.304688 562.347656 342.765625 547.792969 352.550781 C 551.386719 345.988281 556.535156 340.324219 559.375 333.363281 C 564.332031 320.722656 565.023438 307.261719 565.097656 293.769531 C 565.496094 295.003906 565.789062 296.285156 565.953125 297.59375 C 566.203125 299.726562 566.144531 301.875 565.804688 303.980469 C 566.65625 305.464844 567.421875 307.054688 568.144531 308.601562 C 569.246094 311.632812 570.277344 314.734375 571.21875 317.882812 Z M 545.015625 262.589844 C 545.160156 277.9375 540.628906 295.902344 532.332031 304.773438 C 533.167969 294.988281 537.746094 286.085938 539.289062 276.4375 C 540.304688 270.507812 540.585938 264.503906 541.128906 258.527344 C 541.1875 257.558594 541.277344 256.585938 541.351562 255.628906 C 541.777344 256.820312 542.160156 258.027344 542.496094 259.25 C 543.292969 260.25 544.058594 261.324219 544.808594 262.429688 C 544.882812 262.472656 544.957031 262.53125 545.015625 262.589844 Z M 269.070312 253.511719 C 269.613281 256.335938 270.351562 259.117188 271.027344 261.914062 C 272.96875 269.683594 274.765625 277.761719 279.957031 284.117188 C 285.359375 291.121094 293.378906 296.003906 297.671875 303.816406 C 287.84375 299.917969 279.824219 292.164062 273.984375 283.5 C 270.230469 277.714844 268.527344 270.960938 267.097656 264.296875 C 266.847656 262.957031 266.628906 261.617188 266.480469 260.265625 C 266.613281 260.191406 266.730469 260.132812 266.863281 260.058594 C 267.261719 257.792969 268.070312 255.617188 269.070312 253.511719 Z M 256.652344 267.679688 C 256.503906 272.035156 257.003906 276.449219 256.855469 280.804688 C 257.003906 289.058594 257.136719 297.492188 259.167969 305.523438 C 261.535156 314.398438 267.820312 321.917969 269.378906 330.996094 C 254.355469 317.691406 250.617188 295.652344 253.3125 276.566406 C 253.707031 274.257812 254.136719 271.933594 254.722656 269.652344 C 255.355469 268.992188 256.003906 268.328125 256.652344 267.679688 Z M 249.914062 464.640625 C 248.324219 461.332031 247.085938 457.828125 246.144531 454.328125 C 243.320312 447.542969 241.730469 440.15625 239.15625 433.300781 C 235.492188 422.898438 232.742188 412.214844 230.800781 401.339844 C 229.226562 392.691406 227.855469 383.804688 227.960938 374.972656 C 227.8125 373.769531 227.679688 372.5625 227.519531 371.371094 C 225.3125 355.242188 225.898438 339.925781 230.046875 325.328125 C 230.167969 325.492188 230.238281 325.699219 230.226562 325.902344 C 230.253906 327.742188 230.550781 329.582031 230.695312 331.421875 C 231.875 341.03125 231.917969 350.785156 232.625 360.453125 C 234.433594 368.042969 236.183594 376.035156 238.257812 383.171875 C 240.523438 391.410156 243.246094 399.664062 246.320312 407.59375 C 247.46875 409.980469 248.78125 412.378906 249.824219 414.847656 C 250.457031 412.4375 251.089844 410.039062 251.738281 407.640625 C 253.679688 398 255.222656 388.1875 258.371094 378.960938 C 254.328125 375.179688 251.574219 369.957031 249.042969 365.117188 C 239.789062 349.667969 234.09375 331.773438 234.167969 313.765625 C 235.035156 311.75 235.964844 309.746094 236.992188 307.761719 C 237.140625 308.304688 237.289062 308.835938 237.449219 309.363281 C 241.628906 322.800781 243.804688 336.734375 249.382812 349.679688 C 252.3125 356.273438 256.636719 362.1875 258.917969 369.089844 C 259.402344 370.691406 259.84375 372.324219 260.285156 373.960938 C 261.566406 370.972656 263.050781 368.058594 264.847656 365.25 C 265.039062 364.96875 265.230469 364.6875 265.449219 364.394531 C 266.480469 362.113281 267.582031 359.878906 268.777344 357.699219 C 271.246094 353.300781 273.632812 348.679688 277.148438 345.015625 C 277.472656 344.796875 277.441406 344.691406 277.75 344.765625 C 277.925781 344.839844 277.796875 345.121094 277.78125 345.265625 C 277.691406 345.28125 277.722656 345.0625 277.691406 344.988281 C 277.675781 344.988281 277.675781 344.988281 277.675781 344.988281 C 274.425781 353.417969 273.277344 362.601562 270.4375 371.191406 C 266.507812 382.832031 263.082031 394.632812 259.886719 406.492188 C 258.550781 412.289062 257.195312 418.101562 255.84375 423.898438 C 254.855469 435.933594 252.503906 447.835938 250.5 459.769531 C 250.28125 461.375 250.089844 463.007812 249.914062 464.640625 Z M 249.914062 464.640625 " fill-opacity="1" fill-rule="evenodd"/><g mask="url(#7e22cecd7c)"><g transform="matrix(1, 0, 0, 1, 226, 217)"><g clip-path="url(#8ac7103c0b)"><g clip-path="url(#424a4e0fdb)"><path fill="#000000" d="M 110.164062 128.855469 L 110.152344 128.871094 C 110.164062 128.871094 110.164062 128.871094 110.164062 128.871094 Z M 120.304688 137.714844 C 119.921875 138.097656 119.550781 138.480469 119.183594 138.859375 C 119.257812 138.875 119.347656 138.890625 119.421875 138.90625 C 119.730469 138.507812 120.007812 138.109375 120.304688 137.714844 Z M 110.136719 133.460938 C 110.121094 133.359375 110.121094 133.253906 110.105469 133.152344 C 110.078125 133.3125 110.03125 133.476562 110.003906 133.621094 C 110.03125 133.550781 110.078125 133.503906 110.136719 133.460938 Z M 265.527344 137.859375 C 265.941406 138.332031 266.292969 138.714844 266.617188 139.007812 C 266.425781 138.65625 266.207031 138.289062 265.984375 137.890625 C 265.824219 137.890625 265.660156 137.875 265.527344 137.859375 Z M 325.046875 230.851562 C 325.03125 233 325.03125 235.164062 324.898438 237.3125 C 324.753906 240.046875 324.621094 242.785156 324.472656 245.523438 C 325.796875 239.0625 325.164062 232.472656 325.121094 225.921875 C 325.121094 227.554688 325.0625 229.203125 325.046875 230.851562 Z M 324.914062 215.828125 C 324.957031 217.492188 325.003906 219.15625 325.03125 220.816406 C 325.136719 219.214844 325.015625 217.523438 324.914062 215.828125 Z M 323.929688 166.066406 C 322.882812 181.796875 324.296875 197.539062 324.839844 213.285156 C 324.839844 211.664062 325.003906 210.089844 325.515625 208.648438 C 325.546875 208.605469 325.578125 208.5625 325.621094 208.515625 C 325.089844 205.25 326.371094 201.394531 326.28125 198.1875 C 326.753906 191.816406 327.164062 185.402344 327.019531 179.015625 C 325.738281 174.761719 324.765625 170.4375 323.929688 166.066406 Z M 321.605469 104.652344 C 320.984375 105.238281 320.339844 105.84375 319.675781 106.402344 C 319.867188 106.84375 320.042969 107.300781 320.21875 107.742188 C 320.722656 106.726562 321.175781 105.695312 321.605469 104.652344 Z M 322.617188 113.90625 C 322.78125 113.347656 322.882812 112.804688 322.941406 112.300781 C 322.808594 112.433594 322.558594 112.671875 322.25 112.949219 C 322.367188 113.273438 322.5 113.582031 322.617188 113.90625 Z M 338.4375 163.082031 C 338.1875 164.742188 337.921875 166.390625 337.640625 168.039062 C 337.597656 168.363281 337.554688 168.699219 337.507812 169.023438 C 339.171875 163.035156 341.230469 157.105469 342.378906 150.984375 C 341.171875 155.0625 338.996094 158.855469 338.4375 163.082031 Z M 28.886719 136.492188 C 28.8125 136.359375 28.722656 136.210938 28.648438 136.082031 C 28.648438 136.359375 28.636719 136.625 28.636719 136.902344 C 28.722656 136.757812 28.796875 136.625 28.886719 136.492188 Z M 50.691406 303.214844 C 42.023438 282.496094 47.425781 252.660156 51.355469 232.148438 C 51.324219 232.28125 51.308594 232.410156 51.28125 232.558594 C 53.324219 222.746094 55.605469 212.976562 58.195312 203.277344 C 59.742188 194.625 61.949219 186.167969 65.65625 178.21875 C 66.757812 174.925781 67.890625 171.644531 69.054688 168.378906 C 70.15625 165.347656 71.453125 162.316406 72.601562 159.3125 C 72.660156 158.902344 72.746094 158.488281 72.894531 158.121094 C 73.1875 157.460938 74.085938 157.664062 74.203125 158.328125 C 74.042969 168.980469 69.9375 179.148438 66.964844 189.257812 C 65.613281 193.597656 64.347656 197.964844 63.152344 202.351562 C 61.402344 211.886719 60.003906 221.480469 59.09375 231.160156 C 59.09375 231.148438 59.09375 231.148438 59.09375 231.148438 C 59.09375 231.191406 59.078125 231.21875 59.078125 231.265625 C 59.078125 231.308594 59.078125 231.351562 59.0625 231.398438 C 56.105469 262.441406 57.5625 294.019531 65.714844 324.195312 C 66.347656 326.125 66.921875 328.082031 67.378906 330.039062 C 67.582031 330.714844 67.804688 331.390625 68.023438 332.070312 C 62.667969 325.800781 58.550781 318.429688 55.929688 310.777344 C 52.558594 300.507812 51.28125 289.707031 50.351562 278.964844 C 50.089844 287.042969 50.191406 295.136719 50.691406 303.214844 Z M 137.089844 84.859375 L 137.105469 84.847656 Z M 137.089844 84.859375 C 132.265625 94.46875 126.054688 103.328125 120.097656 112.289062 C 117.464844 117.777344 115.257812 123.71875 114.726562 128.707031 C 131.472656 111.980469 152.878906 95.515625 158.175781 90.277344 C 172.242188 77.179688 183.117188 61.140625 195.652344 46.632812 C 195.652344 46.632812 195.667969 46.621094 195.667969 46.605469 C 196.066406 46.015625 196.460938 45.429688 196.828125 44.824219 C 198.332031 40.527344 199.667969 36.160156 200.816406 31.714844 C 201.082031 32.890625 201.304688 34.082031 201.480469 35.261719 C 202.023438 34.613281 202.597656 34.453125 203.171875 35.15625 C 202.980469 35.261719 202.730469 34.878906 202.480469 34.921875 C 202.496094 37.230469 202.378906 39.5 202.082031 41.75 C 202.289062 47.253906 201.683594 52.695312 200.492188 58.050781 C 190.0625 73.148438 176.804688 86.316406 163.445312 98.867188 C 146.375 115.40625 128.070312 130.796875 111.578125 147.925781 C 111.519531 147.75 111.429688 147.570312 111.355469 147.394531 C 109.988281 148.953125 108.636719 150.527344 107.28125 152.089844 C 107.164062 152.339844 107.058594 152.589844 106.957031 152.855469 C 106.148438 153.722656 105.355469 154.605469 104.558594 155.488281 C 99.234375 161.433594 94.554688 167.832031 90.199219 174.453125 C 90.640625 172.378906 91.15625 170.304688 91.742188 168.257812 C 90.800781 170.421875 89.859375 172.570312 88.902344 174.734375 C 88.269531 176.277344 87.652344 177.824219 87.035156 179.382812 C 84.296875 183.738281 81.648438 188.152344 79 192.566406 C 76.351562 201.808594 74.058594 211.136719 72.160156 220.550781 C 71.6875 201.5 82.339844 178.75 88.492188 163.992188 C 101.203125 136.007812 113.976562 105.296875 137.089844 84.859375 Z M 262.175781 146.835938 C 261.96875 146.542969 261.746094 146.246094 261.542969 145.953125 C 258.554688 142.097656 255.65625 138.140625 252.992188 134.050781 C 251.710938 131.5625 249.710938 129.355469 247.179688 128.179688 C 247.3125 128.664062 247.636719 129.222656 247.667969 129.648438 C 247.179688 128.945312 245.605469 127.707031 247.210938 127.339844 C 243.429688 124.015625 240.148438 120.175781 237.75 115.773438 C 237.734375 115.820312 237.707031 115.761719 237.707031 115.730469 C 237.707031 115.730469 237.707031 115.714844 237.707031 115.714844 C 237.675781 115.640625 237.601562 115.453125 237.765625 115.523438 C 239.207031 116.964844 240.808594 118.246094 242.441406 119.4375 C 240.75 117.527344 239.191406 115.511719 237.765625 113.421875 C 237.585938 112.039062 239.457031 113.746094 239.839844 114.054688 C 248.328125 120.160156 257.023438 127.441406 267.515625 129.457031 C 268.957031 128.414062 269.046875 126.308594 269.296875 124.675781 C 269.546875 121.25 269.179688 117.851562 268.75 114.464844 C 266.808594 107.003906 264.058594 99.53125 263.644531 96.808594 C 263.144531 94.191406 262.734375 91.378906 262.71875 88.804688 C 262.792969 88.90625 262.878906 88.996094 262.953125 89.085938 C 262.792969 88.011719 262.6875 86.949219 262.628906 85.875 C 265.234375 92.261719 269.179688 97.957031 271.589844 104.402344 C 274.652344 112.449219 277.492188 120.585938 280.109375 128.78125 C 281.066406 129.828125 281.714844 131.636719 282.199219 132.8125 C 285.761719 141.554688 288.21875 150.707031 290.527344 159.828125 C 290.835938 161.917969 293.074219 168.507812 292.21875 171.730469 C 292.441406 172.851562 292.648438 173.984375 292.839844 175.101562 C 292.101562 174.511719 291.351562 173.910156 290.632812 173.277344 C 285.6875 170.230469 281.140625 166.40625 276.34375 163.125 C 276.210938 163.035156 276.09375 162.949219 275.976562 162.875 C 275.917969 162.609375 275.871094 162.359375 275.8125 162.09375 C 272.003906 158.09375 268.117188 154.148438 264.601562 149.894531 C 265.292969 150.425781 265.984375 150.941406 266.675781 151.457031 C 265.585938 150.382812 264.527344 149.277344 263.5 148.175781 L 263.484375 148.175781 C 263.46875 148.144531 263.453125 148.128906 263.425781 148.101562 C 263.011719 147.703125 262.585938 147.261719 262.175781 146.835938 Z M 275.417969 358.570312 C 281.800781 349.050781 289.21875 340.207031 295 330.316406 C 308.167969 307.46875 315.46875 281.601562 318.925781 255.570312 C 321.164062 236.945312 320.675781 218.09375 319.675781 199.394531 L 319.691406 199.480469 L 319.691406 199.542969 C 319.484375 195.4375 319.292969 191.316406 319.117188 187.242188 C 319.117188 187.136719 319.117188 187.035156 319.101562 186.929688 C 319.101562 186.960938 319.117188 187.003906 319.117188 187.035156 C 319.101562 183.621094 318.308594 165.582031 320.957031 157.605469 C 319.457031 155.515625 319.382812 152.089844 320.558594 149.617188 C 320.648438 149.25 320.75 148.867188 320.851562 148.5 C 319.691406 142.1875 318.292969 135.917969 316.085938 129.855469 C 309.140625 110.566406 300.976562 91.734375 292.015625 73.3125 C 287.246094 65.101562 285.214844 54.609375 277.917969 48.339844 C 277.902344 48.339844 277.902344 48.339844 277.902344 48.339844 C 278.257812 48.738281 277.609375 48.386719 277.726562 48.238281 C 281.023438 47.828125 284.039062 51.078125 286.46875 53.035156 C 287.792969 54.226562 289.027344 55.460938 290.25 56.742188 C 290.851562 57.066406 291.515625 57.539062 292.207031 58.125 L 292.21875 58.109375 L 292.21875 58.125 C 295.472656 60.890625 299.296875 65.953125 300.296875 67.070312 C 301.769531 68.984375 303.121094 70.972656 304.375 73.015625 C 304.667969 54.019531 309.257812 33.347656 302.402344 15.851562 C 302.8125 16.339844 303.242188 16.839844 303.652344 17.339844 C 309.097656 24.667969 313.953125 33.199219 316.484375 42.21875 C 317.277344 43.222656 318.042969 44.296875 318.792969 45.398438 C 319.101562 45.679688 319.425781 45.957031 319.734375 46.238281 C 318.261719 57.539062 313.597656 68.441406 307.140625 77.84375 C 311.1875 85.390625 314.304688 93.453125 317.527344 101.371094 C 317.75 101.886719 317.96875 102.398438 318.191406 102.914062 C 320.617188 98.367188 321.972656 92.953125 323.179688 88.261719 C 326.503906 74.339844 323.855469 60.113281 319.984375 46.488281 C 320.589844 47.046875 321.164062 47.605469 321.734375 48.179688 C 326.871094 53.710938 331.066406 60.15625 334.492188 66.851562 C 336.65625 71.25 339.347656 75.605469 339.90625 80.566406 C 340.15625 82.699219 340.097656 84.847656 339.761719 86.949219 C 340.613281 88.4375 341.378906 90.027344 342.101562 91.570312 C 342.234375 91.953125 342.363281 92.351562 342.511719 92.734375 C 342.304688 93.910156 342.085938 95.074219 341.835938 96.234375 C 342.292969 95.734375 342.761719 95.308594 343.304688 94.96875 C 347.25 106.578125 350.03125 118.921875 350.929688 131.0625 C 351.28125 136.699219 350.414062 142.273438 349.117188 147.71875 C 351.296875 156.222656 353.0625 165.023438 353.546875 173.820312 C 352.78125 175.601562 352.003906 177.367188 351.207031 179.117188 C 349.046875 185.09375 345 190.152344 342.9375 196.023438 C 340.894531 201.585938 337.613281 213.828125 330.625 213.253906 C 331.566406 221.304688 330.742188 229.5 330.050781 237.546875 C 330.960938 236.5625 332.710938 236.695312 333.464844 237.796875 C 334.316406 238.855469 334.15625 240.210938 334.007812 241.476562 C 333.949219 242.078125 333.859375 242.683594 333.785156 243.285156 C 331.066406 248.890625 327.988281 254.335938 324.632812 259.542969 C 324.191406 265.136719 323.691406 270.742188 322.765625 276.246094 C 322.75 276.449219 322.738281 276.640625 322.707031 276.847656 C 320.117188 299.167969 311.671875 317.988281 298.046875 335.734375 C 291.558594 344.238281 284.363281 352.59375 275.417969 358.570312 Z M 292.234375 58.140625 C 291.851562 51.621094 294.207031 43.867188 293.484375 36.71875 C 292.648438 27.625 291.425781 18.472656 288.777344 9.703125 C 288.042969 6.847656 287.039062 4.140625 285.953125 1.492188 C 287.511719 2.699219 289.070312 3.921875 290.585938 5.214844 C 293.898438 7.597656 297.03125 10.21875 299.886719 13.132812 C 300.136719 14.351562 300.371094 15.601562 300.578125 16.898438 C 303.84375 31.390625 299.605469 45.765625 292.234375 58.140625 Z M 53.046875 20.179688 C 53.765625 28.816406 56.210938 37.511719 61.226562 44.546875 C 68.171875 50.945312 74.128906 58.390625 80.25 65.484375 C 58.035156 63.304688 45.644531 44.855469 49.382812 24.992188 C 50.515625 23.3125 51.75 21.710938 53.046875 20.179688 Z M 16.21875 225.671875 C 15.273438 222.507812 14.332031 219.347656 13.15625 216.285156 C 9.492188 205.882812 6.742188 195.199219 4.800781 184.328125 C 3.226562 175.675781 1.855469 166.789062 1.960938 157.960938 C 1.8125 156.753906 1.679688 155.546875 1.519531 154.355469 C -1.851562 129.648438 1.3125 106.886719 13.804688 85.613281 C 14.996094 77.738281 17.261719 70.132812 20.160156 64.453125 C 22 60.890625 24.867188 56.832031 28.328125 53.078125 C 28.960938 64.363281 30.210938 75.457031 29.914062 86.773438 C 32.121094 91.203125 33.253906 96.132812 35.285156 100.648438 C 39.140625 104.34375 40.878906 109.683594 43.410156 114.421875 C 46.011719 109.492188 48.691406 104.578125 51.707031 99.914062 C 47.777344 96.660156 45.054688 92.234375 43.171875 87.390625 C 35.816406 77.679688 34.09375 63.363281 34.949219 51.046875 C 35.007812 50.34375 35.167969 48.546875 35.449219 46.53125 C 36.550781 45.707031 37.65625 44.925781 38.773438 44.25 C 39.082031 47.207031 39.789062 50.152344 40.613281 53.078125 C 40.082031 49.046875 39.597656 44.546875 40.15625 43.441406 C 40.316406 43.367188 40.449219 43.28125 40.597656 43.207031 C 40.746094 43.25 40.90625 43.398438 41.113281 43.648438 C 41.023438 43.707031 40.789062 43.472656 40.628906 43.441406 C 46.058594 53.492188 49.839844 64.542969 56.960938 73.441406 C 59.152344 75.828125 60.859375 78.503906 62.550781 81.210938 C 64.199219 81.769531 65.832031 82.390625 67.257812 83.300781 C 68.539062 82.59375 69.878906 82.035156 71.261719 81.710938 C 70.304688 82.476562 69.4375 83.375 68.65625 84.347656 C 68.789062 84.464844 68.921875 84.597656 69.054688 84.730469 C 69.15625 84.859375 69.273438 85.007812 69.347656 85.140625 C 84.003906 63.539062 101.953125 44.207031 122.65625 28.226562 C 125.554688 26.035156 139.859375 17.367188 142.195312 19.265625 C 141.609375 18.898438 140.859375 19.53125 140.371094 19.8125 C 135.0625 23.84375 130.074219 28.300781 124.789062 32.363281 C 101.382812 50.636719 81.515625 73.238281 66.15625 98.589844 C 66.316406 100.605469 65.230469 102.578125 63.476562 103.121094 C 60.035156 109.082031 56.828125 115.1875 53.898438 121.410156 C 50 129.503906 46.835938 137.949219 44.230469 146.542969 C 45.394531 143.996094 46.761719 141.570312 48.441406 139.347656 C 43.730469 160.886719 40.214844 182.914062 37.300781 204.851562 C 36.273438 212.578125 35.242188 220.316406 34.328125 228.070312 C 34.007812 236.515625 33.710938 244.960938 33.445312 253.410156 C 33.152344 261.339844 32.945312 269.269531 32.492188 277.1875 C 32.726562 282.925781 32.84375 288.679688 32.917969 294.417969 C 32.976562 296.917969 33.003906 299.464844 33.0625 302.023438 C 33.328125 304.082031 33.652344 306.144531 33.976562 308.203125 C 35.082031 313.925781 37.082031 319.589844 37.773438 325.375 C 32.019531 312.765625 28.960938 299.007812 27.179688 285.277344 C 25.355469 273.183594 24.484375 260.984375 24.457031 248.789062 C 24.441406 248.773438 24.441406 248.757812 24.425781 248.730469 C 24.839844 242.3125 25.265625 235.882812 25.558594 229.453125 C 26.605469 213.59375 28.78125 197.761719 32.636719 182.3125 C 33.019531 180.296875 33.269531 178.21875 33.578125 176.160156 C 33.566406 175.617188 33.566406 175.070312 33.566406 174.542969 C 30.652344 182.296875 28.121094 188.550781 27.445312 190.902344 C 24.925781 202.808594 20.46875 214.3125 16.21875 225.671875 Z M 16.21875 225.671875 " fill-opacity="1" fill-rule="evenodd"/></g></g></g></g><path fill="#1c1a1b" d="M 489.277344 223.273438 C 477.726562 221.539062 469.398438 213.988281 459.027344 209.621094 C 458.644531 209.621094 458.453125 209.089844 458.777344 208.839844 C 470.105469 205.21875 487.628906 209.648438 489.277344 223.273438 Z M 460.46875 224.332031 C 457.90625 221.433594 455.464844 217.167969 455.730469 213.238281 C 457.394531 215.226562 459.96875 216.757812 461.6875 218.875 C 464.898438 222.097656 466.824219 229.894531 460.46875 224.332031 Z M 373.40625 223.714844 C 377.910156 209.957031 396.433594 205.410156 408.425781 208.632812 C 397.035156 214.0625 386.664062 224.1875 373.40625 223.714844 Z M 347.480469 213.269531 C 355.515625 196.890625 385.914062 191.34375 396.902344 199.628906 C 380.085938 203.175781 365.253906 215.683594 347.480469 213.269531 Z M 487.277344 329.390625 C 473.609375 326.652344 466.617188 311.835938 466.074219 298.992188 C 465.898438 297.828125 466.925781 297.242188 467.046875 298.507812 C 474.359375 308.394531 486.011719 316.308594 487.277344 329.390625 Z M 346.347656 336.246094 C 346.113281 319.195312 357.441406 305.039062 370.242188 294.976562 C 372.964844 293.855469 378.054688 286.042969 380.027344 290.957031 C 379.203125 296.386719 375.140625 301.140625 372.816406 306.097656 C 366.109375 318.636719 358.839844 329.539062 346.347656 336.246094 Z M 309.886719 344.945312 C 306.546875 323.992188 323.777344 304.6875 341.460938 296.269531 C 331.734375 312.617188 326.308594 333.421875 309.886719 344.945312 Z M 296.335938 349.945312 C 278.855469 323.460938 301.898438 293.210938 325.792969 280.539062 C 332.574219 277.347656 341.402344 272.152344 348.894531 274.742188 C 349.421875 275.40625 346.875 276.847656 348.304688 275.214844 C 337.84375 279.480469 330.542969 289.632812 322.894531 297.667969 C 308.738281 312.117188 301.292969 330.6875 296.335938 349.945312 C 296.347656 349.960938 296.335938 349.960938 296.335938 349.945312 Z M 534.097656 341.132812 C 535.316406 346.3125 535.539062 351.726562 534.390625 357.273438 C 517.160156 344.164062 513.953125 321.429688 502.402344 304.714844 C 502.417969 304.746094 502.433594 304.789062 502.433594 304.789062 C 503.507812 306.246094 500.988281 304.714844 501.679688 303.878906 C 504.242188 302.257812 507.550781 305.273438 509.746094 306.585938 C 517.335938 312.707031 524.664062 320.488281 529.476562 329.316406 C 527.476562 323.59375 525.695312 317.796875 523.753906 312.074219 C 521.972656 305.140625 517.515625 296.035156 518.910156 289.632812 C 531.710938 306.597656 552.195312 326.566406 538.171875 349.238281 C 536.6875 346.589844 535.347656 343.882812 534.097656 341.132812 Z M 534.097656 341.132812 " fill-opacity="1" fill-rule="evenodd"/><path fill="#000000" d="M 349.097656 207.382812 C 353.117188 199.6875 361.222656 194.933594 369.785156 194.300781 C 372.597656 194.140625 375.996094 194.15625 378.277344 195.773438 C 367.492188 196.273438 359.808594 206.472656 349.097656 207.382812 Z M 351.703125 332.523438 C 350.335938 321.105469 358.441406 311.617188 367.078125 305.261719 C 367.625 304.671875 377.304688 298.652344 375.804688 300.433594 C 367.109375 310.601562 360.632812 322.652344 351.703125 332.523438 Z M 492 330.304688 C 480.332031 322.902344 481.449219 311.835938 478.050781 300.507812 C 477.976562 300.683594 478.082031 301.050781 477.960938 301.125 C 476.917969 298.960938 479.332031 300.199219 479.992188 301.375 C 482.273438 304.289062 484.054688 307.980469 485.65625 311.203125 C 488.878906 317.429688 491.484375 323.460938 492 330.304688 Z M 325.851562 336.996094 C 326.367188 322.578125 336.195312 310.5 346.140625 300.875 C 347.554688 300.007812 347.347656 301.390625 346.816406 302.242188 C 346.714844 302.097656 346.816406 301.683594 346.757812 301.449219 C 341.125 313.957031 336.519531 327.785156 325.894531 336.996094 C 325.867188 337.011719 325.851562 337.011719 325.851562 336.996094 Z M 533.773438 344.324219 C 533.550781 345.488281 533.257812 346.648438 532.859375 347.8125 C 526.09375 333.9375 523.253906 318.339844 515.6875 304.878906 C 515.527344 305.289062 515.484375 305.90625 515.277344 306.230469 C 513.953125 299.859375 521.472656 308.894531 522.53125 310.292969 C 526.414062 315.117188 529.902344 320.769531 532.050781 326.773438 C 531.949219 319.28125 531.742188 311.851562 528.167969 305.140625 C 531.535156 307.304688 533.847656 311.160156 535.480469 314.839844 C 540.144531 324.519531 539.71875 336.320312 534.125 345.445312 C 533.992188 345.074219 533.875 344.707031 533.773438 344.324219 Z M 306.503906 332.039062 C 305.457031 333.789062 304.367188 335.511719 303.222656 337.1875 C 301.308594 326.257812 306.691406 316.046875 311.769531 306.835938 C 316.816406 297.210938 323.851562 287.855469 334.414062 284.042969 C 335.8125 283.351562 337.796875 283.277344 338.621094 284.101562 C 338.679688 284.101562 338.769531 284.085938 338.84375 284.085938 C 339.726562 284.335938 339.8125 285.042969 339.683594 285.792969 C 339.960938 285.675781 340.253906 285.574219 340.535156 285.457031 C 340.167969 285.808594 339.828125 286.148438 339.476562 286.515625 C 339.402344 286.75 339.3125 286.957031 339.242188 287.148438 C 339.09375 287.617188 338.929688 288.089844 338.859375 288.546875 C 338.710938 288.222656 338.667969 287.808594 338.652344 287.398438 C 338.210938 287.867188 337.796875 288.355469 337.386719 288.855469 C 336.046875 292.371094 332.957031 297.710938 332.558594 298.492188 C 328.808594 305.230469 324.261719 311.453125 319.816406 317.738281 C 316.066406 323.578125 311.445312 328.992188 306.3125 333.554688 C 306.382812 333.054688 306.441406 332.554688 306.503906 332.039062 Z M 306.503906 332.039062 " fill-opacity="1" fill-rule="evenodd"/></svg>