<svg xmlns="http://www.w3.org/2000/svg" xmlns:xlink="http://www.w3.org/1999/xlink" width="1080" zoomAndPan="magnify" viewBox="0 0 810 1012.49997" height="1350" preserveAspectRatio="xMidYMid meet" version="1.0"><path fill="#5b3e36" d="M 240.539062 461.667969 C 216.746094 457.558594 200.4375 381.585938 219.261719 317.199219 C 239.925781 246.3125 302.351562 192.414062 316.394531 200.691406 C 323.078125 204.613281 319.519531 223.195312 315.78125 237.296875 C 354.902344 209.519531 391.140625 193.945312 416.773438 184.929688 C 460.128906 169.785156 495.632812 165.859375 520.832031 165.0625 C 560.015625 163.835938 587.734375 162.980469 600.304688 181.128906 C 619.007812 208.109375 589.144531 255.144531 587.734375 257.289062 C 597.851562 251.953125 618.578125 242.570312 628.695312 250.667969 C 642.859375 262.011719 628.632812 301.253906 619.007812 320.203125 C 612.015625 333.878906 603.984375 343.8125 598.34375 350.003906 C 605.945312 373.550781 614.652344 412.859375 603.492188 453.023438 C 600.367188 464.183594 598.035156 466.328125 596.136719 466.511719 C 581.113281 467.679688 583.136719 342.707031 529.355469 321.246094 C 510.472656 313.703125 504.277344 326.765625 443.753906 337.558594 C 375.933594 349.636719 367.410156 336.085938 337.363281 348.289062 C 269.175781 376.003906 264.636719 465.898438 240.539062 461.667969 Z M 240.539062 461.667969 " fill-opacity="1" fill-rule="nonzero"/></svg>