<svg xmlns="http://www.w3.org/2000/svg" xmlns:xlink="http://www.w3.org/1999/xlink" width="1080" zoomAndPan="magnify" viewBox="0 0 810 1012.49997" height="1350" preserveAspectRatio="xMidYMid meet" version="1.0"><defs><clipPath id="9fc4e4af72"><path d="M 566 420 L 625 420 L 625 454.519531 L 566 454.519531 Z M 566 420 " clip-rule="nonzero"/></clipPath><clipPath id="bef6fac308"><path d="M 171.046875 329 L 220 329 L 220 449 L 171.046875 449 Z M 171.046875 329 " clip-rule="nonzero"/></clipPath><clipPath id="05f48cc61c"><path d="M 323 171.90625 L 526 171.90625 L 526 251 L 323 251 Z M 323 171.90625 " clip-rule="nonzero"/></clipPath><clipPath id="f50611c199"><path d="M 586 306 L 638.816406 306 L 638.816406 445 L 586 445 Z M 586 306 " clip-rule="nonzero"/></clipPath><clipPath id="00b8f77bc7"><path d="M 171.046875 310 L 225 310 L 225 327 L 171.046875 327 Z M 171.046875 310 " clip-rule="nonzero"/></clipPath></defs><path fill="#5b3e36" d="M 446.710938 180.773438 C 444.148438 180.773438 441.375 180.914062 437.957031 181.269531 C 434.894531 181.625 432.121094 182.125 429.628906 182.835938 C 423.933594 184.472656 418.527344 187.320312 413.472656 191.304688 C 412.40625 190.664062 411.195312 190.167969 410.054688 189.597656 C 408.847656 189.027344 407.492188 188.601562 405.855469 188.246094 C 402.367188 187.460938 398.738281 187.105469 395.25 186.820312 L 394.683594 186.75 C 392.761719 186.609375 390.910156 186.464844 388.917969 186.394531 C 387.777344 186.324219 386.640625 186.253906 385.5 186.253906 C 385.144531 186.253906 384.789062 186.253906 384.359375 186.253906 C 381.585938 186.253906 378.597656 186.464844 375.039062 186.890625 C 368.703125 187.605469 362.511719 190.09375 358.453125 191.804688 C 353.542969 193.9375 348.703125 197.070312 344.074219 201.195312 C 339.949219 204.828125 336.246094 209.308594 332.902344 214.433594 C 331.121094 217.136719 329.699219 220.128906 328.558594 222.6875 C 327.492188 224.894531 326.636719 226.960938 325.785156 229.023438 C 325.570312 228.878906 325.355469 228.808594 325.070312 228.738281 L 324.503906 228.523438 C 322.507812 227.671875 320.515625 226.816406 318.453125 226.105469 C 315.605469 225.179688 312.542969 224.753906 309.699219 224.398438 C 307.417969 224.113281 305.070312 223.96875 302.792969 223.757812 L 301.226562 223.613281 C 299.019531 223.472656 296.957031 223.402344 294.964844 223.402344 C 292.332031 223.402344 289.839844 223.542969 287.417969 223.828125 C 285.214844 224.113281 282.722656 224.609375 280.015625 225.535156 C 277.597656 226.320312 275.105469 227.242188 272.6875 228.453125 C 271.761719 228.097656 270.835938 227.957031 269.839844 227.957031 C 267.847656 227.957031 265.925781 228.667969 264.570312 230.019531 C 263.929688 230.660156 263.289062 231.230469 262.648438 231.871094 C 262.4375 231.941406 262.152344 232.082031 261.9375 232.152344 C 261.085938 232.582031 260.300781 233.078125 259.304688 233.789062 C 258.167969 234.644531 257.382812 235.570312 256.671875 236.425781 C 255.460938 237.917969 254.679688 239.554688 253.824219 241.40625 C 253.609375 241.832031 253.398438 242.332031 253.253906 242.828125 C 252.1875 244.394531 251.191406 245.960938 250.40625 247.597656 C 247.632812 253.078125 245.78125 258.914062 244.925781 265.03125 C 243.71875 265.886719 242.507812 266.8125 241.296875 267.808594 C 237.523438 270.867188 233.894531 274.640625 230.550781 279.050781 C 227.417969 283.109375 224.925781 287.878906 223.289062 292.859375 C 222.363281 295.632812 221.867188 298.625 221.4375 301.183594 C 221.011719 303.820312 220.726562 306.453125 220.585938 309.296875 C 220.371094 314.28125 221.011719 319.191406 222.4375 324.03125 C 220.15625 324.8125 217.808594 325.808594 214.820312 327.160156 C 209.410156 329.652344 204.5 332.855469 200.15625 336.554688 C 197.878906 338.476562 195.957031 340.753906 194.035156 343.03125 C 192.398438 345.023438 190.90625 347.230469 189.550781 349.933594 C 189.054688 350.859375 188.628906 351.714844 188.269531 352.496094 C 186.277344 353.066406 184.355469 354.203125 182.863281 355.628906 C 181.296875 357.121094 180.511719 358.828125 179.585938 360.964844 C 179.089844 362.105469 178.734375 363.382812 178.378906 365.164062 C 178.09375 366.800781 177.808594 368.578125 177.738281 370.5 C 177.664062 372.351562 177.878906 374.203125 178.09375 375.839844 C 178.304688 377.402344 178.875 378.96875 179.515625 380.394531 L 179.585938 380.679688 C 180.085938 381.886719 180.65625 383.097656 181.4375 384.378906 C 182.863281 386.65625 184.640625 388.933594 186.847656 391.140625 L 186.847656 391.28125 C 186.347656 394.414062 186.207031 397.617188 185.992188 400.746094 L 185.921875 401.386719 C 185.566406 407.863281 185.351562 414.765625 187.703125 421.101562 C 187.773438 421.386719 187.914062 421.667969 187.988281 421.953125 C 187.914062 422.167969 187.84375 422.382812 187.773438 422.59375 C 187.132812 424.660156 187.347656 427.078125 188.34375 428.644531 C 190.476562 432.058594 192.613281 435.332031 195.246094 438.25 C 196.457031 439.53125 197.738281 440.671875 198.875 441.597656 L 199.160156 441.808594 C 200.300781 442.804688 201.511719 443.800781 202.792969 444.65625 C 204.855469 446.078125 206.992188 447.433594 209.195312 448.710938 C 209.480469 448.925781 209.835938 449.070312 210.121094 449.28125 C 212.257812 450.5625 214.394531 451.914062 216.882812 451.914062 C 217.453125 451.914062 218.023438 451.84375 218.59375 451.703125 C 221.582031 450.917969 224 449.070312 225.140625 446.792969 L 225.140625 446.71875 C 226.277344 445.722656 227.0625 444.515625 227.558594 443.089844 C 228.058594 441.453125 228.058594 439.675781 227.417969 438.039062 C 229.125 437.894531 231.191406 437.683594 233.253906 437.183594 C 235.105469 436.757812 236.882812 435.972656 238.878906 435.121094 C 242.363281 433.625 245.425781 431.492188 248.273438 429.355469 C 250.480469 427.71875 252.613281 425.726562 254.605469 423.378906 C 255.746094 422.027344 256.957031 420.53125 258.023438 418.894531 C 259.089844 417.257812 259.945312 415.40625 260.726562 413.769531 C 261.582031 411.847656 262.292969 409.714844 262.863281 407.4375 C 264.003906 407.648438 265.285156 407.933594 266.566406 407.933594 C 268.558594 407.933594 270.265625 407.578125 272.542969 406.582031 C 275.035156 405.515625 277.3125 403.878906 279.449219 402.3125 L 279.804688 402.027344 C 284.714844 398.46875 288.699219 393.773438 291.617188 390.144531 C 294.394531 386.585938 296.957031 382.597656 299.660156 377.476562 C 301.296875 374.414062 302.722656 371.285156 304.003906 368.222656 L 304.074219 368.152344 C 308.417969 364.238281 311.902344 359.46875 314.464844 353.992188 C 315.179688 352.425781 315.890625 350.789062 316.671875 348.9375 C 318.523438 348.9375 320.304688 348.867188 322.011719 348.796875 C 324.289062 350.929688 326.066406 352.566406 327.847656 354.0625 C 331.976562 357.621094 335.746094 360.464844 339.378906 362.816406 C 343.078125 365.234375 347.277344 367.371094 352.757812 369.574219 C 362.4375 373.488281 372.6875 374.558594 384.21875 375.484375 C 384.433594 375.484375 384.574219 375.484375 384.789062 375.484375 C 388.773438 375.484375 392.191406 371.996094 392.402344 367.9375 L 392.402344 367.867188 C 393.542969 367.226562 394.753906 366.515625 396.246094 365.519531 C 397.8125 364.523438 399.09375 363.527344 400.304688 362.601562 C 401.371094 364.382812 402.582031 366.019531 403.933594 367.65625 C 405.855469 369.933594 408.207031 371.851562 410.410156 373.5625 C 413.1875 375.695312 416.390625 377.191406 418.882812 378.1875 C 421.800781 379.398438 424.929688 379.964844 427.707031 380.394531 C 428.773438 380.535156 429.84375 380.679688 430.910156 380.679688 C 432.972656 380.679688 435.039062 380.394531 437.101562 379.753906 C 438.667969 379.253906 440.234375 378.613281 441.871094 377.832031 C 443.4375 377.046875 444.859375 376.050781 446.070312 375.128906 C 447.28125 374.273438 448.417969 373.207031 449.628906 371.925781 C 450.980469 373.417969 452.476562 374.628906 454.113281 375.980469 C 456.25 377.761719 458.667969 378.96875 461.585938 380.394531 C 466.855469 382.882812 472.546875 383.808594 477.460938 384.378906 C 478.527344 384.519531 479.664062 384.59375 480.804688 384.59375 C 485.503906 384.59375 490.34375 383.453125 494.753906 381.246094 C 495.75 380.75 496.820312 380.109375 497.957031 379.324219 C 498.457031 381.460938 499.097656 383.667969 500.164062 386.300781 C 501.230469 388.933594 502.585938 391.351562 504.507812 393.984375 C 505.21875 394.980469 506 395.90625 506.855469 396.761719 C 507.78125 397.757812 508.917969 398.683594 509.988281 399.535156 L 510.628906 400.105469 C 512.835938 401.957031 515.46875 403.238281 518.171875 404.449219 C 520.378906 405.445312 522.796875 406.226562 525.929688 406.9375 C 529.558594 407.722656 532.550781 408.21875 535.324219 408.433594 C 536.039062 408.503906 536.820312 408.503906 537.53125 408.503906 C 540.023438 408.503906 542.585938 408.21875 544.722656 407.933594 C 545.503906 407.863281 546.285156 407.722656 547.070312 407.507812 C 547 408.574219 546.925781 409.640625 546.925781 410.640625 C 546.855469 412.988281 547 415.40625 547.355469 418.109375 C 547.710938 420.460938 548.351562 422.878906 549.488281 425.582031 C 550.484375 428.003906 551.910156 430.066406 553.332031 431.988281 C 554.542969 433.695312 555.894531 435.191406 557.320312 436.402344 C 559.382812 438.179688 561.089844 439.320312 562.941406 440.316406 C 565.289062 441.523438 567.710938 442.449219 570.34375 443.160156 C 572.335938 443.730469 574.402344 444.085938 576.394531 444.371094 C 576.679688 444.871094 577.035156 445.367188 577.460938 445.867188 C 578.601562 447.148438 580.664062 448.355469 582.585938 448.355469 C 582.730469 448.355469 582.800781 448.355469 582.871094 448.355469 C 587.640625 448 593.121094 447.574219 598.316406 446.152344 C 603.371094 444.726562 608.140625 442.734375 612.339844 440.242188 C 614.6875 438.820312 616.964844 437.183594 619.101562 435.332031 C 621.234375 433.410156 623.085938 431.132812 624.4375 429.285156 C 626.003906 427.148438 627.144531 424.800781 628.28125 422.167969 C 629.136719 420.316406 629.777344 418.183594 630.347656 415.335938 C 631.484375 409.785156 631.769531 404.304688 631.34375 399.039062 C 631.058594 395.835938 630.628906 393.203125 629.988281 390.785156 C 632.410156 389.429688 633.976562 386.941406 634.046875 384.234375 L 634.046875 383.878906 C 634.261719 377.261719 634.472656 370.5 633.90625 363.8125 L 633.761719 361.960938 C 633.621094 359.96875 633.476562 357.976562 633.191406 355.910156 C 632.980469 353.917969 632.625 351.285156 631.984375 348.652344 C 631.769531 347.726562 631.484375 346.804688 631.269531 345.878906 C 631.128906 345.308594 630.914062 344.667969 630.773438 344.097656 C 629.847656 340.46875 628.921875 336.554688 627.855469 332.214844 C 627 328.726562 623.796875 326.164062 620.167969 326.164062 C 620.023438 326.164062 619.882812 326.164062 619.667969 326.164062 C 618.742188 324.597656 617.675781 322.890625 616.253906 320.96875 C 613.261719 316.914062 609.5625 313.710938 606.644531 311.363281 C 604.863281 309.867188 603.15625 308.65625 601.519531 307.589844 C 600.097656 306.664062 598.53125 305.882812 597.035156 305.097656 L 596.179688 304.671875 L 595.328125 304.316406 L 594.972656 304.175781 L 594.972656 303.390625 C 594.972656 302.679688 594.898438 301.898438 594.898438 301.183594 C 594.828125 298.90625 594.542969 296.558594 594.257812 293.855469 C 593.902344 291.222656 593.191406 288.375 592.125 285.386719 C 590.984375 282.253906 589.703125 279.550781 588.210938 277.058594 C 586.574219 274.355469 584.722656 271.792969 582.730469 269.515625 C 580.59375 267.167969 578.101562 265.105469 576.179688 263.679688 C 573.902344 261.972656 571.269531 260.476562 567.78125 259.054688 C 564.4375 257.703125 560.664062 257.0625 556.179688 257.0625 C 553.972656 257.0625 551.625 257.203125 548.636719 257.558594 C 546.714844 257.773438 544.722656 258.199219 542.726562 258.769531 C 543.011719 255.425781 542.941406 252.082031 542.800781 249.519531 C 542.515625 243.898438 541.875 239.484375 540.804688 235.640625 C 539.523438 231.230469 537.246094 227.03125 534.117188 223.1875 C 531.339844 219.769531 527.710938 217.066406 524.222656 214.574219 C 523.082031 213.792969 521.660156 213.367188 520.234375 213.367188 C 517.53125 213.367188 514.828125 214.789062 513.402344 216.996094 C 513.261719 217.210938 513.191406 217.421875 513.046875 217.566406 C 512.050781 217.351562 510.984375 217.210938 509.988281 217.066406 L 509.632812 216.996094 C 508.917969 216.925781 508.066406 216.851562 507.070312 216.851562 C 506.5 216.851562 505.929688 216.851562 505.359375 216.851562 L 505.148438 216.851562 C 502.300781 216.925781 499.167969 217.28125 495.824219 217.921875 C 493.972656 218.277344 492.050781 218.847656 489.914062 219.699219 C 489.558594 217.066406 488.988281 214.648438 488.277344 212.441406 C 486.285156 206.320312 483.226562 200.699219 479.238281 195.789062 C 477.246094 193.367188 474.898438 191.304688 472.902344 189.667969 C 470.839844 187.960938 468.5625 186.464844 466.140625 185.183594 C 463.222656 183.617188 460.519531 182.550781 457.742188 181.910156 C 454.824219 181.199219 451.695312 180.84375 447.707031 180.773438 C 447.351562 180.773438 447.066406 180.773438 446.710938 180.773438 Z M 207.914062 420.175781 C 208.058594 420.105469 208.199219 420.03125 208.34375 420.03125 C 208.199219 420.105469 208.058594 420.105469 207.914062 420.175781 Z M 207.914062 420.175781 " fill-opacity="1" fill-rule="nonzero"/><path fill="#5b3e36" d="M 619.027344 419.960938 C 618.386719 420.105469 617.820312 420.53125 617.535156 421.027344 C 617.179688 421.527344 616.964844 422.382812 617.179688 422.949219 C 617.460938 423.734375 617.746094 424.515625 617.890625 425.371094 C 617.890625 425.582031 617.890625 425.726562 617.890625 425.941406 C 617.746094 426.582031 617.460938 427.148438 617.25 427.71875 C 616.820312 428.5 616.394531 429.214844 615.824219 429.855469 C 614.117188 431.773438 612.125 433.410156 610.058594 434.976562 C 606.289062 437.609375 602.300781 439.886719 598.03125 441.597656 C 596.964844 442.023438 595.894531 442.308594 594.757812 442.59375 C 593.476562 442.878906 592.195312 443.089844 590.914062 443.234375 C 587.710938 443.519531 584.507812 443.375 581.304688 442.878906 C 579.8125 442.59375 578.316406 442.164062 576.890625 441.523438 C 575.96875 441.097656 575.113281 440.527344 574.328125 439.960938 C 573.761719 439.460938 573.261719 438.964844 572.835938 438.394531 C 572.550781 437.964844 572.335938 437.539062 572.125 437.042969 C 571.910156 436.402344 571.695312 435.761719 571.554688 435.191406 C 571.199219 433.910156 569.917969 432.984375 568.566406 433.339844 C 567.285156 433.625 566.359375 435.046875 566.714844 436.328125 C 567.140625 437.824219 567.566406 439.320312 568.351562 440.601562 C 569.132812 441.953125 570.273438 443.089844 571.484375 444.085938 C 574.046875 446.078125 577.105469 447.21875 580.238281 447.714844 C 583.441406 448.285156 586.644531 448.5 589.847656 448.285156 C 591.414062 448.214844 593.050781 448 594.617188 447.714844 C 596.253906 447.433594 597.890625 446.933594 599.457031 446.363281 C 602.445312 445.226562 605.292969 443.875 607.996094 442.238281 C 610.773438 440.601562 613.546875 438.679688 616.039062 436.613281 C 617.179688 435.6875 618.246094 434.621094 619.242188 433.554688 C 619.8125 432.914062 620.308594 432.273438 620.738281 431.632812 C 621.304688 430.851562 621.660156 430.066406 622.019531 429.214844 C 622.300781 428.574219 622.515625 427.859375 622.730469 427.21875 C 622.941406 426.367188 622.941406 425.441406 622.871094 424.585938 C 622.730469 423.664062 622.445312 422.738281 622.160156 421.8125 C 622.089844 421.597656 622.019531 421.386719 621.945312 421.171875 C 621.734375 420.816406 621.449219 420.460938 621.09375 420.246094 C 620.664062 419.960938 620.238281 419.890625 619.742188 419.890625 C 619.382812 419.890625 619.242188 419.960938 619.027344 419.960938 Z M 619.027344 419.960938 " fill-opacity="1" fill-rule="nonzero"/><path fill="#5b3e36" d="M 620.949219 423.234375 C 620.523438 423.664062 620.097656 424.375 620.167969 424.941406 C 620.167969 425.15625 620.167969 425.371094 620.167969 425.582031 C 619.953125 426.296875 619.742188 426.9375 619.457031 427.578125 C 618.957031 428.5 618.460938 429.355469 617.820312 430.136719 C 616.394531 431.703125 614.902344 433.128906 613.261719 434.550781 C 611.484375 436.117188 609.632812 437.539062 607.710938 438.964844 C 604.296875 441.382812 600.59375 443.519531 596.679688 445.082031 C 594.257812 445.9375 591.839844 446.648438 589.277344 446.933594 C 586.214844 447.148438 583.15625 446.933594 580.167969 446.433594 C 578.316406 446.078125 576.535156 445.722656 574.828125 445.011719 C 574.1875 444.726562 573.617188 444.371094 573.121094 443.945312 C 572.90625 443.730469 572.691406 443.519531 572.550781 443.304688 C 572.265625 442.878906 571.980469 442.378906 571.695312 441.878906 C 571.054688 440.671875 569.488281 440.242188 568.351562 440.882812 C 567.140625 441.523438 566.714844 443.019531 567.355469 444.230469 C 567.925781 445.296875 568.566406 446.363281 569.417969 447.289062 C 570.488281 448.355469 571.839844 449.070312 573.191406 449.710938 C 574.542969 450.277344 575.96875 450.632812 577.390625 450.988281 C 579.027344 451.347656 580.59375 451.628906 582.230469 451.773438 C 585.292969 452.128906 588.421875 452.128906 591.554688 451.703125 C 594.6875 451.273438 597.746094 450.207031 600.664062 448.925781 C 603.371094 447.714844 605.933594 446.222656 608.421875 444.65625 C 611.058594 442.878906 613.621094 440.957031 616.039062 438.890625 C 617.035156 438.039062 618.03125 437.113281 619.027344 436.1875 C 620.097656 435.121094 621.09375 434.050781 622.089844 432.914062 C 623.085938 431.773438 623.726562 430.421875 624.367188 429.070312 C 624.863281 427.859375 625.363281 426.507812 625.292969 425.15625 C 625.222656 424.445312 625.078125 423.875 624.652344 423.378906 C 624.222656 422.878906 623.582031 422.59375 622.941406 422.59375 C 622.941406 422.59375 622.871094 422.59375 622.871094 422.59375 C 622.019531 422.523438 621.378906 422.808594 620.949219 423.234375 Z M 620.949219 423.234375 " fill-opacity="1" fill-rule="nonzero"/><g clip-path="url(#9fc4e4af72)"><path fill="#5b3e36" d="M 618.886719 421.527344 C 617.960938 422.382812 617.746094 424.089844 618.742188 425.015625 C 618.957031 425.226562 619.171875 425.441406 619.382812 425.65625 C 619.382812 425.726562 619.382812 425.867188 619.382812 425.941406 C 619.242188 426.582031 619.027344 427.21875 618.742188 427.859375 C 618.175781 429 617.390625 429.996094 616.609375 430.992188 C 613.050781 435.121094 608.992188 438.820312 604.578125 442.023438 C 601.234375 444.371094 597.746094 446.433594 593.972656 447.929688 C 591.980469 448.640625 589.988281 449.070312 587.925781 449.351562 C 585.71875 449.496094 583.511719 449.425781 581.375 449.070312 C 579.738281 448.785156 578.171875 448.285156 576.679688 447.644531 C 575.539062 447.074219 574.542969 446.433594 573.546875 445.722656 C 572.691406 445.011719 571.839844 444.230469 571.054688 443.445312 C 570.558594 442.949219 569.988281 442.664062 569.347656 442.664062 C 568.707031 442.664062 568.066406 442.878906 567.566406 443.304688 C 566.644531 444.15625 566.429688 445.867188 567.425781 446.792969 C 568.492188 447.789062 569.5625 448.785156 570.699219 449.710938 C 571.839844 450.632812 573.046875 451.347656 574.402344 451.988281 C 575.824219 452.699219 577.320312 453.195312 578.886719 453.550781 C 580.59375 453.980469 582.371094 454.191406 584.082031 454.335938 C 585.71875 454.476562 587.285156 454.335938 588.921875 454.191406 C 590.488281 454.050781 591.980469 453.765625 593.476562 453.339844 C 595.042969 452.910156 596.535156 452.269531 598.03125 451.628906 C 599.597656 450.917969 601.09375 450.136719 602.585938 449.28125 C 605.363281 447.714844 607.996094 445.796875 610.488281 443.875 C 612.980469 441.878906 615.398438 439.675781 617.605469 437.398438 C 619.8125 435.121094 622.089844 432.699219 623.441406 429.78125 C 624.011719 428.5 624.367188 427.21875 624.507812 425.867188 C 624.507812 425.511719 624.507812 425.15625 624.4375 424.871094 C 624.4375 424.730469 624.4375 424.660156 624.367188 424.515625 C 624.222656 424.160156 624.082031 423.875 624.011719 423.519531 C 623.582031 422.808594 623.085938 422.238281 622.515625 421.667969 C 622.019531 421.171875 621.449219 420.886719 620.808594 420.886719 C 620.808594 420.886719 620.738281 420.886719 620.738281 420.886719 C 619.953125 420.886719 619.3125 421.101562 618.886719 421.527344 Z M 619.3125 425.300781 C 619.382812 425.371094 619.382812 425.511719 619.457031 425.582031 C 619.382812 425.511719 619.3125 425.371094 619.3125 425.300781 Z M 619.457031 425.796875 C 619.457031 425.867188 619.457031 425.941406 619.457031 426.011719 C 619.457031 425.941406 619.457031 425.867188 619.457031 425.796875 Z M 616.464844 431.207031 C 616.394531 431.277344 616.394531 431.277344 616.324219 431.347656 C 616.394531 431.347656 616.464844 431.277344 616.464844 431.207031 Z M 588.351562 449.351562 C 588.28125 449.351562 588.210938 449.351562 588.136719 449.351562 C 588.210938 449.425781 588.28125 449.351562 588.351562 449.351562 Z M 588.351562 449.351562 " fill-opacity="1" fill-rule="nonzero"/></g><path fill="#5b3e36" d="M 228.128906 417.042969 C 227.558594 417.328125 227.132812 417.898438 226.917969 418.46875 C 226.707031 419.035156 226.777344 419.820312 227.132812 420.386719 C 227.84375 421.457031 228.34375 422.59375 228.839844 423.734375 C 229.125 424.515625 229.269531 425.300781 229.410156 426.082031 C 229.554688 428.21875 229.410156 430.351562 229.199219 432.488281 C 228.984375 434.621094 228.699219 436.757812 228.34375 438.890625 C 228.128906 440.171875 227.773438 441.382812 227.417969 442.59375 C 227.132812 443.660156 226.777344 444.65625 226.351562 445.652344 C 226.066406 446.152344 225.78125 446.648438 225.425781 447.148438 C 225.070312 447.574219 224.640625 447.929688 224.214844 448.285156 C 223.929688 448.429688 223.644531 448.640625 223.359375 448.785156 C 223.078125 448.855469 222.863281 448.925781 222.578125 448.925781 C 221.9375 448.925781 221.296875 448.925781 220.65625 448.855469 C 219.160156 448.5 217.738281 447.929688 216.316406 447.289062 C 213.46875 445.9375 210.832031 444.230469 208.34375 442.238281 C 207.347656 441.382812 206.351562 440.386719 205.425781 439.390625 C 204.355469 438.25 203.433594 436.96875 202.578125 435.761719 C 201.582031 434.335938 200.65625 432.914062 199.945312 431.347656 C 199.089844 429.640625 198.378906 427.859375 197.667969 426.082031 C 197.453125 425.511719 196.8125 425.085938 196.242188 424.871094 C 195.601562 424.660156 194.890625 424.730469 194.320312 425.085938 C 193.75 425.371094 193.324219 425.941406 193.109375 426.507812 C 192.898438 427.21875 193.039062 427.789062 193.324219 428.429688 C 193.964844 430.066406 194.675781 431.703125 195.460938 433.269531 C 196.242188 434.90625 197.167969 436.402344 198.234375 437.894531 C 199.304688 439.460938 200.441406 440.957031 201.652344 442.378906 C 202.863281 443.800781 204.214844 445.011719 205.636719 446.222656 C 208.414062 448.5 211.472656 450.347656 214.75 451.84375 C 216.316406 452.554688 217.953125 453.265625 219.660156 453.625 C 221.367188 453.980469 223.359375 454.050781 225.070312 453.480469 C 226.917969 452.839844 228.34375 451.558594 229.554688 450.136719 C 230.621094 448.785156 231.332031 447.289062 231.832031 445.652344 C 232.96875 442.238281 233.539062 438.605469 234.039062 435.046875 C 234.25 433.199219 234.394531 431.347656 234.535156 429.425781 C 234.605469 427.648438 234.605469 425.796875 234.25 424.019531 C 233.964844 422.59375 233.398438 421.242188 232.757812 420.03125 C 232.398438 419.320312 232.042969 418.609375 231.617188 417.96875 C 231.261719 417.398438 230.835938 416.972656 230.195312 416.757812 C 229.980469 416.6875 229.695312 416.617188 229.410156 416.617188 C 228.914062 416.6875 228.484375 416.832031 228.128906 417.042969 Z M 228.128906 417.042969 " fill-opacity="1" fill-rule="nonzero"/><path fill="#35241d" d="M 400.804688 335.34375 C 400.234375 335.699219 399.664062 336.128906 399.09375 336.554688 C 398.382812 337.125 397.957031 337.835938 397.457031 338.546875 C 396.960938 339.1875 396.675781 340.183594 396.390625 340.894531 C 396.175781 341.394531 396.035156 341.890625 395.820312 342.390625 C 395.394531 343.601562 395.179688 344.808594 394.964844 346.019531 C 394.683594 347.585938 394.539062 349.152344 394.324219 350.789062 C 394.042969 353.207031 393.898438 355.628906 393.898438 358.046875 C 392.972656 359.828125 391.90625 361.605469 390.765625 363.242188 C 389.414062 364.878906 387.921875 366.445312 386.210938 367.796875 C 384.929688 368.652344 383.648438 369.433594 382.226562 370.074219 C 380.445312 370.714844 378.667969 371.285156 376.816406 371.570312 C 374.539062 371.78125 372.191406 371.78125 369.914062 371.496094 C 366.851562 371 363.933594 370.003906 361.085938 368.863281 C 358.59375 367.726562 356.316406 366.445312 354.113281 364.808594 C 352.757812 363.742188 351.550781 362.53125 350.480469 361.25 C 349.628906 360.039062 348.914062 358.757812 348.273438 357.40625 C 347.847656 356.339844 347.5625 355.273438 347.277344 354.132812 C 346.851562 352.210938 346.140625 350.433594 345.355469 348.582031 C 344.359375 346.164062 343.078125 343.8125 341.085938 342.105469 C 339.308594 343.171875 337.953125 344.738281 336.816406 346.445312 C 335.960938 347.65625 335.464844 349.152344 335.035156 350.574219 C 334.464844 352.636719 334.539062 354.84375 334.894531 356.910156 C 335.464844 359.683594 336.53125 362.246094 337.882812 364.738281 C 339.234375 367.296875 341.15625 369.71875 343.292969 371.710938 C 345.355469 373.632812 347.632812 375.269531 350.054688 376.765625 C 352.617188 378.328125 355.464844 379.46875 358.238281 380.464844 C 363.578125 382.386719 369.273438 383.382812 374.964844 383.027344 C 380.730469 382.742188 386.425781 380.890625 391.265625 377.6875 C 393.328125 376.265625 395.25 374.558594 396.960938 372.707031 C 397.101562 373.0625 397.316406 373.417969 397.457031 373.703125 C 398.597656 376.050781 400.375 378.1875 402.226562 380.039062 C 404.148438 381.886719 406.355469 383.523438 408.773438 384.734375 C 411.195312 386.015625 413.828125 386.871094 416.460938 387.652344 C 419.023438 388.433594 421.65625 388.863281 424.363281 389.003906 C 425.929688 389.074219 427.492188 388.863281 429.058594 388.648438 C 430.339844 388.433594 431.621094 388.148438 432.902344 387.792969 C 438.097656 386.230469 442.867188 382.882812 446.355469 378.757812 C 449.628906 374.84375 452.761719 370.144531 452.476562 364.808594 C 452.335938 362.316406 451.410156 359.542969 449.488281 357.832031 C 448.207031 358.828125 447.066406 359.898438 446 361.105469 C 444.71875 362.671875 443.4375 364.167969 442.226562 365.804688 C 441.015625 367.371094 440.164062 369.148438 439.023438 370.785156 C 437.957031 372.066406 436.890625 373.277344 435.609375 374.34375 C 434.253906 375.339844 432.832031 376.195312 431.335938 376.90625 C 430.054688 377.402344 428.703125 377.761719 427.28125 377.972656 C 426.070312 378.117188 424.859375 378.117188 423.648438 378.042969 C 420.945312 377.546875 418.3125 376.765625 415.75 375.695312 C 414.398438 375.054688 413.1875 374.34375 411.976562 373.5625 C 410.910156 372.707031 409.984375 371.78125 409.128906 370.714844 C 408.417969 369.71875 407.847656 368.722656 407.351562 367.65625 C 406.78125 366.160156 406.355469 364.664062 406.140625 363.171875 C 405.925781 361.25 405.925781 359.328125 405.925781 357.40625 C 406.710938 355.199219 407.421875 352.921875 408.0625 350.574219 C 408.703125 348.226562 409.414062 345.949219 409.84375 343.527344 C 409.984375 342.605469 410.269531 341.679688 410.125 340.753906 C 410.125 339.6875 409.84375 338.761719 409.34375 337.835938 C 408.988281 337.195312 408.5625 336.695312 408.0625 336.128906 C 407.351562 335.417969 406.496094 334.917969 405.5 334.632812 C 405.003906 334.492188 404.433594 334.421875 403.863281 334.421875 C 402.722656 334.5625 401.65625 334.847656 400.804688 335.34375 Z M 414.683594 375.484375 C 414.753906 375.484375 414.824219 375.554688 414.824219 375.554688 C 414.824219 375.484375 414.753906 375.484375 414.683594 375.484375 Z M 414.683594 375.484375 " fill-opacity="1" fill-rule="nonzero"/><path fill="#35241d" d="M 447.921875 349.863281 C 445.785156 351.640625 444.433594 354.203125 443.722656 356.765625 C 443.578125 357.191406 443.507812 357.621094 443.507812 358.046875 C 443.367188 359.113281 443.222656 360.039062 443.296875 361.105469 C 443.367188 362.742188 443.578125 364.453125 443.863281 366.089844 C 444.292969 368.652344 445.359375 371.140625 446.355469 373.488281 C 447.421875 375.839844 448.917969 377.902344 450.554688 379.964844 C 452.121094 382.03125 454.113281 383.667969 456.179688 385.234375 C 460.378906 388.363281 465.359375 390.5 470.484375 391.78125 C 473.1875 392.492188 475.964844 392.917969 478.742188 393.0625 C 481.304688 393.203125 483.867188 392.847656 486.355469 392.421875 C 488.777344 391.992188 491.125 390.855469 493.261719 389.644531 C 494.113281 389.148438 494.898438 388.648438 495.679688 388.078125 C 496.464844 391.351562 497.671875 394.554688 499.453125 397.472656 C 502.085938 401.742188 505.789062 405.300781 510.199219 407.792969 C 512.40625 409.074219 514.828125 410 517.246094 410.851562 C 519.667969 411.707031 522.15625 412.417969 524.648438 412.84375 C 527.210938 413.34375 529.917969 413.628906 532.550781 413.628906 C 535.183594 413.628906 537.886719 413.273438 540.449219 412.773438 C 543.082031 412.277344 545.574219 411.421875 547.996094 410.355469 C 550.414062 409.285156 552.621094 408.003906 554.683594 406.441406 C 555.683594 405.65625 556.679688 404.875 557.675781 404.019531 C 558.601562 403.167969 559.382812 402.242188 560.167969 401.386719 C 562.160156 399.109375 563.652344 396.40625 564.007812 393.34375 C 564.292969 391.140625 563.652344 388.789062 561.875 387.367188 C 560.523438 386.300781 558.886719 386.085938 557.320312 386.796875 C 557.390625 387.226562 557.460938 387.652344 557.53125 388.078125 C 557.53125 388.292969 557.53125 388.507812 557.53125 388.71875 C 557.460938 388.933594 557.460938 389.074219 557.390625 389.289062 C 557.390625 389.359375 557.320312 389.429688 557.246094 389.503906 C 555.964844 390.996094 554.402344 392.207031 553.121094 393.628906 C 552.480469 394.414062 551.839844 395.195312 551.125 395.90625 C 550.414062 396.691406 549.703125 397.332031 548.921875 397.972656 C 547.210938 399.179688 545.433594 400.25 543.511719 401.101562 C 541.375 401.886719 539.242188 402.453125 537.035156 402.882812 C 534.472656 403.167969 531.910156 403.167969 529.277344 402.882812 C 525.789062 402.3125 522.441406 401.316406 519.238281 400.035156 C 517.316406 399.179688 515.46875 398.183594 513.757812 396.976562 C 512.621094 395.980469 511.554688 394.910156 510.628906 393.773438 C 509.703125 392.492188 508.917969 391.210938 508.277344 389.789062 C 507.425781 387.4375 506.785156 385.019531 506.429688 382.597656 C 506.144531 379.753906 506.070312 376.835938 506.285156 373.917969 C 506.640625 373.132812 506.996094 372.351562 507.351562 371.570312 C 507.921875 370.289062 508.421875 369.007812 508.847656 367.65625 C 509.347656 366.019531 509.0625 364.308594 508.632812 362.742188 C 508.207031 361.25 507.28125 359.96875 505.929688 359.257812 C 505.003906 358.6875 504.007812 358.472656 502.941406 358.472656 C 501.871094 358.472656 500.875 358.757812 499.949219 359.257812 C 499.097656 359.613281 498.742188 359.898438 497.957031 360.539062 C 496.820312 361.390625 496.390625 362.53125 495.894531 363.8125 C 495.253906 365.378906 495.183594 367.226562 494.96875 368.933594 C 494.96875 368.863281 494.96875 368.792969 494.96875 368.722656 C 494.753906 370.144531 494.613281 371.570312 494.46875 372.992188 C 493.902344 373.988281 493.332031 374.984375 492.691406 375.910156 C 491.765625 376.976562 490.769531 378.042969 489.703125 378.898438 C 488.632812 379.679688 487.496094 380.320312 486.285156 380.890625 C 485.289062 381.246094 484.222656 381.53125 483.152344 381.746094 C 481.445312 381.886719 479.738281 381.886719 478.027344 381.746094 C 475.183594 381.246094 472.40625 380.464844 469.703125 379.398438 C 467.566406 378.402344 465.5 377.261719 463.652344 375.839844 C 462.371094 374.769531 461.230469 373.632812 460.164062 372.351562 C 459.167969 370.929688 458.3125 369.503906 457.601562 367.9375 C 457.03125 366.375 456.535156 364.808594 456.25 363.101562 C 456.179688 361.746094 456.179688 360.464844 456.035156 359.113281 C 455.894531 357.335938 455.539062 355.554688 455.179688 353.847656 C 454.683594 351.5 453.828125 349.222656 452.40625 347.300781 C 450.554688 347.800781 449.203125 348.722656 447.921875 349.863281 Z M 447.921875 349.863281 " fill-opacity="1" fill-rule="nonzero"/><path fill="#35241d" d="M 547.210938 409.074219 C 546.5 409.855469 545.859375 410.78125 545.21875 411.707031 C 544.578125 412.703125 544.222656 413.839844 543.796875 414.910156 C 543.367188 415.976562 543.296875 417.398438 543.15625 418.46875 C 543.011719 419.464844 543.011719 420.53125 543.011719 421.527344 C 543.011719 423.519531 543.296875 425.582031 543.652344 427.503906 C 544.007812 429.710938 544.933594 431.703125 545.859375 433.695312 C 547.425781 437.183594 550.058594 440.242188 553.046875 442.664062 C 554.542969 443.875 556.109375 445.011719 557.816406 445.867188 C 559.527344 446.792969 561.375 447.503906 563.15625 448.144531 C 565.574219 449.070312 568.136719 449.710938 570.769531 449.78125 C 574.542969 449.921875 578.957031 448.570312 581.304688 445.4375 C 579.527344 443.375 577.320312 441.738281 574.96875 440.316406 C 573.6875 439.53125 572.335938 438.890625 570.914062 438.324219 C 570.558594 438.179688 570.128906 438.039062 569.773438 437.964844 C 568.707031 437.683594 567.640625 437.328125 566.644531 436.898438 C 565.007812 436.117188 563.441406 435.261719 561.945312 434.265625 C 560.878906 433.339844 559.882812 432.414062 558.957031 431.347656 C 558.171875 430.210938 557.53125 429.070312 556.890625 427.859375 C 556.464844 426.652344 556.109375 425.371094 555.824219 424.089844 C 555.683594 422.453125 555.683594 420.816406 555.824219 419.179688 C 556.039062 417.898438 556.25 416.617188 556.394531 415.265625 C 556.535156 413.839844 556.464844 412.417969 556.25 410.996094 C 555.964844 408.71875 555.398438 406.441406 554.117188 404.449219 C 551.410156 405.230469 549.0625 407.007812 547.210938 409.074219 Z M 547.210938 409.074219 " fill-opacity="1" fill-rule="nonzero"/><path fill="#35241d" d="M 297.738281 348.867188 C 296.886719 349.292969 296.101562 350.003906 296.246094 351 C 296.316406 351 296.386719 351 296.457031 351 C 296.457031 351 296.386719 351 296.386719 351 C 296.457031 351 296.53125 351 296.601562 351.074219 C 296.671875 351.074219 296.671875 351.144531 296.742188 351.144531 C 296.886719 351.285156 297.027344 351.429688 297.097656 351.570312 C 297.242188 351.785156 297.3125 351.925781 297.457031 352.140625 C 297.457031 352.210938 297.527344 352.28125 297.527344 352.355469 C 297.738281 354.632812 297.597656 356.910156 297.667969 359.1875 C 297.667969 360.464844 297.738281 361.675781 297.738281 362.957031 C 297.667969 364.308594 297.597656 365.589844 297.382812 366.941406 C 297.027344 369.503906 296.457031 371.996094 295.890625 374.558594 C 295.320312 376.976562 294.464844 379.253906 293.539062 381.601562 C 292.257812 384.519531 290.695312 387.296875 288.84375 389.929688 C 287.277344 391.851562 285.496094 393.628906 283.574219 395.265625 C 281.796875 396.546875 279.875 397.6875 277.882812 398.613281 C 276.101562 399.324219 274.324219 399.820312 272.402344 400.105469 C 271.261719 400.25 270.125 400.320312 268.984375 400.320312 C 268.488281 398.328125 267.773438 396.40625 266.707031 394.625 C 265.070312 391.992188 262.648438 389.789062 260.015625 388.152344 C 258.804688 387.4375 257.453125 386.941406 256.171875 386.511719 C 254.535156 386.015625 252.96875 386.230469 251.261719 386.511719 C 250.550781 386.65625 249.554688 387.082031 248.984375 387.367188 C 248.34375 387.722656 247.5625 388.222656 247.0625 388.71875 C 246.492188 389.289062 245.921875 389.929688 245.566406 390.570312 C 245 391.425781 244.640625 392.347656 244.285156 393.273438 C 243.71875 394.839844 243.929688 396.546875 244.285156 398.113281 C 244.429688 398.824219 244.925781 399.820312 245.210938 400.460938 C 245.425781 400.960938 245.710938 401.386719 245.996094 401.886719 C 247.632812 404.449219 250.050781 406.367188 252.683594 407.792969 C 254.535156 408.71875 256.386719 409.5 258.308594 410.070312 C 257.882812 412.0625 257.3125 414.054688 256.601562 415.976562 C 255.675781 418.113281 254.535156 420.105469 253.183594 422.027344 C 252.1875 423.164062 251.121094 424.230469 249.980469 425.15625 C 248.84375 425.941406 247.703125 426.652344 246.421875 427.292969 C 244.855469 427.859375 243.289062 428.289062 241.652344 428.5 C 240.726562 428.574219 239.800781 428.644531 238.878906 428.644531 C 237.953125 428.644531 237.027344 428.574219 236.101562 428.429688 C 234.25 428.144531 232.472656 427.789062 230.621094 427.292969 C 229.765625 427.078125 228.839844 426.792969 227.988281 426.507812 C 226.917969 426.152344 225.78125 425.941406 224.640625 425.726562 C 223.433594 425.582031 222.363281 425.441406 221.15625 425.371094 C 219.945312 425.371094 218.734375 425.511719 217.59375 425.726562 C 216.101562 425.941406 214.605469 426.507812 213.324219 427.21875 C 213.679688 429.140625 214.605469 430.921875 215.816406 432.488281 C 216.742188 433.695312 217.667969 434.691406 218.804688 435.617188 C 219.589844 436.257812 220.300781 436.757812 221.15625 437.253906 C 222.222656 437.894531 223.433594 438.324219 224.570312 438.679688 C 227.488281 439.601562 230.480469 440.171875 233.539062 440.601562 C 234.820312 440.742188 236.171875 440.882812 237.453125 440.957031 C 239.304688 441.027344 241.15625 440.8125 243.003906 440.601562 C 245.425781 440.242188 247.703125 439.675781 249.980469 438.75 C 251.40625 438.179688 252.757812 437.539062 254.109375 436.757812 C 255.605469 435.832031 256.957031 434.691406 258.308594 433.554688 C 260.371094 431.773438 262.082031 429.640625 263.574219 427.363281 C 265.140625 424.941406 266.28125 422.238281 267.347656 419.605469 C 268.273438 417.1875 268.914062 414.625 269.269531 412.0625 C 269.339844 411.777344 269.339844 411.492188 269.410156 411.207031 C 270.550781 411.136719 271.691406 411.066406 272.757812 410.921875 C 275.320312 410.566406 277.8125 410.070312 280.230469 409.144531 C 284.785156 407.367188 288.914062 404.804688 292.472656 401.457031 C 294.179688 399.894531 295.675781 398.042969 297.097656 396.191406 C 298.523438 394.34375 299.734375 392.421875 300.800781 390.355469 C 305.214844 381.886719 307.347656 372.351562 307.777344 362.886719 C 307.917969 360.539062 307.777344 358.117188 307.136719 355.839844 C 306.777344 354.632812 306.140625 353.492188 305.5 352.425781 C 304.785156 351.285156 303.71875 350.148438 302.578125 349.363281 C 301.65625 348.796875 300.515625 348.367188 299.449219 348.367188 C 298.949219 348.441406 298.308594 348.582031 297.738281 348.867188 Z M 296.671875 351.074219 C 296.671875 351.074219 296.742188 351.074219 296.742188 351.074219 C 296.742188 351.144531 296.671875 351.144531 296.671875 351.074219 Z M 296.742188 351.144531 C 296.742188 351.144531 296.816406 351.144531 296.816406 351.144531 C 296.816406 351.144531 296.816406 351.144531 296.742188 351.144531 Z M 255.246094 395.054688 C 255.246094 395.125 255.175781 395.125 255.246094 395.054688 C 255.175781 395.125 255.246094 395.125 255.246094 395.054688 Z M 253.398438 397.117188 C 253.324219 397.117188 253.253906 397.117188 253.183594 397.117188 C 253.253906 397.117188 253.324219 397.117188 253.398438 397.117188 Z M 253.398438 397.117188 " fill-opacity="1" fill-rule="nonzero"/><path fill="#35241d" d="M 320.660156 343.171875 C 318.949219 343.8125 317.527344 344.808594 316.246094 346.019531 C 315.320312 346.875 314.609375 347.871094 313.898438 348.796875 C 312.902344 350.148438 312.1875 351.5 311.621094 353.066406 C 311.191406 354.132812 311.050781 355.199219 310.835938 356.269531 C 310.621094 357.90625 310.410156 359.46875 310.410156 361.179688 C 310.410156 364.023438 310.765625 366.941406 311.476562 369.648438 C 311.832031 370.929688 312.402344 372.210938 312.972656 373.417969 C 313.46875 374.558594 314.109375 375.625 314.75 376.621094 C 316.101562 378.828125 317.8125 380.820312 319.519531 382.742188 C 321.015625 384.449219 322.792969 385.945312 324.574219 387.367188 C 326.78125 389.074219 329.058594 390.710938 331.476562 392.066406 C 335.890625 394.554688 340.730469 396.335938 345.570312 397.898438 C 347.988281 398.683594 350.410156 399.179688 352.902344 399.609375 C 354.679688 399.894531 356.390625 400.175781 358.238281 400.035156 C 361.941406 399.679688 365.925781 398.46875 368.488281 395.621094 C 367.5625 394.414062 366.566406 393.417969 365.355469 392.492188 C 363.363281 390.996094 361.15625 389.789062 358.738281 389.074219 C 358.238281 388.933594 357.742188 388.863281 357.3125 388.71875 C 355.75 388.363281 354.183594 388.148438 352.6875 387.792969 C 349.769531 387.082031 346.992188 386.085938 344.21875 384.949219 C 340.515625 383.3125 337.027344 381.390625 333.753906 378.96875 C 331.40625 377.046875 329.269531 374.984375 327.347656 372.636719 C 326.210938 371.070312 325.214844 369.503906 324.359375 367.796875 C 323.933594 366.660156 323.648438 365.449219 323.433594 364.238281 C 323.292969 362.386719 323.292969 360.609375 323.433594 358.757812 C 323.648438 357.40625 323.863281 356.054688 324.003906 354.703125 C 324.144531 352.921875 323.933594 351.214844 323.648438 349.507812 C 323.433594 348.082031 322.863281 346.804688 322.296875 345.523438 C 321.726562 344.667969 321.226562 343.886719 320.660156 343.171875 Z M 365.640625 392.847656 C 365.5 392.777344 365.355469 392.632812 365.285156 392.5625 C 365.429688 392.632812 365.570312 392.777344 365.640625 392.847656 Z M 365.285156 392.5625 Z M 365.285156 392.5625 C 365.214844 392.492188 365.074219 392.421875 365 392.347656 C 365.074219 392.421875 365.144531 392.492188 365.285156 392.5625 Z M 365.285156 392.5625 " fill-opacity="1" fill-rule="nonzero"/><path fill="#35241d" d="M 275.960938 215.714844 C 273.46875 216.285156 270.976562 217.136719 268.628906 218.132812 C 265.78125 219.273438 263.078125 220.625 260.515625 222.261719 C 251.046875 228.382812 243.859375 237.847656 241.082031 248.808594 C 240.371094 251.511719 240.085938 254.214844 239.730469 256.992188 C 239.589844 258.058594 239.445312 259.125 239.375 260.121094 C 238.378906 260.550781 237.382812 260.976562 236.457031 261.476562 C 234.039062 262.753906 231.902344 264.464844 229.839844 266.171875 C 227.773438 267.878906 225.851562 269.871094 224.214844 271.9375 C 217.097656 280.832031 213.324219 292.21875 212.96875 303.605469 C 212.898438 306.238281 213.183594 308.941406 213.894531 311.433594 C 214.25 312.644531 214.820312 313.851562 215.316406 315.0625 C 215.886719 316.414062 216.882812 317.625 217.878906 318.621094 C 218.734375 319.402344 219.730469 320.117188 220.726562 320.757812 C 221.722656 321.324219 222.863281 321.753906 224 322.109375 C 225.636719 322.605469 227.558594 322.675781 229.054688 321.753906 C 228.839844 321.253906 228.628906 320.828125 228.484375 320.328125 C 227.773438 318.621094 227.132812 316.914062 226.277344 315.203125 C 225.355469 313.355469 224.285156 311.574219 223.433594 309.726562 C 223.078125 308.65625 222.71875 307.589844 222.578125 306.523438 C 222.363281 304.246094 222.4375 301.96875 222.71875 299.691406 C 223.359375 295.707031 224.429688 291.792969 225.921875 288.019531 C 227.277344 284.960938 229.054688 281.96875 231.046875 279.265625 C 232.96875 276.917969 235.105469 274.78125 237.453125 272.933594 C 238.59375 272.078125 239.800781 271.296875 241.011719 270.65625 C 242.363281 274.140625 244.570312 277.34375 247.347656 279.90625 C 251.546875 283.75 257.097656 286.667969 262.933594 286.3125 C 265.925781 286.097656 268.769531 284.960938 271.050781 283.039062 C 273.253906 281.1875 274.964844 278.414062 275.53125 275.566406 C 276.171875 272.648438 275.960938 269.515625 274.679688 266.742188 C 273.46875 264.179688 271.121094 262.328125 268.769531 260.976562 C 264.074219 258.199219 258.378906 257.203125 252.96875 257.277344 C 251.902344 257.277344 250.765625 257.347656 249.695312 257.488281 C 250.195312 254.429688 250.90625 251.367188 252.042969 248.453125 C 253.253906 245.816406 254.75 243.257812 256.457031 240.90625 C 258.378906 238.558594 260.585938 236.425781 262.933594 234.503906 C 265.425781 232.652344 268.058594 231.085938 270.90625 229.804688 C 274.25 228.523438 277.667969 227.527344 281.15625 226.960938 C 286.28125 226.390625 291.546875 226.601562 296.671875 227.242188 C 298.59375 227.527344 300.445312 227.882812 302.296875 228.382812 C 303.363281 228.667969 304.429688 228.953125 305.425781 229.308594 C 306.636719 229.734375 307.847656 230.160156 309.128906 230.445312 C 311.40625 230.945312 313.753906 231.15625 316.03125 230.875 C 317.742188 230.660156 319.449219 230.375 320.941406 229.59375 C 320.660156 227.597656 319.875 225.820312 318.738281 224.113281 C 317.953125 222.972656 317.027344 221.90625 315.960938 220.910156 C 314.394531 219.414062 312.542969 218.417969 310.550781 217.636719 C 305.070312 215.574219 299.09375 214.789062 293.253906 214.433594 C 291.761719 214.363281 290.335938 214.292969 288.84375 214.292969 C 284.574219 214.363281 280.230469 214.71875 275.960938 215.714844 Z M 256.957031 267.949219 C 258.59375 268.234375 260.085938 268.589844 261.652344 269.160156 C 262.722656 269.660156 263.71875 270.15625 264.644531 270.867188 C 264.855469 271.082031 265.070312 271.296875 265.285156 271.507812 C 265.285156 271.507812 265.285156 271.582031 265.355469 271.582031 C 265.425781 271.722656 265.425781 271.863281 265.496094 272.078125 C 265.496094 272.503906 265.496094 273.003906 265.496094 273.429688 C 265.425781 273.714844 265.355469 274 265.285156 274.355469 C 265.070312 274.710938 264.929688 274.996094 264.714844 275.351562 C 264.570312 275.496094 264.429688 275.636719 264.289062 275.851562 C 264.003906 276.0625 263.648438 276.207031 263.289062 276.417969 C 262.933594 276.5625 262.648438 276.632812 262.292969 276.703125 C 261.796875 276.703125 261.226562 276.703125 260.726562 276.703125 C 259.875 276.5625 259.089844 276.347656 258.238281 276.0625 C 257.097656 275.496094 256.101562 274.855469 255.035156 274.140625 C 253.964844 273.289062 252.96875 272.292969 252.042969 271.222656 C 251.332031 270.226562 250.765625 269.160156 250.265625 268.09375 C 252.472656 267.738281 254.75 267.738281 256.957031 267.949219 Z M 256.957031 267.949219 " fill-opacity="1" fill-rule="nonzero"/><g clip-path="url(#bef6fac308)"><path fill="#35241d" d="M 203.359375 330.078125 C 202.152344 330.292969 200.941406 330.648438 199.800781 331.074219 C 196.953125 332.070312 194.179688 333.351562 191.546875 334.988281 C 189.125 336.484375 186.847656 338.261719 184.785156 340.183594 C 182.578125 342.175781 180.726562 344.453125 178.945312 346.804688 C 175.601562 351.214844 173.609375 356.410156 172.398438 361.746094 C 171.757812 364.523438 171.332031 367.296875 171.1875 370.144531 C 171.046875 372.992188 171.472656 375.980469 172.257812 378.683594 C 172.613281 380.039062 173.253906 381.390625 173.824219 382.671875 C 174.390625 383.953125 175.246094 385.089844 176.101562 386.15625 C 177.523438 387.9375 179.160156 389.429688 180.941406 390.785156 C 180.511719 391.921875 180.085938 393.132812 179.730469 394.34375 C 179.019531 396.832031 178.589844 399.394531 178.234375 401.886719 C 177.808594 404.804688 177.523438 407.722656 177.523438 410.710938 C 177.453125 416.261719 178.304688 421.953125 180.085938 427.21875 C 180.941406 429.855469 182.078125 432.414062 183.429688 434.835938 C 184.785156 437.253906 186.347656 439.390625 188.058594 441.523438 C 188.839844 442.519531 189.695312 443.519531 190.621094 444.371094 C 191.6875 445.296875 192.898438 446.152344 194.179688 446.792969 C 195.53125 447.503906 197.027344 447.929688 198.519531 448.144531 C 200.15625 448.429688 201.9375 448.429688 203.359375 447.574219 C 203.21875 447.21875 203.074219 446.792969 202.933594 446.433594 C 202.507812 445.226562 201.867188 444.085938 201.226562 443.019531 C 200.511719 441.808594 199.730469 440.671875 199.019531 439.53125 C 197.808594 437.753906 196.3125 436.1875 194.960938 434.480469 C 193.253906 432.203125 191.828125 429.78125 190.691406 427.148438 C 189.550781 424.160156 188.699219 421.171875 188.199219 418.039062 C 187.773438 413.984375 187.773438 409.925781 188.199219 405.871094 C 188.484375 404.019531 188.839844 402.171875 189.269531 400.320312 C 189.625 398.683594 190.050781 397.046875 190.621094 395.480469 C 193.109375 396.191406 195.746094 396.546875 198.308594 396.902344 C 199.660156 397.046875 200.941406 397.046875 202.292969 396.976562 C 203.714844 396.832031 205.210938 396.621094 206.5625 396.121094 C 208.058594 395.550781 209.625 394.839844 210.832031 393.703125 C 211.402344 393.132812 211.972656 392.492188 212.398438 391.851562 C 212.96875 390.996094 213.394531 390.070312 213.679688 389.074219 C 213.753906 388.433594 213.824219 387.792969 213.964844 387.152344 C 213.894531 386.371094 213.824219 385.589844 213.609375 384.804688 C 213.183594 383.238281 212.1875 381.886719 211.117188 380.679688 C 210.050781 379.46875 208.484375 378.828125 207.0625 378.257812 C 206.066406 377.832031 205.070312 377.546875 204.070312 377.261719 C 202.648438 376.90625 201.152344 376.691406 199.730469 376.550781 C 198.308594 376.40625 196.8125 376.691406 195.460938 376.976562 C 194.035156 377.261719 192.683594 377.832031 191.332031 378.402344 C 190.050781 379.042969 188.984375 379.824219 187.773438 380.75 C 187.203125 381.246094 186.632812 381.746094 186.136719 382.386719 C 185.351562 381.675781 184.640625 380.960938 184 380.179688 C 183.574219 379.539062 183.144531 378.828125 182.789062 378.117188 C 182.292969 376.765625 181.9375 375.410156 181.722656 374.058594 C 181.582031 372.636719 181.652344 371.210938 181.792969 369.71875 C 182.363281 366.375 183.21875 363.171875 184.5 360.039062 C 185.425781 357.976562 186.5625 356.054688 187.914062 354.203125 C 189.765625 351.996094 191.757812 349.933594 194.035156 348.082031 C 196.242188 346.519531 198.519531 345.167969 200.941406 344.027344 C 202.792969 343.316406 204.710938 342.746094 206.632812 342.390625 C 207.914062 342.25 209.125 342.035156 210.40625 341.820312 C 211.546875 341.609375 212.683594 341.25 213.824219 340.96875 C 215.601562 340.46875 217.382812 340.113281 219.160156 339.472656 C 219.089844 337.480469 218.234375 335.699219 217.097656 334.207031 C 216.242188 333.140625 215.175781 332.355469 214.035156 331.644531 C 213.324219 331.21875 212.328125 330.789062 211.617188 330.578125 C 210.476562 330.148438 209.410156 330.007812 208.199219 329.867188 C 207.84375 329.792969 207.488281 329.792969 207.203125 329.792969 C 205.851562 329.652344 204.570312 329.867188 203.359375 330.078125 Z M 203.644531 388.292969 C 203.644531 388.292969 203.644531 388.363281 203.644531 388.363281 C 203.644531 388.363281 203.644531 388.292969 203.644531 388.292969 Z M 203.644531 388.292969 " fill-opacity="1" fill-rule="nonzero"/></g><g clip-path="url(#05f48cc61c)"><path fill="#35241d" d="M 445.289062 171.949219 C 439.59375 171.949219 433.828125 172.660156 428.277344 173.941406 C 422.9375 175.222656 417.601562 177.070312 412.832031 179.847656 C 411.480469 180.628906 410.199219 181.484375 408.988281 182.480469 C 408.847656 182.410156 408.632812 182.335938 408.488281 182.265625 C 403.933594 180.417969 399.164062 179.492188 394.253906 179.0625 C 391.761719 178.851562 389.34375 178.851562 386.851562 178.78125 C 384.148438 178.78125 381.441406 178.851562 378.738281 179.0625 C 373.472656 179.421875 368.132812 180.273438 363.007812 181.484375 C 358.027344 182.695312 353.1875 184.6875 348.773438 187.25 C 346.78125 188.457031 344.859375 189.738281 343.007812 191.164062 C 340.800781 192.871094 338.738281 194.648438 336.746094 196.570312 C 333.1875 200.199219 330.054688 204.398438 327.703125 208.882812 C 326.496094 211.230469 325.425781 213.792969 324.644531 216.285156 C 324.21875 217.566406 323.933594 218.847656 323.648438 220.128906 C 323.292969 221.765625 323.078125 223.402344 323.292969 225.109375 C 323.363281 225.890625 323.433594 226.601562 323.648438 227.316406 C 323.789062 228.097656 324.289062 229.09375 324.644531 229.804688 C 325.285156 231.015625 326.066406 232.082031 326.992188 233.078125 C 328.203125 234.359375 329.769531 235.429688 331.476562 235.996094 C 333.398438 233.433594 334.253906 230.375 335.179688 227.316406 C 335.746094 225.394531 335.960938 223.472656 336.386719 221.550781 C 336.816406 219.699219 337.386719 217.851562 338.097656 216.070312 C 339.449219 213.082031 341.085938 210.304688 343.078125 207.671875 C 345.5 204.683594 348.203125 201.980469 351.191406 199.558594 C 354.183594 197.355469 357.386719 195.359375 360.730469 193.867188 C 365.855469 191.804688 371.335938 190.59375 376.816406 189.808594 C 380.160156 189.382812 383.578125 189.167969 386.921875 189.097656 C 390.339844 189.027344 393.757812 189.027344 397.171875 189.382812 C 398.382812 189.597656 399.664062 189.808594 400.875 190.09375 C 400.804688 190.167969 400.730469 190.308594 400.660156 190.378906 C 398.953125 192.515625 397.316406 194.722656 395.960938 197.070312 C 394.46875 199.632812 393.257812 202.476562 392.332031 205.324219 C 391.40625 207.957031 390.910156 210.804688 390.695312 213.578125 C 390.410156 216.640625 390.839844 219.769531 391.40625 222.761719 C 391.90625 225.394531 392.832031 227.957031 393.96875 230.375 C 394.609375 231.65625 395.535156 232.792969 396.390625 233.863281 C 397.386719 235.144531 398.738281 236.140625 400.089844 237.066406 C 400.519531 237.421875 401.085938 237.632812 401.585938 237.847656 C 402.367188 238.203125 403.082031 238.488281 403.933594 238.703125 C 405.359375 239.058594 406.851562 239.058594 408.277344 238.984375 C 409.769531 238.914062 411.195312 238.628906 412.617188 238.273438 C 414.253906 237.847656 415.820312 237.066406 417.316406 236.351562 C 419.808594 235.214844 422.011719 233.648438 424.007812 231.726562 C 425.074219 230.730469 425.929688 229.519531 426.851562 228.3125 C 427.851562 226.960938 428.417969 225.394531 428.988281 223.898438 C 429.414062 222.761719 429.699219 221.550781 429.914062 220.339844 C 430.128906 218.917969 430.269531 217.421875 430.269531 216 C 430.199219 214.503906 429.984375 213.011719 429.773438 211.585938 C 429.558594 210.09375 429.273438 208.597656 428.917969 207.175781 C 428.277344 204.46875 427.136719 201.910156 426.070312 199.347656 C 425.570312 198.207031 425.003906 197.070312 424.363281 195.929688 C 423.578125 194.507812 422.511719 193.15625 421.515625 191.875 C 420.589844 190.734375 419.59375 189.597656 418.527344 188.601562 C 419.878906 187.746094 421.300781 187.035156 422.796875 186.394531 C 427.636719 184.472656 432.761719 183.121094 437.957031 182.335938 C 442.511719 181.769531 447.136719 181.554688 451.765625 182.054688 C 454.898438 182.550781 457.957031 183.40625 460.945312 184.542969 C 463.4375 185.683594 465.714844 187.035156 467.851562 188.601562 C 469.914062 190.238281 471.765625 192.085938 473.402344 194.082031 C 475.75 197.210938 477.742188 200.628906 479.308594 204.1875 C 480.804688 207.816406 481.945312 211.585938 482.726562 215.429688 C 482.65625 215.5 482.585938 215.5 482.511719 215.574219 C 481.230469 216.355469 480.09375 217.28125 478.953125 218.277344 C 476.820312 220.054688 475.039062 222.476562 473.828125 225.039062 C 473.1875 226.390625 472.691406 227.742188 472.261719 229.164062 C 471.835938 230.589844 471.695312 232.152344 471.550781 233.648438 C 471.410156 234.929688 471.550781 236.140625 471.695312 237.421875 C 471.90625 239.058594 472.121094 240.621094 472.621094 242.1875 C 473.542969 245.105469 475.464844 247.8125 478.171875 249.304688 C 481.585938 251.15625 486.070312 249.875 488.421875 246.957031 C 490.269531 244.679688 491.550781 242.046875 492.546875 239.269531 C 492.976562 238.0625 493.1875 236.707031 493.402344 235.429688 C 493.6875 233.71875 493.828125 231.941406 493.828125 230.160156 C 493.902344 227.8125 493.6875 225.394531 493.402344 223.042969 C 494.542969 222.761719 495.609375 222.476562 496.75 222.261719 C 498.101562 222.121094 499.453125 222.121094 500.804688 222.261719 C 502.371094 222.546875 503.867188 222.902344 505.289062 223.472656 C 506.570312 224.042969 507.710938 224.753906 508.847656 225.535156 C 509.773438 226.320312 510.554688 227.171875 511.339844 228.097656 C 512.335938 229.519531 513.117188 230.945312 513.832031 232.511719 C 514.1875 233.433594 514.542969 234.429688 514.828125 235.429688 C 515.324219 237.066406 515.964844 238.628906 516.675781 240.195312 C 517.675781 242.402344 519.167969 244.253906 520.09375 246.457031 C 520.234375 246.742188 520.308594 247.097656 520.449219 247.382812 C 522.300781 247.097656 523.582031 245.746094 524.507812 244.179688 C 525.148438 243.113281 525.503906 241.761719 525.714844 240.550781 C 526 238.984375 526.074219 237.492188 525.929688 235.925781 C 525.789062 235 525.714844 234.074219 525.433594 233.222656 C 525.289062 232.582031 525.003906 231.941406 524.792969 231.300781 C 524.292969 229.804688 523.652344 228.382812 523.011719 226.960938 C 521.800781 224.253906 520.09375 221.835938 518.171875 219.628906 C 516.394531 217.636719 514.113281 216 511.765625 214.648438 C 509.203125 213.222656 506.355469 212.226562 503.4375 211.730469 C 501.945312 211.445312 500.449219 211.300781 498.953125 211.230469 C 497.386719 211.160156 495.824219 211.375 494.257812 211.585938 C 493.332031 211.730469 492.40625 211.871094 491.480469 212.085938 C 490.269531 206.820312 488.421875 201.695312 486 196.855469 C 483.582031 192.015625 480.304688 187.320312 476.320312 183.617188 C 474.328125 181.769531 472.191406 180.132812 469.914062 178.636719 C 467.421875 177 464.71875 175.863281 462.015625 174.792969 C 456.675781 172.730469 450.980469 171.949219 445.429688 171.949219 C 445.359375 171.949219 445.289062 171.949219 445.289062 171.949219 Z M 410.695312 194.792969 C 412.046875 196 413.328125 197.28125 414.46875 198.707031 C 415.820312 200.628906 416.886719 202.621094 417.8125 204.753906 C 419.023438 207.746094 419.808594 210.734375 420.234375 213.863281 C 420.375 215.214844 420.449219 216.496094 420.375 217.851562 C 420.164062 218.917969 419.878906 219.914062 419.523438 220.910156 C 419.167969 221.621094 418.808594 222.332031 418.382812 222.972656 C 417.671875 223.828125 416.816406 224.609375 415.964844 225.394531 C 414.824219 226.175781 413.6875 226.816406 412.40625 227.386719 C 411.265625 227.8125 410.054688 228.238281 408.847656 228.523438 C 408.0625 228.597656 407.28125 228.597656 406.566406 228.597656 C 406.425781 228.597656 406.285156 228.523438 406.140625 228.453125 C 405.925781 228.3125 405.644531 228.167969 405.429688 228.027344 C 404.929688 227.597656 404.433594 227.101562 404.003906 226.601562 C 403.578125 225.960938 403.222656 225.320312 402.867188 224.609375 C 402.15625 222.761719 401.726562 220.769531 401.371094 218.773438 C 401.160156 216.851562 401.160156 215.003906 401.300781 213.082031 C 401.726562 210.589844 402.441406 208.242188 403.363281 205.894531 C 404.644531 203.046875 406.210938 200.34375 408.0625 197.851562 C 408.917969 196.714844 409.769531 195.71875 410.695312 194.792969 Z M 483.792969 229.734375 C 483.792969 230.589844 483.722656 231.441406 483.652344 232.226562 C 483.4375 233.507812 483.152344 234.789062 482.726562 235.996094 C 482.65625 235.070312 482.65625 234.148438 482.726562 233.222656 C 482.941406 232.152344 483.226562 231.15625 483.582031 230.160156 C 483.652344 230.089844 483.722656 229.949219 483.792969 229.734375 Z M 483.792969 229.734375 " fill-opacity="1" fill-rule="nonzero"/></g><path fill="#35241d" d="M 514.042969 208.027344 C 511.695312 208.953125 509.632812 210.234375 508.136719 212.226562 C 509.488281 214.21875 511.410156 215.714844 513.472656 216.925781 C 514.96875 217.851562 516.605469 218.492188 518.242188 219.128906 C 519.382812 219.628906 520.519531 219.984375 521.660156 220.410156 C 523.011719 221.050781 524.363281 221.835938 525.574219 222.6875 C 526.996094 223.898438 528.351562 225.25 529.558594 226.675781 C 530.984375 228.667969 532.121094 230.730469 533.046875 232.9375 C 533.972656 235.214844 534.683594 237.492188 535.324219 239.910156 C 535.964844 242.542969 536.464844 245.320312 536.820312 248.023438 C 537.105469 250.445312 537.246094 252.863281 537.175781 255.28125 C 535.253906 255.996094 533.402344 256.777344 531.625 257.703125 C 529.277344 258.914062 527.070312 260.550781 525.078125 262.257812 C 522.941406 264.109375 521.160156 266.3125 519.808594 268.734375 C 519.097656 270.015625 518.527344 271.4375 518.03125 272.859375 C 517.53125 274.285156 517.390625 275.777344 517.246094 277.203125 C 517.105469 278.484375 517.390625 279.835938 517.601562 281.117188 C 517.675781 281.613281 517.816406 282.042969 518.03125 282.46875 C 518.457031 283.535156 519.027344 284.816406 519.878906 285.601562 C 521.089844 286.667969 522.441406 287.519531 524.078125 287.878906 C 525.21875 288.160156 526.285156 288.160156 527.425781 287.878906 C 528.207031 287.734375 528.917969 287.378906 529.632812 287.023438 C 530.128906 286.808594 530.558594 286.382812 530.984375 286.027344 C 531.695312 285.527344 532.335938 285.03125 533.046875 284.460938 C 534.117188 283.535156 535.183594 282.609375 536.179688 281.613281 C 538.101562 279.765625 539.738281 277.558594 541.304688 275.351562 C 542.871094 273.144531 544.082031 270.796875 545.21875 268.304688 C 545.929688 266.742188 546.5 265.175781 547 263.539062 C 548.992188 263.113281 550.984375 262.753906 552.976562 262.472656 C 556.964844 261.972656 561.019531 261.617188 565.007812 262.042969 C 567.496094 262.472656 569.917969 263.039062 572.265625 263.894531 C 573.761719 264.605469 575.183594 265.460938 576.535156 266.457031 C 578.457031 268.023438 580.238281 269.730469 581.804688 271.652344 C 583.441406 273.929688 584.722656 276.347656 585.859375 278.910156 C 587.140625 282.253906 587.996094 285.742188 588.496094 289.230469 C 588.851562 292.074219 588.921875 294.921875 588.566406 297.769531 C 588.210938 299.691406 587.78125 301.613281 587.070312 303.390625 C 586.359375 304.957031 585.433594 306.523438 584.4375 307.945312 C 584.292969 308.089844 584.222656 308.230469 584.082031 308.375 C 583.371094 308.230469 582.65625 308.160156 581.945312 308.089844 C 580.664062 307.945312 579.242188 308.089844 578.03125 308.375 C 576.394531 308.730469 574.828125 309.371094 573.332031 310.292969 C 572.195312 311.007812 571.128906 311.929688 570.273438 313 C 569.0625 314.492188 568.28125 316.058594 568.351562 318.050781 C 568.421875 319.332031 568.707031 320.042969 569.207031 321.183594 C 569.488281 321.824219 569.917969 322.535156 570.414062 322.960938 C 570.488281 323.035156 570.558594 323.105469 570.699219 323.175781 C 571.339844 323.816406 572.125 324.3125 573.050781 324.527344 C 573.832031 324.882812 574.757812 324.882812 575.609375 324.882812 C 578.457031 324.8125 580.949219 323.53125 583.296875 322.035156 C 585.789062 320.542969 587.996094 318.550781 589.988281 316.484375 C 593.902344 312.5 596.464844 307.234375 597.605469 301.824219 C 598.175781 299.121094 598.457031 296.273438 598.386719 293.5 C 598.386719 290.4375 597.890625 287.308594 597.320312 284.246094 C 596.394531 278.769531 594.332031 273.429688 591.554688 268.589844 C 590.203125 266.242188 588.496094 264.179688 586.644531 262.1875 C 584.652344 260.050781 582.371094 258.199219 579.953125 256.5625 C 577.746094 255.140625 575.328125 254.074219 572.835938 253.289062 C 570.128906 252.367188 567.285156 251.9375 564.4375 251.582031 C 559.167969 250.941406 553.761719 251.582031 548.492188 252.367188 C 548.492188 251.9375 548.492188 251.441406 548.492188 251.011719 C 548.421875 247.882812 547.996094 244.75 547.566406 241.621094 C 547.210938 238.84375 546.714844 236.140625 546.003906 233.433594 C 545.21875 230.515625 544.082031 227.742188 542.871094 225.039062 C 541.660156 222.332031 540.09375 219.914062 538.242188 217.566406 C 536.394531 215.214844 534.328125 213.296875 531.910156 211.515625 C 529.488281 209.738281 526.785156 208.527344 523.9375 207.460938 C 522.515625 206.890625 520.949219 206.675781 519.453125 206.675781 C 517.53125 206.960938 515.753906 207.316406 514.042969 208.027344 Z M 514.042969 208.027344 " fill-opacity="1" fill-rule="nonzero"/><g clip-path="url(#f50611c199)"><path fill="#35241d" d="M 601.234375 306.878906 C 599.597656 306.949219 597.960938 307.304688 596.464844 307.945312 C 596.75 310.578125 597.890625 313.070312 599.457031 315.132812 C 600.523438 316.558594 601.660156 317.910156 603.015625 319.046875 C 604.4375 320.257812 605.933594 321.253906 607.425781 322.320312 C 611.414062 325.453125 615.257812 328.941406 618.460938 332.925781 C 620.453125 335.558594 622.160156 338.40625 623.511719 341.464844 C 625.222656 345.878906 626.359375 350.574219 627.070312 355.273438 C 627.640625 359.96875 627.925781 364.738281 627.570312 369.503906 C 626.929688 368.933594 626.21875 368.4375 625.503906 367.9375 C 624.507812 367.226562 623.441406 366.65625 622.300781 366.160156 C 620.949219 365.519531 619.597656 365.019531 618.175781 364.738281 C 616.539062 364.382812 614.757812 364.238281 613.050781 364.238281 C 607.214844 364.167969 601.375 365.519531 596.324219 368.4375 C 594.046875 369.71875 591.980469 371.640625 590.34375 373.632812 C 589.417969 374.769531 588.636719 375.910156 587.925781 377.261719 C 587.210938 378.757812 586.714844 380.25 586.429688 381.886719 C 586.214844 383.382812 586.074219 384.804688 586.144531 386.300781 C 586.144531 387.792969 586.429688 389.289062 586.714844 390.710938 C 587 392.207031 587.570312 393.628906 588.210938 395.054688 C 588.777344 396.335938 589.417969 397.542969 590.273438 398.683594 C 591.054688 399.820312 591.980469 400.890625 593.050781 401.8125 C 593.691406 402.3125 594.257812 402.738281 594.972656 403.167969 C 595.613281 403.523438 596.464844 403.878906 597.175781 404.164062 C 598.175781 404.519531 599.242188 404.804688 600.308594 404.945312 C 601.234375 405.089844 602.089844 405.160156 602.941406 405.230469 C 604.082031 405.300781 605.148438 405.089844 606.289062 404.945312 C 608.921875 404.589844 611.554688 404.019531 614.046875 403.09375 C 616.820312 402.097656 619.597656 400.816406 622.089844 399.179688 C 624.011719 397.898438 625.71875 396.40625 627.285156 394.769531 C 627.785156 399.820312 627.855469 404.945312 627.285156 410 C 626.714844 413.414062 625.863281 416.832031 624.582031 420.03125 C 623.226562 423.023438 621.734375 425.867188 619.953125 428.574219 C 619.027344 430.066406 617.890625 431.492188 616.894531 432.984375 C 616.394531 433.769531 615.96875 434.691406 615.539062 435.546875 C 614.332031 438.25 613.476562 441.027344 613.261719 444.015625 C 615.539062 444.585938 617.890625 443.589844 619.953125 442.664062 C 620.738281 442.308594 621.449219 441.808594 622.160156 441.3125 C 622.730469 440.882812 623.300781 440.457031 623.796875 440.03125 C 625.148438 438.890625 626.21875 437.398438 627.214844 435.902344 C 630.417969 431.277344 633.121094 426.152344 635.042969 420.816406 C 637.035156 415.265625 637.820312 409.359375 637.890625 403.449219 C 638.03125 397.617188 637.464844 391.707031 636.183594 386.015625 C 635.898438 384.734375 635.613281 383.523438 635.183594 382.316406 C 636.75 378.328125 637.675781 374.128906 638.175781 369.933594 C 638.816406 364.453125 638.53125 358.828125 637.960938 353.421875 C 637.320312 347.800781 636.253906 342.105469 634.117188 336.839844 C 632.550781 332.855469 630.488281 329.226562 627.996094 325.808594 C 625.433594 322.25 622.375 319.121094 619.171875 316.203125 C 617.675781 314.847656 616.109375 313.566406 614.542969 312.359375 C 613.40625 311.503906 612.265625 310.578125 611.128906 309.796875 C 609.988281 308.941406 608.566406 308.515625 607.285156 308.015625 C 606.5 307.734375 605.648438 307.589844 604.792969 307.449219 C 603.726562 307.304688 602.730469 307.164062 601.660156 307.164062 C 601.589844 306.878906 601.375 306.878906 601.234375 306.878906 Z M 615.257812 374.84375 C 616.039062 374.984375 616.820312 375.199219 617.535156 375.484375 C 618.460938 375.980469 619.382812 376.480469 620.238281 377.046875 C 620.949219 377.617188 621.589844 378.257812 622.160156 378.96875 C 622.800781 379.894531 623.371094 380.820312 623.941406 381.816406 C 623.15625 383.238281 622.300781 384.664062 621.304688 386.015625 C 620.167969 387.4375 618.886719 388.789062 617.460938 390 C 615.824219 391.140625 614.046875 392.136719 612.195312 392.917969 C 609.917969 393.773438 607.570312 394.414062 605.148438 394.769531 C 604.296875 394.839844 603.441406 394.910156 602.585938 394.839844 C 601.945312 394.699219 601.375 394.554688 600.734375 394.34375 C 600.453125 394.199219 600.238281 394.058594 599.953125 393.914062 C 599.738281 393.703125 599.457031 393.417969 599.242188 393.203125 C 598.671875 392.347656 598.175781 391.425781 597.746094 390.5 C 597.390625 389.503906 597.105469 388.433594 596.894531 387.4375 C 596.820312 386.300781 596.820312 385.160156 596.894531 384.023438 C 597.035156 383.453125 597.105469 382.957031 597.320312 382.386719 C 597.605469 381.746094 597.960938 381.175781 598.386719 380.605469 C 599.097656 379.753906 599.953125 378.96875 600.808594 378.1875 C 601.804688 377.476562 602.871094 376.90625 603.9375 376.40625 C 605.71875 375.695312 607.570312 375.199219 609.417969 374.914062 C 611.339844 374.769531 613.261719 374.699219 615.257812 374.84375 Z M 615.257812 374.84375 " fill-opacity="1" fill-rule="nonzero"/></g><g clip-path="url(#00b8f77bc7)"><path fill="#35241d" d="M 192.042969 310.4375 C 188.839844 310.4375 185.707031 311.007812 182.578125 311.648438 C 180.796875 312.003906 179.089844 312.714844 177.59375 313.710938 C 176.527344 314.421875 175.386719 315.277344 174.535156 316.203125 C 172.96875 317.910156 171.6875 319.902344 171.1875 322.179688 C 172.613281 322.890625 174.105469 323.390625 175.671875 323.746094 C 177.238281 324.03125 178.804688 324.171875 180.371094 324.242188 C 183.003906 324.3125 185.566406 323.671875 188.128906 323.246094 C 191.757812 322.890625 195.390625 323.105469 199.019531 323.53125 C 201.011719 323.816406 202.933594 324.242188 204.925781 324.671875 C 207.132812 325.167969 209.269531 325.949219 211.472656 326.378906 C 212.898438 326.664062 214.320312 326.804688 215.746094 326.875 C 217.027344 326.949219 218.308594 326.664062 219.515625 326.519531 C 221.296875 326.308594 223.148438 325.523438 224.640625 324.527344 C 224.074219 322.179688 222.648438 320.257812 221.082031 318.480469 C 219.945312 317.125 218.378906 316.058594 216.882812 315.132812 C 215.246094 314.136719 213.324219 313.640625 211.546875 313.070312 C 208.484375 312.214844 205.425781 311.648438 202.292969 311.148438 C 199.019531 310.652344 195.671875 310.367188 192.398438 310.367188 C 192.328125 310.4375 192.1875 310.4375 192.042969 310.4375 Z M 192.042969 310.4375 " fill-opacity="1" fill-rule="nonzero"/></g><path fill="#35241d" d="M 600.167969 286.3125 C 599.382812 287.164062 598.742188 288.160156 598.101562 289.085938 C 597.535156 289.941406 597.035156 290.9375 596.464844 291.863281 C 595.539062 293.429688 594.542969 294.921875 593.476562 296.347656 C 591.625 298.550781 589.5625 300.542969 587.78125 302.894531 C 586.289062 304.816406 585.21875 306.949219 584.292969 309.15625 C 584.292969 309.15625 584.292969 309.085938 584.367188 309.085938 C 584.292969 309.296875 584.222656 309.441406 584.152344 309.652344 C 584.152344 309.652344 584.152344 309.726562 584.152344 309.726562 C 584.152344 309.726562 584.152344 309.726562 584.152344 309.652344 C 583.867188 310.367188 583.652344 311.078125 583.441406 311.789062 C 585.363281 313 587.78125 313.355469 589.988281 313.140625 C 592.550781 312.925781 595.113281 312.074219 597.25 310.578125 C 599.3125 309.15625 600.949219 307.304688 602.585938 305.382812 C 604.152344 303.460938 605.648438 301.46875 607 299.40625 C 608.351562 297.34375 609.5625 295.207031 610.34375 292.789062 C 610.773438 291.507812 610.84375 290.15625 610.984375 288.800781 C 611.058594 287.804688 610.984375 286.808594 610.84375 285.882812 C 610.628906 284.035156 610.203125 282.253906 609.207031 280.617188 C 605.503906 281.402344 602.445312 283.679688 600.167969 286.3125 Z M 600.167969 286.3125 " fill-opacity="1" fill-rule="nonzero"/></svg>