<svg xmlns="http://www.w3.org/2000/svg" xmlns:xlink="http://www.w3.org/1999/xlink" width="1080" zoomAndPan="magnify" viewBox="0 0 810 1012.49997" height="1350" preserveAspectRatio="xMidYMid meet" version="1.0"><path fill="#000000" d="M 607.046875 391.082031 C 595.5 327.574219 580.375 276.941406 523.628906 248.890625 C 531.824219 241.105469 537.28125 232.207031 539.742188 222.15625 C 546.519531 194.503906 529.890625 164.429688 513 142.445312 C 490.847656 95.195312 441.078125 61.535156 379.140625 81.96875 C 355.058594 89.773438 335.703125 108.273438 324.273438 130.066406 C 314.808594 141.429688 304.472656 158.242188 300.316406 180.488281 C 297.066406 197.894531 302.441406 219.621094 314.273438 238.339844 C 307.453125 240.339844 300.714844 242.539062 294.179688 245.152344 C 230.828125 272.304688 214.960938 324.703125 202.890625 391.082031 C 197.28125 422.894531 201.75 485.234375 210.964844 536.910156 C 216.605469 568.5625 226.875 601.957031 232 610.398438 C 237.128906 618.839844 245.914062 622.320312 245.851562 612.148438 C 245.796875 603.015625 230.753906 549.410156 236.269531 525.589844 C 311.210938 531.664062 356.988281 465.027344 376.667969 392.773438 C 379.363281 386.910156 381.964844 381.09375 384.601562 375.269531 C 397.476562 346.824219 477.914062 311.589844 509.589844 390.261719 C 522.066406 430.398438 527.792969 470.140625 570.832031 482.605469 C 573.699219 488.835938 576.703125 496.8125 580.578125 507.449219 C 594.171875 544.746094 567.722656 597.898438 567.375 614.1875 C 567.027344 630.476562 577.929688 610.398438 577.929688 610.398438 C 586.085938 595.894531 593.660156 567.324219 599.347656 534.796875 C 608.308594 483.542969 612.582031 422.460938 607.046875 391.082031 Z M 307.21875 181.730469 C 308.125 176.867188 308.964844 173.585938 313.121094 168.457031 C 312.957031 171.078125 312.894531 173.691406 312.984375 176.285156 C 313.300781 192.097656 317.90625 216.019531 327.820312 234.851562 C 326.441406 235.179688 320.804688 236.265625 319.433594 236.613281 C 307.734375 219.304688 304.242188 197.628906 307.21875 181.730469 Z M 238.886719 518.722656 C 238.902344 518.699219 238.910156 518.660156 238.929688 518.636719 C 244.945312 509.5625 294.945312 505.226562 327.574219 468.742188 C 339.238281 455.699219 348.109375 443.738281 355.390625 432.398438 C 332.734375 483.011719 294.527344 522.21875 238.886719 518.722656 Z M 517.972656 246.308594 C 515.964844 245.519531 510.359375 243.222656 508.320312 242.496094 C 517.3125 232.617188 523.617188 221.433594 524.867188 209.507812 C 525.957031 198.902344 525.53125 188.121094 523.820312 177.511719 C 530.332031 191.371094 538.199219 206.425781 534.84375 220.128906 C 532.5625 229.445312 526.476562 239.144531 517.972656 246.308594 Z M 538.070312 449.464844 C 542.542969 454.367188 547.894531 458.585938 555.007812 462.921875 C 559.445312 465.628906 562.777344 468.863281 565.8125 473.402344 C 553.046875 468.078125 544.441406 459.699219 538.070312 449.464844 Z M 538.070312 449.464844 " fill-opacity="1" fill-rule="nonzero"/><path fill="#d1bb9f" d="M 230.4375 472.230469 C 230.4375 472.230469 231.28125 472.003906 232.863281 471.578125 C 234.433594 471.109375 236.800781 470.632812 239.675781 469.589844 C 245.519531 467.824219 253.609375 464.464844 262.882812 459.648438 C 281.441406 450.050781 303.957031 432.84375 322.125 411.730469 C 331.351562 401.292969 338.679688 389.363281 344.546875 377.683594 C 350.46875 366.035156 355.203125 354.667969 361.023438 345.828125 C 363.878906 341.390625 367.070312 337.675781 370.339844 334.886719 C 373.582031 332.0625 376.824219 330.144531 379.578125 328.800781 C 382.371094 327.523438 384.652344 326.738281 386.230469 326.292969 C 387.808594 325.855469 388.652344 325.621094 388.652344 325.621094 C 388.652344 325.621094 387.816406 325.882812 386.253906 326.367188 C 384.695312 326.863281 382.445312 327.722656 379.714844 329.074219 C 377.023438 330.496094 373.878906 332.496094 370.78125 335.375 C 367.65625 338.230469 364.652344 341.976562 361.847656 346.363281 C 356.199219 355.148438 351.597656 366.527344 345.777344 378.300781 C 340.019531 390.089844 332.726562 402.265625 323.519531 412.914062 C 304.929688 434.042969 282.125 451.058594 263.332031 460.523438 C 258.652344 462.925781 254.21875 464.828125 250.242188 466.375 C 246.242188 467.878906 242.71875 469.070312 239.757812 469.886719 C 236.84375 470.835938 234.46875 471.238281 232.882812 471.652344 C 231.289062 472.03125 230.4375 472.230469 230.4375 472.230469 Z M 257.195312 426.851562 C 257.195312 426.851562 258.589844 426.074219 261.03125 424.707031 C 262.269531 424.054688 263.738281 423.199219 265.285156 422.027344 C 266.847656 420.878906 268.710938 419.757812 270.5 418.171875 C 274.222656 415.210938 278.28125 411.394531 282.132812 406.871094 C 284.195312 404.730469 285.90625 402.15625 287.867188 399.738281 C 289.570312 397.121094 291.5 394.597656 293.03125 391.816406 C 296.445312 386.46875 299.191406 380.726562 301.550781 375.269531 C 303.84375 369.78125 305.65625 364.519531 306.886719 359.910156 C 308.09375 355.296875 308.832031 351.386719 309.183594 348.617188 C 309.414062 345.832031 309.542969 344.242188 309.542969 344.242188 C 309.542969 344.242188 309.523438 345.839844 309.492188 348.640625 C 309.292969 351.433594 308.953125 355.449219 307.886719 360.152344 C 305.851562 369.574219 301.320312 381.765625 294.589844 392.769531 C 293 395.570312 291.003906 398.117188 289.242188 400.746094 C 287.214844 403.183594 285.445312 405.769531 283.316406 407.921875 C 279.347656 412.480469 274.984375 416.113281 271.121094 418.988281 C 269.273438 420.539062 267.269531 421.554688 265.617188 422.597656 C 263.96875 423.667969 262.449219 424.414062 261.167969 424.980469 C 258.640625 426.171875 257.195312 426.851562 257.195312 426.851562 Z M 521.269531 348.214844 C 521.269531 348.214844 523.992188 355.925781 528.074219 367.492188 C 532.15625 379.035156 538.445312 394.15625 546.449219 408.347656 C 548.542969 411.835938 550.382812 415.484375 552.648438 418.789062 C 554.773438 422.1875 556.984375 425.449219 559.3125 428.476562 C 561.484375 431.621094 563.976562 434.347656 566.207031 437.042969 C 568.425781 439.75 570.910156 441.953125 573 444.179688 C 575.148438 446.351562 577.363281 448.070312 579.175781 449.773438 C 580.980469 451.496094 582.777344 452.710938 584.210938 453.773438 C 587.09375 455.894531 588.742188 457.105469 588.742188 457.105469 C 588.742188 457.105469 587.03125 455.984375 584.035156 454.027344 C 582.539062 453.039062 580.660156 451.914062 578.761719 450.285156 C 576.84375 448.691406 574.503906 447.070312 572.320312 444.898438 C 570.175781 442.695312 567.625 440.511719 565.335938 437.824219 C 563.03125 435.152344 560.464844 432.441406 558.214844 429.3125 C 555.808594 426.300781 553.511719 423.050781 551.300781 419.660156 C 548.957031 416.359375 547.019531 412.730469 544.855469 409.238281 C 537.046875 394.765625 531.023438 379.460938 527.144531 367.816406 C 525.136719 362.011719 523.835938 357.054688 522.8125 353.628906 C 521.832031 350.183594 521.269531 348.214844 521.269531 348.214844 Z M 354.914062 135.964844 C 354.914062 135.964844 354.558594 137.992188 353.933594 141.542969 C 353.492188 143.304688 353.582031 145.507812 353.429688 147.992188 C 353.195312 150.472656 353.480469 153.285156 353.628906 156.347656 C 353.632812 159.425781 354.460938 162.683594 354.914062 166.164062 C 355.703125 169.582031 356.503906 173.21875 357.726562 176.847656 C 358.960938 180.480469 360.273438 184.214844 362.058594 187.828125 C 363.566406 191.566406 365.820312 195 367.75 198.585938 C 370.070312 201.933594 372.070312 205.527344 374.75 208.53125 C 377.160156 211.761719 379.988281 214.515625 382.726562 217.191406 C 385.574219 219.714844 388.472656 222.0625 391.414062 223.941406 C 394.433594 225.707031 397.226562 227.535156 400.148438 228.488281 C 401.566406 229.066406 402.925781 229.617188 404.21875 230.144531 C 405.574219 230.476562 406.859375 230.789062 408.0625 231.085938 C 410.480469 231.722656 412.605469 232.210938 414.414062 232.183594 C 418.007812 232.410156 420.058594 232.539062 420.058594 232.539062 C 420.058594 232.539062 418 232.519531 414.390625 232.488281 C 412.5625 232.613281 410.402344 232.242188 407.925781 231.730469 C 406.679688 231.496094 405.355469 231.246094 403.960938 230.984375 C 402.632812 230.480469 401.238281 229.953125 399.78125 229.402344 C 396.777344 228.476562 393.90625 226.679688 390.785156 224.929688 C 387.75 223.070312 384.753906 220.734375 381.800781 218.214844 C 378.960938 215.546875 376.019531 212.785156 373.507812 209.542969 C 370.722656 206.523438 368.609375 202.921875 366.191406 199.535156 C 364.289062 195.84375 362.066406 192.3125 360.601562 188.484375 C 358.859375 184.78125 357.597656 180.960938 356.414062 177.257812 C 355.246094 173.554688 354.5 169.851562 353.765625 166.378906 C 353.371094 162.835938 352.597656 159.535156 352.648438 156.410156 C 352.515625 153.304688 352.394531 150.457031 352.773438 147.933594 C 353.066406 145.421875 353.097656 143.210938 353.632812 141.480469 C 354.449219 137.96875 354.914062 135.964844 354.914062 135.964844 Z M 354.914062 135.964844 " fill-opacity="1" fill-rule="nonzero"/></svg>