<svg xmlns="http://www.w3.org/2000/svg" xmlns:xlink="http://www.w3.org/1999/xlink" width="1080" zoomAndPan="magnify" viewBox="0 0 810 1012.49997" height="1350" preserveAspectRatio="xMidYMid meet" version="1.0"><defs><clipPath id="13b25c42b1"><path d="M 231 168.007812 L 583.957031 168.007812 L 583.957031 449 L 231 449 Z M 231 168.007812 " clip-rule="nonzero"/></clipPath></defs><g clip-path="url(#13b25c42b1)"><path fill="#624332" d="M 506.796875 269.195312 C 506.617188 269.285156 506.160156 269.628906 505.417969 270.1875 C 499.640625 274.558594 476.398438 292.265625 427.84375 308.917969 C 373.058594 327.703125 371.714844 326.898438 371.714844 326.898438 L 410.386719 293.886719 C 410.386719 293.886719 371.714844 320.996094 329.550781 326.898438 C 329.550781 326.898438 299.472656 334.414062 287.65625 334.683594 C 287.65625 334.683594 280.671875 359.105469 275.03125 376.820312 C 269.390625 394.535156 269.925781 416.003906 269.664062 423.789062 C 269.398438 431.574219 268.585938 436.582031 266.707031 436.761719 C 264.828125 436.941406 226.425781 344.34375 231.527344 304.890625 C 236.628906 265.433594 277.71875 231.617188 276.644531 231.886719 C 275.570312 232.15625 247.640625 235.644531 242.539062 227.324219 C 242.539062 227.324219 257.578125 230.007812 276.109375 210.953125 C 294.640625 191.894531 327.222656 176.597656 368.9375 174.183594 C 410.652344 171.765625 446.375 188.675781 446.375 188.675781 C 446.375 188.675781 431.332031 171.230469 421.128906 168.007812 C 421.128906 168.007812 445.34375 168.859375 473.273438 184.15625 C 501.203125 199.457031 504.15625 211.265625 504.15625 211.265625 C 504.15625 211.265625 494.757812 186.304688 495.832031 186.839844 C 496.90625 187.378906 508.722656 194.625 517.585938 212.070312 C 526.449219 229.515625 520.003906 242.398438 520.003906 242.398438 C 520.003906 242.398438 528.867188 233.808594 544.171875 235.421875 C 559.480469 237.03125 568.613281 245.082031 568.613281 245.082031 C 568.613281 245.082031 547.128906 244.277344 540.683594 250.183594 C 540.683594 250.183594 555.722656 251.257812 567.539062 262.527344 C 579.355469 273.800781 583.917969 283.195312 583.917969 283.195312 L 563.507812 276.484375 C 563.507812 276.484375 580.160156 294.199219 578.816406 331.773438 C 577.476562 369.347656 543.097656 449.867188 543.367188 448.523438 C 543.636719 447.179688 540.683594 423.828125 539.875 401.285156 C 539.070312 378.742188 536.921875 347.335938 533.429688 342.507812 C 529.9375 337.675781 516.242188 318.886719 509.261719 299.832031 C 502.277344 280.777344 506.796875 269.195312 506.796875 269.195312 Z M 506.796875 269.195312 " fill-opacity="1" fill-rule="nonzero"/></g></svg>