<svg xmlns="http://www.w3.org/2000/svg" xmlns:xlink="http://www.w3.org/1999/xlink" width="1080" zoomAndPan="magnify" viewBox="0 0 810 1012.49997" height="1350" preserveAspectRatio="xMidYMid meet" version="1.0"><path fill="#5b3e36" d="M 254.839844 401.074219 C 235.117188 397.671875 221.59375 334.6875 237.199219 281.316406 C 254.328125 222.554688 306.078125 177.871094 317.71875 184.734375 C 323.257812 187.988281 320.308594 203.390625 317.207031 215.082031 C 349.640625 192.054688 379.679688 179.144531 400.929688 171.671875 C 436.867188 159.117188 466.300781 155.863281 487.191406 155.203125 C 519.671875 154.183594 542.648438 153.472656 553.070312 168.519531 C 568.574219 190.886719 543.816406 229.875 542.648438 231.652344 C 551.035156 227.230469 568.21875 219.453125 576.605469 226.164062 C 588.347656 235.566406 576.554688 268.097656 568.574219 283.804688 C 562.777344 295.140625 556.121094 303.375 551.441406 308.511719 C 557.746094 328.03125 564.964844 360.613281 555.710938 393.910156 C 553.121094 403.160156 551.1875 404.9375 549.613281 405.089844 C 537.160156 406.058594 538.835938 302.460938 494.257812 284.671875 C 478.601562 278.417969 473.464844 289.246094 423.296875 298.191406 C 367.074219 308.207031 360.007812 296.972656 335.101562 307.085938 C 278.578125 330.0625 274.816406 404.582031 254.839844 401.074219 Z M 254.839844 401.074219 " fill-opacity="1" fill-rule="nonzero"/></svg>