<svg xmlns="http://www.w3.org/2000/svg" xmlns:xlink="http://www.w3.org/1999/xlink" width="1080" zoomAndPan="magnify" viewBox="0 0 810 1012.49997" height="1350" preserveAspectRatio="xMidYMid meet" version="1.0"><defs><clipPath id="1fb8c5cad9"><path d="M 131 191 L 712 191 L 712 890.871094 L 131 890.871094 Z M 131 191 " clip-rule="nonzero"/></clipPath></defs><g clip-path="url(#1fb8c5cad9)"><path fill="#000000" d="M 157.128906 743.484375 L 136.367188 778.21875 C 135.980469 778.875 134.96875 778.8125 134.671875 778.097656 C 129.488281 765.824219 130.292969 753.554688 137.082031 741.25 C 150.933594 716.167969 164.902344 695.792969 161.863281 669.964844 C 161.714844 668.507812 161.359375 667.078125 160.792969 665.707031 C 157.183594 656.742188 152.78125 646.640625 147.597656 635.351562 C 141.492188 622.066406 140.152344 610.957031 138.484375 591.535156 C 136.070312 563.53125 136.011719 542.144531 148.996094 517.152344 C 167.253906 482.089844 183.398438 453.316406 190.933594 415.394531 C 197.425781 382.597656 202.519531 359.390625 206.214844 345.75 C 217.828125 302.765625 235.046875 259.75 269.117188 232.046875 C 309.238281 199.425781 354.867188 181.019531 406.007812 198.414062 C 410.058594 199.816406 414.46875 199.816406 418.519531 198.445312 C 439.160156 191.445312 459.917969 189.835938 480.796875 193.589844 C 504.058594 197.789062 523.777344 204.757812 539.949219 214.558594 C 570.210938 232.878906 594.398438 272.617188 609.886719 307.113281 C 623.734375 338.003906 633.800781 362.640625 640.058594 381.046875 C 648.574219 406.191406 652.359375 436.542969 657.273438 461.269531 C 661.382812 481.882812 668.113281 493.410156 680.714844 518.371094 C 697.898438 552.421875 681.726562 593.53125 672.074219 626.59375 C 668.234375 639.730469 666.683594 649.621094 667.488281 656.265625 C 671.6875 692.128906 702.039062 717.507812 710.230469 754.359375 C 714.011719 771.484375 706 788.523438 702.246094 804.789062 C 701.832031 806.636719 699.179688 806.578125 698.824219 804.730469 C 695.8125 789.328125 692.269531 776.042969 682.945312 764.308594 C 682.769531 764.097656 682.46875 764.007812 682.203125 764.15625 C 681.964844 764.277344 681.84375 764.574219 681.933594 764.84375 L 686.132812 776.757812 C 686.878906 778.902344 687.386719 781.109375 687.59375 783.339844 C 689.320312 802.316406 687.207031 821.5 681.277344 840.953125 C 676.988281 854.984375 666.238281 864.128906 660.578125 872.140625 C 659.714844 873.363281 657.777344 872.855469 657.660156 871.367188 C 656.4375 857.632812 653.28125 844.644531 648.160156 832.375 C 647.949219 831.867188 647.175781 831.957031 647.117188 832.523438 C 644.644531 856.917969 628.886719 873.839844 609.648438 888.046875 C 608.632812 888.792969 607.234375 887.78125 607.679688 886.589844 C 618.226562 858.140625 600.234375 841.699219 576.941406 830.527344 C 556.691406 820.84375 535.78125 808.511719 520.410156 792.726562 C 502.390625 774.167969 502.152344 746.640625 502.898438 718.820312 C 503.582031 694.125 503.820312 676.191406 514.605469 661.625 C 529.109375 642.023438 537.179688 631.003906 538.820312 628.5625 C 546.382812 617.390625 549.957031 605.324219 555.050781 588.914062 C 562.945312 563.472656 566.9375 538.539062 567.054688 514.082031 C 567.085938 504.878906 564.96875 500.140625 558.148438 493.320312 C 549.125 484.265625 543.941406 478.8125 542.601562 476.96875 C 523.359375 450.542969 521.664062 421.023438 515.46875 381.347656 C 512.25 360.761719 505.460938 351.707031 487.617188 338.0625 C 471.089844 325.402344 461.230469 315.691406 454.320312 297.28125 C 453.933594 296.269531 452.441406 296.390625 452.234375 297.460938 C 451.609375 300.5 450.566406 303.71875 449.078125 307.144531 C 429.539062 352.125 408.839844 397.996094 370.59375 428.054688 C 353.976562 441.132812 340.066406 453.285156 321.421875 459.183594 C 320.882812 459.363281 320.320312 459.125 320.050781 458.617188 C 319.8125 458.109375 319.960938 457.515625 320.40625 457.1875 C 328.808594 451.320312 336.164062 444.46875 342.507812 436.632812 C 342.714844 436.363281 342.417969 436.007812 342.121094 436.15625 C 338.816406 437.855469 334.140625 441.101562 328.09375 445.957031 C 318.175781 453.941406 313.140625 456.503906 302.507812 462.667969 C 288.152344 470.949219 278.203125 481.136719 269.625 496.359375 C 268.105469 499.011719 267.539062 502.4375 267.867188 506.636719 C 268.078125 509.527344 270.816406 524.746094 276.027344 552.273438 C 281.570312 581.644531 294.914062 612.117188 311.265625 639.285156 C 318.144531 650.695312 322.492188 659.453125 324.339844 665.558594 C 328.777344 680.273438 329.046875 700.140625 329.671875 713.964844 C 330.566406 732.761719 329.015625 750.722656 325.023438 767.910156 C 323.742188 773.480469 322.550781 776.96875 321.511719 778.425781 C 305.007812 801.421875 279.78125 812.863281 254.851562 826.980469 C 231.949219 839.910156 222.863281 859.570312 227.539062 885.992188 C 227.6875 886.765625 226.765625 887.304688 226.140625 886.796875 C 210.472656 874.167969 195.96875 857.78125 192.632812 837.855469 C 192.453125 836.722656 190.816406 836.632812 190.515625 837.734375 C 185.691406 854.894531 185.484375 872.082031 189.890625 889.328125 C 190.128906 890.253906 189.085938 890.9375 188.34375 890.371094 C 181.550781 885.25 175.386719 879.140625 169.816406 872.023438 C 157.007812 855.636719 155.488281 827.429688 159.777344 808.511719 C 160.046875 807.382812 159.691406 806.160156 158.796875 805.386719 C 145.125 792.933594 146.761719 769.164062 153.910156 754.476562 C 157.21875 747.683594 158.851562 744.257812 158.886719 744.167969 C 158.976562 743.722656 158.738281 743.246094 158.285156 743.097656 C 157.871094 742.917969 157.363281 743.097656 157.128906 743.484375 Z M 157.128906 743.484375 " fill-opacity="1" fill-rule="nonzero"/></g></svg>