<svg xmlns="http://www.w3.org/2000/svg" xmlns:xlink="http://www.w3.org/1999/xlink" width="1080" zoomAndPan="magnify" viewBox="0 0 810 1012.49997" height="1350" preserveAspectRatio="xMidYMid meet" version="1.0"><path fill="#000000" d="M 616.023438 383.171875 C 603.976562 316.992188 588.191406 264.226562 528.988281 234.996094 C 537.539062 226.882812 543.234375 217.609375 545.800781 207.136719 C 552.871094 178.320312 535.523438 146.976562 517.902344 124.066406 C 494.789062 74.828125 442.863281 39.75 378.242188 61.046875 C 353.117188 69.179688 332.925781 88.457031 320.996094 111.167969 C 311.121094 123.011719 300.339844 140.53125 296.003906 163.710938 C 292.613281 181.851562 298.21875 204.492188 310.566406 224 C 303.449219 226.085938 296.417969 228.375 289.601562 231.101562 C 223.503906 259.394531 206.949219 314 194.355469 383.171875 C 188.503906 416.328125 193.167969 481.292969 202.777344 535.144531 C 208.664062 568.125 219.382812 602.925781 224.730469 611.722656 C 230.078125 620.523438 239.246094 624.148438 239.179688 613.550781 C 239.121094 604.03125 223.429688 548.167969 229.183594 523.34375 C 307.367188 529.675781 355.132812 460.230469 375.660156 384.933594 C 378.472656 378.828125 381.1875 372.761719 383.9375 366.695312 C 397.371094 337.050781 481.292969 300.332031 514.339844 382.320312 C 527.359375 424.144531 533.335938 465.5625 578.238281 478.550781 C 581.230469 485.042969 584.363281 493.355469 588.40625 504.4375 C 602.589844 543.304688 574.992188 598.695312 574.632812 615.671875 C 574.269531 632.648438 585.640625 611.726562 585.640625 611.726562 C 594.152344 596.609375 602.054688 566.835938 607.992188 532.9375 C 617.339844 479.527344 621.796875 415.875 616.023438 383.171875 Z M 303.203125 165.007812 C 304.152344 159.941406 305.023438 156.519531 309.363281 151.171875 C 309.191406 153.90625 309.125 156.628906 309.21875 159.332031 C 309.550781 175.808594 314.355469 200.742188 324.699219 220.367188 C 323.261719 220.703125 317.378906 221.839844 315.949219 222.199219 C 303.742188 204.164062 300.101562 181.574219 303.203125 165.007812 Z M 231.910156 516.1875 C 231.929688 516.160156 231.9375 516.125 231.957031 516.097656 C 238.234375 506.644531 290.402344 502.125 324.445312 464.101562 C 336.613281 450.511719 345.867188 438.046875 353.464844 426.230469 C 329.824219 478.976562 289.960938 519.828125 231.910156 516.1875 Z M 523.089844 232.304688 C 520.992188 231.480469 515.144531 229.089844 513.019531 228.332031 C 522.402344 218.039062 528.980469 206.382812 530.28125 193.953125 C 531.417969 182.902344 530.976562 171.667969 529.191406 160.609375 C 535.980469 175.050781 544.191406 190.742188 540.6875 205.023438 C 538.308594 214.734375 531.960938 224.839844 523.089844 232.304688 Z M 544.054688 444.015625 C 548.722656 449.125 554.304688 453.519531 561.726562 458.039062 C 566.359375 460.859375 569.835938 464.226562 573 468.960938 C 559.683594 463.410156 550.703125 454.679688 544.054688 444.015625 Z M 544.054688 444.015625 " fill-opacity="1" fill-rule="nonzero"/><path fill="#d1bb9f" d="M 223.097656 467.738281 C 223.097656 467.738281 223.980469 467.503906 225.628906 467.058594 C 227.265625 466.570312 229.734375 466.070312 232.734375 464.988281 C 238.832031 463.148438 247.273438 459.644531 256.945312 454.625 C 276.3125 444.625 299.804688 426.691406 318.757812 404.691406 C 328.382812 393.816406 336.027344 381.382812 342.148438 369.210938 C 348.328125 357.070312 353.269531 345.226562 359.339844 336.015625 C 362.320312 331.390625 365.648438 327.515625 369.058594 324.609375 C 372.441406 321.667969 375.824219 319.667969 378.699219 318.269531 C 381.613281 316.9375 383.992188 316.121094 385.636719 315.65625 C 387.285156 315.199219 388.164062 314.957031 388.164062 314.957031 C 388.164062 314.957031 387.292969 315.226562 385.664062 315.734375 C 384.035156 316.25 381.6875 317.144531 378.839844 318.558594 C 376.03125 320.035156 372.753906 322.121094 369.519531 325.121094 C 366.261719 328.097656 363.128906 332 360.199219 336.570312 C 354.308594 345.726562 349.503906 357.585938 343.433594 369.851562 C 337.425781 382.140625 329.820312 394.828125 320.210938 405.921875 C 300.816406 427.941406 277.023438 445.675781 257.417969 455.535156 C 252.535156 458.042969 247.90625 460.023438 243.757812 461.636719 C 239.585938 463.207031 235.910156 464.445312 232.824219 465.292969 C 229.78125 466.285156 227.300781 466.703125 225.648438 467.136719 C 223.984375 467.53125 223.097656 467.738281 223.097656 467.738281 Z M 251.011719 420.449219 C 251.011719 420.449219 252.46875 419.636719 255.015625 418.214844 C 256.308594 417.535156 257.839844 416.640625 259.457031 415.421875 C 261.082031 414.222656 263.027344 413.058594 264.894531 411.402344 C 268.777344 408.316406 273.015625 404.34375 277.03125 399.628906 C 279.183594 397.394531 280.96875 394.714844 283.015625 392.191406 C 284.792969 389.46875 286.804688 386.835938 288.402344 383.941406 C 291.960938 378.367188 294.828125 372.378906 297.289062 366.695312 C 299.683594 360.976562 301.574219 355.492188 302.859375 350.691406 C 304.117188 345.882812 304.886719 341.804688 305.253906 338.917969 C 305.496094 336.019531 305.632812 334.359375 305.632812 334.359375 C 305.632812 334.359375 305.609375 336.027344 305.574219 338.945312 C 305.367188 341.855469 305.011719 346.039062 303.902344 350.941406 C 301.777344 360.757812 297.050781 373.464844 290.03125 384.929688 C 288.367188 387.847656 286.289062 390.503906 284.449219 393.242188 C 282.335938 395.785156 280.488281 398.476562 278.269531 400.722656 C 274.125 405.472656 269.570312 409.257812 265.546875 412.253906 C 263.617188 413.867188 261.523438 414.929688 259.800781 416.015625 C 258.082031 417.128906 256.496094 417.910156 255.160156 418.5 C 252.519531 419.742188 251.011719 420.449219 251.011719 420.449219 Z M 526.527344 338.503906 C 526.527344 338.503906 529.367188 346.535156 533.625 358.589844 C 537.886719 370.617188 544.449219 386.378906 552.796875 401.167969 C 554.980469 404.800781 556.902344 408.601562 559.265625 412.046875 C 561.484375 415.589844 563.792969 418.988281 566.21875 422.144531 C 568.484375 425.421875 571.082031 428.261719 573.414062 431.066406 C 575.730469 433.890625 578.320312 436.1875 580.5 438.507812 C 582.742188 440.769531 585.054688 442.5625 586.945312 444.335938 C 588.824219 446.132812 590.699219 447.398438 592.195312 448.507812 C 595.203125 450.714844 596.925781 451.976562 596.925781 451.976562 C 596.925781 451.976562 595.136719 450.808594 592.011719 448.769531 C 590.453125 447.738281 588.492188 446.566406 586.511719 444.871094 C 584.511719 443.207031 582.066406 441.519531 579.792969 439.253906 C 577.554688 436.957031 574.894531 434.683594 572.503906 431.882812 C 570.101562 429.097656 567.421875 426.273438 565.074219 423.011719 C 562.5625 419.875 560.167969 416.488281 557.863281 412.957031 C 555.414062 409.515625 553.394531 405.730469 551.136719 402.09375 C 542.988281 387.011719 536.703125 371.066406 532.660156 358.925781 C 530.5625 352.878906 529.207031 347.714844 528.136719 344.140625 C 527.113281 340.554688 526.527344 338.503906 526.527344 338.503906 Z M 352.96875 117.3125 C 352.96875 117.3125 352.59375 119.425781 351.941406 123.125 C 351.480469 124.964844 351.574219 127.261719 351.417969 129.847656 C 351.171875 132.433594 351.472656 135.363281 351.625 138.558594 C 351.628906 141.765625 352.496094 145.160156 352.96875 148.785156 C 353.789062 152.347656 354.625 156.136719 355.902344 159.917969 C 357.1875 163.703125 358.558594 167.59375 360.417969 171.363281 C 361.992188 175.257812 364.347656 178.835938 366.359375 182.574219 C 368.78125 186.058594 370.867188 189.804688 373.664062 192.933594 C 376.175781 196.304688 379.128906 199.175781 381.984375 201.960938 C 384.953125 204.589844 387.980469 207.035156 391.046875 208.996094 C 394.199219 210.835938 397.109375 212.738281 400.160156 213.734375 C 401.640625 214.335938 403.058594 214.910156 404.40625 215.460938 C 405.820312 215.804688 407.160156 216.132812 408.417969 216.4375 C 410.941406 217.105469 413.15625 217.613281 415.042969 217.582031 C 418.792969 217.820312 420.933594 217.953125 420.933594 217.953125 C 420.933594 217.953125 418.785156 217.933594 415.019531 217.902344 C 413.113281 218.03125 410.859375 217.648438 408.273438 217.113281 C 406.976562 216.867188 405.59375 216.609375 404.136719 216.335938 C 402.753906 215.8125 401.296875 215.261719 399.777344 214.6875 C 396.640625 213.722656 393.648438 211.847656 390.390625 210.027344 C 387.226562 208.089844 384.097656 205.65625 381.019531 203.027344 C 378.054688 200.246094 374.988281 197.367188 372.367188 193.992188 C 369.460938 190.84375 367.253906 187.089844 364.734375 183.5625 C 362.746094 179.714844 360.429688 176.035156 358.898438 172.042969 C 357.082031 168.183594 355.765625 164.207031 354.53125 160.34375 C 353.3125 156.488281 352.53125 152.628906 351.769531 149.007812 C 351.355469 145.320312 350.546875 141.878906 350.601562 138.621094 C 350.464844 135.382812 350.335938 132.414062 350.734375 129.789062 C 351.039062 127.171875 351.074219 124.867188 351.628906 123.0625 C 352.480469 119.40625 352.96875 117.3125 352.96875 117.3125 Z M 352.96875 117.3125 " fill-opacity="1" fill-rule="nonzero"/></svg>