<svg xmlns="http://www.w3.org/2000/svg" xmlns:xlink="http://www.w3.org/1999/xlink" width="1080" zoomAndPan="magnify" viewBox="0 0 810 1012.49997" height="1350" preserveAspectRatio="xMidYMid meet" version="1.0"><defs><filter x="0%" y="0%" width="100%" height="100%" id="b79ec2ab9b"><feColorMatrix values="0 0 0 0 1 0 0 0 0 1 0 0 0 0 1 0 0 0 1 0" color-interpolation-filters="sRGB"/></filter><mask id="7366d43479"><g filter="url(#b79ec2ab9b)"><rect x="-81" width="972" fill="#000000" y="-101.249997" height="1214.999964" fill-opacity="0.495"/></g></mask><clipPath id="b03ec6b528"><path d="M 1 1 L 348 1 L 348 875.339844 L 1 875.339844 Z M 1 1 " clip-rule="nonzero"/></clipPath><clipPath id="25f6ac0b63"><rect x="0" width="349" y="0" height="876"/></clipPath><mask id="0961dbefa9"><g filter="url(#b79ec2ab9b)"><rect x="-81" width="972" fill="#000000" y="-101.249997" height="1214.999964" fill-opacity="0.502"/></g></mask><clipPath id="07425e06f8"><path d="M 0.464844 1 L 436 1 L 436 441 L 0.464844 441 Z M 0.464844 1 " clip-rule="nonzero"/></clipPath><clipPath id="93f107bb48"><rect x="0" width="437" y="0" height="443"/></clipPath></defs><path fill="#000000" d="M 729.675781 568.558594 C 766.675781 601 784.96875 657.308594 769.789062 704.714844 C 766.550781 716.167969 761.484375 726.859375 754.898438 736.738281 C 750.972656 743.417969 746.320312 750.128906 739.824219 754.433594 C 740.132812 753.351562 740.476562 752.265625 740.855469 751.214844 C 740.550781 751.558594 740.242188 751.882812 739.917969 752.210938 C 746.519531 736.503906 745.453125 718.285156 741.78125 701.871094 C 740.152344 693.710938 737.328125 685.933594 733.511719 678.675781 C 737.257812 696.226562 735.445312 715.171875 728.714844 731.78125 C 723.289062 746.671875 714.402344 759.882812 708.722656 774.664062 C 708.414062 775.605469 708.105469 776.546875 707.800781 777.488281 C 707.347656 783.058594 706.949219 788.722656 705.9375 794.1875 C 706.007812 796.503906 706.097656 798.820312 706.207031 801.136719 C 706.496094 803.234375 706.804688 805.351562 707.058594 807.484375 C 708.125 810.542969 709.519531 813.492188 711.292969 816.242188 C 717.570312 824.820312 726.5625 831.785156 736.75 834.863281 C 738.503906 835.132812 740.277344 835.460938 742.03125 835.675781 C 744.835938 835.1875 747.640625 834.789062 750.5 834.753906 C 750.140625 835.078125 749.757812 835.386719 749.378906 835.675781 C 741.652344 844.234375 728.753906 848.632812 717.246094 845.9375 C 714.042969 845.246094 710.859375 844.164062 707.78125 842.769531 C 708.015625 843.238281 708.269531 843.710938 708.503906 844.164062 C 716.773438 860.753906 720.773438 879.5 718.78125 897.992188 C 715.5625 922.039062 703.347656 944.980469 685.472656 961.246094 C 677.003906 968.503906 668.917969 977.167969 658.257812 980.988281 C 660.753906 976.734375 663.921875 973.082031 667.359375 969.714844 C 670.617188 963.851562 673.730469 957.898438 676.785156 952.019531 C 680.820312 942.683594 683.15625 932.585938 683.371094 922.4375 C 683.390625 922.582031 683.390625 922.671875 683.390625 922.796875 C 683.390625 916.320312 682.414062 909.988281 680.441406 903.890625 C 680.460938 907.164062 680.351562 910.402344 680.242188 913.589844 C 679.03125 937.417969 666.472656 958.695312 652.050781 977.023438 C 646.027344 985.601562 638.554688 993.199219 631.046875 1000.382812 C 630.917969 1000.546875 630.757812 1000.710938 630.59375 1000.871094 C 630.613281 1000.835938 630.628906 1000.800781 630.628906 1000.765625 C 629.21875 1002.140625 627.789062 1003.476562 626.339844 1004.835938 C 628.621094 1000.09375 631.335938 995.589844 634.285156 991.246094 C 636.492188 985.800781 638.84375 980.371094 641.035156 974.890625 C 632.820312 987.773438 617.386719 1002.230469 604.121094 1007.601562 C 602.3125 1008.886719 600.484375 1010.101562 598.621094 1011.167969 C 608.445312 999.191406 617.222656 985.710938 622.359375 971.109375 C 629.90625 947.875 625.925781 921.710938 613.113281 901.121094 C 610.871094 897.339844 608.390625 893.703125 605.75 890.175781 C 599.925781 884.058594 594.515625 877.507812 589.882812 870.453125 C 589.503906 870 589.105469 869.53125 588.742188 869.078125 C 588.722656 869.078125 588.722656 869.058594 588.707031 869.042969 C 586.082031 866.707031 583.785156 863.832031 581.921875 860.644531 C 582.753906 864.175781 583.820312 867.648438 585.160156 871.03125 C 596.269531 895.929688 617.003906 910.910156 610.90625 940.910156 C 609.097656 932.441406 607.542969 923.828125 604.121094 915.832031 C 601.753906 911.851562 599.09375 908.035156 596.359375 904.25 C 593.789062 901.394531 591.183594 898.535156 588.960938 895.421875 C 583.460938 887.96875 577.46875 880.839844 572.386719 873.074219 C 548.628906 834.878906 551.035156 798.257812 576.636719 762.289062 C 582.519531 750.308594 588.578125 738.421875 592.832031 725.757812 C 596.578125 714.664062 600.339844 703.339844 600.359375 691.542969 C 599.761719 673.753906 593.664062 656.78125 588.851562 639.792969 C 587.855469 636.464844 587.257812 633.042969 586.953125 629.589844 C 582.84375 613.703125 582.773438 594.992188 584.652344 576.300781 C 584.382812 576.808594 584.09375 577.296875 583.820312 577.785156 C 585.792969 565.355469 585.414062 552.835938 587.347656 540.457031 C 589.773438 519.015625 589.71875 497.523438 591.835938 476.082031 C 595.039062 449.917969 596.449219 423.15625 589.882812 397.371094 C 582.390625 368.296875 565.113281 343.183594 549.40625 318.011719 C 523.460938 278.136719 501.097656 259.046875 453.800781 248.695312 C 433.515625 243.972656 407.335938 241.3125 398.015625 219.726562 C 397.707031 220.46875 397.019531 220.976562 396.277344 221.175781 C 396.261719 223.457031 396.171875 225.71875 395.933594 227.996094 C 388.390625 216.054688 389.242188 200.945312 390.996094 187.46875 C 396.730469 149.054688 428.777344 116.792969 466.339844 108.378906 C 476.488281 105.917969 488.230469 105.121094 497.640625 110.027344 C 488.902344 109.246094 480.144531 110.785156 471.605469 112.882812 C 447.484375 123.179688 427.636719 144.332031 421.898438 170.1875 C 421.664062 171.328125 421.464844 172.46875 421.339844 173.625 C 429.679688 161.359375 442.328125 152.09375 455.375 145.183594 C 473.394531 134.597656 494.566406 130.328125 515.316406 132.859375 C 535.855469 135.339844 552.5 142.722656 566.179688 153.523438 C 569.796875 155.75 573.308594 158.117188 576.800781 160.523438 C 604.304688 178.347656 622.269531 207.117188 633.089844 237.53125 C 641.992188 261.707031 647.4375 287.542969 650.261719 313.019531 C 652.144531 335.925781 653.136719 358.851562 656.070312 381.539062 C 658.910156 407.105469 664.410156 432.511719 673.585938 456.503906 C 677.726562 467.59375 683.027344 478.398438 691.640625 486.648438 C 699.839844 494.101562 708.667969 501.574219 719.214844 505.390625 C 725.585938 507.507812 732.261719 507.945312 738.648438 509.734375 C 740.3125 509.824219 741.960938 509.84375 743.625 509.808594 C 750.71875 509.609375 758.316406 510.0625 765.101562 508.089844 L 765.101562 508.070312 C 765.085938 507.980469 764.703125 507.925781 764.777344 507.835938 C 765.628906 507.78125 765.320312 508.46875 764.832031 508.757812 C 758.894531 517.335938 749.46875 522.363281 739.933594 526.054688 C 728.226562 530.742188 715.578125 534 702.933594 531.917969 C 699.566406 531.410156 696.273438 530.617188 693.035156 529.566406 C 696.21875 534.105469 699.785156 538.414062 703.710938 542.230469 C 712.140625 551.261719 720.789062 560.019531 729.675781 568.558594 Z M 729.675781 568.558594 " fill-opacity="1" fill-rule="nonzero"/><g mask="url(#7366d43479)"><g transform="matrix(1, 0, 0, 1, 388, 136)"><g clip-path="url(#25f6ac0b63)"><g clip-path="url(#b03ec6b528)"><path fill="#1c1a1b" d="M 237.003906 480.164062 C 237.546875 480.832031 238.070312 481.5 238.59375 482.152344 C 238.339844 481.265625 238.070312 480.378906 237.796875 479.492188 C 237.546875 478.824219 237.292969 478.117188 237.019531 477.394531 C 237.019531 478.316406 237.019531 479.238281 237.003906 480.164062 Z M 212.738281 761.648438 C 203.328125 751.152344 196.707031 738 193.199219 724.5 C 187.988281 700.816406 196.835938 676.101562 210.277344 656.667969 C 211.742188 654.769531 213.933594 651.167969 215.597656 650.660156 C 212.628906 657.824219 211.941406 665.714844 210.152344 673.222656 C 196.292969 740.152344 212.828125 725.171875 233.910156 777.824219 C 232.914062 777.335938 231.9375 776.828125 230.960938 776.304688 C 229.292969 772.429688 227.324219 768.667969 225.097656 765.066406 C 222.851562 761.285156 220.375 757.648438 217.734375 754.121094 C 211.90625 748.003906 206.496094 741.453125 201.863281 734.398438 C 201.484375 733.945312 201.085938 733.476562 200.722656 733.023438 C 200.707031 733.023438 200.707031 733.003906 200.6875 732.988281 C 198.066406 730.652344 195.765625 727.777344 193.902344 724.589844 C 194.734375 728.121094 195.804688 731.59375 197.140625 734.976562 C 201.609375 744.929688 207.582031 753.289062 212.738281 761.648438 Z M 2.144531 74.246094 C 2.089844 73.703125 2.035156 73.160156 1.984375 72.617188 C 7.429688 67.804688 13.453125 63.96875 19.878906 60.929688 C 20.871094 47.578125 29.703125 30.027344 37.863281 21.757812 C 36.179688 25.757812 34.839844 29.917969 33.898438 34.207031 C 33.664062 35.34375 33.464844 36.484375 33.339844 37.644531 C 41.679688 25.375 54.328125 16.113281 67.375 9.199219 C 72.386719 6.25 77.652344 3.789062 83.078125 1.835938 C 74.539062 11.425781 65.546875 20.671875 59.703125 32.234375 C 59.464844 32.722656 59.214844 33.210938 58.976562 33.679688 C 79.242188 17.613281 106.855469 10.957031 131.261719 21.882812 C 133.902344 22.988281 136.78125 24.183594 139.042969 25.773438 C 134.394531 25.265625 129.6875 25.339844 125.019531 25.449219 C 101.769531 26.550781 76.871094 32.832031 60.40625 49.894531 C 61.945312 49.75 63.484375 49.675781 65.074219 49.695312 C 65.257812 49.695312 65.417969 49.695312 65.601562 49.695312 C 77.453125 41.261719 91.183594 34.421875 105.785156 32.992188 C 133.777344 27.800781 162.910156 37.859375 183.28125 57.273438 C 186.03125 59.972656 188.945312 62.8125 190.195312 66.429688 C 187.605469 63.808594 184.097656 62.449219 180.820312 61.074219 C 152.992188 50.21875 125.941406 40.105469 98.585938 47.667969 C 102.3125 47.667969 106.023438 48.046875 109.765625 48.84375 C 135.53125 55.066406 159.453125 69.613281 179.046875 87.21875 C 181.726562 90.0625 184.351562 93.226562 186.917969 96.664062 C 194.589844 105.585938 201.882812 116.316406 208.015625 127.785156 C 222.816406 147.148438 239.789062 215.703125 240.167969 224.515625 C 245.46875 244.582031 247.96875 265.355469 251.261719 285.90625 C 260.867188 309.304688 269.316406 333.097656 280.824219 355.605469 C 281.441406 356.3125 282.074219 357 282.6875 357.6875 C 290.757812 366.351562 296.710938 377.101562 306.355469 384.195312 C 310.410156 387.902344 317.628906 391.648438 321.808594 394.433594 C 322.40625 394.742188 323.003906 395.050781 323.617188 395.375 C 324.269531 395.773438 324.921875 396.152344 325.515625 396.515625 C 322.007812 396.679688 318.480469 396.515625 314.96875 395.9375 C 311.601562 395.429688 308.308594 394.632812 305.070312 393.585938 C 308.253906 398.125 311.820312 402.433594 315.746094 406.25 C 318.007812 408.675781 320.304688 411.082031 322.605469 413.46875 C 321.628906 413.214844 320.648438 412.945312 319.671875 412.636719 C 316.433594 412.65625 313.230469 412.457031 309.992188 411.929688 C 292.929688 410.917969 277.496094 401.871094 264.976562 388.84375 C 267.382812 404.277344 269.5 419.746094 274.566406 434.441406 C 279.34375 445.949219 288.082031 454.957031 295.355469 464.875 C 304.167969 476.652344 311.800781 489.246094 320.359375 501.222656 C 332.175781 515.101562 341.890625 532.199219 346.777344 550.1875 C 348.660156 565.511719 346.507812 581.46875 340.714844 595.726562 C 340.011719 597.644531 339.269531 599.546875 338.472656 601.425781 C 331.996094 587.65625 329.207031 572.296875 324.179688 558.203125 C 318.460938 545.445312 312.164062 532.6875 305.503906 520.222656 C 304.890625 519.460938 304.273438 518.703125 303.640625 517.941406 C 307.296875 541.011719 306.265625 564.894531 299.261719 587.007812 C 295.589844 596.667969 292.460938 606.65625 287.59375 615.792969 C 286.253906 618.21875 284.824219 620.550781 283.304688 622.851562 C 282.707031 624.226562 281.910156 625.492188 281.132812 626.792969 C 273.914062 638.175781 268.230469 650.660156 265.71875 663.960938 C 265.191406 668.683594 264.921875 673.441406 264.902344 678.199219 C 266.675781 689.960938 265.878906 701.972656 270.347656 713.210938 C 272.050781 717.660156 274.023438 722.203125 276.046875 726.835938 C 287.011719 741.003906 294.46875 758.121094 294.449219 775.886719 C 293.960938 773.171875 293.308594 770.476562 292.460938 767.855469 C 292.476562 771.128906 292.371094 774.367188 292.261719 777.550781 C 291.046875 801.382812 278.492188 822.660156 264.070312 840.988281 C 258.046875 849.566406 250.574219 857.164062 243.0625 864.347656 C 242.9375 864.511719 242.773438 864.671875 242.613281 864.835938 C 242.628906 864.800781 242.648438 864.765625 242.648438 864.726562 C 241.238281 866.101562 239.808594 867.441406 238.359375 868.796875 C 240.640625 864.058594 243.351562 859.554688 246.300781 855.210938 C 248.511719 849.765625 250.863281 844.335938 253.050781 838.855469 C 244.835938 851.734375 229.402344 866.191406 216.140625 871.566406 C 214.332031 872.851562 212.503906 874.0625 210.640625 875.132812 C 211.382812 874.246094 212.085938 873.339844 212.828125 872.4375 C 216.160156 871.042969 219.308594 869.25 222.148438 866.828125 C 244.980469 847.339844 251.820312 824.199219 252.996094 798.757812 C 252.363281 796.351562 251.785156 793.925781 251.277344 791.484375 C 250.011719 785.042969 249.035156 778.527344 248.292969 771.980469 C 248.128906 771.328125 247.984375 770.65625 247.824219 770.007812 C 246.648438 768.015625 245.597656 765.917969 244.765625 763.65625 C 231.066406 734.234375 229.964844 700.941406 234.324219 669.261719 C 239.570312 641.214844 253.578125 615.324219 256.976562 586.96875 C 258.046875 563.917969 253.957031 541.519531 246.554688 519.769531 C 245.613281 516.40625 244.835938 512.984375 244.148438 509.546875 C 242.558594 507.519531 240.875 505.457031 239.082031 503.285156 C 241.183594 514.902344 243.316406 526.5 243.261719 538.386719 C 244.710938 569.492188 235.175781 601.96875 214.492188 625.636719 C 209.265625 631.84375 202.984375 636.945312 196.597656 641.921875 C 193.757812 645.484375 191.082031 649.03125 188.835938 652.542969 C 176.425781 673.855469 172.84375 699.640625 177.167969 723.777344 C 161.535156 690.359375 166.074219 658.078125 188.675781 626.289062 C 194.554688 614.308594 200.617188 602.421875 204.867188 589.757812 C 208.613281 578.664062 212.378906 567.339844 212.394531 555.542969 C 211.796875 537.753906 205.699219 520.785156 200.886719 503.792969 C 199.890625 500.464844 199.296875 497.042969 198.988281 493.589844 C 194.878906 477.703125 194.808594 458.992188 196.691406 440.300781 C 196.417969 440.808594 196.128906 441.296875 195.855469 441.785156 C 197.828125 429.355469 197.449219 416.835938 199.386719 404.457031 C 201.703125 383.847656 201.757812 363.1875 203.636719 342.558594 C 204.796875 339.484375 206.730469 337.003906 210.117188 335.71875 C 210.367188 327.703125 206.117188 307.636719 220.230469 312.269531 C 219.324219 299.277344 217.769531 286.34375 216.140625 273.40625 C 216.410156 265.226562 209.933594 252.523438 218.511719 247.222656 C 215.851562 233.582031 212.503906 220.066406 208.289062 206.820312 C 207.183594 209.101562 205.9375 211.289062 204.542969 213.386719 C 201.972656 204.140625 201.71875 194.804688 201.503906 185.433594 C 199.296875 178.847656 196.472656 172.550781 191.496094 167.808594 C 190.882812 167.304688 190.011719 167.140625 189.453125 166.761719 C 193.957031 166.523438 197.757812 169.058594 201.015625 172.117188 C 200.941406 171.046875 200.832031 169.980469 200.742188 168.914062 C 200.542969 167.410156 200.34375 165.890625 200.109375 164.390625 C 199.546875 163.613281 198.96875 162.851562 198.390625 162.09375 C 178.757812 128.691406 148.523438 100.589844 112.609375 85.628906 C 95.636719 79.152344 77.867188 75.476562 59.847656 73.125 C 56.769531 76.238281 53.675781 79.277344 50.273438 81.972656 C 50.582031 78.714844 51.105469 75.40625 51.902344 72.167969 C 50.148438 71.96875 48.375 71.785156 46.601562 71.605469 C 45.515625 72.003906 44.449219 72.382812 43.363281 72.78125 C 39.273438 77.882812 34.878906 82.679688 29.9375 86.929688 C 30.136719 83.421875 30.605469 79.945312 31.347656 76.5625 C 28.238281 77.304688 25.015625 77.828125 21.632812 77.992188 C 18.9375 78.410156 15.988281 78.644531 12.75 78.679688 C 13.09375 78.335938 13.472656 78.011719 13.816406 77.667969 C 11.734375 77.394531 9.601562 76.980469 7.339844 76.382812 C 8.914062 75.515625 10.46875 74.644531 12.042969 73.777344 C 8.730469 74.15625 5.476562 74.320312 2.144531 74.246094 Z M 2.144531 74.246094 " fill-opacity="1" fill-rule="evenodd"/></g></g></g></g><path fill="#1c1a1b" d="M 587.675781 537.507812 C 588.253906 535.683594 588.851562 533.871094 589.429688 532.042969 C 593.230469 519.597656 596.886719 507.058594 599 494.191406 C 601.515625 485.433594 599.238281 471.613281 608.882812 467.179688 C 610.003906 457.355469 611.339844 447.4375 613.929688 437.886719 C 613.75 434.789062 613.566406 431.714844 613.386719 428.640625 C 612.753906 417.421875 611.757812 406.222656 611.035156 395.019531 C 607.34375 387.003906 604.105469 378.789062 602.875 370.015625 C 604.882812 371.445312 606.800781 372.929688 608.628906 374.503906 C 602.058594 352.898438 592.851562 332.074219 581.488281 312.605469 C 575.695312 303.015625 571.535156 292.464844 566.703125 282.316406 C 558.617188 273.917969 549.769531 266.246094 540.25 259.460938 C 533.375 254.234375 526.625 248.496094 520.726562 242.328125 C 527.566406 242.507812 534.75 243.59375 541.136719 246.164062 C 573.527344 262.972656 596.886719 294.472656 613.695312 326.191406 C 622.976562 342.890625 628.097656 361.402344 630.738281 380.238281 C 632.238281 385.085938 633.597656 389.972656 634.84375 394.894531 C 638.429688 410.292969 639.585938 426.125 640.109375 441.972656 C 642.28125 457.171875 642.878906 472.679688 643.296875 487.007812 C 645.304688 511.761719 637.015625 535.863281 636.601562 560.46875 C 637.234375 576.285156 636.871094 592.171875 639.730469 607.820312 C 640.597656 618.042969 641.304688 628.070312 641.578125 638.054688 C 642.625 643.195312 643.546875 648.351562 644.019531 653.527344 C 647.222656 669.105469 649.789062 684.792969 649.808594 700.769531 C 649.789062 700.878906 649.84375 703.539062 649.03125 703.066406 C 649.011719 703.050781 649.03125 703.03125 649.050781 703.03125 C 649.085938 703.050781 649.101562 703.03125 649.15625 703.03125 C 649.175781 703.011719 649.195312 702.996094 649.210938 702.976562 C 637.757812 677.246094 627.953125 650.488281 624.566406 622.296875 C 622.558594 610.679688 621.328125 598.847656 619.519531 587.484375 C 618.976562 582.996094 618.523438 578.507812 618.164062 574.023438 C 615.613281 593.019531 612.664062 611.984375 612.011719 631.144531 C 611.703125 658.953125 620.136719 688.011719 609.1875 714.683594 C 603.742188 728 595.003906 739.671875 587.148438 751.628906 C 583.117188 758.453125 577.976562 764.910156 571.699219 769.6875 C 573.234375 767.226562 574.882812 764.75 576.636719 762.289062 C 582.519531 750.308594 588.578125 738.421875 592.832031 725.757812 C 596.578125 714.664062 600.339844 703.339844 600.359375 691.542969 C 599.761719 673.753906 593.664062 656.785156 588.851562 639.792969 C 587.855469 636.464844 587.257812 633.042969 586.953125 629.589844 C 582.84375 613.703125 582.773438 594.992188 584.652344 576.300781 C 584.382812 576.808594 584.09375 577.296875 583.820312 577.785156 C 585.792969 565.355469 585.414062 552.835938 587.347656 540.457031 C 587.457031 539.480469 587.585938 538.484375 587.675781 537.507812 Z M 587.675781 537.507812 " fill-opacity="1" fill-rule="evenodd"/><path fill="#1c1a1b" d="M 633.269531 265.089844 C 615.628906 241.476562 602.332031 214.660156 589.214844 188.460938 C 613.730469 205.363281 644.039062 231.976562 633.289062 265.089844 C 633.289062 265.089844 633.269531 265.089844 633.269531 265.089844 Z M 661.480469 858.925781 C 637.253906 839.078125 646.0625 804.191406 663.378906 782.769531 C 659.832031 807.882812 665.1875 833.886719 661.480469 858.925781 Z M 690.773438 857.75 C 640.707031 833.957031 680.660156 781.722656 693.160156 746.566406 C 698.699219 786.441406 673.3125 817.710938 690.773438 857.75 Z M 755.675781 673.773438 C 747.605469 658.917969 741.382812 643.265625 735.5 627.453125 C 726.886719 611.3125 717.371094 594.613281 704.761719 581.367188 C 740.640625 593.78125 770.910156 635.46875 755.675781 673.773438 Z M 742.070312 667.167969 C 718.582031 650.160156 708.414062 622.660156 694.699219 598.339844 C 694.679688 598.339844 694.679688 598.339844 694.679688 598.339844 C 694.609375 598.414062 694.734375 598.613281 694.644531 598.613281 C 694.191406 598.140625 694.699219 597.761719 695.296875 598.050781 C 700.671875 600.820312 705.320312 604.980469 710.117188 608.671875 C 727.683594 623.039062 744.242188 643.175781 742.070312 667.167969 Z M 517.289062 429.128906 C 515.953125 427.808594 514.648438 426.449219 513.382812 425.09375 L 513.363281 425.09375 C 513.347656 425.054688 513.328125 425.039062 513.292969 425.003906 C 499.160156 410.253906 486.351562 394.171875 474.300781 377.667969 C 464.601562 364.296875 455.789062 349.929688 449.457031 334.605469 C 453.746094 346.675781 459.101562 358.378906 465.015625 369.617188 C 474.082031 386.335938 485.210938 401.96875 499.414062 414.671875 C 505.132812 419.808594 511.15625 424.53125 517.289062 429.128906 Z M 618.722656 424.53125 C 623.734375 444.179688 626.976562 465.078125 621.472656 484.800781 C 617.875 498.898438 611.777344 512.125 606.855469 525.765625 C 602.132812 538.46875 595.925781 550.71875 588.632812 562.042969 C 588.089844 568.921875 587.476562 575.8125 586.335938 582.582031 C 586.316406 582.835938 586.300781 583.070312 586.265625 583.324219 C 583.078125 610.769531 572.695312 633.914062 555.9375 655.734375 C 547.324219 666.953125 537.734375 677.972656 525.542969 685.390625 C 521.199219 688.03125 516.367188 689.550781 511.5 690.890625 C 511.480469 690.890625 511.480469 690.890625 511.480469 690.90625 C 508.480469 692.246094 505.402344 693.167969 502.21875 693.585938 C 513.78125 687.21875 522.175781 676.578125 530.335938 666.464844 C 541.554688 652.097656 547.652344 634.890625 553.894531 618.027344 C 553.910156 618.007812 553.910156 617.992188 553.929688 617.972656 C 554.238281 616.851562 554.527344 615.746094 554.816406 614.625 C 563.71875 579.488281 561.800781 542.683594 559.429688 506.914062 C 559.25 504.597656 559.085938 502.425781 558.925781 500.417969 C 558.09375 487.550781 556.410156 474.777344 554.90625 461.984375 C 552.03125 460.230469 549.296875 458.203125 546.730469 455.980469 C 540.648438 452.234375 535.058594 447.527344 529.160156 443.492188 C 514.703125 433.144531 500.191406 422.6875 487.851562 409.839844 C 466.140625 387.386719 443.667969 343.597656 439.015625 312.710938 C 438.960938 311.789062 438.890625 310.847656 438.816406 309.90625 C 425.589844 330.316406 408.023438 347.8125 390.34375 364.441406 C 366.335938 387.730469 340.296875 409.152344 317.933594 434.066406 C 305.558594 447.890625 296.003906 463.777344 286.503906 479.644531 C 278.722656 506.695312 273.496094 534.453125 271.449219 562.570312 L 271.449219 562.40625 C 271.339844 567.128906 271.179688 571.761719 271.070312 576.230469 C 270.945312 594.433594 273.167969 612.632812 275.46875 630.675781 C 275.902344 632.210938 276.316406 633.75 276.824219 635.25 C 279.519531 643.863281 284.078125 651.808594 289.164062 659.242188 C 294.105469 663.785156 298.753906 668.527344 304.726562 671.621094 L 304.726562 671.601562 C 304.816406 671.636719 305.015625 671.582031 304.976562 671.65625 C 304.253906 671.945312 303.386719 671.65625 302.660156 671.511719 C 281.367188 664.746094 265.246094 645.765625 258.152344 625.011719 C 254.007812 612.382812 252.433594 599.101562 251.292969 585.890625 C 250.824219 601 251.328125 616.144531 253.140625 631.214844 C 255.273438 643.902344 257.464844 656.636719 260.8125 669.050781 C 262.492188 674.625 265.046875 679.996094 266.890625 685.550781 C 266.78125 685.460938 266.671875 685.371094 266.582031 685.28125 C 265.207031 684.050781 263.867188 682.746094 262.53125 681.480469 C 261.96875 680.9375 261.425781 680.378906 260.882812 679.816406 C 260.269531 679.183594 259.652344 678.550781 259 677.917969 C 258.984375 677.878906 258.964844 677.863281 258.949219 677.84375 C 258.695312 677.574219 258.421875 677.285156 258.167969 677.011719 C 257.898438 676.722656 257.625 676.433594 257.335938 676.144531 C 256.9375 675.691406 256.503906 675.257812 256.070312 674.804688 C 255.273438 673.953125 254.460938 673.105469 253.664062 672.253906 C 249.757812 667.511719 246.570312 662.101562 243.460938 657 C 231.300781 637.984375 225.671875 615.78125 222.8125 593.636719 C 220.570312 578.761719 219.503906 563.761719 219.46875 548.761719 C 217.1875 544.292969 215.449219 539.5 214.164062 534.703125 C 210.691406 526.363281 208.738281 517.28125 205.570312 508.847656 C 201.066406 496.054688 197.683594 482.921875 195.292969 469.550781 C 193.359375 458.910156 191.675781 447.980469 191.800781 437.125 C 191.621094 435.640625 191.457031 434.15625 191.257812 432.691406 C 187.117188 402.3125 191.003906 374.320312 206.367188 348.15625 C 207.832031 338.476562 210.617188 329.125 214.183594 322.140625 C 218.886719 313.054688 229.074219 301.296875 239.640625 295.8125 C 240.5625 290.546875 243.332031 285.679688 245.867188 280.992188 C 253.265625 265.578125 267.054688 255.246094 280.496094 245.367188 C 311.527344 221.285156 350.285156 207.550781 389.277344 204.402344 C 393.621094 204.148438 398.089844 203.96875 402.484375 204.132812 C 405.722656 203.949219 408.890625 203.914062 411.914062 203.988281 C 430.929688 203.644531 449.621094 207.1875 468.019531 211.660156 C 492.25 216.921875 516.332031 225.574219 536.109375 240.878906 C 539.617188 243.648438 543.292969 246.34375 546.746094 249.277344 C 552.699219 253.546875 558.183594 258.46875 562.851562 264.203125 C 569.546875 273.214844 575.515625 283.707031 578.628906 294.800781 C 579.605469 296.03125 580.546875 297.351562 581.46875 298.707031 C 582.71875 299.792969 583.929688 300.96875 585.085938 302.109375 C 591.402344 308.914062 596.558594 316.835938 600.773438 325.070312 C 603.433594 330.480469 606.746094 335.835938 607.433594 341.933594 C 607.742188 344.558594 607.667969 347.199219 607.253906 349.785156 C 608.300781 351.613281 609.242188 353.566406 610.128906 355.46875 C 615.738281 370.9375 619.773438 387.636719 620.96875 404.03125 C 621.382812 410.980469 620.316406 417.820312 618.722656 424.53125 Z M 569.597656 206.84375 C 574.738281 203.769531 582.878906 209.304688 587.820312 211.984375 C 612.898438 227.617188 627.898438 259.625 620.335938 288.628906 C 599.34375 264.421875 597.789062 223.980469 569.597656 206.84375 Z M 569.597656 206.84375 C 569.507812 206.917969 569.382812 206.972656 569.292969 207.042969 C 569.292969 207.042969 569.292969 207.027344 569.292969 207.027344 C 569.328125 206.992188 569.347656 206.953125 569.382812 206.9375 C 569.4375 206.898438 569.492188 206.863281 569.582031 206.828125 C 569.582031 206.828125 569.597656 206.84375 569.597656 206.84375 Z M 569.597656 206.84375 " fill-opacity="1" fill-rule="evenodd"/><path fill="#000000" d="M 597.554688 498.753906 C 597.84375 498.191406 598.097656 497.648438 598.296875 497.125 C 598.023438 497.195312 597.753906 497.25 597.480469 497.304688 C 597.5 497.792969 597.535156 498.28125 597.554688 498.753906 Z M 252.832031 671.257812 C 252.757812 670.914062 252.667969 670.570312 252.578125 670.226562 C 247.167969 659.28125 245.070312 646.179688 243.042969 634.417969 C 238.355469 603.625 239.859375 571.617188 250.714844 542.25 C 251.476562 540.402344 252.214844 537.273438 253.140625 536.277344 C 253.066406 543.804688 253.300781 551.386719 252.777344 558.933594 C 252.324219 568.324219 251.347656 577.675781 250.625 587.050781 C 250.625 587.085938 250.640625 587.121094 250.640625 587.160156 C 250.839844 587.863281 251.003906 588.570312 251.183594 589.292969 C 250.878906 603.28125 251.4375 617.265625 253.101562 631.214844 C 255.238281 643.902344 257.425781 656.636719 260.773438 669.050781 C 262.457031 674.625 265.007812 679.996094 266.855469 685.550781 C 266.746094 685.460938 266.636719 685.371094 266.546875 685.28125 C 265.171875 684.050781 263.832031 682.746094 262.492188 681.480469 C 261.933594 680.9375 261.390625 680.378906 260.847656 679.816406 C 260.230469 679.183594 259.617188 678.550781 258.964844 677.917969 C 258.949219 677.878906 258.929688 677.863281 258.910156 677.84375 C 258.65625 677.574219 258.386719 677.285156 258.132812 677.011719 C 257.863281 676.722656 257.589844 676.433594 257.300781 676.144531 C 256.902344 675.691406 256.46875 675.257812 256.035156 674.804688 C 255.238281 673.953125 254.425781 673.105469 253.628906 672.253906 C 253.375 671.929688 253.101562 671.582031 252.832031 671.257812 Z M 251.855469 592.1875 C 253.628906 600.222656 254.820312 608.402344 255.726562 616.613281 C 253.789062 608.617188 252.667969 600.402344 251.855469 592.1875 Z M 433.933594 317.054688 C 435.164062 304.878906 434.910156 292.519531 437.53125 280.488281 C 437.441406 278.859375 438.148438 277.449219 438.960938 278.730469 C 440.410156 289.824219 440.933594 303.265625 439.703125 316.601562 C 439.449219 315.28125 439.214844 313.980469 439.035156 312.695312 C 438.980469 311.769531 438.90625 310.832031 438.835938 309.890625 C 437.242188 312.3125 435.613281 314.703125 433.933594 317.054688 Z M 546.855469 456.085938 C 546.730469 454.476562 546.566406 452.847656 546.367188 451.257812 C 546.402344 451.507812 546.421875 451.5625 546.476562 451.890625 C 544.269531 430.574219 536.359375 410.582031 527.167969 391.402344 C 521.667969 380.039062 516.710938 367.789062 512.023438 356.265625 C 509.945312 352.011719 508.425781 347.179688 505.113281 343.761719 C 505.09375 343.761719 505.078125 343.761719 505.078125 343.761719 C 505.078125 343.761719 505.058594 343.761719 505.058594 343.761719 C 505.039062 344.105469 504.949219 343.925781 504.949219 343.742188 C 504.949219 343.632812 505.003906 343.507812 505.148438 343.5625 C 510.289062 345.660156 513.816406 350.601562 517.308594 354.707031 C 525.179688 364.730469 530.570312 376.292969 535.726562 387.855469 C 538.441406 393.5 541.046875 399.253906 543.4375 405.117188 C 543.78125 406.222656 544.140625 407.324219 544.503906 408.445312 C 544.972656 410.273438 545.515625 412.082031 546.042969 413.890625 C 546.476562 415.25 546.890625 416.625 547.308594 417.964844 C 547.488281 418.523438 547.667969 419.105469 547.851562 419.664062 C 547.921875 419.898438 547.976562 420.171875 548.066406 420.40625 C 548.066406 420.40625 548.066406 420.425781 548.085938 420.425781 C 548.085938 420.441406 548.085938 420.460938 548.105469 420.480469 C 548.121094 420.550781 548.140625 420.625 548.160156 420.714844 C 548.140625 420.675781 548.140625 420.660156 548.121094 420.625 C 548.304688 421.203125 548.464844 421.78125 548.628906 422.378906 L 549.28125 425.21875 C 549.914062 428.003906 550.382812 430.828125 550.925781 433.632812 C 552.03125 439.132812 552.898438 444.671875 553.804688 450.207031 C 554.003906 451.417969 554.183594 452.613281 554.382812 453.824219 C 554.507812 456.539062 554.652344 459.253906 554.78125 461.96875 C 551.996094 460.210938 549.351562 458.257812 546.855469 456.085938 Z M 587.875 570.65625 C 588.089844 564 589.175781 557.285156 590.082031 550.589844 C 589.847656 540.457031 589.574219 530.34375 589.304688 520.210938 C 588.90625 503.238281 587.65625 486.320312 585.394531 469.496094 C 583.675781 458.042969 581.703125 446.605469 581.269531 434.988281 C 580.980469 428.078125 580.746094 420.875 581.269531 414.054688 C 582.898438 418.707031 584.542969 423.335938 585.992188 428.042969 C 588.363281 435.75 590.28125 443.566406 591.820312 451.4375 C 603.996094 443.601562 613.152344 431.171875 618.761719 417.820312 C 619.554688 415.847656 620.226562 413.820312 620.859375 411.757812 C 620.515625 416.046875 619.71875 420.296875 618.722656 424.511719 C 619.519531 427.609375 620.261719 430.71875 620.929688 433.867188 C 614.253906 443.785156 603.941406 451.347656 592.253906 453.679688 C 594.804688 467.234375 596.34375 480.964844 597.300781 494.773438 C 604.121094 490.429688 608.195312 477.746094 611.449219 471.683594 C 616.246094 461.804688 619.898438 451.726562 622.34375 441.195312 C 624.859375 455.742188 625.4375 470.582031 621.472656 484.800781 C 617.875 498.898438 611.777344 512.125 606.855469 525.765625 C 602.132812 538.46875 595.925781 550.71875 588.632812 562.042969 C 588.398438 564.921875 588.164062 567.796875 587.875 570.65625 Z M 613.875 366.902344 C 611.378906 387.09375 602.964844 397.5 585.070312 409.53125 C 589.484375 401.460938 595.816406 394.496094 599.308594 385.9375 C 605.40625 370.394531 606.257812 353.839844 606.347656 337.246094 C 606.835938 338.765625 607.199219 340.339844 607.398438 341.953125 C 607.703125 344.574219 607.632812 347.21875 607.214844 349.804688 C 608.265625 351.632812 609.207031 353.585938 610.09375 355.484375 C 611.449219 359.214844 612.71875 363.03125 613.875 366.902344 Z M 581.648438 298.90625 C 581.832031 317.777344 576.257812 339.871094 566.054688 350.78125 C 567.085938 338.75 572.710938 327.800781 574.613281 315.933594 C 575.859375 308.640625 576.203125 301.257812 576.875 293.914062 C 576.945312 292.71875 577.054688 291.523438 577.144531 290.347656 C 577.667969 291.8125 578.140625 293.296875 578.554688 294.800781 C 579.53125 296.03125 580.472656 297.351562 581.398438 298.707031 C 581.488281 298.761719 581.578125 298.835938 581.648438 298.90625 Z M 242.320312 287.742188 C 242.988281 291.21875 243.894531 294.636719 244.726562 298.074219 C 247.113281 307.628906 249.320312 317.5625 255.707031 325.378906 C 262.347656 333.992188 272.210938 339.996094 277.492188 349.605469 C 265.40625 344.8125 255.546875 335.273438 248.363281 324.617188 C 243.75 317.507812 241.648438 309.203125 239.894531 301.003906 C 239.585938 299.359375 239.316406 297.710938 239.136719 296.046875 C 239.296875 295.957031 239.441406 295.886719 239.605469 295.792969 C 240.09375 293.007812 241.089844 290.332031 242.320312 287.742188 Z M 227.046875 305.167969 C 226.867188 310.523438 227.484375 315.949219 227.300781 321.308594 C 227.484375 331.457031 227.644531 341.824219 230.140625 351.703125 C 233.054688 362.613281 240.78125 371.859375 242.699219 383.023438 C 224.226562 366.667969 219.628906 339.5625 222.941406 316.097656 C 223.429688 313.253906 223.953125 310.394531 224.679688 307.589844 C 225.457031 306.777344 226.253906 305.964844 227.046875 305.167969 Z M 218.761719 547.371094 C 216.808594 543.300781 215.289062 538.992188 214.128906 534.6875 C 210.65625 526.34375 208.699219 517.261719 205.535156 508.832031 C 201.03125 496.039062 197.644531 482.902344 195.257812 469.53125 C 193.320312 458.890625 191.640625 447.964844 191.765625 437.105469 C 191.585938 435.625 191.421875 434.140625 191.222656 432.675781 C 188.507812 412.84375 189.230469 394.007812 194.335938 376.058594 C 194.480469 376.257812 194.570312 376.511719 194.550781 376.765625 C 194.589844 379.027344 194.949219 381.289062 195.128906 383.550781 C 196.578125 395.363281 196.632812 407.359375 197.5 419.25 C 199.726562 428.585938 201.878906 438.410156 204.429688 447.183594 C 207.21875 457.316406 210.566406 467.46875 214.347656 477.222656 C 215.757812 480.152344 217.367188 483.101562 218.652344 486.140625 C 219.429688 483.171875 220.207031 480.222656 221.003906 477.273438 C 223.394531 465.421875 225.292969 453.355469 229.164062 442.011719 C 224.1875 437.359375 220.804688 430.9375 217.695312 424.984375 C 206.3125 405.984375 199.308594 383.984375 199.402344 361.835938 C 200.46875 359.359375 201.609375 356.898438 202.875 354.453125 C 203.054688 355.125 203.238281 355.773438 203.4375 356.425781 C 208.574219 372.945312 211.253906 390.082031 218.109375 406.003906 C 221.710938 414.109375 227.03125 421.382812 229.835938 429.871094 C 230.433594 431.839844 230.972656 433.851562 231.515625 435.859375 C 233.089844 432.183594 234.917969 428.601562 237.125 425.148438 C 237.363281 424.804688 237.597656 424.460938 237.867188 424.097656 C 239.136719 421.292969 240.492188 418.542969 241.957031 415.863281 C 244.996094 410.453125 247.929688 404.773438 252.253906 400.269531 C 252.652344 399.996094 252.613281 399.871094 252.996094 399.960938 C 253.210938 400.050781 253.050781 400.394531 253.03125 400.574219 C 252.921875 400.59375 252.957031 400.320312 252.921875 400.230469 C 252.902344 400.230469 252.902344 400.230469 252.902344 400.230469 C 248.90625 410.597656 247.496094 421.890625 244.003906 432.457031 C 239.171875 446.769531 234.957031 461.28125 231.027344 475.863281 C 229.382812 482.992188 227.71875 490.140625 226.054688 497.269531 C 224.839844 512.070312 221.945312 526.707031 219.484375 541.382812 C 219.214844 543.351562 218.976562 545.363281 218.761719 547.371094 Z M 218.761719 547.371094 " fill-opacity="1" fill-rule="evenodd"/><g mask="url(#0961dbefa9)"><g transform="matrix(1, 0, 0, 1, 189, 243)"><g clip-path="url(#93f107bb48)"><g clip-path="url(#07425e06f8)"><path fill="#000000" d="M 135.828125 158.300781 L 135.808594 158.316406 C 135.828125 158.316406 135.828125 158.316406 135.828125 158.316406 Z M 148.292969 169.191406 C 147.824219 169.664062 147.371094 170.132812 146.917969 170.601562 C 147.007812 170.621094 147.117188 170.640625 147.207031 170.65625 C 147.585938 170.167969 147.929688 169.679688 148.292969 169.191406 Z M 135.789062 163.960938 C 135.773438 163.835938 135.773438 163.710938 135.753906 163.582031 C 135.71875 163.78125 135.664062 163.980469 135.628906 164.160156 C 135.664062 164.070312 135.71875 164.015625 135.789062 163.960938 Z M 326.878906 169.371094 C 327.386719 169.953125 327.820312 170.421875 328.21875 170.785156 C 327.984375 170.351562 327.710938 169.898438 327.441406 169.410156 C 327.242188 169.410156 327.042969 169.390625 326.878906 169.371094 Z M 400.066406 283.726562 C 400.050781 286.367188 400.050781 289.027344 399.886719 291.667969 C 399.707031 295.035156 399.542969 298.398438 399.363281 301.765625 C 400.992188 293.820312 400.214844 285.714844 400.160156 277.664062 C 400.160156 279.671875 400.085938 281.699219 400.066406 283.726562 Z M 399.90625 265.25 C 399.960938 267.296875 400.015625 269.339844 400.050781 271.386719 C 400.175781 269.414062 400.03125 267.332031 399.90625 265.25 Z M 398.691406 204.058594 C 397.410156 223.402344 399.144531 242.761719 399.816406 262.121094 C 399.816406 260.132812 400.015625 258.195312 400.648438 256.421875 C 400.683594 256.367188 400.71875 256.3125 400.773438 256.257812 C 400.121094 252.242188 401.695312 247.5 401.589844 243.558594 C 402.167969 235.722656 402.671875 227.832031 402.492188 219.980469 C 400.917969 214.75 399.722656 209.433594 398.691406 204.058594 Z M 395.835938 128.535156 C 395.074219 129.257812 394.277344 130 393.464844 130.6875 C 393.699219 131.230469 393.917969 131.792969 394.132812 132.335938 C 394.75 131.085938 395.308594 129.820312 395.835938 128.535156 Z M 397.082031 139.917969 C 397.28125 139.226562 397.410156 138.558594 397.480469 137.945312 C 397.316406 138.105469 397.011719 138.394531 396.628906 138.738281 C 396.773438 139.136719 396.9375 139.519531 397.082031 139.917969 Z M 416.535156 200.386719 C 416.226562 202.429688 415.898438 204.457031 415.554688 206.484375 C 415.503906 206.882812 415.449219 207.296875 415.394531 207.695312 C 417.4375 200.332031 419.972656 193.039062 421.382812 185.511719 C 419.898438 190.523438 417.222656 195.191406 416.535156 200.386719 Z M 35.875 167.691406 C 35.785156 167.527344 35.679688 167.347656 35.585938 167.183594 C 35.585938 167.527344 35.570312 167.851562 35.570312 168.195312 C 35.679688 168.015625 35.769531 167.851562 35.875 167.691406 Z M 62.691406 372.710938 C 52.035156 347.234375 58.675781 310.539062 63.507812 285.316406 C 63.46875 285.480469 63.453125 285.644531 63.414062 285.824219 C 65.929688 273.753906 68.734375 261.742188 71.917969 249.816406 C 73.820312 239.179688 76.535156 228.773438 81.09375 219.003906 C 82.449219 214.949219 83.84375 210.914062 85.273438 206.898438 C 86.628906 203.171875 88.222656 199.445312 89.632812 195.753906 C 89.707031 195.246094 89.816406 194.738281 89.996094 194.289062 C 90.355469 193.472656 91.460938 193.726562 91.605469 194.542969 C 91.40625 207.640625 86.359375 220.144531 82.703125 232.574219 C 81.039062 237.910156 79.484375 243.285156 78.015625 248.675781 C 75.863281 260.402344 74.144531 272.199219 73.023438 284.105469 C 73.023438 284.085938 73.023438 284.085938 73.023438 284.085938 C 73.023438 284.140625 73.003906 284.175781 73.003906 284.230469 C 73.003906 284.285156 73.003906 284.339844 72.988281 284.394531 C 69.351562 322.574219 71.140625 361.402344 81.164062 398.511719 C 81.945312 400.882812 82.648438 403.289062 83.210938 405.695312 C 83.464844 406.527344 83.734375 407.359375 84.007812 408.191406 C 77.421875 400.484375 72.355469 391.417969 69.132812 382.011719 C 64.988281 369.382812 63.414062 356.101562 62.277344 342.890625 C 61.949219 352.824219 62.078125 362.777344 62.691406 372.710938 Z M 168.9375 104.199219 L 168.957031 104.179688 Z M 168.9375 104.199219 C 163.003906 116.015625 155.367188 126.90625 148.039062 137.925781 C 144.800781 144.675781 142.085938 151.984375 141.4375 158.117188 C 162.027344 137.546875 188.351562 117.296875 194.867188 110.859375 C 212.164062 94.753906 225.535156 75.03125 240.953125 57.191406 C 240.953125 57.191406 240.96875 57.171875 240.96875 57.15625 C 241.457031 56.429688 241.945312 55.707031 242.398438 54.964844 C 244.246094 49.683594 245.890625 44.308594 247.300781 38.84375 C 247.628906 40.292969 247.898438 41.757812 248.117188 43.203125 C 248.785156 42.410156 249.492188 42.210938 250.199219 43.078125 C 249.960938 43.203125 249.65625 42.734375 249.347656 42.789062 C 249.363281 45.628906 249.21875 48.414062 248.859375 51.183594 C 249.113281 57.953125 248.371094 64.644531 246.90625 71.230469 C 234.074219 89.796875 217.773438 105.988281 201.34375 121.425781 C 180.355469 141.761719 157.847656 160.6875 137.5625 181.75 C 137.492188 181.53125 137.382812 181.316406 137.292969 181.097656 C 135.609375 183.015625 133.945312 184.953125 132.28125 186.871094 C 132.136719 187.175781 132.007812 187.484375 131.882812 187.808594 C 130.886719 188.878906 129.910156 189.964844 128.933594 191.050781 C 122.382812 198.359375 116.628906 206.230469 111.273438 214.371094 C 111.816406 211.820312 112.449219 209.269531 113.171875 206.753906 C 112.015625 209.414062 110.859375 212.054688 109.679688 214.714844 C 108.902344 216.617188 108.144531 218.515625 107.382812 220.433594 C 104.019531 225.789062 100.761719 231.21875 97.503906 236.644531 C 94.246094 248.007812 91.425781 259.480469 89.089844 271.058594 C 88.511719 247.628906 101.613281 219.65625 109.175781 201.507812 C 124.808594 167.09375 140.511719 129.332031 168.9375 104.199219 Z M 322.753906 180.410156 C 322.5 180.046875 322.230469 179.6875 321.976562 179.324219 C 318.300781 174.582031 314.738281 169.714844 311.464844 164.6875 C 309.890625 161.628906 307.429688 158.914062 304.316406 157.46875 C 304.480469 158.0625 304.878906 158.75 304.914062 159.277344 C 304.316406 158.40625 302.378906 156.886719 304.351562 156.4375 C 299.703125 152.347656 295.667969 147.625 292.71875 142.214844 C 292.699219 142.269531 292.664062 142.195312 292.664062 142.160156 C 292.664062 142.160156 292.664062 142.140625 292.664062 142.140625 C 292.628906 142.050781 292.535156 141.816406 292.734375 141.90625 C 294.507812 143.679688 296.480469 145.253906 298.488281 146.71875 C 296.410156 144.367188 294.492188 141.886719 292.734375 139.320312 C 292.519531 137.617188 294.816406 139.71875 295.289062 140.097656 C 305.726562 147.605469 316.421875 156.5625 329.320312 159.042969 C 331.09375 157.757812 331.203125 155.167969 331.511719 153.160156 C 331.820312 148.945312 331.367188 144.765625 330.839844 140.605469 C 328.453125 131.429688 325.070312 122.238281 324.5625 118.890625 C 323.949219 115.671875 323.441406 112.214844 323.421875 109.046875 C 323.511719 109.175781 323.621094 109.285156 323.710938 109.390625 C 323.511719 108.070312 323.386719 106.769531 323.316406 105.449219 C 326.515625 113.300781 331.367188 120.300781 334.332031 128.226562 C 338.097656 138.125 341.589844 148.128906 344.808594 158.207031 C 345.984375 159.492188 346.78125 161.71875 347.378906 163.167969 C 351.757812 173.914062 354.78125 185.167969 357.621094 196.386719 C 358 198.957031 360.75 207.0625 359.699219 211.023438 C 359.972656 212.398438 360.226562 213.792969 360.460938 215.167969 C 359.554688 214.445312 358.632812 213.703125 357.746094 212.925781 C 351.667969 209.179688 346.078125 204.472656 340.179688 200.441406 C 340.015625 200.332031 339.871094 200.222656 339.726562 200.132812 C 339.652344 199.804688 339.597656 199.5 339.527344 199.171875 C 334.839844 194.25 330.0625 189.402344 325.738281 184.171875 C 326.589844 184.824219 327.441406 185.457031 328.289062 186.089844 C 326.953125 184.769531 325.648438 183.414062 324.382812 182.054688 L 324.363281 182.054688 C 324.347656 182.019531 324.328125 182.003906 324.292969 181.964844 C 323.785156 181.476562 323.261719 180.933594 322.753906 180.410156 Z M 339.039062 440.777344 C 346.890625 429.074219 356.011719 418.199219 363.121094 406.039062 C 379.316406 377.941406 388.289062 346.128906 392.542969 314.121094 C 395.292969 291.214844 394.695312 268.039062 393.464844 245.039062 L 393.480469 245.148438 L 393.480469 245.222656 C 393.230469 240.171875 392.992188 235.105469 392.777344 230.09375 C 392.777344 229.96875 392.777344 229.84375 392.757812 229.714844 C 392.757812 229.75 392.777344 229.804688 392.777344 229.84375 C 392.757812 225.644531 391.78125 203.460938 395.039062 193.65625 C 393.191406 191.085938 393.101562 186.871094 394.550781 183.828125 C 394.65625 183.378906 394.785156 182.90625 394.910156 182.453125 C 393.480469 174.691406 391.761719 166.984375 389.050781 159.53125 C 380.507812 135.808594 370.46875 112.648438 359.449219 89.996094 C 353.585938 79.898438 351.089844 67 342.113281 59.289062 C 342.097656 59.289062 342.097656 59.289062 342.097656 59.289062 C 342.53125 59.777344 341.734375 59.34375 341.878906 59.164062 C 345.933594 58.65625 349.640625 62.65625 352.625 65.0625 C 354.253906 66.527344 355.773438 68.046875 357.277344 69.621094 C 358.019531 70.019531 358.832031 70.597656 359.683594 71.324219 L 359.699219 71.304688 L 359.699219 71.324219 C 363.699219 74.722656 368.402344 80.949219 369.632812 82.324219 C 371.445312 84.675781 373.109375 87.117188 374.648438 89.632812 C 375.007812 66.273438 380.652344 40.851562 372.222656 19.339844 C 372.730469 19.9375 373.253906 20.550781 373.761719 21.167969 C 380.453125 30.175781 386.425781 40.671875 389.539062 51.761719 C 390.515625 52.992188 391.457031 54.3125 392.378906 55.671875 C 392.757812 56.015625 393.15625 56.359375 393.535156 56.703125 C 391.726562 70.597656 385.992188 84.007812 378.046875 95.566406 C 383.023438 104.851562 386.859375 114.765625 390.824219 124.5 C 391.09375 125.132812 391.363281 125.765625 391.636719 126.398438 C 394.621094 120.808594 396.285156 114.152344 397.769531 108.378906 C 401.859375 91.261719 398.601562 73.765625 393.84375 57.011719 C 394.585938 57.699219 395.292969 58.386719 395.996094 59.089844 C 402.3125 65.894531 407.46875 73.820312 411.683594 82.050781 C 414.34375 87.460938 417.65625 92.816406 418.34375 98.914062 C 418.652344 101.539062 418.578125 104.179688 418.160156 106.769531 C 419.210938 108.597656 420.152344 110.550781 421.039062 112.449219 C 421.203125 112.921875 421.363281 113.410156 421.546875 113.878906 C 421.292969 115.328125 421.019531 116.757812 420.714844 118.183594 C 421.273438 117.570312 421.851562 117.046875 422.523438 116.628906 C 427.371094 130.90625 430.792969 146.085938 431.894531 161.011719 C 432.328125 167.941406 431.261719 174.800781 429.667969 181.496094 C 432.347656 191.953125 434.519531 202.773438 435.117188 213.59375 C 434.175781 215.785156 433.214844 217.953125 432.238281 220.109375 C 429.578125 227.453125 424.601562 233.679688 422.070312 240.898438 C 419.554688 247.738281 415.519531 262.789062 406.925781 262.085938 C 408.082031 271.984375 407.070312 282.0625 406.21875 291.957031 C 407.34375 290.746094 409.496094 290.910156 410.417969 292.265625 C 411.46875 293.570312 411.269531 295.234375 411.085938 296.789062 C 411.015625 297.53125 410.90625 298.273438 410.816406 299.015625 C 407.46875 305.910156 403.6875 312.601562 399.5625 319.007812 C 399.019531 325.882812 398.402344 332.777344 397.265625 339.542969 C 397.246094 339.796875 397.226562 340.03125 397.191406 340.285156 C 394.007812 367.734375 383.621094 390.875 366.867188 412.699219 C 358.886719 423.15625 350.039062 433.433594 339.039062 440.777344 Z M 359.71875 71.339844 C 359.25 63.324219 362.144531 53.789062 361.257812 44.996094 C 360.226562 33.8125 358.722656 22.558594 355.46875 11.777344 C 354.5625 8.265625 353.332031 4.9375 351.992188 1.679688 C 353.910156 3.164062 355.828125 4.664062 357.691406 6.257812 C 361.765625 9.1875 365.617188 12.410156 369.128906 15.992188 C 369.433594 17.492188 369.726562 19.03125 369.976562 20.625 C 373.996094 38.445312 368.785156 56.125 359.71875 71.339844 Z M 65.585938 24.660156 C 66.472656 35.28125 69.476562 45.972656 75.648438 54.621094 C 84.1875 62.492188 91.515625 71.648438 99.042969 80.371094 C 71.722656 77.691406 56.484375 55.003906 61.082031 30.574219 C 62.476562 28.511719 63.996094 26.539062 65.585938 24.660156 Z M 20.296875 277.355469 C 19.140625 273.464844 17.980469 269.574219 16.535156 265.8125 C 12.03125 253.019531 8.644531 239.882812 6.257812 226.511719 C 4.320312 215.875 2.640625 204.945312 2.765625 194.089844 C 2.585938 192.605469 2.421875 191.121094 2.222656 189.65625 C -1.921875 159.277344 1.96875 131.285156 17.332031 105.121094 C 18.796875 95.441406 21.582031 86.085938 25.148438 79.101562 C 27.410156 74.722656 30.9375 69.730469 35.1875 65.117188 C 35.96875 78.996094 37.503906 92.636719 37.144531 106.550781 C 39.859375 111.996094 41.25 118.058594 43.746094 123.613281 C 48.488281 128.15625 50.625 134.722656 53.734375 140.550781 C 56.9375 134.488281 60.230469 128.445312 63.941406 122.707031 C 59.109375 118.710938 55.761719 113.265625 53.445312 107.3125 C 44.398438 95.367188 42.28125 77.765625 43.332031 62.621094 C 43.402344 61.75 43.601562 59.542969 43.945312 57.066406 C 45.304688 56.050781 46.660156 55.09375 48.035156 54.261719 C 48.414062 57.898438 49.285156 61.515625 50.296875 65.117188 C 49.644531 60.160156 49.050781 54.621094 49.738281 53.265625 C 49.9375 53.175781 50.097656 53.066406 50.28125 52.976562 C 50.460938 53.03125 50.660156 53.210938 50.914062 53.519531 C 50.804688 53.589844 50.515625 53.300781 50.316406 53.265625 C 56.992188 65.621094 61.640625 79.210938 70.398438 90.15625 C 73.097656 93.089844 75.195312 96.382812 77.277344 99.710938 C 79.300781 100.398438 81.308594 101.160156 83.066406 102.28125 C 84.640625 101.414062 86.285156 100.726562 87.988281 100.328125 C 86.8125 101.269531 85.742188 102.371094 84.785156 103.566406 C 84.945312 103.710938 85.109375 103.875 85.273438 104.035156 C 85.398438 104.199219 85.542969 104.378906 85.636719 104.542969 C 103.65625 77.980469 125.730469 54.207031 151.1875 34.554688 C 154.753906 31.859375 172.339844 21.203125 175.21875 23.535156 C 174.492188 23.085938 173.570312 23.863281 172.972656 24.207031 C 166.441406 29.164062 160.308594 34.644531 153.8125 39.640625 C 125.023438 62.113281 100.597656 89.90625 81.707031 121.082031 C 81.90625 123.558594 80.570312 125.984375 78.414062 126.652344 C 74.179688 133.980469 70.238281 141.488281 66.636719 149.144531 C 61.839844 159.09375 57.953125 169.480469 54.75 180.046875 C 56.179688 176.917969 57.859375 173.933594 59.921875 171.199219 C 54.132812 197.6875 49.808594 224.777344 46.226562 251.753906 C 44.960938 261.253906 43.695312 270.769531 42.570312 280.304688 C 42.171875 290.691406 41.8125 301.078125 41.484375 311.464844 C 41.125 321.214844 40.871094 330.96875 40.308594 340.703125 C 40.597656 347.757812 40.746094 354.832031 40.835938 361.890625 C 40.90625 364.964844 40.941406 368.097656 41.015625 371.246094 C 41.339844 373.777344 41.738281 376.3125 42.136719 378.84375 C 43.496094 385.882812 45.957031 392.847656 46.804688 399.960938 C 39.730469 384.453125 35.96875 367.535156 33.777344 350.652344 C 31.535156 335.78125 30.46875 320.78125 30.429688 305.78125 C 30.414062 305.761719 30.414062 305.746094 30.394531 305.710938 C 30.902344 297.820312 31.425781 289.914062 31.789062 282.007812 C 33.074219 262.5 35.75 243.03125 40.492188 224.035156 C 40.960938 221.554688 41.269531 219.003906 41.648438 216.472656 C 41.628906 215.800781 41.628906 215.132812 41.628906 214.480469 C 38.046875 224.015625 34.9375 231.707031 34.105469 234.601562 C 31.007812 249.238281 25.527344 263.386719 20.296875 277.355469 Z M 20.296875 277.355469 " fill-opacity="1" fill-rule="evenodd"/></g></g></g></g><path fill="#1c1a1b" d="M 513.109375 250.558594 C 498.90625 248.425781 488.664062 239.144531 475.910156 233.769531 C 475.4375 233.769531 475.203125 233.117188 475.601562 232.808594 C 489.535156 228.359375 511.085938 233.804688 513.109375 250.558594 Z M 477.683594 251.863281 C 474.535156 248.296875 471.53125 243.050781 471.855469 238.21875 C 473.902344 240.664062 477.066406 242.542969 479.183594 245.148438 C 483.128906 249.113281 485.5 258.703125 477.683594 251.863281 Z M 370.621094 251.101562 C 376.160156 234.183594 398.9375 228.59375 413.683594 232.558594 C 399.679688 239.234375 386.925781 251.683594 370.621094 251.101562 Z M 338.742188 238.257812 C 348.621094 218.117188 386 211.296875 399.519531 221.484375 C 378.835938 225.84375 360.597656 241.222656 338.742188 238.257812 Z M 510.648438 381.050781 C 493.839844 377.6875 485.246094 359.464844 484.578125 343.671875 C 484.359375 342.242188 485.625 341.515625 485.769531 343.074219 C 494.761719 355.234375 509.09375 364.96875 510.648438 381.050781 Z M 337.347656 389.484375 C 337.058594 368.511719 350.992188 351.105469 366.730469 338.730469 C 370.078125 337.355469 376.339844 327.75 378.765625 333.792969 C 377.75 340.46875 372.757812 346.3125 369.898438 352.410156 C 361.648438 367.824219 352.710938 381.234375 337.347656 389.484375 Z M 292.511719 400.175781 C 288.402344 374.410156 309.59375 350.671875 331.339844 340.324219 C 319.378906 360.425781 312.703125 386.011719 292.511719 400.175781 Z M 275.847656 406.328125 C 254.351562 373.761719 282.6875 336.558594 312.070312 320.980469 C 320.410156 317.054688 331.269531 310.667969 340.476562 313.851562 C 341.128906 314.667969 338 316.441406 339.753906 314.429688 C 326.890625 319.679688 317.914062 332.164062 308.507812 342.042969 C 291.101562 359.808594 281.945312 382.644531 275.847656 406.328125 C 275.863281 406.347656 275.847656 406.347656 275.847656 406.328125 Z M 568.222656 395.492188 C 569.726562 401.859375 569.996094 408.519531 568.585938 415.339844 C 547.398438 399.21875 543.453125 371.261719 529.25 350.710938 C 529.269531 350.746094 529.285156 350.800781 529.285156 350.800781 C 530.605469 352.589844 527.511719 350.710938 528.363281 349.679688 C 531.511719 347.6875 535.582031 351.398438 538.277344 353.007812 C 547.617188 360.535156 556.625 370.105469 562.542969 380.960938 C 560.082031 373.921875 557.894531 366.792969 555.503906 359.757812 C 553.316406 351.234375 547.832031 340.035156 549.550781 332.164062 C 565.292969 353.023438 590.480469 377.578125 573.234375 405.460938 C 571.410156 402.203125 569.761719 398.875 568.222656 395.492188 Z M 568.222656 395.492188 " fill-opacity="1" fill-rule="evenodd"/><path fill="#000000" d="M 340.730469 231.019531 C 345.671875 221.554688 355.640625 215.710938 366.171875 214.933594 C 369.628906 214.734375 373.808594 214.753906 376.609375 216.742188 C 363.347656 217.359375 353.902344 229.898438 340.730469 231.019531 Z M 343.933594 384.90625 C 342.25 370.867188 352.222656 359.195312 362.84375 351.378906 C 363.511719 350.65625 375.417969 343.253906 373.570312 345.445312 C 362.878906 357.945312 354.917969 372.765625 343.933594 384.90625 Z M 516.457031 382.175781 C 502.109375 373.074219 503.484375 359.464844 499.304688 345.535156 C 499.214844 345.75 499.339844 346.203125 499.195312 346.292969 C 497.910156 343.632812 500.878906 345.15625 501.695312 346.601562 C 504.496094 350.183594 506.6875 354.726562 508.660156 358.6875 C 512.621094 366.34375 515.824219 373.761719 516.457031 382.175781 Z M 312.144531 390.40625 C 312.777344 372.675781 324.863281 357.820312 337.09375 345.988281 C 338.832031 344.917969 338.578125 346.621094 337.925781 347.667969 C 337.800781 347.488281 337.925781 346.980469 337.855469 346.691406 C 330.925781 362.070312 325.261719 379.082031 312.199219 390.40625 C 312.160156 390.425781 312.144531 390.425781 312.144531 390.40625 Z M 567.828125 399.417969 C 567.554688 400.847656 567.191406 402.277344 566.703125 403.707031 C 558.382812 386.644531 554.890625 367.464844 545.589844 350.90625 C 545.390625 351.414062 545.335938 352.175781 545.082031 352.574219 C 543.453125 344.738281 552.699219 355.847656 554.003906 357.566406 C 558.78125 363.5 563.066406 370.449219 565.710938 377.832031 C 565.582031 368.621094 565.328125 359.484375 560.933594 351.234375 C 565.074219 353.894531 567.917969 358.632812 569.925781 363.15625 C 575.660156 375.0625 575.136719 389.574219 568.261719 400.792969 C 568.097656 400.339844 567.953125 399.886719 567.828125 399.417969 Z M 288.351562 384.308594 C 287.066406 386.460938 285.726562 388.578125 284.316406 390.640625 C 281.960938 377.199219 288.585938 364.640625 294.828125 353.316406 C 301.035156 341.480469 309.683594 329.972656 322.671875 325.289062 C 324.394531 324.4375 326.835938 324.347656 327.847656 325.359375 C 327.921875 325.359375 328.03125 325.339844 328.121094 325.339844 C 329.207031 325.648438 329.3125 326.519531 329.152344 327.441406 C 329.496094 327.296875 329.855469 327.167969 330.199219 327.023438 C 329.75 327.457031 329.332031 327.875 328.898438 328.328125 C 328.808594 328.617188 328.699219 328.871094 328.609375 329.105469 C 328.425781 329.683594 328.230469 330.261719 328.136719 330.824219 C 327.957031 330.425781 327.902344 329.917969 327.882812 329.414062 C 327.34375 329.992188 326.835938 330.589844 326.328125 331.203125 C 324.683594 335.527344 320.882812 342.097656 320.394531 343.054688 C 315.78125 351.34375 310.1875 358.996094 304.726562 366.722656 C 300.109375 373.90625 294.429688 380.5625 288.113281 386.171875 C 288.207031 385.558594 288.277344 384.941406 288.351562 384.308594 Z M 288.351562 384.308594 " fill-opacity="1" fill-rule="evenodd"/></svg>