<svg xmlns="http://www.w3.org/2000/svg" xmlns:xlink="http://www.w3.org/1999/xlink" width="1080" zoomAndPan="magnify" viewBox="0 0 810 1012.49997" height="1350" preserveAspectRatio="xMidYMid meet" version="1.0"><defs><clipPath id="d1273fc8c2"><path d="M 572 471 L 633 471 L 633 505.910156 L 572 505.910156 Z M 572 471 " clip-rule="nonzero"/></clipPath><clipPath id="ef5f8014f4"><path d="M 185 466 L 229 466 L 229 505.910156 L 185 505.910156 Z M 185 466 " clip-rule="nonzero"/></clipPath><clipPath id="48ec2b0eef"><path d="M 163.015625 376 L 213 376 L 213 500 L 163.015625 500 Z M 163.015625 376 " clip-rule="nonzero"/></clipPath><clipPath id="382fb9086b"><path d="M 320 213.554688 L 531 213.554688 L 531 295 L 320 295 Z M 320 213.554688 " clip-rule="nonzero"/></clipPath><clipPath id="a76f94252c"><path d="M 163.015625 356 L 219 356 L 219 374 L 163.015625 374 Z M 163.015625 356 " clip-rule="nonzero"/></clipPath></defs><path fill="#5b3e36" d="M 448.398438 222.726562 C 445.746094 222.726562 442.871094 222.875 439.335938 223.242188 C 436.167969 223.609375 433.292969 224.125 430.714844 224.863281 C 424.820312 226.554688 419.21875 229.5 413.988281 233.621094 C 412.882812 232.960938 411.628906 232.445312 410.453125 231.855469 C 409.199219 231.265625 407.796875 230.824219 406.105469 230.457031 C 402.492188 229.648438 398.734375 229.277344 395.125 228.984375 L 394.535156 228.910156 C 392.546875 228.765625 390.628906 228.617188 388.566406 228.542969 C 387.386719 228.46875 386.207031 228.394531 385.03125 228.394531 C 384.660156 228.394531 384.292969 228.394531 383.851562 228.394531 C 380.976562 228.394531 377.882812 228.617188 374.199219 229.058594 C 367.640625 229.792969 361.230469 232.371094 357.03125 234.136719 C 351.945312 236.347656 346.933594 239.585938 342.144531 243.855469 C 337.871094 247.609375 334.039062 252.25 330.578125 257.550781 C 328.734375 260.347656 327.261719 263.4375 326.082031 266.089844 C 324.976562 268.371094 324.09375 270.507812 323.207031 272.640625 C 322.988281 272.496094 322.765625 272.421875 322.472656 272.347656 L 321.882812 272.125 C 319.816406 271.242188 317.753906 270.359375 315.617188 269.621094 C 312.671875 268.664062 309.503906 268.222656 306.554688 267.855469 C 304.195312 267.5625 301.765625 267.414062 299.40625 267.195312 L 297.785156 267.046875 C 295.503906 266.898438 293.363281 266.824219 291.300781 266.824219 C 288.574219 266.824219 285.996094 266.972656 283.492188 267.265625 C 281.207031 267.5625 278.628906 268.078125 275.828125 269.035156 C 273.324219 269.84375 270.742188 270.800781 268.238281 272.050781 C 267.28125 271.683594 266.324219 271.539062 265.289062 271.539062 C 263.226562 271.539062 261.238281 272.273438 259.839844 273.671875 C 259.175781 274.335938 258.511719 274.921875 257.847656 275.585938 C 257.628906 275.660156 257.332031 275.808594 257.113281 275.878906 C 256.226562 276.324219 255.417969 276.835938 254.386719 277.574219 C 253.207031 278.457031 252.394531 279.414062 251.660156 280.296875 C 250.40625 281.84375 249.597656 283.539062 248.710938 285.453125 C 248.492188 285.894531 248.269531 286.410156 248.121094 286.921875 C 247.015625 288.542969 245.984375 290.164062 245.175781 291.855469 C 242.300781 297.523438 240.386719 303.5625 239.5 309.894531 C 238.25 310.777344 236.996094 311.734375 235.742188 312.765625 C 231.835938 315.929688 228.078125 319.832031 224.617188 324.394531 C 221.375 328.59375 218.796875 333.523438 217.101562 338.679688 C 216.144531 341.550781 215.628906 344.640625 215.183594 347.292969 C 214.742188 350.015625 214.449219 352.742188 214.300781 355.683594 C 214.078125 360.839844 214.742188 365.917969 216.214844 370.925781 C 213.859375 371.734375 211.425781 372.765625 208.332031 374.164062 C 202.730469 376.742188 197.648438 380.054688 193.152344 383.882812 C 190.796875 385.871094 188.804688 388.226562 186.816406 390.582031 C 185.121094 392.640625 183.574219 394.925781 182.171875 397.722656 C 181.65625 398.679688 181.214844 399.5625 180.847656 400.371094 C 178.785156 400.960938 176.792969 402.140625 175.246094 403.613281 C 173.625 405.15625 172.816406 406.925781 171.859375 409.132812 C 171.34375 410.3125 170.972656 411.636719 170.605469 413.476562 C 170.308594 415.171875 170.015625 417.011719 169.941406 419 C 169.867188 420.914062 170.089844 422.828125 170.308594 424.519531 C 170.53125 426.140625 171.121094 427.757812 171.785156 429.230469 L 171.859375 429.527344 C 172.375 430.777344 172.964844 432.027344 173.773438 433.355469 C 175.246094 435.710938 177.089844 438.066406 179.375 440.347656 L 179.375 440.496094 C 178.859375 443.734375 178.710938 447.046875 178.488281 450.285156 L 178.414062 450.949219 C 178.046875 457.648438 177.828125 464.789062 180.257812 471.34375 C 180.332031 471.636719 180.480469 471.929688 180.550781 472.226562 C 180.480469 472.445312 180.40625 472.667969 180.332031 472.886719 C 179.667969 475.023438 179.890625 477.527344 180.921875 479.144531 C 183.132812 482.679688 185.34375 486.066406 188.070312 489.085938 C 189.320312 490.410156 190.648438 491.589844 191.828125 492.546875 L 192.121094 492.765625 C 193.300781 493.796875 194.554688 494.828125 195.878906 495.710938 C 198.015625 497.183594 200.226562 498.582031 202.511719 499.90625 C 202.804688 500.128906 203.175781 500.273438 203.46875 500.496094 C 205.679688 501.820312 207.890625 503.21875 210.46875 503.21875 C 211.058594 503.21875 211.648438 503.144531 212.238281 503 C 215.332031 502.1875 217.835938 500.273438 219.015625 497.917969 L 219.015625 497.847656 C 220.195312 496.816406 221.007812 495.5625 221.523438 494.089844 C 222.039062 492.398438 222.039062 490.558594 221.375 488.863281 C 223.144531 488.71875 225.28125 488.496094 227.417969 487.980469 C 229.332031 487.539062 231.175781 486.730469 233.238281 485.84375 C 236.847656 484.300781 240.015625 482.089844 242.964844 479.882812 C 245.25 478.1875 247.460938 476.128906 249.523438 473.699219 C 250.703125 472.300781 251.953125 470.753906 253.058594 469.058594 C 254.164062 467.367188 255.046875 465.453125 255.859375 463.757812 C 256.742188 461.773438 257.480469 459.5625 258.070312 457.207031 C 259.25 457.429688 260.574219 457.722656 261.902344 457.722656 C 263.964844 457.722656 265.734375 457.355469 268.089844 456.324219 C 270.671875 455.21875 273.027344 453.527344 275.238281 451.90625 L 275.605469 451.613281 C 280.691406 447.929688 284.816406 443.074219 287.839844 439.316406 C 290.710938 435.636719 293.363281 431.515625 296.164062 426.214844 C 297.859375 423.046875 299.332031 419.808594 300.660156 416.644531 L 300.734375 416.570312 C 305.226562 412.519531 308.839844 407.585938 311.492188 401.917969 C 312.230469 400.300781 312.964844 398.605469 313.777344 396.691406 C 315.691406 396.691406 317.535156 396.617188 319.300781 396.542969 C 321.660156 398.753906 323.503906 400.445312 325.34375 401.992188 C 329.617188 405.671875 333.523438 408.617188 337.28125 411.046875 C 341.113281 413.550781 345.460938 415.757812 351.132812 418.042969 C 361.15625 422.089844 371.765625 423.195312 383.703125 424.152344 C 383.925781 424.152344 384.070312 424.152344 384.292969 424.152344 C 388.417969 424.152344 391.957031 420.542969 392.175781 416.347656 L 392.175781 416.273438 C 393.355469 415.613281 394.609375 414.875 396.15625 413.84375 C 397.777344 412.8125 399.105469 411.785156 400.355469 410.828125 C 401.460938 412.667969 402.714844 414.359375 404.113281 416.054688 C 406.105469 418.410156 408.535156 420.398438 410.820312 422.164062 C 413.695312 424.371094 417.007812 425.917969 419.589844 426.949219 C 422.609375 428.199219 425.851562 428.789062 428.726562 429.230469 C 429.832031 429.378906 430.9375 429.527344 432.042969 429.527344 C 434.179688 429.527344 436.316406 429.230469 438.453125 428.570312 C 440.074219 428.054688 441.695312 427.390625 443.390625 426.582031 C 445.011719 425.773438 446.484375 424.742188 447.734375 423.785156 C 448.988281 422.898438 450.167969 421.796875 451.421875 420.472656 C 452.820312 422.015625 454.367188 423.269531 456.0625 424.667969 C 458.273438 426.507812 460.777344 427.757812 463.800781 429.230469 C 469.253906 431.808594 475.148438 432.765625 480.230469 433.355469 C 481.335938 433.5 482.515625 433.574219 483.695312 433.574219 C 488.558594 433.574219 493.570312 432.398438 498.136719 430.113281 C 499.167969 429.601562 500.273438 428.9375 501.453125 428.128906 C 501.96875 430.335938 502.632812 432.617188 503.738281 435.34375 C 504.84375 438.066406 506.242188 440.570312 508.230469 443.292969 C 508.96875 444.324219 509.78125 445.28125 510.664062 446.164062 C 511.621094 447.195312 512.800781 448.152344 513.90625 449.035156 L 514.570312 449.625 C 516.851562 451.539062 519.578125 452.863281 522.378906 454.117188 C 524.664062 455.144531 527.167969 455.957031 530.410156 456.691406 C 534.167969 457.5 537.265625 458.015625 540.136719 458.238281 C 540.875 458.3125 541.683594 458.3125 542.421875 458.3125 C 545 458.3125 547.652344 458.015625 549.863281 457.722656 C 550.675781 457.648438 551.484375 457.5 552.296875 457.28125 C 552.222656 458.386719 552.148438 459.488281 552.148438 460.519531 C 552.074219 462.949219 552.222656 465.453125 552.589844 468.25 C 552.957031 470.679688 553.621094 473.183594 554.800781 475.980469 C 555.832031 478.484375 557.304688 480.617188 558.78125 482.605469 C 560.03125 484.375 561.433594 485.917969 562.90625 487.171875 C 565.042969 489.011719 566.8125 490.1875 568.726562 491.21875 C 571.160156 492.472656 573.664062 493.429688 576.390625 494.164062 C 578.453125 494.753906 580.589844 495.121094 582.652344 495.417969 C 582.949219 495.933594 583.316406 496.445312 583.757812 496.960938 C 584.9375 498.289062 587.074219 499.539062 589.066406 499.539062 C 589.210938 499.539062 589.285156 499.539062 589.359375 499.539062 C 594.296875 499.171875 599.96875 498.730469 605.347656 497.257812 C 610.582031 495.785156 615.519531 493.722656 619.867188 491.144531 C 622.296875 489.675781 624.65625 487.980469 626.867188 486.066406 C 629.074219 484.078125 630.992188 481.722656 632.390625 479.808594 C 634.011719 477.601562 635.191406 475.171875 636.371094 472.445312 C 637.253906 470.53125 637.917969 468.324219 638.507812 465.378906 C 639.6875 459.636719 639.980469 453.96875 639.539062 448.519531 C 639.246094 445.207031 638.800781 442.484375 638.140625 439.980469 C 640.644531 438.582031 642.265625 436.003906 642.339844 433.207031 L 642.339844 432.839844 C 642.5625 425.992188 642.78125 419 642.191406 412.078125 L 642.042969 410.164062 C 641.898438 408.101562 641.75 406.042969 641.457031 403.90625 C 641.234375 401.84375 640.867188 399.121094 640.203125 396.398438 C 639.980469 395.441406 639.6875 394.484375 639.464844 393.527344 C 639.320312 392.9375 639.097656 392.273438 638.949219 391.683594 C 637.992188 387.929688 637.035156 383.882812 635.929688 379.390625 C 635.042969 375.785156 631.730469 373.132812 627.972656 373.132812 C 627.824219 373.132812 627.675781 373.132812 627.453125 373.132812 C 626.496094 371.511719 625.390625 369.746094 623.917969 367.757812 C 620.824219 363.5625 616.992188 360.25 613.96875 357.820312 C 612.128906 356.273438 610.359375 355.023438 608.664062 353.917969 C 607.191406 352.960938 605.570312 352.152344 604.023438 351.339844 L 603.140625 350.898438 L 602.253906 350.53125 L 601.886719 350.382812 L 601.886719 349.574219 C 601.886719 348.839844 601.8125 348.027344 601.8125 347.292969 C 601.738281 344.9375 601.445312 342.507812 601.148438 339.710938 C 600.78125 336.984375 600.042969 334.039062 598.9375 330.949219 C 597.757812 327.710938 596.433594 324.910156 594.886719 322.335938 C 593.191406 319.539062 591.273438 316.886719 589.210938 314.53125 C 587 312.101562 584.421875 309.96875 582.433594 308.496094 C 580.074219 306.726562 577.347656 305.179688 573.738281 303.710938 C 570.273438 302.308594 566.371094 301.648438 561.726562 301.648438 C 559.441406 301.648438 557.011719 301.796875 553.917969 302.164062 C 551.925781 302.382812 549.863281 302.824219 547.800781 303.414062 C 548.097656 299.953125 548.023438 296.496094 547.875 293.84375 C 547.578125 288.027344 546.917969 283.464844 545.8125 279.488281 C 544.484375 274.921875 542.128906 270.578125 538.886719 266.605469 C 536.011719 263.070312 532.253906 260.273438 528.644531 257.695312 C 527.464844 256.886719 525.988281 256.445312 524.515625 256.445312 C 521.714844 256.445312 518.917969 257.917969 517.441406 260.199219 C 517.296875 260.421875 517.222656 260.640625 517.074219 260.789062 C 516.042969 260.566406 514.9375 260.421875 513.90625 260.273438 L 513.539062 260.199219 C 512.800781 260.125 511.917969 260.050781 510.882812 260.050781 C 510.296875 260.050781 509.707031 260.050781 509.117188 260.050781 L 508.894531 260.050781 C 505.949219 260.125 502.707031 260.492188 499.242188 261.15625 C 497.328125 261.523438 495.335938 262.113281 493.125 262.996094 C 492.757812 260.273438 492.167969 257.769531 491.429688 255.488281 C 489.367188 249.15625 486.199219 243.339844 482.074219 238.261719 C 480.011719 235.757812 477.578125 233.621094 475.515625 231.929688 C 473.378906 230.164062 471.019531 228.617188 468.515625 227.292969 C 465.496094 225.671875 462.695312 224.566406 459.820312 223.90625 C 456.800781 223.167969 453.558594 222.800781 449.429688 222.726562 C 449.0625 222.726562 448.769531 222.726562 448.398438 222.726562 Z M 201.183594 470.386719 C 201.332031 470.3125 201.480469 470.238281 201.625 470.238281 C 201.480469 470.3125 201.332031 470.3125 201.183594 470.386719 Z M 201.183594 470.386719 " fill-opacity="1" fill-rule="nonzero"/><path fill="#5b3e36" d="M 626.792969 470.164062 C 626.128906 470.3125 625.539062 470.753906 625.246094 471.269531 C 624.875 471.785156 624.65625 472.667969 624.875 473.257812 C 625.171875 474.066406 625.464844 474.875 625.613281 475.757812 C 625.613281 475.980469 625.613281 476.128906 625.613281 476.347656 C 625.464844 477.011719 625.171875 477.601562 624.949219 478.1875 C 624.507812 479 624.066406 479.734375 623.476562 480.398438 C 621.707031 482.386719 619.644531 484.078125 617.507812 485.699219 C 613.601562 488.421875 609.476562 490.777344 605.054688 492.546875 C 603.949219 492.988281 602.84375 493.28125 601.664062 493.574219 C 600.339844 493.871094 599.011719 494.089844 597.6875 494.238281 C 594.371094 494.53125 591.054688 494.386719 587.738281 493.871094 C 586.191406 493.574219 584.644531 493.132812 583.167969 492.472656 C 582.210938 492.03125 581.328125 491.441406 580.515625 490.851562 C 579.929688 490.335938 579.410156 489.820312 578.96875 489.230469 C 578.675781 488.789062 578.453125 488.347656 578.234375 487.832031 C 578.011719 487.171875 577.789062 486.507812 577.644531 485.917969 C 577.273438 484.59375 575.949219 483.636719 574.546875 484.003906 C 573.222656 484.300781 572.265625 485.773438 572.632812 487.097656 C 573.074219 488.644531 573.515625 490.1875 574.328125 491.515625 C 575.136719 492.914062 576.316406 494.089844 577.570312 495.121094 C 580.222656 497.183594 583.390625 498.359375 586.632812 498.875 C 589.949219 499.464844 593.265625 499.6875 596.582031 499.464844 C 598.203125 499.390625 599.898438 499.171875 601.519531 498.875 C 603.210938 498.582031 604.90625 498.066406 606.527344 497.476562 C 609.625 496.300781 612.570312 494.902344 615.371094 493.207031 C 618.246094 491.515625 621.117188 489.527344 623.695312 487.390625 C 624.875 486.433594 625.980469 485.332031 627.011719 484.226562 C 627.601562 483.5625 628.117188 482.902344 628.558594 482.238281 C 629.148438 481.429688 629.519531 480.617188 629.886719 479.734375 C 630.179688 479.074219 630.402344 478.335938 630.625 477.675781 C 630.84375 476.789062 630.84375 475.832031 630.769531 474.949219 C 630.625 473.992188 630.328125 473.035156 630.035156 472.078125 C 629.960938 471.859375 629.886719 471.636719 629.8125 471.417969 C 629.589844 471.046875 629.296875 470.679688 628.929688 470.460938 C 628.488281 470.164062 628.042969 470.089844 627.527344 470.089844 C 627.160156 470.089844 627.011719 470.164062 626.792969 470.164062 Z M 626.792969 470.164062 " fill-opacity="1" fill-rule="nonzero"/><path fill="#5b3e36" d="M 628.78125 473.550781 C 628.339844 473.992188 627.898438 474.730469 627.96875 475.316406 C 627.96875 475.539062 627.96875 475.757812 627.96875 475.980469 C 627.75 476.714844 627.527344 477.378906 627.234375 478.042969 C 626.71875 479 626.203125 479.882812 625.539062 480.691406 C 624.066406 482.3125 622.519531 483.785156 620.824219 485.257812 C 618.980469 486.875 617.066406 488.347656 615.074219 489.820312 C 611.539062 492.324219 607.707031 494.53125 603.65625 496.152344 C 601.148438 497.035156 598.644531 497.773438 595.992188 498.066406 C 592.824219 498.289062 589.652344 498.066406 586.558594 497.550781 C 584.644531 497.183594 582.800781 496.816406 581.03125 496.078125 C 580.371094 495.785156 579.78125 495.417969 579.265625 494.972656 C 579.042969 494.753906 578.824219 494.53125 578.675781 494.3125 C 578.378906 493.871094 578.085938 493.355469 577.789062 492.839844 C 577.128906 491.589844 575.507812 491.144531 574.328125 491.808594 C 573.074219 492.472656 572.632812 494.015625 573.296875 495.269531 C 573.886719 496.375 574.546875 497.476562 575.433594 498.433594 C 576.539062 499.539062 577.9375 500.273438 579.339844 500.9375 C 580.738281 501.527344 582.210938 501.894531 583.6875 502.261719 C 585.378906 502.632812 587 502.925781 588.695312 503.074219 C 591.863281 503.441406 595.105469 503.441406 598.347656 503 C 601.589844 502.558594 604.757812 501.453125 607.78125 500.128906 C 610.582031 498.875 613.234375 497.332031 615.8125 495.710938 C 618.539062 493.871094 621.191406 491.882812 623.695312 489.746094 C 624.730469 488.863281 625.761719 487.90625 626.792969 486.949219 C 627.898438 485.84375 628.929688 484.742188 629.960938 483.5625 C 630.992188 482.386719 631.65625 480.988281 632.316406 479.589844 C 632.832031 478.335938 633.351562 476.9375 633.277344 475.539062 C 633.203125 474.800781 633.054688 474.214844 632.613281 473.699219 C 632.171875 473.183594 631.507812 472.886719 630.84375 472.886719 C 630.84375 472.886719 630.769531 472.886719 630.769531 472.886719 C 629.886719 472.816406 629.222656 473.109375 628.78125 473.550781 Z M 628.78125 473.550781 " fill-opacity="1" fill-rule="nonzero"/><g clip-path="url(#d1273fc8c2)"><path fill="#5b3e36" d="M 626.644531 471.785156 C 625.6875 472.667969 625.464844 474.433594 626.496094 475.390625 C 626.71875 475.613281 626.9375 475.832031 627.160156 476.054688 C 627.160156 476.128906 627.160156 476.273438 627.160156 476.347656 C 627.011719 477.011719 626.792969 477.671875 626.496094 478.335938 C 625.90625 479.515625 625.097656 480.546875 624.285156 481.574219 C 620.601562 485.84375 616.402344 489.675781 611.832031 492.988281 C 608.371094 495.417969 604.757812 497.550781 600.855469 499.097656 C 598.792969 499.832031 596.726562 500.273438 594.589844 500.570312 C 592.308594 500.71875 590.023438 500.644531 587.8125 500.273438 C 586.117188 499.980469 584.496094 499.464844 582.949219 498.804688 C 581.769531 498.214844 580.738281 497.550781 579.707031 496.816406 C 578.824219 496.078125 577.9375 495.269531 577.128906 494.460938 C 576.613281 493.945312 576.023438 493.648438 575.359375 493.648438 C 574.695312 493.648438 574.03125 493.871094 573.515625 494.3125 C 572.558594 495.195312 572.339844 496.960938 573.371094 497.917969 C 574.476562 498.949219 575.582031 499.980469 576.757812 500.9375 C 577.9375 501.894531 579.191406 502.632812 580.589844 503.292969 C 582.066406 504.03125 583.613281 504.546875 585.234375 504.914062 C 587 505.355469 588.84375 505.574219 590.613281 505.722656 C 592.308594 505.871094 593.929688 505.722656 595.621094 505.574219 C 597.242188 505.429688 598.792969 505.132812 600.339844 504.691406 C 601.960938 504.25 603.507812 503.589844 605.054688 502.925781 C 606.675781 502.1875 608.222656 501.378906 609.769531 500.496094 C 612.644531 498.875 615.371094 496.890625 617.949219 494.902344 C 620.527344 492.839844 623.035156 490.558594 625.316406 488.203125 C 627.601562 485.84375 629.960938 483.34375 631.359375 480.324219 C 631.949219 479 632.316406 477.671875 632.464844 476.273438 C 632.464844 475.90625 632.464844 475.539062 632.390625 475.246094 C 632.390625 475.097656 632.390625 475.023438 632.316406 474.875 C 632.171875 474.507812 632.023438 474.214844 631.949219 473.84375 C 631.507812 473.109375 630.992188 472.519531 630.402344 471.929688 C 629.886719 471.417969 629.296875 471.121094 628.632812 471.121094 C 628.632812 471.121094 628.558594 471.121094 628.558594 471.121094 C 627.75 471.121094 627.085938 471.34375 626.644531 471.785156 Z M 627.085938 475.6875 C 627.160156 475.757812 627.160156 475.90625 627.234375 475.980469 C 627.160156 475.90625 627.085938 475.757812 627.085938 475.6875 Z M 627.234375 476.203125 C 627.234375 476.273438 627.234375 476.347656 627.234375 476.421875 C 627.234375 476.347656 627.234375 476.273438 627.234375 476.203125 Z M 624.140625 481.796875 C 624.066406 481.871094 624.066406 481.871094 623.992188 481.945312 C 624.066406 481.945312 624.140625 481.871094 624.140625 481.796875 Z M 595.035156 500.570312 C 594.960938 500.570312 594.886719 500.570312 594.8125 500.570312 C 594.886719 500.644531 594.960938 500.570312 595.035156 500.570312 Z M 595.035156 500.570312 " fill-opacity="1" fill-rule="nonzero"/></g><g clip-path="url(#ef5f8014f4)"><path fill="#5b3e36" d="M 222.109375 467.144531 C 221.523438 467.441406 221.078125 468.03125 220.859375 468.617188 C 220.636719 469.207031 220.710938 470.015625 221.078125 470.605469 C 221.816406 471.710938 222.332031 472.886719 222.847656 474.066406 C 223.144531 474.875 223.289062 475.6875 223.4375 476.496094 C 223.585938 478.703125 223.4375 480.914062 223.214844 483.121094 C 222.996094 485.332031 222.699219 487.539062 222.332031 489.746094 C 222.109375 491.074219 221.742188 492.324219 221.375 493.574219 C 221.078125 494.679688 220.710938 495.710938 220.269531 496.742188 C 219.972656 497.257812 219.679688 497.773438 219.3125 498.289062 C 218.941406 498.730469 218.5 499.097656 218.058594 499.464844 C 217.765625 499.613281 217.46875 499.832031 217.175781 499.980469 C 216.878906 500.054688 216.660156 500.128906 216.363281 500.128906 C 215.699219 500.128906 215.039062 500.128906 214.375 500.054688 C 212.828125 499.6875 211.351562 499.097656 209.878906 498.433594 C 206.933594 497.035156 204.207031 495.269531 201.625 493.207031 C 200.59375 492.324219 199.5625 491.292969 198.605469 490.261719 C 197.5 489.085938 196.542969 487.761719 195.65625 486.507812 C 194.625 485.035156 193.667969 483.5625 192.933594 481.945312 C 192.046875 480.175781 191.3125 478.335938 190.574219 476.496094 C 190.351562 475.90625 189.691406 475.464844 189.101562 475.246094 C 188.4375 475.023438 187.699219 475.097656 187.109375 475.464844 C 186.519531 475.757812 186.078125 476.347656 185.859375 476.9375 C 185.636719 477.671875 185.785156 478.261719 186.078125 478.925781 C 186.742188 480.617188 187.480469 482.3125 188.289062 483.929688 C 189.101562 485.625 190.058594 487.171875 191.164062 488.71875 C 192.269531 490.335938 193.449219 491.882812 194.699219 493.355469 C 195.953125 494.828125 197.351562 496.078125 198.828125 497.332031 C 201.699219 499.6875 204.867188 501.601562 208.257812 503.144531 C 209.878906 503.882812 211.574219 504.617188 213.34375 504.988281 C 215.109375 505.355469 217.175781 505.429688 218.941406 504.839844 C 220.859375 504.175781 222.332031 502.851562 223.585938 501.378906 C 224.691406 499.980469 225.425781 498.433594 225.941406 496.742188 C 227.121094 493.207031 227.710938 489.453125 228.226562 485.773438 C 228.449219 483.859375 228.59375 481.945312 228.742188 479.957031 C 228.816406 478.117188 228.816406 476.203125 228.449219 474.359375 C 228.152344 472.886719 227.5625 471.488281 226.902344 470.238281 C 226.53125 469.5 226.164062 468.765625 225.722656 468.101562 C 225.351562 467.515625 224.910156 467.074219 224.25 466.851562 C 224.027344 466.777344 223.730469 466.703125 223.4375 466.703125 C 222.921875 466.777344 222.480469 466.925781 222.109375 467.144531 Z M 222.109375 467.144531 " fill-opacity="1" fill-rule="nonzero"/></g><path fill="#35241d" d="M 400.871094 382.628906 C 400.28125 383 399.691406 383.441406 399.105469 383.882812 C 398.367188 384.46875 397.925781 385.207031 397.410156 385.941406 C 396.894531 386.605469 396.597656 387.636719 396.304688 388.371094 C 396.082031 388.886719 395.933594 389.402344 395.714844 389.917969 C 395.273438 391.171875 395.050781 392.421875 394.828125 393.671875 C 394.535156 395.292969 394.386719 396.914062 394.167969 398.605469 C 393.871094 401.109375 393.726562 403.613281 393.726562 406.113281 C 392.765625 407.957031 391.660156 409.796875 390.484375 411.488281 C 389.082031 413.183594 387.535156 414.800781 385.765625 416.199219 C 384.441406 417.085938 383.113281 417.894531 381.640625 418.558594 C 379.796875 419.21875 377.957031 419.808594 376.039062 420.101562 C 373.683594 420.324219 371.25 420.324219 368.894531 420.027344 C 365.722656 419.515625 362.703125 418.484375 359.753906 417.304688 C 357.175781 416.128906 354.820312 414.800781 352.535156 413.109375 C 351.132812 412.003906 349.882812 410.753906 348.777344 409.429688 C 347.890625 408.175781 347.15625 406.851562 346.492188 405.453125 C 346.050781 404.347656 345.753906 403.242188 345.460938 402.066406 C 345.019531 400.078125 344.28125 398.238281 343.472656 396.324219 C 342.441406 393.820312 341.113281 391.390625 339.050781 389.625 C 337.207031 390.726562 335.808594 392.347656 334.628906 394.113281 C 333.746094 395.367188 333.230469 396.914062 332.785156 398.386719 C 332.199219 400.519531 332.269531 402.800781 332.640625 404.9375 C 333.230469 407.808594 334.335938 410.457031 335.734375 413.035156 C 337.132812 415.6875 339.125 418.1875 341.335938 420.25 C 343.472656 422.238281 345.828125 423.929688 348.335938 425.476562 C 350.988281 427.097656 353.933594 428.273438 356.808594 429.304688 C 362.335938 431.292969 368.230469 432.324219 374.125 431.957031 C 380.09375 431.660156 385.988281 429.746094 391 426.433594 C 393.136719 424.960938 395.125 423.195312 396.894531 421.28125 C 397.039062 421.648438 397.261719 422.015625 397.410156 422.3125 C 398.589844 424.742188 400.429688 426.949219 402.347656 428.863281 C 404.335938 430.777344 406.621094 432.472656 409.125 433.722656 C 411.628906 435.046875 414.355469 435.929688 417.082031 436.742188 C 419.734375 437.550781 422.460938 437.992188 425.261719 438.140625 C 426.882812 438.214844 428.503906 437.992188 430.125 437.773438 C 431.453125 437.550781 432.777344 437.257812 434.105469 436.886719 C 439.484375 435.269531 444.421875 431.808594 448.03125 427.539062 C 451.421875 423.488281 454.664062 418.628906 454.367188 413.109375 C 454.21875 410.53125 453.261719 407.660156 451.273438 405.894531 C 449.945312 406.925781 448.769531 408.027344 447.664062 409.28125 C 446.335938 410.898438 445.007812 412.445312 443.757812 414.140625 C 442.503906 415.757812 441.621094 417.601562 440.441406 419.292969 C 439.335938 420.617188 438.230469 421.871094 436.90625 422.972656 C 435.503906 424.003906 434.03125 424.886719 432.484375 425.625 C 431.15625 426.140625 429.757812 426.507812 428.28125 426.730469 C 427.03125 426.875 425.777344 426.875 424.523438 426.800781 C 421.726562 426.285156 419 425.476562 416.347656 424.371094 C 414.945312 423.710938 413.695312 422.972656 412.441406 422.164062 C 411.335938 421.28125 410.378906 420.324219 409.492188 419.21875 C 408.757812 418.1875 408.167969 417.15625 407.652344 416.054688 C 407.0625 414.507812 406.621094 412.960938 406.398438 411.414062 C 406.175781 409.429688 406.175781 407.441406 406.175781 405.453125 C 406.988281 403.171875 407.726562 400.8125 408.386719 398.386719 C 409.050781 395.957031 409.789062 393.597656 410.230469 391.097656 C 410.378906 390.140625 410.671875 389.183594 410.523438 388.226562 C 410.523438 387.121094 410.230469 386.164062 409.714844 385.207031 C 409.347656 384.542969 408.902344 384.027344 408.386719 383.441406 C 407.652344 382.703125 406.765625 382.1875 405.734375 381.894531 C 405.21875 381.746094 404.628906 381.671875 404.039062 381.671875 C 402.863281 381.820312 401.757812 382.113281 400.871094 382.628906 Z M 415.242188 424.152344 C 415.316406 424.152344 415.386719 424.226562 415.386719 424.226562 C 415.386719 424.152344 415.316406 424.152344 415.242188 424.152344 Z M 415.242188 424.152344 " fill-opacity="1" fill-rule="nonzero"/><path fill="#35241d" d="M 449.652344 397.648438 C 447.441406 399.488281 446.042969 402.140625 445.304688 404.789062 C 445.15625 405.230469 445.082031 405.671875 445.082031 406.113281 C 444.9375 407.21875 444.789062 408.175781 444.863281 409.28125 C 444.9375 410.972656 445.15625 412.742188 445.453125 414.433594 C 445.894531 417.085938 447 419.660156 448.03125 422.089844 C 449.136719 424.519531 450.683594 426.65625 452.378906 428.789062 C 454 430.925781 456.0625 432.617188 458.199219 434.238281 C 462.546875 437.476562 467.703125 439.6875 473.011719 441.011719 C 475.808594 441.746094 478.683594 442.1875 481.558594 442.335938 C 484.210938 442.484375 486.863281 442.117188 489.441406 441.671875 C 491.949219 441.230469 494.378906 440.054688 496.589844 438.800781 C 497.472656 438.285156 498.285156 437.773438 499.09375 437.183594 C 499.90625 440.570312 501.15625 443.882812 503 446.902344 C 505.726562 451.316406 509.558594 455 514.125 457.574219 C 516.410156 458.902344 518.917969 459.859375 521.421875 460.742188 C 523.925781 461.625 526.503906 462.359375 529.085938 462.800781 C 531.738281 463.316406 534.539062 463.613281 537.265625 463.613281 C 539.992188 463.613281 542.789062 463.246094 545.441406 462.730469 C 548.167969 462.214844 550.75 461.332031 553.253906 460.226562 C 555.757812 459.121094 558.042969 457.796875 560.179688 456.175781 C 561.210938 455.367188 562.242188 454.558594 563.273438 453.671875 C 564.234375 452.789062 565.042969 451.832031 565.855469 450.949219 C 567.917969 448.59375 569.464844 445.796875 569.832031 442.628906 C 570.128906 440.347656 569.464844 437.917969 567.621094 436.445312 C 566.222656 435.34375 564.527344 435.121094 562.90625 435.859375 C 562.980469 436.300781 563.054688 436.742188 563.128906 437.183594 C 563.128906 437.402344 563.128906 437.625 563.128906 437.84375 C 563.054688 438.066406 563.054688 438.214844 562.980469 438.433594 C 562.980469 438.507812 562.90625 438.582031 562.832031 438.65625 C 561.507812 440.199219 559.886719 441.453125 558.558594 442.925781 C 557.894531 443.734375 557.234375 444.542969 556.496094 445.28125 C 555.757812 446.089844 555.023438 446.753906 554.210938 447.414062 C 552.441406 448.667969 550.601562 449.773438 548.613281 450.65625 C 546.402344 451.464844 544.191406 452.054688 541.90625 452.496094 C 539.253906 452.789062 536.601562 452.789062 533.875 452.496094 C 530.265625 451.90625 526.800781 450.875 523.484375 449.550781 C 521.496094 448.667969 519.578125 447.636719 517.8125 446.386719 C 516.632812 445.355469 515.527344 444.25 514.570312 443.074219 C 513.609375 441.746094 512.800781 440.421875 512.136719 438.949219 C 511.253906 436.519531 510.589844 434.015625 510.222656 431.515625 C 509.925781 428.570312 509.851562 425.550781 510.074219 422.53125 C 510.441406 421.722656 510.8125 420.914062 511.179688 420.101562 C 511.769531 418.777344 512.285156 417.453125 512.726562 416.054688 C 513.242188 414.359375 512.949219 412.59375 512.503906 410.972656 C 512.0625 409.429688 511.105469 408.101562 509.707031 407.367188 C 508.746094 406.777344 507.714844 406.554688 506.609375 406.554688 C 505.503906 406.554688 504.472656 406.851562 503.515625 407.367188 C 502.632812 407.734375 502.261719 408.027344 501.453125 408.691406 C 500.273438 409.574219 499.832031 410.753906 499.316406 412.078125 C 498.652344 413.699219 498.578125 415.613281 498.359375 417.378906 C 498.359375 417.304688 498.359375 417.230469 498.359375 417.15625 C 498.136719 418.628906 497.988281 420.101562 497.84375 421.574219 C 497.253906 422.605469 496.664062 423.636719 496 424.59375 C 495.042969 425.699219 494.011719 426.800781 492.90625 427.6875 C 491.800781 428.496094 490.621094 429.15625 489.367188 429.746094 C 488.335938 430.113281 487.230469 430.410156 486.125 430.628906 C 484.359375 430.777344 482.589844 430.777344 480.820312 430.628906 C 477.875 430.113281 475 429.304688 472.199219 428.199219 C 469.988281 427.171875 467.851562 425.992188 465.9375 424.519531 C 464.609375 423.414062 463.429688 422.238281 462.324219 420.914062 C 461.292969 419.441406 460.410156 417.96875 459.671875 416.347656 C 459.082031 414.726562 458.566406 413.109375 458.273438 411.34375 C 458.199219 409.941406 458.199219 408.617188 458.050781 407.21875 C 457.90625 405.378906 457.535156 403.539062 457.167969 401.769531 C 456.652344 399.34375 455.769531 396.984375 454.292969 395 C 452.378906 395.511719 450.976562 396.46875 449.652344 397.648438 Z M 449.652344 397.648438 " fill-opacity="1" fill-rule="nonzero"/><path fill="#35241d" d="M 552.441406 458.902344 C 551.707031 459.710938 551.042969 460.667969 550.378906 461.625 C 549.714844 462.65625 549.347656 463.832031 548.90625 464.9375 C 548.464844 466.042969 548.390625 467.515625 548.242188 468.617188 C 548.09375 469.648438 548.09375 470.753906 548.09375 471.785156 C 548.09375 473.84375 548.390625 475.980469 548.757812 477.96875 C 549.128906 480.25 550.085938 482.3125 551.042969 484.375 C 552.664062 487.980469 555.390625 491.144531 558.484375 493.648438 C 560.03125 494.902344 561.652344 496.078125 563.421875 496.960938 C 565.191406 497.917969 567.105469 498.65625 568.949219 499.316406 C 571.453125 500.273438 574.105469 500.9375 576.832031 501.011719 C 580.738281 501.160156 585.308594 499.761719 587.738281 496.519531 C 585.894531 494.386719 583.613281 492.691406 581.179688 491.21875 C 579.855469 490.410156 578.453125 489.746094 576.980469 489.160156 C 576.613281 489.011719 576.167969 488.863281 575.800781 488.789062 C 574.695312 488.496094 573.589844 488.128906 572.558594 487.6875 C 570.863281 486.875 569.242188 485.992188 567.695312 484.960938 C 566.589844 484.003906 565.558594 483.046875 564.601562 481.945312 C 563.789062 480.765625 563.128906 479.589844 562.464844 478.335938 C 562.023438 477.085938 561.652344 475.757812 561.359375 474.433594 C 561.210938 472.742188 561.210938 471.046875 561.359375 469.355469 C 561.578125 468.03125 561.800781 466.703125 561.949219 465.304688 C 562.097656 463.832031 562.023438 462.359375 561.800781 460.886719 C 561.507812 458.53125 560.917969 456.175781 559.589844 454.117188 C 556.789062 454.925781 554.359375 456.765625 552.441406 458.902344 Z M 552.441406 458.902344 " fill-opacity="1" fill-rule="nonzero"/><path fill="#35241d" d="M 294.175781 396.617188 C 293.292969 397.058594 292.480469 397.796875 292.628906 398.828125 C 292.703125 398.828125 292.777344 398.828125 292.847656 398.828125 C 292.847656 398.828125 292.777344 398.828125 292.777344 398.828125 C 292.847656 398.828125 292.921875 398.828125 292.996094 398.898438 C 293.070312 398.898438 293.070312 398.972656 293.144531 398.972656 C 293.292969 399.121094 293.4375 399.269531 293.511719 399.414062 C 293.660156 399.636719 293.734375 399.785156 293.882812 400.003906 C 293.882812 400.078125 293.953125 400.152344 293.953125 400.226562 C 294.175781 402.582031 294.027344 404.9375 294.101562 407.292969 C 294.101562 408.617188 294.175781 409.871094 294.175781 411.195312 C 294.101562 412.59375 294.027344 413.917969 293.808594 415.316406 C 293.4375 417.96875 292.847656 420.542969 292.261719 423.195312 C 291.671875 425.699219 290.785156 428.054688 289.828125 430.484375 C 288.5 433.5 286.878906 436.371094 284.964844 439.097656 C 283.34375 441.085938 281.5 442.925781 279.511719 444.617188 C 277.671875 445.945312 275.679688 447.121094 273.617188 448.078125 C 271.773438 448.816406 269.933594 449.332031 267.945312 449.625 C 266.765625 449.773438 265.585938 449.84375 264.40625 449.84375 C 263.890625 447.785156 263.152344 445.796875 262.046875 443.957031 C 260.355469 441.230469 257.847656 438.949219 255.121094 437.257812 C 253.871094 436.519531 252.46875 436.003906 251.144531 435.5625 C 249.449219 435.046875 247.828125 435.269531 246.058594 435.5625 C 245.320312 435.710938 244.289062 436.152344 243.699219 436.445312 C 243.039062 436.816406 242.226562 437.328125 241.710938 437.84375 C 241.121094 438.433594 240.53125 439.097656 240.164062 439.757812 C 239.574219 440.644531 239.207031 441.601562 238.835938 442.558594 C 238.25 444.175781 238.46875 445.945312 238.835938 447.5625 C 238.984375 448.300781 239.5 449.328125 239.796875 449.992188 C 240.015625 450.507812 240.3125 450.949219 240.605469 451.464844 C 242.300781 454.117188 244.804688 456.101562 247.53125 457.574219 C 249.449219 458.53125 251.363281 459.34375 253.355469 459.929688 C 252.910156 461.992188 252.324219 464.054688 251.585938 466.042969 C 250.628906 468.25 249.449219 470.3125 248.046875 472.300781 C 247.015625 473.476562 245.910156 474.582031 244.734375 475.539062 C 243.554688 476.347656 242.375 477.085938 241.046875 477.746094 C 239.425781 478.335938 237.804688 478.777344 236.113281 479 C 235.152344 479.074219 234.195312 479.144531 233.238281 479.144531 C 232.28125 479.144531 231.320312 479.074219 230.363281 478.925781 C 228.449219 478.632812 226.605469 478.261719 224.691406 477.746094 C 223.804688 477.527344 222.847656 477.230469 221.964844 476.9375 C 220.859375 476.570312 219.679688 476.347656 218.5 476.128906 C 217.246094 475.980469 216.144531 475.832031 214.890625 475.757812 C 213.636719 475.757812 212.386719 475.90625 211.207031 476.128906 C 209.660156 476.347656 208.109375 476.9375 206.785156 477.675781 C 207.152344 479.660156 208.109375 481.503906 209.363281 483.121094 C 210.320312 484.375 211.28125 485.402344 212.457031 486.359375 C 213.269531 487.023438 214.003906 487.539062 214.890625 488.054688 C 215.996094 488.71875 217.246094 489.160156 218.425781 489.527344 C 221.449219 490.484375 224.542969 491.074219 227.710938 491.515625 C 229.039062 491.660156 230.4375 491.808594 231.765625 491.882812 C 233.679688 491.957031 235.59375 491.734375 237.511719 491.515625 C 240.015625 491.144531 242.375 490.558594 244.734375 489.601562 C 246.207031 489.011719 247.605469 488.347656 249.007812 487.539062 C 250.554688 486.582031 251.953125 485.402344 253.355469 484.226562 C 255.492188 482.386719 257.257812 480.175781 258.804688 477.820312 C 260.425781 475.316406 261.605469 472.519531 262.710938 469.796875 C 263.667969 467.292969 264.332031 464.644531 264.703125 461.992188 C 264.773438 461.699219 264.773438 461.402344 264.847656 461.109375 C 266.027344 461.035156 267.207031 460.960938 268.3125 460.816406 C 270.964844 460.445312 273.542969 459.929688 276.050781 458.972656 C 280.765625 457.132812 285.039062 454.484375 288.722656 451.023438 C 290.492188 449.402344 292.039062 447.488281 293.511719 445.574219 C 294.984375 443.660156 296.238281 441.671875 297.34375 439.539062 C 301.914062 430.777344 304.125 420.914062 304.566406 411.121094 C 304.710938 408.691406 304.566406 406.1875 303.902344 403.832031 C 303.535156 402.582031 302.871094 401.402344 302.207031 400.300781 C 301.46875 399.121094 300.363281 397.941406 299.1875 397.132812 C 298.226562 396.542969 297.050781 396.101562 295.945312 396.101562 C 295.429688 396.175781 294.765625 396.324219 294.175781 396.617188 Z M 293.070312 398.898438 C 293.070312 398.898438 293.144531 398.898438 293.144531 398.898438 C 293.144531 398.972656 293.070312 398.972656 293.070312 398.898438 Z M 293.144531 398.972656 C 293.144531 398.972656 293.21875 398.972656 293.21875 398.972656 C 293.21875 398.972656 293.21875 398.972656 293.144531 398.972656 Z M 250.183594 444.398438 C 250.183594 444.472656 250.113281 444.472656 250.183594 444.398438 C 250.113281 444.472656 250.183594 444.472656 250.183594 444.398438 Z M 248.269531 446.53125 C 248.195312 446.53125 248.121094 446.53125 248.046875 446.53125 C 248.121094 446.53125 248.195312 446.53125 248.269531 446.53125 Z M 248.269531 446.53125 " fill-opacity="1" fill-rule="nonzero"/><path fill="#35241d" d="M 317.902344 390.726562 C 316.132812 391.390625 314.660156 392.421875 313.332031 393.671875 C 312.375 394.554688 311.640625 395.585938 310.902344 396.542969 C 309.871094 397.941406 309.132812 399.34375 308.542969 400.960938 C 308.101562 402.066406 307.953125 403.171875 307.734375 404.273438 C 307.511719 405.96875 307.292969 407.585938 307.292969 409.355469 C 307.292969 412.300781 307.660156 415.316406 308.398438 418.113281 C 308.765625 419.441406 309.355469 420.765625 309.945312 422.015625 C 310.460938 423.195312 311.125 424.300781 311.785156 425.328125 C 313.1875 427.613281 314.953125 429.671875 316.722656 431.660156 C 318.269531 433.429688 320.113281 434.972656 321.953125 436.445312 C 324.238281 438.214844 326.597656 439.90625 329.101562 441.304688 C 333.671875 443.882812 338.679688 445.722656 343.691406 447.34375 C 346.199219 448.152344 348.703125 448.667969 351.28125 449.109375 C 353.125 449.402344 354.890625 449.699219 356.808594 449.550781 C 360.640625 449.183594 364.765625 447.929688 367.417969 444.988281 C 366.460938 443.734375 365.429688 442.703125 364.175781 441.746094 C 362.113281 440.199219 359.828125 438.949219 357.324219 438.214844 C 356.808594 438.066406 356.292969 437.992188 355.851562 437.84375 C 354.230469 437.476562 352.609375 437.257812 351.0625 436.886719 C 348.039062 436.152344 345.164062 435.121094 342.292969 433.945312 C 338.460938 432.25 334.851562 430.261719 331.460938 427.757812 C 329.027344 425.773438 326.816406 423.636719 324.828125 421.207031 C 323.648438 419.585938 322.617188 417.96875 321.734375 416.199219 C 321.292969 415.023438 320.996094 413.773438 320.777344 412.519531 C 320.628906 410.605469 320.628906 408.765625 320.777344 406.851562 C 320.996094 405.453125 321.21875 404.054688 321.367188 402.65625 C 321.511719 400.8125 321.292969 399.046875 320.996094 397.28125 C 320.777344 395.808594 320.1875 394.484375 319.597656 393.15625 C 319.007812 392.273438 318.492188 391.464844 317.902344 390.726562 Z M 364.472656 442.117188 C 364.324219 442.042969 364.175781 441.894531 364.101562 441.820312 C 364.25 441.894531 364.398438 442.042969 364.472656 442.117188 Z M 364.101562 441.820312 Z M 364.101562 441.820312 C 364.03125 441.746094 363.882812 441.671875 363.808594 441.601562 C 363.882812 441.671875 363.957031 441.746094 364.101562 441.820312 Z M 364.101562 441.820312 " fill-opacity="1" fill-rule="nonzero"/><path fill="#35241d" d="M 271.628906 258.875 C 269.050781 259.464844 266.46875 260.347656 264.039062 261.378906 C 261.089844 262.554688 258.289062 263.953125 255.636719 265.648438 C 245.839844 271.980469 238.394531 281.769531 235.523438 293.109375 C 234.785156 295.90625 234.492188 298.703125 234.121094 301.574219 C 233.976562 302.679688 233.828125 303.78125 233.753906 304.8125 C 232.722656 305.253906 231.691406 305.695312 230.734375 306.210938 C 228.226562 307.539062 226.015625 309.304688 223.878906 311.070312 C 221.742188 312.839844 219.753906 314.898438 218.058594 317.035156 C 210.691406 326.238281 206.785156 338.015625 206.417969 349.796875 C 206.34375 352.519531 206.636719 355.316406 207.375 357.894531 C 207.742188 359.144531 208.332031 360.398438 208.847656 361.648438 C 209.4375 363.046875 210.46875 364.296875 211.5 365.328125 C 212.386719 366.140625 213.417969 366.875 214.449219 367.539062 C 215.480469 368.125 216.660156 368.570312 217.835938 368.9375 C 219.53125 369.453125 221.523438 369.527344 223.070312 368.570312 C 222.847656 368.054688 222.628906 367.613281 222.480469 367.097656 C 221.742188 365.328125 221.078125 363.5625 220.195312 361.796875 C 219.238281 359.882812 218.132812 358.039062 217.246094 356.125 C 216.878906 355.023438 216.511719 353.917969 216.363281 352.8125 C 216.144531 350.457031 216.214844 348.101562 216.511719 345.746094 C 217.175781 341.625 218.28125 337.574219 219.828125 333.671875 C 221.226562 330.507812 223.070312 327.414062 225.132812 324.617188 C 227.121094 322.1875 229.332031 319.980469 231.765625 318.066406 C 232.941406 317.183594 234.195312 316.371094 235.449219 315.710938 C 236.847656 319.316406 239.132812 322.628906 242.007812 325.28125 C 246.355469 329.253906 252.101562 332.273438 258.144531 331.90625 C 261.238281 331.683594 264.1875 330.507812 266.542969 328.519531 C 268.828125 326.605469 270.597656 323.734375 271.1875 320.789062 C 271.847656 317.769531 271.628906 314.53125 270.300781 311.660156 C 269.050781 309.011719 266.617188 307.097656 264.1875 305.695312 C 259.324219 302.824219 253.425781 301.796875 247.828125 301.867188 C 246.722656 301.867188 245.542969 301.941406 244.4375 302.089844 C 244.953125 298.925781 245.691406 295.757812 246.871094 292.738281 C 248.121094 290.015625 249.667969 287.367188 251.4375 284.9375 C 253.425781 282.507812 255.710938 280.296875 258.144531 278.308594 C 260.722656 276.394531 263.449219 274.777344 266.394531 273.453125 C 269.859375 272.125 273.394531 271.09375 277.007812 270.507812 C 282.3125 269.917969 287.765625 270.136719 293.070312 270.800781 C 295.058594 271.09375 296.976562 271.464844 298.890625 271.980469 C 299.996094 272.273438 301.101562 272.566406 302.132812 272.9375 C 303.386719 273.378906 304.640625 273.820312 305.964844 274.113281 C 308.324219 274.628906 310.753906 274.851562 313.113281 274.554688 C 314.882812 274.335938 316.648438 274.039062 318.195312 273.230469 C 317.902344 271.167969 317.089844 269.328125 315.914062 267.5625 C 315.101562 266.382812 314.144531 265.28125 313.039062 264.25 C 311.417969 262.703125 309.503906 261.671875 307.4375 260.863281 C 301.765625 258.726562 295.574219 257.917969 289.535156 257.550781 C 287.984375 257.476562 286.511719 257.402344 284.964844 257.402344 C 280.542969 257.476562 276.050781 257.84375 271.628906 258.875 Z M 251.953125 312.910156 C 253.648438 313.207031 255.195312 313.574219 256.816406 314.164062 C 257.921875 314.679688 258.953125 315.195312 259.910156 315.929688 C 260.132812 316.152344 260.355469 316.371094 260.574219 316.59375 C 260.574219 316.59375 260.574219 316.667969 260.648438 316.667969 C 260.722656 316.8125 260.722656 316.960938 260.796875 317.183594 C 260.796875 317.625 260.796875 318.140625 260.796875 318.582031 C 260.722656 318.875 260.648438 319.167969 260.574219 319.539062 C 260.355469 319.90625 260.207031 320.199219 259.984375 320.566406 C 259.839844 320.714844 259.691406 320.863281 259.542969 321.082031 C 259.25 321.304688 258.878906 321.453125 258.511719 321.671875 C 258.144531 321.820312 257.847656 321.894531 257.480469 321.96875 C 256.964844 321.96875 256.375 321.96875 255.859375 321.96875 C 254.976562 321.820312 254.164062 321.597656 253.28125 321.304688 C 252.101562 320.714844 251.070312 320.054688 249.964844 319.316406 C 248.859375 318.433594 247.828125 317.402344 246.871094 316.296875 C 246.132812 315.265625 245.542969 314.164062 245.027344 313.058594 C 247.3125 312.691406 249.667969 312.691406 251.953125 312.910156 Z M 251.953125 312.910156 " fill-opacity="1" fill-rule="nonzero"/><g clip-path="url(#48ec2b0eef)"><path fill="#35241d" d="M 196.46875 377.183594 C 195.214844 377.402344 193.964844 377.769531 192.785156 378.210938 C 189.835938 379.242188 186.964844 380.570312 184.238281 382.261719 C 181.730469 383.808594 179.375 385.648438 177.238281 387.636719 C 174.953125 389.699219 173.035156 392.054688 171.195312 394.484375 C 167.730469 399.046875 165.667969 404.421875 164.414062 409.941406 C 163.753906 412.8125 163.308594 415.6875 163.164062 418.628906 C 163.015625 421.574219 163.457031 424.667969 164.269531 427.464844 C 164.636719 428.863281 165.300781 430.261719 165.890625 431.585938 C 166.480469 432.914062 167.363281 434.089844 168.246094 435.195312 C 169.722656 437.035156 171.414062 438.582031 173.257812 439.980469 C 172.816406 441.15625 172.375 442.410156 172.003906 443.660156 C 171.269531 446.238281 170.828125 448.886719 170.457031 451.464844 C 170.015625 454.484375 169.722656 457.5 169.722656 460.59375 C 169.648438 466.335938 170.53125 472.226562 172.375 477.675781 C 173.257812 480.398438 174.4375 483.046875 175.835938 485.550781 C 177.238281 488.054688 178.859375 490.261719 180.625 492.472656 C 181.4375 493.503906 182.320312 494.53125 183.277344 495.417969 C 184.382812 496.375 185.636719 497.257812 186.964844 497.917969 C 188.363281 498.65625 189.910156 499.097656 191.457031 499.316406 C 193.152344 499.613281 194.996094 499.613281 196.46875 498.730469 C 196.320312 498.359375 196.175781 497.917969 196.027344 497.550781 C 195.585938 496.300781 194.921875 495.121094 194.257812 494.015625 C 193.519531 492.765625 192.710938 491.589844 191.972656 490.410156 C 190.722656 488.570312 189.175781 486.949219 187.773438 485.183594 C 186.003906 482.828125 184.53125 480.324219 183.351562 477.601562 C 182.171875 474.507812 181.289062 471.417969 180.773438 468.175781 C 180.332031 463.980469 180.332031 459.785156 180.773438 455.585938 C 181.070312 453.671875 181.4375 451.757812 181.878906 449.84375 C 182.246094 448.152344 182.691406 446.457031 183.277344 444.839844 C 185.859375 445.574219 188.585938 445.945312 191.238281 446.3125 C 192.636719 446.457031 193.964844 446.457031 195.363281 446.386719 C 196.835938 446.238281 198.382812 446.015625 199.785156 445.5 C 201.332031 444.914062 202.953125 444.175781 204.207031 443 C 204.796875 442.410156 205.382812 441.746094 205.828125 441.085938 C 206.417969 440.199219 206.859375 439.242188 207.152344 438.214844 C 207.226562 437.550781 207.300781 436.886719 207.449219 436.226562 C 207.375 435.414062 207.300781 434.605469 207.078125 433.796875 C 206.636719 432.175781 205.605469 430.777344 204.5 429.527344 C 203.394531 428.273438 201.773438 427.613281 200.300781 427.023438 C 199.269531 426.582031 198.238281 426.285156 197.207031 425.992188 C 195.730469 425.625 194.183594 425.402344 192.710938 425.257812 C 191.238281 425.109375 189.691406 425.402344 188.289062 425.699219 C 186.816406 425.992188 185.414062 426.582031 184.015625 427.171875 C 182.691406 427.832031 181.585938 428.644531 180.332031 429.601562 C 179.742188 430.113281 179.152344 430.628906 178.636719 431.292969 C 177.828125 430.558594 177.089844 429.820312 176.425781 429.011719 C 175.984375 428.347656 175.542969 427.613281 175.171875 426.875 C 174.65625 425.476562 174.289062 424.078125 174.066406 422.679688 C 173.921875 421.207031 173.996094 419.734375 174.140625 418.1875 C 174.730469 414.730469 175.617188 411.414062 176.941406 408.175781 C 177.898438 406.042969 179.078125 404.054688 180.480469 402.140625 C 182.394531 399.855469 184.457031 397.722656 186.816406 395.808594 C 189.101562 394.1875 191.457031 392.789062 193.964844 391.613281 C 195.878906 390.875 197.867188 390.285156 199.859375 389.917969 C 201.183594 389.769531 202.4375 389.550781 203.761719 389.328125 C 204.941406 389.109375 206.121094 388.742188 207.300781 388.445312 C 209.144531 387.929688 210.984375 387.5625 212.828125 386.898438 C 212.753906 384.839844 211.867188 383 210.691406 381.453125 C 209.804688 380.347656 208.699219 379.539062 207.523438 378.800781 C 206.785156 378.359375 205.753906 377.917969 205.015625 377.699219 C 203.835938 377.253906 202.730469 377.109375 201.480469 376.960938 C 201.109375 376.886719 200.742188 376.886719 200.449219 376.886719 C 199.046875 376.742188 197.722656 376.960938 196.46875 377.183594 Z M 196.761719 437.402344 C 196.761719 437.402344 196.761719 437.476562 196.761719 437.476562 C 196.761719 437.476562 196.761719 437.402344 196.761719 437.402344 Z M 196.761719 437.402344 " fill-opacity="1" fill-rule="nonzero"/></g><g clip-path="url(#382fb9086b)"><path fill="#35241d" d="M 446.925781 213.597656 C 441.03125 213.597656 435.0625 214.335938 429.316406 215.660156 C 423.789062 216.984375 418.261719 218.898438 413.324219 221.769531 C 411.925781 222.578125 410.597656 223.464844 409.347656 224.492188 C 409.199219 224.421875 408.976562 224.347656 408.832031 224.273438 C 404.113281 222.359375 399.175781 221.402344 394.09375 220.960938 C 391.515625 220.738281 389.007812 220.738281 386.429688 220.664062 C 383.628906 220.664062 380.828125 220.738281 378.03125 220.960938 C 372.578125 221.328125 367.050781 222.210938 361.746094 223.464844 C 356.585938 224.714844 351.578125 226.777344 347.007812 229.425781 C 344.945312 230.679688 342.957031 232.003906 341.039062 233.476562 C 338.753906 235.242188 336.617188 237.082031 334.554688 239.070312 C 330.871094 242.824219 327.628906 247.167969 325.195312 251.808594 C 323.945312 254.238281 322.839844 256.886719 322.027344 259.464844 C 321.585938 260.789062 321.292969 262.113281 320.996094 263.4375 C 320.628906 265.132812 320.40625 266.824219 320.628906 268.59375 C 320.703125 269.402344 320.777344 270.136719 320.996094 270.875 C 321.144531 271.683594 321.660156 272.714844 322.027344 273.453125 C 322.691406 274.703125 323.503906 275.808594 324.460938 276.835938 C 325.714844 278.164062 327.335938 279.265625 329.101562 279.855469 C 331.09375 277.207031 331.976562 274.039062 332.933594 270.875 C 333.523438 268.886719 333.746094 266.898438 334.1875 264.910156 C 334.628906 262.996094 335.21875 261.082031 335.957031 259.242188 C 337.355469 256.152344 339.050781 253.28125 341.113281 250.554688 C 343.617188 247.464844 346.417969 244.664062 349.511719 242.164062 C 352.609375 239.878906 355.925781 237.820312 359.386719 236.273438 C 364.691406 234.136719 370.367188 232.886719 376.039062 232.078125 C 379.503906 231.636719 383.039062 231.414062 386.503906 231.339844 C 390.039062 231.265625 393.578125 231.265625 397.113281 231.636719 C 398.367188 231.855469 399.691406 232.078125 400.945312 232.371094 C 400.871094 232.445312 400.796875 232.59375 400.726562 232.664062 C 398.957031 234.875 397.261719 237.15625 395.863281 239.585938 C 394.3125 242.234375 393.0625 245.179688 392.105469 248.125 C 391.144531 250.851562 390.628906 253.792969 390.410156 256.664062 C 390.113281 259.832031 390.554688 263.070312 391.144531 266.164062 C 391.660156 268.886719 392.621094 271.539062 393.796875 274.039062 C 394.460938 275.367188 395.417969 276.542969 396.304688 277.648438 C 397.335938 278.972656 398.734375 280.003906 400.136719 280.960938 C 400.578125 281.328125 401.167969 281.550781 401.683594 281.769531 C 402.492188 282.136719 403.230469 282.433594 404.113281 282.652344 C 405.589844 283.023438 407.136719 283.023438 408.609375 282.949219 C 410.15625 282.875 411.628906 282.582031 413.105469 282.210938 C 414.796875 281.769531 416.417969 280.960938 417.96875 280.222656 C 420.546875 279.046875 422.832031 277.425781 424.894531 275.4375 C 426 274.410156 426.882812 273.15625 427.839844 271.90625 C 428.871094 270.507812 429.460938 268.886719 430.050781 267.339844 C 430.492188 266.164062 430.789062 264.910156 431.007812 263.660156 C 431.230469 262.1875 431.378906 260.640625 431.378906 259.167969 C 431.304688 257.621094 431.082031 256.078125 430.863281 254.605469 C 430.640625 253.058594 430.347656 251.511719 429.976562 250.039062 C 429.316406 247.242188 428.136719 244.59375 427.03125 241.941406 C 426.515625 240.765625 425.925781 239.585938 425.261719 238.40625 C 424.453125 236.9375 423.347656 235.535156 422.316406 234.210938 C 421.355469 233.035156 420.324219 231.855469 419.21875 230.824219 C 420.621094 229.941406 422.09375 229.207031 423.640625 228.542969 C 428.652344 226.554688 433.957031 225.15625 439.335938 224.347656 C 444.050781 223.757812 448.839844 223.535156 453.632812 224.050781 C 456.875 224.566406 460.042969 225.449219 463.136719 226.628906 C 465.714844 227.808594 468.074219 229.207031 470.285156 230.824219 C 472.421875 232.519531 474.335938 234.433594 476.03125 236.492188 C 478.464844 239.734375 480.527344 243.265625 482.148438 246.949219 C 483.695312 250.703125 484.875 254.605469 485.683594 258.578125 C 485.609375 258.652344 485.535156 258.652344 485.464844 258.726562 C 484.136719 259.535156 482.957031 260.492188 481.777344 261.523438 C 479.566406 263.367188 477.726562 265.867188 476.472656 268.519531 C 475.808594 269.917969 475.292969 271.316406 474.851562 272.789062 C 474.410156 274.261719 474.261719 275.878906 474.117188 277.425781 C 473.96875 278.75 474.117188 280.003906 474.261719 281.328125 C 474.484375 283.023438 474.703125 284.640625 475.222656 286.261719 C 476.179688 289.28125 478.167969 292.078125 480.96875 293.625 C 484.503906 295.539062 489.148438 294.210938 491.578125 291.195312 C 493.496094 288.839844 494.820312 286.113281 495.851562 283.242188 C 496.292969 281.992188 496.515625 280.59375 496.738281 279.265625 C 497.03125 277.5 497.179688 275.660156 497.179688 273.820312 C 497.253906 271.390625 497.03125 268.886719 496.738281 266.457031 C 497.914062 266.164062 499.019531 265.867188 500.199219 265.648438 C 501.601562 265.5 503 265.5 504.398438 265.648438 C 506.019531 265.941406 507.570312 266.308594 509.042969 266.898438 C 510.367188 267.488281 511.546875 268.222656 512.726562 269.035156 C 513.683594 269.84375 514.496094 270.726562 515.304688 271.683594 C 516.335938 273.15625 517.148438 274.628906 517.882812 276.25 C 518.253906 277.207031 518.621094 278.238281 518.917969 279.265625 C 519.433594 280.960938 520.09375 282.582031 520.832031 284.199219 C 521.863281 286.480469 523.410156 288.394531 524.367188 290.679688 C 524.515625 290.972656 524.589844 291.339844 524.738281 291.636719 C 526.652344 291.339844 527.980469 289.941406 528.9375 288.324219 C 529.601562 287.21875 529.96875 285.820312 530.191406 284.566406 C 530.484375 282.949219 530.558594 281.402344 530.410156 279.78125 C 530.265625 278.824219 530.191406 277.867188 529.894531 276.984375 C 529.746094 276.324219 529.453125 275.660156 529.230469 274.996094 C 528.714844 273.453125 528.054688 271.980469 527.390625 270.507812 C 526.136719 267.707031 524.367188 265.207031 522.378906 262.921875 C 520.539062 260.863281 518.179688 259.167969 515.746094 257.769531 C 513.09375 256.296875 510.148438 255.265625 507.125 254.75 C 505.578125 254.457031 504.03125 254.308594 502.484375 254.238281 C 500.863281 254.164062 499.242188 254.382812 497.621094 254.605469 C 496.664062 254.75 495.707031 254.898438 494.746094 255.121094 C 493.496094 249.671875 491.578125 244.371094 489.074219 239.363281 C 486.566406 234.359375 483.179688 229.5 479.050781 225.671875 C 476.988281 223.757812 474.777344 222.0625 472.421875 220.519531 C 469.839844 218.824219 467.042969 217.648438 464.242188 216.542969 C 458.714844 214.40625 452.820312 213.597656 447.074219 213.597656 C 447 213.597656 446.925781 213.597656 446.925781 213.597656 Z M 411.113281 237.230469 C 412.515625 238.480469 413.839844 239.808594 415.019531 241.277344 C 416.417969 243.265625 417.523438 245.328125 418.484375 247.535156 C 419.734375 250.628906 420.546875 253.722656 420.988281 256.960938 C 421.136719 258.359375 421.210938 259.683594 421.136719 261.082031 C 420.914062 262.1875 420.621094 263.21875 420.25 264.25 C 419.882812 264.984375 419.515625 265.722656 419.074219 266.382812 C 418.335938 267.265625 417.453125 268.078125 416.566406 268.886719 C 415.386719 269.695312 414.210938 270.359375 412.882812 270.949219 C 411.703125 271.390625 410.453125 271.832031 409.199219 272.125 C 408.386719 272.199219 407.578125 272.199219 406.839844 272.199219 C 406.691406 272.199219 406.546875 272.125 406.398438 272.050781 C 406.175781 271.90625 405.882812 271.757812 405.660156 271.609375 C 405.144531 271.167969 404.628906 270.652344 404.1875 270.136719 C 403.746094 269.476562 403.378906 268.8125 403.007812 268.078125 C 402.273438 266.164062 401.828125 264.101562 401.460938 262.039062 C 401.242188 260.050781 401.242188 258.136719 401.386719 256.152344 C 401.828125 253.574219 402.566406 251.144531 403.523438 248.714844 C 404.851562 245.769531 406.472656 242.972656 408.386719 240.394531 C 409.273438 239.21875 410.15625 238.1875 411.113281 237.230469 Z M 486.789062 273.378906 C 486.789062 274.261719 486.714844 275.144531 486.640625 275.953125 C 486.421875 277.28125 486.125 278.605469 485.683594 279.855469 C 485.609375 278.898438 485.609375 277.941406 485.683594 276.984375 C 485.90625 275.878906 486.199219 274.851562 486.566406 273.820312 C 486.640625 273.746094 486.714844 273.597656 486.789062 273.378906 Z M 486.789062 273.378906 " fill-opacity="1" fill-rule="nonzero"/></g><path fill="#35241d" d="M 518.105469 250.921875 C 515.675781 251.878906 513.539062 253.207031 511.988281 255.265625 C 513.390625 257.328125 515.378906 258.875 517.515625 260.125 C 519.0625 261.082031 520.757812 261.746094 522.453125 262.410156 C 523.632812 262.921875 524.8125 263.292969 525.988281 263.734375 C 527.390625 264.394531 528.789062 265.207031 530.042969 266.089844 C 531.515625 267.339844 532.917969 268.738281 534.167969 270.210938 C 535.644531 272.273438 536.820312 274.410156 537.78125 276.691406 C 538.738281 279.046875 539.472656 281.402344 540.136719 283.90625 C 540.800781 286.628906 541.316406 289.5 541.683594 292.296875 C 541.980469 294.800781 542.128906 297.304688 542.054688 299.808594 C 540.0625 300.542969 538.148438 301.351562 536.304688 302.308594 C 533.875 303.5625 531.589844 305.253906 529.527344 307.023438 C 527.316406 308.9375 525.472656 311.21875 524.074219 313.722656 C 523.335938 315.046875 522.746094 316.519531 522.230469 317.992188 C 521.714844 319.464844 521.570312 321.011719 521.421875 322.480469 C 521.273438 323.808594 521.570312 325.207031 521.789062 326.53125 C 521.863281 327.046875 522.011719 327.488281 522.230469 327.929688 C 522.675781 329.035156 523.261719 330.359375 524.148438 331.167969 C 525.402344 332.273438 526.800781 333.15625 528.496094 333.523438 C 529.675781 333.820312 530.78125 333.820312 531.957031 333.523438 C 532.769531 333.378906 533.507812 333.011719 534.242188 332.640625 C 534.757812 332.421875 535.199219 331.980469 535.644531 331.609375 C 536.378906 331.097656 537.042969 330.582031 537.78125 329.992188 C 538.886719 329.035156 539.992188 328.078125 541.023438 327.046875 C 543.011719 325.132812 544.707031 322.851562 546.328125 320.566406 C 547.949219 318.285156 549.199219 315.855469 550.378906 313.28125 C 551.117188 311.660156 551.707031 310.039062 552.222656 308.347656 C 554.285156 307.90625 556.347656 307.539062 558.410156 307.242188 C 562.539062 306.726562 566.738281 306.359375 570.863281 306.800781 C 573.445312 307.242188 575.949219 307.832031 578.378906 308.714844 C 579.929688 309.453125 581.402344 310.335938 582.800781 311.367188 C 584.792969 312.984375 586.632812 314.753906 588.253906 316.738281 C 589.949219 319.097656 591.277344 321.597656 592.453125 324.25 C 593.78125 327.710938 594.664062 331.316406 595.179688 334.925781 C 595.550781 337.867188 595.621094 340.8125 595.253906 343.757812 C 594.886719 345.746094 594.445312 347.734375 593.707031 349.574219 C 592.96875 351.195312 592.011719 352.8125 590.980469 354.285156 C 590.832031 354.433594 590.757812 354.582031 590.613281 354.726562 C 589.875 354.582031 589.136719 354.507812 588.402344 354.433594 C 587.074219 354.285156 585.601562 354.433594 584.347656 354.726562 C 582.652344 355.097656 581.03125 355.757812 579.484375 356.714844 C 578.308594 357.453125 577.203125 358.410156 576.316406 359.511719 C 575.066406 361.058594 574.253906 362.679688 574.328125 364.742188 C 574.402344 366.066406 574.695312 366.800781 575.210938 367.980469 C 575.507812 368.640625 575.949219 369.378906 576.464844 369.820312 C 576.539062 369.894531 576.613281 369.96875 576.757812 370.042969 C 577.421875 370.703125 578.234375 371.21875 579.191406 371.441406 C 580 371.808594 580.960938 371.808594 581.84375 371.808594 C 584.792969 371.734375 587.371094 370.410156 589.800781 368.863281 C 592.378906 367.316406 594.664062 365.253906 596.726562 363.121094 C 600.78125 358.996094 603.433594 353.550781 604.613281 347.953125 C 605.203125 345.15625 605.496094 342.210938 605.421875 339.339844 C 605.421875 336.175781 604.90625 332.9375 604.316406 329.769531 C 603.359375 324.101562 601.222656 318.582031 598.347656 313.574219 C 596.949219 311.144531 595.179688 309.011719 593.265625 306.949219 C 591.203125 304.738281 588.84375 302.824219 586.339844 301.132812 C 584.054688 299.660156 581.550781 298.554688 578.96875 297.746094 C 576.171875 296.789062 573.222656 296.347656 570.273438 295.980469 C 564.824219 295.316406 559.222656 295.980469 553.769531 296.789062 C 553.769531 296.347656 553.769531 295.832031 553.769531 295.390625 C 553.695312 292.152344 553.253906 288.910156 552.8125 285.671875 C 552.441406 282.800781 551.925781 280.003906 551.191406 277.207031 C 550.378906 274.1875 549.199219 271.316406 547.949219 268.519531 C 546.695312 265.722656 545.074219 263.21875 543.160156 260.789062 C 541.242188 258.359375 539.105469 256.371094 536.601562 254.53125 C 534.09375 252.691406 531.296875 251.4375 528.347656 250.335938 C 526.875 249.746094 525.253906 249.523438 523.707031 249.523438 C 521.714844 249.820312 519.875 250.1875 518.105469 250.921875 Z M 518.105469 250.921875 " fill-opacity="1" fill-rule="nonzero"/><path fill="#35241d" d="M 608.371094 353.183594 C 606.675781 353.253906 604.980469 353.625 603.433594 354.285156 C 603.726562 357.011719 604.90625 359.585938 606.527344 361.722656 C 607.632812 363.195312 608.8125 364.59375 610.210938 365.769531 C 611.6875 367.023438 613.234375 368.054688 614.78125 369.15625 C 618.90625 372.398438 622.886719 376.003906 626.203125 380.128906 C 628.265625 382.851562 630.035156 385.796875 631.433594 388.960938 C 633.203125 393.527344 634.382812 398.386719 635.117188 403.242188 C 635.707031 408.101562 636.003906 413.035156 635.632812 417.96875 C 634.972656 417.378906 634.234375 416.863281 633.496094 416.347656 C 632.464844 415.613281 631.359375 415.023438 630.179688 414.507812 C 628.78125 413.84375 627.382812 413.328125 625.90625 413.035156 C 624.210938 412.667969 622.371094 412.519531 620.601562 412.519531 C 614.558594 412.445312 608.519531 413.84375 603.285156 416.863281 C 600.929688 418.1875 598.792969 420.175781 597.097656 422.238281 C 596.136719 423.414062 595.328125 424.59375 594.589844 425.992188 C 593.855469 427.539062 593.339844 429.085938 593.042969 430.777344 C 592.824219 432.324219 592.675781 433.796875 592.75 435.34375 C 592.75 436.886719 593.042969 438.433594 593.339844 439.90625 C 593.632812 441.453125 594.222656 442.925781 594.886719 444.398438 C 595.476562 445.722656 596.136719 446.972656 597.023438 448.152344 C 597.832031 449.328125 598.792969 450.433594 599.894531 451.390625 C 600.558594 451.90625 601.148438 452.347656 601.886719 452.789062 C 602.550781 453.160156 603.433594 453.527344 604.171875 453.820312 C 605.203125 454.1875 606.308594 454.484375 607.414062 454.628906 C 608.371094 454.777344 609.253906 454.851562 610.140625 454.925781 C 611.316406 455 612.421875 454.777344 613.601562 454.628906 C 616.328125 454.261719 619.054688 453.671875 621.632812 452.714844 C 624.507812 451.6875 627.382812 450.359375 629.960938 448.667969 C 631.949219 447.34375 633.71875 445.796875 635.339844 444.101562 C 635.855469 449.328125 635.929688 454.628906 635.339844 459.859375 C 634.75 463.390625 633.867188 466.925781 632.539062 470.238281 C 631.140625 473.332031 629.589844 476.273438 627.75 479.074219 C 626.792969 480.617188 625.613281 482.089844 624.582031 483.636719 C 624.066406 484.445312 623.625 485.402344 623.179688 486.289062 C 621.929688 489.085938 621.042969 491.957031 620.824219 495.046875 C 623.179688 495.636719 625.613281 494.605469 627.75 493.648438 C 628.558594 493.28125 629.296875 492.765625 630.035156 492.25 C 630.625 491.808594 631.210938 491.367188 631.730469 490.925781 C 633.128906 489.746094 634.234375 488.203125 635.265625 486.65625 C 638.582031 481.871094 641.382812 476.570312 643.371094 471.046875 C 645.433594 465.304688 646.246094 459.195312 646.316406 453.085938 C 646.464844 447.046875 645.875 440.9375 644.550781 435.046875 C 644.253906 433.722656 643.960938 432.472656 643.519531 431.21875 C 645.140625 427.097656 646.097656 422.753906 646.613281 418.410156 C 647.277344 412.742188 646.980469 406.925781 646.390625 401.328125 C 645.730469 395.511719 644.625 389.625 642.414062 384.175781 C 640.792969 380.054688 638.65625 376.296875 636.074219 372.765625 C 633.421875 369.082031 630.253906 365.84375 626.9375 362.828125 C 625.390625 361.425781 623.769531 360.101562 622.148438 358.851562 C 620.96875 357.96875 619.792969 357.011719 618.613281 356.199219 C 617.433594 355.316406 615.960938 354.875 614.632812 354.359375 C 613.824219 354.066406 612.9375 353.917969 612.054688 353.769531 C 610.949219 353.625 609.917969 353.476562 608.8125 353.476562 C 608.738281 353.183594 608.519531 353.183594 608.371094 353.183594 Z M 622.886719 423.488281 C 623.695312 423.636719 624.507812 423.859375 625.246094 424.152344 C 626.203125 424.667969 627.160156 425.183594 628.042969 425.773438 C 628.78125 426.359375 629.445312 427.023438 630.035156 427.757812 C 630.695312 428.714844 631.285156 429.671875 631.875 430.703125 C 631.066406 432.175781 630.179688 433.648438 629.148438 435.046875 C 627.96875 436.519531 626.644531 437.917969 625.171875 439.171875 C 623.476562 440.347656 621.632812 441.378906 619.71875 442.1875 C 617.359375 443.074219 614.929688 443.734375 612.421875 444.101562 C 611.539062 444.175781 610.65625 444.25 609.769531 444.175781 C 609.105469 444.03125 608.519531 443.882812 607.855469 443.660156 C 607.558594 443.515625 607.339844 443.367188 607.042969 443.21875 C 606.824219 443 606.527344 442.703125 606.308594 442.484375 C 605.71875 441.601562 605.203125 440.644531 604.761719 439.6875 C 604.390625 438.65625 604.097656 437.550781 603.875 436.519531 C 603.800781 435.34375 603.800781 434.164062 603.875 432.988281 C 604.023438 432.398438 604.097656 431.882812 604.316406 431.292969 C 604.613281 430.628906 604.980469 430.042969 605.421875 429.453125 C 606.160156 428.570312 607.042969 427.757812 607.929688 426.949219 C 608.960938 426.214844 610.066406 425.625 611.171875 425.109375 C 613.011719 424.371094 614.929688 423.859375 616.84375 423.5625 C 618.832031 423.414062 620.824219 423.34375 622.886719 423.488281 Z M 622.886719 423.488281 " fill-opacity="1" fill-rule="nonzero"/><g clip-path="url(#a76f94252c)"><path fill="#35241d" d="M 184.753906 356.863281 C 181.4375 356.863281 178.195312 357.453125 174.953125 358.113281 C 173.109375 358.484375 171.34375 359.21875 169.792969 360.25 C 168.6875 360.984375 167.511719 361.871094 166.625 362.828125 C 165.003906 364.59375 163.679688 366.65625 163.164062 369.011719 C 164.636719 369.746094 166.183594 370.261719 167.804688 370.628906 C 169.425781 370.925781 171.046875 371.070312 172.667969 371.144531 C 175.394531 371.21875 178.046875 370.554688 180.699219 370.113281 C 184.457031 369.746094 188.214844 369.96875 191.972656 370.410156 C 194.035156 370.703125 196.027344 371.144531 198.089844 371.585938 C 200.375 372.101562 202.585938 372.914062 204.867188 373.355469 C 206.34375 373.648438 207.816406 373.796875 209.289062 373.871094 C 210.617188 373.941406 211.941406 373.648438 213.195312 373.5 C 215.039062 373.28125 216.953125 372.46875 218.5 371.441406 C 217.910156 369.011719 216.4375 367.023438 214.816406 365.183594 C 213.636719 363.785156 212.015625 362.679688 210.46875 361.722656 C 208.773438 360.691406 206.785156 360.175781 204.941406 359.585938 C 201.773438 358.703125 198.605469 358.113281 195.363281 357.597656 C 191.972656 357.082031 188.511719 356.789062 185.121094 356.789062 C 185.046875 356.863281 184.898438 356.863281 184.753906 356.863281 Z M 184.753906 356.863281 " fill-opacity="1" fill-rule="nonzero"/></g><path fill="#35241d" d="M 607.265625 331.90625 C 606.453125 332.789062 605.792969 333.820312 605.128906 334.777344 C 604.539062 335.660156 604.023438 336.691406 603.433594 337.648438 C 602.476562 339.269531 601.445312 340.8125 600.339844 342.285156 C 598.421875 344.570312 596.285156 346.628906 594.445312 349.058594 C 592.894531 351.046875 591.792969 353.253906 590.832031 355.539062 C 590.832031 355.539062 590.832031 355.464844 590.90625 355.464844 C 590.832031 355.683594 590.757812 355.832031 590.6875 356.054688 C 590.6875 356.054688 590.6875 356.125 590.6875 356.125 C 590.6875 356.125 590.6875 356.125 590.6875 356.054688 C 590.390625 356.789062 590.171875 357.527344 589.949219 358.261719 C 591.9375 359.511719 594.445312 359.882812 596.726562 359.660156 C 599.378906 359.441406 602.035156 358.554688 604.242188 357.011719 C 606.378906 355.539062 608.074219 353.625 609.769531 351.636719 C 611.390625 349.648438 612.9375 347.585938 614.339844 345.453125 C 615.738281 343.316406 616.992188 341.109375 617.800781 338.605469 C 618.246094 337.28125 618.316406 335.882812 618.464844 334.484375 C 618.539062 333.453125 618.464844 332.421875 618.316406 331.464844 C 618.097656 329.550781 617.65625 327.710938 616.625 326.015625 C 612.792969 326.824219 609.621094 329.183594 607.265625 331.90625 Z M 607.265625 331.90625 " fill-opacity="1" fill-rule="nonzero"/></svg>