<svg xmlns="http://www.w3.org/2000/svg" xmlns:xlink="http://www.w3.org/1999/xlink" width="1080" zoomAndPan="magnify" viewBox="0 0 810 1012.49997" height="1350" preserveAspectRatio="xMidYMid meet" version="1.0"><defs><clipPath id="5ec62d851b"><path d="M 183.304688 162.367188 L 618.839844 162.367188 L 618.839844 849.777344 L 183.304688 849.777344 Z M 183.304688 162.367188 " clip-rule="nonzero"/></clipPath></defs><g clip-path="url(#5ec62d851b)"><path fill="#5b3e36" d="M 334.378906 783.859375 C 357.476562 746.257812 357.511719 687.359375 327.75 653.390625 L 327.609375 653.226562 L 327.71875 653.039062 C 332.386719 644.902344 335.902344 637.207031 338.835938 628.316406 C 341.421875 620.476562 343.667969 613.199219 347.070312 605.617188 C 337.554688 596.75 327.808594 588.082031 318.433594 579.078125 C 311.261719 572.199219 304.378906 565.074219 298.488281 557.046875 C 284.144531 537.5 276.625 512.683594 270.285156 489.566406 L 256.933594 486.59375 L 256.863281 486.492188 C 245.351562 468.894531 236.890625 434.027344 237.5625 413.152344 C 237.6875 409.339844 238.648438 397.847656 244.796875 404.574219 C 251.808594 412.253906 259.980469 436.921875 263.605469 448.128906 C 268.144531 375.628906 311.238281 351.40625 371.339844 322.539062 C 386.5625 315.847656 402.105469 308.726562 415.625 298.941406 C 428.867188 289.363281 440.539062 277.035156 451.765625 265.21875 L 452.019531 264.949219 L 452.230469 265.253906 C 463.269531 281.125 475.214844 295.347656 488.519531 309.324219 C 497.714844 318.984375 507.78125 328.613281 515.742188 339.308594 C 524.003906 350.410156 528.984375 361.757812 531.96875 375.285156 C 536.179688 394.40625 536.167969 415.917969 535.296875 435.496094 C 539.996094 424.4375 547.734375 407.734375 556.199219 399.867188 C 560.734375 395.644531 566.0625 393.832031 569.6875 400.023438 C 573.316406 406.214844 573.382812 417.105469 572.882812 424.050781 C 572.046875 435.628906 569.113281 447.597656 564.730469 458.332031 C 559 472.375 553.4375 500.425781 532.355469 486.792969 C 528.109375 499.632812 523.832031 512.609375 518.90625 525.203125 C 515.5625 533.757812 511.859375 542.085938 507.179688 550.003906 C 502.679688 557.625 497.402344 564.636719 491.835938 571.507812 C 483.9375 581.257812 475.636719 590.753906 467.503906 600.316406 C 468.941406 619.882812 477.722656 640.117188 486.148438 657.617188 C 496.105469 678.296875 507.304688 698.375 516.175781 719.578125 C 535.996094 766.945312 538.285156 808.621094 502.648438 849.230469 C 520.804688 838.472656 540.515625 825.796875 555.382812 810.898438 C 565.84375 800.410156 573.421875 789.152344 577.636719 774.886719 C 581.714844 761.070312 582.320312 745.839844 582.738281 731.511719 C 583.34375 710.921875 583.710938 690.738281 585.566406 670.171875 C 587.644531 655.609375 595.753906 642.546875 600.5 628.808594 C 623.472656 562.289062 627.179688 487.203125 596.109375 422.574219 C 584.75 398.945312 589.292969 381.332031 590.597656 356.542969 C 594.105469 312.457031 581.199219 263.488281 555.878906 227.121094 C 529.199219 188.808594 489.953125 165.832031 442.21875 171.15625 C 422.65625 166.855469 396.015625 160.152344 376.246094 163.238281 C 254.136719 182.3125 228.957031 254.773438 225.625 367.457031 C 224.339844 410.960938 211.765625 456.035156 200.910156 498.121094 C 195.683594 518.378906 190.433594 538.878906 186.902344 559.511719 C 184.019531 576.351562 182.007812 594.8125 184.296875 611.832031 C 195.128906 692.464844 339.859375 760.078125 271.632812 849.542969 C 343.800781 810.667969 340.851562 763.335938 314.578125 692.539062 L 313.882812 690.675781 L 315.101562 692.25 C 339.570312 723.953125 338.578125 746.367188 334.378906 783.859375 Z M 334.378906 783.859375 " fill-opacity="1" fill-rule="evenodd"/></g></svg>