<svg xmlns="http://www.w3.org/2000/svg" xmlns:xlink="http://www.w3.org/1999/xlink" width="1080" zoomAndPan="magnify" viewBox="0 0 810 1012.49997" height="1350" preserveAspectRatio="xMidYMid meet" version="1.0"><path fill="#000000" d="M 169.03125 690.855469 L 150.503906 721.8125 C 150.160156 722.394531 149.257812 722.34375 148.992188 721.703125 C 144.367188 710.765625 145.082031 699.828125 151.144531 688.863281 C 163.5 666.511719 175.964844 648.351562 173.253906 625.332031 C 173.121094 624.03125 172.804688 622.757812 172.296875 621.539062 C 169.078125 613.546875 165.148438 604.546875 160.523438 594.484375 C 155.078125 582.644531 153.878906 572.742188 152.390625 555.429688 C 150.238281 530.476562 150.1875 511.414062 161.769531 489.140625 C 178.0625 457.890625 192.472656 432.246094 199.195312 398.449219 C 204.988281 369.21875 209.535156 348.539062 212.828125 336.378906 C 223.195312 298.070312 238.554688 259.734375 268.960938 235.042969 C 304.761719 205.972656 345.476562 189.566406 391.109375 205.070312 C 394.722656 206.316406 398.65625 206.316406 402.273438 205.097656 C 420.691406 198.859375 439.214844 197.425781 457.84375 200.769531 C 478.601562 204.511719 496.195312 210.726562 510.628906 219.460938 C 537.628906 235.785156 559.210938 271.203125 573.03125 301.945312 C 585.390625 329.476562 594.371094 351.433594 599.953125 367.839844 C 607.554688 390.246094 610.929688 417.300781 615.316406 439.335938 C 618.984375 457.707031 624.988281 467.980469 636.230469 490.226562 C 651.566406 520.574219 637.136719 557.210938 628.523438 586.679688 C 625.097656 598.386719 623.714844 607.199219 624.429688 613.121094 C 628.179688 645.085938 655.261719 667.707031 662.570312 700.546875 C 665.945312 715.8125 658.796875 730.996094 655.445312 745.492188 C 655.074219 747.136719 652.710938 747.085938 652.390625 745.441406 C 649.707031 731.714844 646.542969 719.875 638.226562 709.414062 C 638.066406 709.226562 637.800781 709.148438 637.558594 709.28125 C 637.347656 709.386719 637.242188 709.652344 637.320312 709.890625 L 641.070312 720.511719 C 641.734375 722.421875 642.183594 724.386719 642.371094 726.378906 C 643.914062 743.289062 642.027344 760.386719 636.738281 777.722656 C 632.910156 790.226562 623.316406 798.378906 618.265625 805.519531 C 617.496094 806.605469 615.765625 806.15625 615.660156 804.828125 C 614.570312 792.589844 611.753906 781.015625 607.183594 770.078125 C 606.996094 769.625 606.304688 769.703125 606.253906 770.210938 C 604.046875 791.953125 589.988281 807.03125 572.816406 819.695312 C 571.914062 820.359375 570.664062 819.457031 571.0625 818.394531 C 580.472656 793.042969 564.417969 778.386719 543.636719 768.429688 C 525.5625 759.800781 506.90625 748.8125 493.191406 734.742188 C 477.113281 718.199219 476.902344 693.667969 477.566406 668.875 C 478.175781 646.863281 478.390625 630.882812 488.011719 617.898438 C 500.953125 600.429688 508.15625 590.609375 509.617188 588.429688 C 516.367188 578.476562 519.558594 567.722656 524.101562 553.09375 C 531.144531 530.421875 534.707031 508.203125 534.8125 486.40625 C 534.839844 478.203125 532.953125 473.980469 526.867188 467.902344 C 518.8125 459.828125 514.1875 454.972656 512.992188 453.324219 C 495.824219 429.777344 494.308594 403.46875 488.78125 368.105469 C 485.910156 349.757812 479.851562 341.6875 463.929688 329.53125 C 449.179688 318.246094 440.382812 309.589844 434.21875 293.183594 C 433.871094 292.28125 432.542969 292.386719 432.355469 293.34375 C 431.800781 296.050781 430.867188 298.917969 429.539062 301.972656 C 412.105469 342.058594 393.632812 382.945312 359.507812 409.734375 C 344.679688 421.386719 332.265625 432.21875 315.628906 437.476562 C 315.152344 437.636719 314.648438 437.421875 314.40625 436.972656 C 314.195312 436.519531 314.328125 435.988281 314.726562 435.699219 C 322.222656 430.46875 328.785156 424.359375 334.445312 417.378906 C 334.632812 417.140625 334.367188 416.820312 334.101562 416.953125 C 331.152344 418.46875 326.976562 421.359375 321.582031 425.6875 C 312.734375 432.804688 308.242188 435.085938 298.753906 440.582031 C 285.941406 447.960938 277.066406 457.042969 269.410156 470.609375 C 268.054688 472.972656 267.550781 476.023438 267.84375 479.769531 C 268.03125 482.34375 270.476562 495.910156 275.125 520.441406 C 280.070312 546.617188 291.976562 573.777344 306.566406 597.988281 C 312.707031 608.15625 316.585938 615.960938 318.234375 621.40625 C 322.195312 634.519531 322.433594 652.226562 322.992188 664.546875 C 323.789062 681.296875 322.40625 697.308594 318.847656 712.625 C 317.703125 717.589844 316.640625 720.695312 315.710938 721.996094 C 300.984375 742.492188 278.476562 752.6875 256.230469 765.269531 C 235.792969 776.792969 227.6875 794.316406 231.859375 817.863281 C 231.992188 818.554688 231.167969 819.03125 230.609375 818.582031 C 216.628906 807.324219 203.6875 792.722656 200.710938 774.960938 C 200.550781 773.953125 199.089844 773.871094 198.824219 774.855469 C 194.515625 790.148438 194.332031 805.464844 198.265625 820.835938 C 198.476562 821.660156 197.546875 822.269531 196.882812 821.765625 C 190.824219 817.199219 185.320312 811.757812 180.351562 805.414062 C 168.921875 790.8125 167.566406 765.667969 171.390625 748.8125 C 171.632812 747.800781 171.316406 746.714844 170.519531 746.023438 C 158.320312 734.925781 159.777344 713.742188 166.160156 700.652344 C 169.109375 694.597656 170.570312 691.546875 170.597656 691.464844 C 170.675781 691.066406 170.464844 690.644531 170.0625 690.511719 C 169.695312 690.351562 169.238281 690.511719 169.03125 690.855469 Z M 169.03125 690.855469 " fill-opacity="1" fill-rule="nonzero"/></svg>