<svg xmlns="http://www.w3.org/2000/svg" xmlns:xlink="http://www.w3.org/1999/xlink" width="1080" zoomAndPan="magnify" viewBox="0 0 810 1012.49997" height="1350" preserveAspectRatio="xMidYMid meet" version="1.0"><defs><clipPath id="16f96bb346"><path d="M 53 167 L 753 167 L 753 1012 L 53 1012 Z M 53 167 " clip-rule="nonzero"/></clipPath></defs><g clip-path="url(#16f96bb346)"><path fill="#1c1a1b" d="M 136.378906 550.71875 C 137.476562 550.824219 134.410156 551.6875 133.441406 552.207031 C 131.292969 553.367188 129.238281 554.621094 127.261719 556.046875 C 121.769531 559.980469 116.863281 564.660156 112.078125 569.410156 C 97.796875 583.59375 80.027344 601 78.261719 622.179688 C 77.101562 636.078125 80.230469 650.125 88.464844 661.480469 C 99 676.015625 114.652344 683.828125 110.035156 704.351562 C 103.714844 732.421875 59.566406 730.261719 53.894531 759.820312 C 50.605469 776.972656 78.273438 780.035156 83.09375 794.230469 C 86.605469 804.554688 81.933594 818.410156 79.707031 828.59375 C 78.632812 833.507812 75.058594 842.960938 75.058594 842.960938 C 75.058594 842.960938 82.316406 836.78125 84.527344 832.675781 C 88.710938 824.949219 90.339844 815.953125 90.304688 807.242188 C 90.273438 796.652344 87.964844 786.234375 83.453125 776.664062 C 81.113281 771.710938 74.269531 764.46875 76.292969 758.566406 C 78.582031 751.902344 86.65625 747.890625 93.03125 746.402344 C 96.136719 745.679688 102.511719 745.042969 102.511719 745.042969 C 102.511719 745.042969 94.957031 750.570312 93.59375 754.75 C 91.230469 761.992188 93.476562 770.570312 94.679688 777.824219 C 98.265625 799.492188 114.960938 810.519531 111.992188 833.933594 C 110.617188 844.757812 107.4375 855.570312 99.671875 863.574219 C 93.253906 870.167969 82.25 874.582031 79.996094 884.375 C 74.238281 909.328125 110.300781 913.082031 120.3125 926.671875 C 125.738281 934.027344 124.917969 946.128906 124.972656 954.761719 C 124.996094 956.621094 123.621094 965.457031 125.003906 966.988281 C 125.898438 967.96875 131.964844 956.324219 132.199219 955.699219 C 135.742188 946.320312 133.976562 936.324219 130.3125 927.265625 C 127.046875 919.207031 122.917969 910.945312 116.324219 905.097656 C 112.449219 901.664062 103.757812 898.070312 102.5625 892.59375 C 101.171875 886.253906 106.40625 880.9375 110.160156 876.589844 C 110.535156 876.15625 114.78125 871.859375 114.375 871.167969 C 112.628906 868.242188 114.066406 878.101562 115.035156 881.363281 C 116.757812 887.167969 119.695312 892.976562 123.257812 897.867188 C 132.984375 911.222656 151.117188 914.082031 158.90625 928.925781 C 162.609375 935.972656 165.777344 946.277344 160.40625 953.292969 C 152.851562 963.160156 135.292969 964.691406 137.445312 980.875 C 139.410156 995.65625 153.796875 992.496094 163.152344 998.335938 C 171.578125 1003.609375 170.472656 1016.039062 168.597656 1024.351562 C 162.863281 1049.808594 148.390625 1071.019531 167.652344 1096.144531 C 170.164062 1099.421875 187.304688 1114.945312 192.753906 1111.710938 C 192.753906 1111.710938 190.273438 1107.554688 190.1875 1107.40625 C 188.21875 1104.097656 186.25 1100.792969 184.367188 1097.433594 C 181.496094 1092.316406 178.070312 1086.671875 177.070312 1080.792969 C 176.621094 1078.238281 179.003906 1073.273438 179.003906 1073.273438 C 179.003906 1073.273438 184.855469 1083.480469 188.167969 1088.339844 C 193.933594 1096.792969 205.222656 1104.34375 209.148438 1113.667969 C 214.703125 1126.839844 193.242188 1144.171875 189.1875 1156.050781 C 188.761719 1157.28125 183.867188 1168.085938 184.464844 1169.085938 C 185.496094 1170.808594 192.613281 1168.914062 193.828125 1168.628906 C 202.816406 1166.5 210.863281 1159.835938 216.746094 1152.964844 C 219.289062 1149.988281 221.652344 1146.808594 223.707031 1143.472656 C 224.683594 1141.875 224.363281 1137.972656 226.171875 1138.429688 C 227.695312 1138.824219 231.101562 1157.664062 231.664062 1159.429688 C 236.347656 1174.15625 249.699219 1197.496094 268.640625 1196.101562 C 270.425781 1195.976562 266.554688 1193.191406 265.542969 1191.710938 C 263.4375 1188.617188 261.5 1185.4375 259.765625 1182.121094 C 254.753906 1172.488281 251.59375 1161.769531 252.371094 1150.851562 C 254.390625 1122.566406 288.621094 1109.480469 285.027344 1079.738281 C 282.855469 1061.714844 266.425781 1055.316406 255.074219 1043.757812 C 250.414062 1039.003906 245.027344 1030.46875 249.539062 1023.980469 C 258.828125 1010.617188 274.152344 1006.054688 281.855469 989.945312 C 284.652344 984.085938 286.652344 977.972656 286.953125 971.457031 C 287.101562 968.328125 283.003906 961.363281 286.035156 962.128906 C 288.941406 962.863281 292.953125 971.753906 293.816406 973.976562 C 301.410156 993.613281 284.800781 1004.925781 278.714844 1021.132812 C 276.4375 1027.203125 277.003906 1033.261719 278.863281 1039.355469 C 279.671875 1041.980469 281.035156 1049.785156 281.707031 1047.117188 C 284.570312 1035.859375 284.492188 1024.882812 290.496094 1014.242188 C 299.070312 999.015625 312.085938 992.347656 309.816406 972.476562 C 308.210938 958.398438 299.496094 946.457031 297.996094 932.179688 C 296.785156 920.652344 303.15625 908.660156 299.199219 897.453125 C 293.984375 882.726562 275.589844 877.3125 279.664062 859.078125 C 284.195312 838.792969 302.414062 826.308594 308.425781 807.296875 C 310.179688 801.714844 310.085938 795.578125 308.296875 790.007812 C 307.882812 788.753906 304.253906 783.300781 304.550781 782.128906 C 304.828125 781.023438 310.316406 778.863281 311.191406 778.300781 C 317.054688 774.421875 322.300781 769.539062 326.789062 764.140625 C 339.6875 748.605469 348.398438 726.945312 347.589844 706.691406 C 346.324219 675.003906 327.085938 654.929688 314.246094 627.773438 C 302.359375 602.660156 299.1875 575.824219 291.75 549.410156 C 287.441406 534.078125 279.855469 520.363281 278.289062 504.265625 C 276.738281 488.167969 277.097656 468.921875 284.429688 454.058594 C 292.175781 438.363281 303.339844 430.898438 307.890625 412.269531 C 315.554688 381.011719 322.332031 327.613281 361.253906 318.191406 C 375.9375 314.652344 380.234375 331.238281 391.566406 334.109375 C 392.535156 334.355469 398.324219 329.546875 399.144531 329.058594 C 405.964844 325.007812 413.519531 322.359375 421.246094 320.605469 C 449.421875 314.238281 487.183594 326.816406 501.984375 352.949219 C 517.1875 379.808594 503.070312 411.046875 516.050781 436.554688 C 523.625 451.441406 539.480469 460.734375 550.28125 473.027344 C 562.65625 487.09375 566.242188 508.273438 562.1875 526.347656 C 558.824219 541.371094 544.695312 542.585938 538.191406 554.070312 C 530.765625 567.1875 534 587.570312 526.308594 602.222656 C 512.625 628.335938 483.671875 649.402344 478.597656 679.621094 C 472.648438 715.078125 502.644531 742.789062 508.527344 775.546875 C 511.527344 792.292969 506.132812 808.414062 499.644531 823.648438 C 497.503906 828.667969 495.226562 833.632812 493.046875 838.632812 C 492.121094 840.757812 488.214844 845.863281 490.40625 845.085938 C 506.238281 839.492188 520.199219 813.539062 526 799.578125 C 527.074219 796.992188 530.382812 778.183594 532.222656 777.089844 C 534.457031 775.75 534 781.980469 534.671875 784.488281 C 536.90625 792.761719 536.300781 801.34375 533.671875 809.464844 C 525.085938 836.078125 480.640625 853.230469 492.566406 884.054688 C 495.867188 892.582031 498.632812 886.574219 504.472656 879.578125 C 504.71875 879.292969 508.28125 874.632812 509.101562 875.15625 C 515.070312 878.984375 524.136719 896.304688 527.851562 902.535156 C 535.03125 914.570312 533.308594 927.234375 528.09375 939.664062 C 525.796875 945.140625 520.5 955.78125 520.5 955.78125 C 520.5 955.78125 526.828125 952.902344 529.863281 951.222656 C 536.511719 947.53125 541.628906 942.738281 546.046875 936.539062 C 548.269531 933.402344 550.3125 930.007812 551.503906 926.332031 C 552.089844 924.511719 551.972656 919.132812 552.953125 920.769531 C 569.933594 949.277344 530.191406 976.539062 536.566406 1003.300781 C 538.746094 1012.457031 545.769531 1021.046875 553.835938 1025.789062 C 555.003906 1026.46875 561.113281 1029.957031 562.613281 1028.648438 C 563.761719 1027.648438 558.484375 1021.035156 557.984375 1020.164062 C 554.613281 1014.304688 552.003906 1007.480469 554.953125 1000.917969 C 565.082031 978.441406 601.035156 975.25 605.589844 947.59375 C 610.046875 920.503906 582.0625 906.671875 576.667969 883.109375 C 568.679688 848.117188 601.992188 846.488281 620.636719 828.285156 C 624.679688 824.339844 627.839844 819.269531 628.539062 813.589844 C 628.839844 811.199219 625.988281 807.617188 628.050781 806.394531 C 628.828125 805.925781 634.765625 817.8125 635 818.546875 C 638.480469 829.191406 633.59375 840.449219 627.125 848.859375 C 624.53125 852.242188 621.582031 855.261719 618.433594 858.132812 C 616.824219 859.609375 611.453125 863.363281 613.324219 862.246094 C 627.191406 853.996094 639.957031 847.136719 642.863281 829.328125 C 643.757812 823.839844 639.011719 808.816406 641.765625 804.53125 C 642.054688 804.085938 648.449219 805.96875 648.9375 806.085938 C 656.417969 807.871094 663.898438 810.316406 671.539062 811.253906 C 686.648438 813.09375 697.894531 803.851562 712.503906 802.925781 C 726.613281 802.035156 737.0625 812.941406 742.371094 824.988281 C 744.03125 828.734375 745.394531 832.675781 746.308594 836.675781 C 746.820312 838.898438 746.660156 845.382812 747.746094 843.375 C 759.652344 821.226562 747.789062 786.53125 725.359375 776.664062 C 715.34375 772.25 695.839844 773.207031 690.9375 761.535156 C 682.285156 740.96875 708.609375 730.144531 699.609375 711.304688 C 689.574219 690.285156 671.625 687.074219 674.710938 659.832031 C 675.0625 656.683594 676.230469 645.839844 679.488281 643.894531 C 682.691406 641.992188 681.445312 651.101562 681.988281 654.78125 C 683.074219 662.074219 685.105469 669.335938 688.277344 676.003906 C 697.160156 694.6875 712.484375 701.652344 715.386719 723.5 C 716.003906 728.113281 714.71875 756.644531 717.261719 748.902344 C 724.125 727.988281 723.773438 697.992188 712.515625 678.535156 C 705.554688 666.519531 693.839844 657.726562 689 644.476562 C 683.042969 628.179688 684.839844 609.71875 681.210938 592.867188 C 678.390625 579.789062 671.199219 568.410156 665.113281 556.671875 C 655.523438 538.171875 650.277344 521.488281 653.066406 500.511719 C 653.363281 498.257812 653.84375 486.316406 656.25 484.882812 C 657.441406 484.179688 656.601562 487.636719 656.683594 489.027344 C 656.867188 491.878906 657.132812 494.683594 657.632812 497.503906 C 659.269531 506.722656 662.292969 515.769531 666.164062 524.285156 C 669.71875 532.121094 673.761719 539.90625 680.222656 545.773438 C 687.457031 552.367188 696.800781 555.503906 701.578125 564.636719 C 710.757812 582.191406 703.855469 602.246094 701.640625 620.554688 C 700.503906 629.878906 701.023438 640.382812 707.652344 647.710938 C 709.898438 650.210938 712.8125 652.089844 715.921875 653.3125 C 717.464844 653.910156 721.292969 656.726562 720.453125 655.3125 C 701.609375 623.691406 727.039062 591.199219 717.113281 558.960938 C 709.75 535.046875 682.117188 525.402344 674.390625 500.660156 C 667.164062 477.46875 677.605469 452.398438 670.082031 427.835938 C 660.75 397.34375 636.519531 375.621094 620.328125 348.941406 C 578.222656 279.617188 546.652344 194.425781 458.328125 173.375 C 448.535156 171.046875 436.503906 170.335938 427.757812 176.289062 C 426.53125 177.128906 415.742188 189.984375 415.605469 189.953125 C 413.847656 189.503906 408.253906 176.4375 405.65625 174.34375 C 397.164062 167.527344 383.046875 166.699219 372.671875 167.335938 C 336.34375 169.558594 297.71875 204.335938 271.128906 225.984375 C 190.785156 291.386719 136.785156 405.964844 131.539062 509.019531 C 129.738281 544.285156 128.847656 585.167969 146.488281 616.960938 " fill-opacity="1" fill-rule="nonzero"/></g></svg>