<svg xmlns="http://www.w3.org/2000/svg" xmlns:xlink="http://www.w3.org/1999/xlink" width="1080" zoomAndPan="magnify" viewBox="0 0 810 1012.49997" height="1350" preserveAspectRatio="xMidYMid meet" version="1.0"><defs><clipPath id="670508a2df"><path d="M 195 202.714844 L 619.898438 202.714844 L 619.898438 540 L 195 540 Z M 195 202.714844 " clip-rule="nonzero"/></clipPath></defs><g clip-path="url(#670508a2df)"><path fill="#624332" d="M 527.214844 324.355469 C 526.992188 324.464844 526.449219 324.875 525.558594 325.550781 C 518.613281 330.804688 490.695312 352.089844 432.367188 372.105469 C 366.554688 394.691406 364.941406 393.722656 364.941406 393.722656 L 411.394531 354.039062 C 411.394531 354.039062 364.941406 386.625 314.289062 393.722656 C 314.289062 393.722656 278.15625 402.757812 263.960938 403.082031 C 263.960938 403.082031 255.574219 432.441406 248.796875 453.734375 C 242.023438 475.03125 242.664062 500.839844 242.347656 510.199219 C 242.027344 519.554688 241.054688 525.578125 238.796875 525.792969 C 236.542969 526.007812 190.40625 414.695312 196.535156 367.265625 C 202.664062 319.835938 252.023438 279.183594 250.734375 279.507812 C 249.445312 279.828125 215.894531 284.023438 209.761719 274.019531 C 209.761719 274.019531 227.828125 277.246094 250.089844 254.339844 C 272.351562 231.433594 311.492188 213.042969 361.605469 210.136719 C 411.714844 207.234375 454.625 227.558594 454.625 227.558594 C 454.625 227.558594 436.558594 206.589844 424.300781 202.71875 C 424.300781 202.71875 453.390625 203.738281 486.941406 222.128906 C 520.492188 240.519531 524.042969 254.71875 524.042969 254.71875 C 524.042969 254.71875 512.75 224.710938 514.039062 225.355469 C 515.332031 226 529.527344 234.710938 540.171875 255.683594 C 550.820312 276.65625 543.078125 292.140625 543.078125 292.140625 C 543.078125 292.140625 553.722656 281.820312 572.113281 283.753906 C 590.5 285.691406 601.46875 295.367188 601.46875 295.367188 C 601.46875 295.367188 575.660156 294.402344 567.917969 301.5 C 567.917969 301.5 585.984375 302.789062 600.179688 316.339844 C 614.375 329.890625 619.859375 341.183594 619.859375 341.183594 L 595.339844 333.117188 C 595.339844 333.117188 615.339844 354.414062 613.726562 399.582031 C 612.113281 444.753906 570.820312 541.546875 571.144531 539.929688 C 571.464844 538.3125 567.917969 510.246094 566.949219 483.144531 C 565.980469 456.042969 563.402344 418.292969 559.207031 412.484375 C 555.011719 406.679688 538.558594 384.09375 530.171875 361.1875 C 521.78125 338.277344 527.214844 324.355469 527.214844 324.355469 Z M 527.214844 324.355469 " fill-opacity="1" fill-rule="nonzero"/></g></svg>