<svg xmlns="http://www.w3.org/2000/svg" xmlns:xlink="http://www.w3.org/1999/xlink" width="1080" zoomAndPan="magnify" viewBox="0 0 810 1012.49997" height="1350" preserveAspectRatio="xMidYMid meet" version="1.0"><defs><clipPath id="341134faf7"><path d="M 129 268 L 680 268 L 680 931.289062 L 129 931.289062 Z M 129 268 " clip-rule="nonzero"/></clipPath></defs><g clip-path="url(#341134faf7)"><path fill="#000000" d="M 154.09375 791.53125 L 134.425781 824.464844 C 134.058594 825.085938 133.097656 825.03125 132.816406 824.351562 C 127.90625 812.714844 128.667969 801.078125 135.101562 789.410156 C 148.222656 765.628906 161.457031 746.304688 158.578125 721.816406 C 158.4375 720.433594 158.101562 719.074219 157.5625 717.777344 C 154.148438 709.273438 149.972656 699.699219 145.0625 688.992188 C 139.277344 676.394531 138.007812 665.859375 136.425781 647.441406 C 134.140625 620.890625 134.085938 600.605469 146.386719 576.90625 C 163.683594 543.660156 178.984375 516.375 186.121094 480.414062 C 192.273438 449.316406 197.101562 427.3125 200.597656 414.375 C 211.605469 373.613281 227.914062 332.824219 260.199219 306.554688 C 298.210938 275.625 341.441406 258.167969 389.898438 274.664062 C 393.734375 275.992188 397.910156 275.992188 401.75 274.691406 C 421.304688 268.054688 440.972656 266.527344 460.757812 270.085938 C 482.796875 274.070312 501.476562 280.679688 516.800781 289.972656 C 545.472656 307.34375 568.386719 345.027344 583.058594 377.738281 C 596.183594 407.03125 605.71875 430.390625 611.644531 447.847656 C 619.71875 471.6875 623.300781 500.472656 627.957031 523.917969 C 631.851562 543.464844 638.230469 554.394531 650.167969 578.066406 C 666.449219 610.351562 651.125 649.332031 641.984375 680.6875 C 638.34375 693.144531 636.875 702.523438 637.636719 708.820312 C 641.617188 742.832031 670.371094 766.898438 678.132812 801.839844 C 681.714844 818.082031 674.125 834.238281 670.570312 849.664062 C 670.175781 851.414062 667.664062 851.359375 667.324219 849.605469 C 664.472656 835.003906 661.117188 822.402344 652.28125 811.273438 C 652.113281 811.078125 651.832031 810.992188 651.578125 811.132812 C 651.351562 811.246094 651.238281 811.527344 651.324219 811.78125 L 655.300781 823.082031 C 656.007812 825.117188 656.488281 827.207031 656.683594 829.324219 C 658.320312 847.316406 656.316406 865.507812 650.703125 883.953125 C 646.640625 897.257812 636.453125 905.929688 631.089844 913.53125 C 630.269531 914.6875 628.4375 914.207031 628.324219 912.796875 C 627.167969 899.773438 624.175781 887.457031 619.320312 875.820312 C 619.125 875.339844 618.390625 875.425781 618.335938 875.960938 C 615.992188 899.09375 601.0625 915.140625 582.835938 928.613281 C 581.875 929.320312 580.546875 928.359375 580.972656 927.230469 C 590.960938 900.253906 573.917969 884.660156 551.847656 874.066406 C 532.660156 864.886719 512.847656 853.195312 498.289062 838.222656 C 481.214844 820.625 480.988281 794.523438 481.695312 768.140625 C 482.34375 744.722656 482.570312 727.71875 492.785156 713.90625 C 506.527344 695.320312 514.175781 684.867188 515.726562 682.550781 C 522.894531 671.960938 526.28125 660.519531 531.109375 644.957031 C 538.585938 620.832031 542.367188 597.1875 542.480469 574 C 542.507812 565.269531 540.503906 560.777344 534.042969 554.308594 C 525.492188 545.722656 520.582031 540.554688 519.3125 538.800781 C 501.082031 513.746094 499.472656 485.753906 493.605469 448.128906 C 490.554688 428.609375 484.121094 420.023438 467.21875 407.085938 C 451.554688 395.082031 442.214844 385.871094 435.667969 368.414062 C 435.300781 367.457031 433.890625 367.566406 433.691406 368.585938 C 433.101562 371.464844 432.113281 374.515625 430.703125 377.765625 C 412.191406 420.417969 392.578125 463.917969 356.34375 492.421875 C 340.597656 504.820312 327.417969 516.347656 309.753906 521.9375 C 309.246094 522.109375 308.707031 521.882812 308.453125 521.402344 C 308.230469 520.921875 308.371094 520.355469 308.792969 520.046875 C 316.75 514.480469 323.722656 507.984375 329.730469 500.554688 C 329.929688 500.300781 329.648438 499.960938 329.367188 500.105469 C 326.234375 501.714844 321.800781 504.792969 316.074219 509.398438 C 306.675781 516.96875 301.90625 519.398438 291.832031 525.242188 C 278.230469 533.097656 268.804688 542.757812 260.679688 557.191406 C 259.238281 559.707031 258.703125 562.953125 259.015625 566.9375 C 259.210938 569.675781 261.808594 584.109375 266.746094 610.210938 C 271.996094 638.0625 284.636719 666.960938 300.128906 692.722656 C 306.648438 703.539062 310.769531 711.84375 312.519531 717.636719 C 316.722656 731.589844 316.976562 750.429688 317.570312 763.535156 C 318.417969 781.359375 316.949219 798.394531 313.167969 814.691406 C 311.953125 819.976562 310.824219 823.28125 309.835938 824.664062 C 294.203125 846.472656 270.300781 857.316406 246.683594 870.707031 C 224.980469 882.964844 216.375 901.609375 220.804688 926.664062 C 220.945312 927.398438 220.070312 927.90625 219.476562 927.425781 C 204.632812 915.449219 190.890625 899.914062 187.730469 881.015625 C 187.5625 879.945312 186.007812 879.859375 185.726562 880.902344 C 181.15625 897.175781 180.957031 913.472656 185.132812 929.828125 C 185.359375 930.703125 184.371094 931.351562 183.667969 930.816406 C 177.234375 925.957031 171.390625 920.167969 166.113281 913.417969 C 153.976562 897.878906 152.539062 871.128906 156.601562 853.195312 C 156.859375 852.121094 156.519531 850.960938 155.671875 850.226562 C 142.71875 838.421875 144.269531 815.878906 151.046875 801.953125 C 154.175781 795.511719 155.726562 792.265625 155.757812 792.179688 C 155.84375 791.757812 155.617188 791.304688 155.191406 791.164062 C 154.796875 790.992188 154.316406 791.164062 154.09375 791.53125 Z M 154.09375 791.53125 " fill-opacity="1" fill-rule="nonzero"/></g></svg>