<svg xmlns="http://www.w3.org/2000/svg" xmlns:xlink="http://www.w3.org/1999/xlink" width="1080" zoomAndPan="magnify" viewBox="0 0 810 1012.49997" height="1350" preserveAspectRatio="xMidYMid meet" version="1.0"><defs><clipPath id="b07374911b"><path d="M 37 187 L 769 187 L 769 1012 L 37 1012 Z M 37 187 " clip-rule="nonzero"/></clipPath></defs><g clip-path="url(#b07374911b)"><path fill="#1c1a1b" d="M 123.792969 588.890625 C 124.9375 589.003906 121.730469 589.90625 120.71875 590.449219 C 118.46875 591.664062 116.320312 592.976562 114.25 594.46875 C 108.503906 598.589844 103.371094 603.488281 98.359375 608.46875 C 83.414062 623.320312 64.820312 641.550781 62.972656 663.730469 C 61.757812 678.285156 65.03125 692.996094 73.648438 704.886719 C 84.671875 720.109375 101.054688 728.292969 96.222656 749.785156 C 89.605469 779.183594 43.40625 776.921875 37.46875 807.878906 C 34.03125 825.839844 62.980469 829.046875 68.027344 843.914062 C 71.699219 854.726562 66.8125 869.234375 64.484375 879.902344 C 63.359375 885.046875 59.617188 894.945312 59.617188 894.945312 C 59.617188 894.945312 67.214844 888.476562 69.53125 884.179688 C 73.90625 876.082031 75.609375 866.664062 75.574219 857.542969 C 75.542969 846.453125 73.125 835.539062 68.40625 825.519531 C 65.953125 820.328125 58.796875 812.746094 60.910156 806.566406 C 63.304688 799.582031 71.757812 795.386719 78.425781 793.828125 C 81.679688 793.070312 88.347656 792.402344 88.347656 792.402344 C 88.347656 792.402344 80.441406 798.191406 79.015625 802.566406 C 76.542969 810.152344 78.894531 819.136719 80.152344 826.730469 C 83.90625 849.425781 101.375 860.972656 98.269531 885.492188 C 96.832031 896.828125 93.503906 908.152344 85.375 916.539062 C 78.660156 923.441406 67.148438 928.0625 64.785156 938.320312 C 58.761719 964.453125 96.5 968.382812 106.976562 982.613281 C 112.65625 990.320312 111.800781 1002.992188 111.855469 1012.035156 C 111.878906 1013.984375 110.441406 1023.238281 111.886719 1024.839844 C 112.824219 1025.863281 119.171875 1013.671875 119.414062 1013.015625 C 123.125 1003.191406 121.277344 992.726562 117.445312 983.238281 C 114.027344 974.796875 109.707031 966.144531 102.800781 960.023438 C 98.75 956.425781 89.652344 952.660156 88.402344 946.925781 C 86.945312 940.289062 92.421875 934.722656 96.355469 930.167969 C 96.746094 929.710938 101.1875 925.210938 100.765625 924.488281 C 98.9375 921.425781 100.441406 931.75 101.453125 935.167969 C 103.257812 941.246094 106.332031 947.328125 110.0625 952.449219 C 120.238281 966.433594 139.214844 969.429688 147.367188 984.976562 C 151.242188 992.359375 154.558594 1003.148438 148.9375 1010.496094 C 141.03125 1020.832031 122.65625 1022.433594 124.90625 1039.382812 C 126.964844 1054.859375 142.019531 1051.554688 151.808594 1057.667969 C 160.628906 1063.191406 159.46875 1076.207031 157.511719 1084.914062 C 151.507812 1111.574219 136.363281 1133.789062 156.519531 1160.101562 C 159.148438 1163.53125 177.085938 1179.789062 182.789062 1176.402344 C 182.789062 1176.402344 180.191406 1172.050781 180.105469 1171.894531 C 178.042969 1168.429688 175.984375 1164.96875 174.011719 1161.449219 C 171.007812 1156.09375 167.421875 1150.179688 166.375 1144.023438 C 165.90625 1141.347656 168.402344 1136.148438 168.402344 1136.148438 C 168.402344 1136.148438 174.523438 1146.839844 177.988281 1151.929688 C 184.023438 1160.78125 195.839844 1168.6875 199.945312 1178.453125 C 205.761719 1192.25 183.300781 1210.398438 179.058594 1222.835938 C 178.613281 1224.128906 173.488281 1235.441406 174.113281 1236.488281 C 175.191406 1238.292969 182.644531 1236.3125 183.914062 1236.011719 C 193.320312 1233.785156 201.738281 1226.800781 207.898438 1219.609375 C 210.558594 1216.492188 213.03125 1213.160156 215.179688 1209.664062 C 216.203125 1207.996094 215.871094 1203.90625 217.765625 1204.386719 C 219.355469 1204.796875 222.917969 1224.53125 223.507812 1226.378906 C 228.410156 1241.800781 242.382812 1266.242188 262.207031 1264.785156 C 264.074219 1264.652344 260.023438 1261.734375 258.964844 1260.1875 C 256.761719 1256.945312 254.734375 1253.617188 252.917969 1250.140625 C 247.671875 1240.054688 244.367188 1228.828125 245.179688 1217.394531 C 247.292969 1187.773438 283.117188 1174.066406 279.355469 1142.917969 C 277.082031 1124.046875 259.890625 1117.339844 248.007812 1105.238281 C 243.128906 1100.261719 237.496094 1091.320312 242.21875 1084.527344 C 251.9375 1070.527344 267.972656 1065.75 276.035156 1048.882812 C 278.964844 1042.746094 281.058594 1036.34375 281.367188 1029.515625 C 281.523438 1026.242188 277.238281 1018.949219 280.410156 1019.75 C 283.453125 1020.519531 287.648438 1029.828125 288.550781 1032.15625 C 296.503906 1052.722656 279.121094 1064.570312 272.75 1081.542969 C 270.367188 1087.898438 270.957031 1094.246094 272.90625 1100.628906 C 273.753906 1103.378906 275.179688 1111.550781 275.878906 1108.757812 C 278.875 1096.964844 278.796875 1085.472656 285.078125 1074.324219 C 294.050781 1058.378906 307.671875 1051.398438 305.300781 1030.585938 C 303.617188 1015.84375 294.496094 1003.339844 292.925781 988.382812 C 291.65625 976.3125 298.328125 963.75 294.1875 952.015625 C 288.730469 936.59375 269.476562 930.925781 273.742188 911.828125 C 278.484375 890.582031 297.546875 877.507812 303.839844 857.597656 C 305.675781 851.753906 305.578125 845.328125 303.707031 839.492188 C 303.273438 838.179688 299.476562 832.464844 299.789062 831.242188 C 300.078125 830.082031 305.824219 827.824219 306.734375 827.234375 C 312.871094 823.167969 318.359375 818.058594 323.058594 812.398438 C 336.554688 796.132812 345.675781 773.449219 344.828125 752.234375 C 343.503906 719.050781 323.371094 698.027344 309.929688 669.589844 C 297.492188 643.289062 294.175781 615.183594 286.390625 587.523438 C 281.882812 571.464844 273.941406 557.101562 272.304688 540.242188 C 270.679688 523.382812 271.058594 503.226562 278.730469 487.660156 C 286.835938 471.222656 298.519531 463.40625 303.285156 443.898438 C 311.300781 411.160156 318.394531 355.238281 359.128906 345.371094 C 374.496094 341.664062 378.992188 359.035156 390.851562 362.042969 C 391.867188 362.296875 397.921875 357.265625 398.78125 356.753906 C 405.917969 352.511719 413.824219 349.738281 421.910156 347.898438 C 451.394531 341.230469 490.914062 354.402344 506.402344 381.773438 C 522.316406 409.902344 507.539062 442.617188 521.125 469.332031 C 529.054688 484.921875 545.644531 494.652344 556.949219 507.527344 C 569.898438 522.257812 573.652344 544.4375 569.410156 563.371094 C 565.890625 579.105469 551.101562 580.371094 544.296875 592.398438 C 536.527344 606.140625 539.910156 627.488281 531.859375 642.832031 C 517.539062 670.179688 487.242188 692.238281 481.929688 723.886719 C 475.703125 761.023438 507.09375 790.039062 513.253906 824.347656 C 516.394531 841.886719 510.746094 858.769531 503.953125 874.726562 C 501.714844 879.980469 499.332031 885.179688 497.050781 890.414062 C 496.082031 892.640625 491.996094 897.988281 494.289062 897.171875 C 510.859375 891.316406 525.46875 864.136719 531.535156 849.515625 C 532.660156 846.808594 536.125 827.109375 538.050781 825.964844 C 540.390625 824.558594 539.910156 831.085938 540.613281 833.714844 C 542.949219 842.375 542.316406 851.363281 539.566406 859.871094 C 530.578125 887.742188 484.066406 905.703125 496.550781 937.984375 C 500 946.914062 502.898438 940.625 509.011719 933.296875 C 509.265625 932.996094 512.996094 928.117188 513.855469 928.664062 C 520.101562 932.671875 529.589844 950.8125 533.472656 957.335938 C 540.992188 969.941406 539.1875 983.207031 533.730469 996.222656 C 531.324219 1001.957031 525.78125 1013.105469 525.78125 1013.105469 C 525.78125 1013.105469 532.40625 1010.085938 535.578125 1008.328125 C 542.539062 1004.460938 547.894531 999.441406 552.515625 992.949219 C 554.84375 989.664062 556.980469 986.113281 558.226562 982.257812 C 558.839844 980.355469 558.71875 974.71875 559.742188 976.433594 C 577.515625 1006.289062 535.925781 1034.839844 542.59375 1062.867188 C 544.878906 1072.457031 552.226562 1081.453125 560.667969 1086.417969 C 561.890625 1087.132812 568.285156 1090.785156 569.855469 1089.414062 C 571.054688 1088.367188 565.53125 1081.441406 565.007812 1080.527344 C 561.480469 1074.390625 558.75 1067.242188 561.835938 1060.375 C 572.4375 1036.832031 610.0625 1033.492188 614.828125 1004.53125 C 619.496094 976.15625 590.210938 961.667969 584.5625 936.992188 C 576.199219 900.347656 611.066406 898.644531 630.574219 879.578125 C 634.804688 875.449219 638.113281 870.136719 638.847656 864.191406 C 639.160156 861.683594 636.175781 857.933594 638.335938 856.652344 C 639.148438 856.160156 645.363281 868.613281 645.609375 869.378906 C 649.25 880.527344 644.136719 892.320312 637.367188 901.125 C 634.652344 904.667969 631.566406 907.828125 628.269531 910.835938 C 626.589844 912.382812 620.964844 916.316406 622.925781 915.144531 C 637.433594 906.503906 650.796875 899.324219 653.835938 880.671875 C 654.773438 874.925781 649.804688 859.191406 652.691406 854.703125 C 652.992188 854.234375 659.683594 856.207031 660.195312 856.328125 C 668.023438 858.199219 675.851562 860.761719 683.847656 861.742188 C 699.660156 863.667969 711.429688 853.992188 726.71875 853.023438 C 741.484375 852.085938 752.417969 863.511719 757.976562 876.128906 C 759.710938 880.046875 761.136719 884.179688 762.09375 888.367188 C 762.628906 890.691406 762.460938 897.484375 763.597656 895.378906 C 776.058594 872.1875 763.644531 835.851562 740.167969 825.519531 C 729.691406 820.894531 709.28125 821.898438 704.144531 809.671875 C 695.09375 788.136719 722.640625 776.800781 713.222656 757.070312 C 702.722656 735.054688 683.9375 731.691406 687.164062 703.164062 C 687.53125 699.867188 688.757812 688.507812 692.164062 686.46875 C 695.515625 684.476562 694.214844 694.019531 694.78125 697.875 C 695.917969 705.511719 698.042969 713.117188 701.363281 720.097656 C 710.660156 739.664062 726.695312 746.957031 729.734375 769.839844 C 730.382812 774.671875 729.035156 804.550781 731.695312 796.441406 C 738.878906 774.539062 738.511719 743.128906 726.730469 722.75 C 719.445312 710.167969 707.1875 700.957031 702.121094 687.082031 C 695.882812 670.011719 697.765625 650.683594 693.96875 633.03125 C 691.019531 619.335938 683.492188 607.421875 677.121094 595.128906 C 667.089844 575.75 661.597656 558.28125 664.515625 536.308594 C 664.828125 533.949219 665.328125 521.445312 667.84375 519.941406 C 669.09375 519.207031 668.210938 522.824219 668.300781 524.285156 C 668.492188 527.269531 668.769531 530.207031 669.292969 533.160156 C 671.007812 542.8125 674.167969 552.289062 678.222656 561.210938 C 681.941406 569.414062 686.175781 577.566406 692.933594 583.714844 C 700.503906 590.617188 710.28125 593.902344 715.28125 603.46875 C 724.890625 621.851562 717.664062 642.851562 715.347656 662.027344 C 714.15625 671.792969 714.703125 682.796875 721.640625 690.46875 C 723.988281 693.085938 727.039062 695.054688 730.292969 696.335938 C 731.90625 696.960938 735.914062 699.910156 735.035156 698.429688 C 715.316406 665.3125 741.929688 631.285156 731.539062 597.523438 C 723.832031 572.476562 694.914062 562.378906 686.832031 536.464844 C 679.269531 512.179688 690.195312 485.921875 682.320312 460.199219 C 672.554688 428.265625 647.199219 405.515625 630.25 377.578125 C 586.1875 304.972656 553.152344 215.757812 460.714844 193.710938 C 450.472656 191.269531 437.878906 190.523438 428.722656 196.761719 C 427.441406 197.640625 416.152344 211.101562 416.007812 211.070312 C 414.167969 210.601562 408.3125 196.917969 405.59375 194.722656 C 396.710938 187.585938 381.933594 186.714844 371.074219 187.382812 C 333.058594 189.710938 292.636719 226.136719 264.8125 248.808594 C 180.726562 317.300781 124.214844 437.296875 118.726562 545.21875 C 116.84375 582.15625 115.910156 624.96875 134.371094 658.265625 " fill-opacity="1" fill-rule="nonzero"/></g></svg>