<svg xmlns="http://www.w3.org/2000/svg" xmlns:xlink="http://www.w3.org/1999/xlink" width="1080" zoomAndPan="magnify" viewBox="0 0 810 1012.49997" height="1350" preserveAspectRatio="xMidYMid meet" version="1.0"><defs><filter x="0%" y="0%" width="100%" height="100%" id="ea76c6bd84"><feColorMatrix values="0 0 0 0 1 0 0 0 0 1 0 0 0 0 1 0 0 0 1 0" color-interpolation-filters="sRGB"/></filter><clipPath id="aeeff4e645"><path d="M 372 157 L 720 157 L 720 973.648438 L 372 973.648438 Z M 372 157 " clip-rule="nonzero"/></clipPath><clipPath id="c134dd811e"><path d="M 371 185 L 685 185 L 685 973.648438 L 371 973.648438 Z M 371 185 " clip-rule="nonzero"/></clipPath><mask id="1589367ebe"><g filter="url(#ea76c6bd84)"><rect x="-81" width="972" fill="#000000" y="-101.249997" height="1214.999964" fill-opacity="0.495"/></g></mask><clipPath id="8b2790f0b1"><path d="M 1 0.1875 L 313.820312 0.1875 L 313.820312 788.199219 L 1 788.199219 Z M 1 0.1875 " clip-rule="nonzero"/></clipPath><clipPath id="94ef694739"><rect x="0" width="314" y="0" height="789"/></clipPath><mask id="7e42e8232d"><g filter="url(#ea76c6bd84)"><rect x="-81" width="972" fill="#000000" y="-101.249997" height="1214.999964" fill-opacity="0.502"/></g></mask><clipPath id="0c1a769f1f"><path d="M 0.105469 1 L 392 1 L 392 397 L 0.105469 397 Z M 0.105469 1 " clip-rule="nonzero"/></clipPath><clipPath id="1fe82f5eca"><rect x="0" width="394" y="0" height="399"/></clipPath></defs><g clip-path="url(#aeeff4e645)"><path fill="#000000" d="M 679.015625 574.09375 C 712.367188 603.335938 728.855469 654.089844 715.171875 696.820312 C 712.253906 707.144531 707.6875 716.78125 701.75 725.6875 C 698.210938 731.703125 694.019531 737.753906 688.164062 741.636719 C 688.441406 740.65625 688.75 739.679688 689.09375 738.734375 C 688.816406 739.042969 688.539062 739.335938 688.246094 739.628906 C 694.199219 725.472656 693.234375 709.050781 689.925781 694.257812 C 688.457031 686.902344 685.914062 679.890625 682.472656 673.351562 C 685.847656 689.171875 684.21875 706.246094 678.148438 721.21875 C 673.257812 734.640625 665.25 746.546875 660.128906 759.871094 C 659.851562 760.71875 659.574219 761.566406 659.296875 762.414062 C 658.890625 767.4375 658.53125 772.542969 657.617188 777.46875 C 657.683594 779.554688 657.765625 781.644531 657.863281 783.730469 C 658.121094 785.621094 658.398438 787.53125 658.628906 789.457031 C 659.589844 792.210938 660.847656 794.871094 662.445312 797.347656 C 668.105469 805.078125 676.210938 811.359375 685.390625 814.132812 C 686.972656 814.375 688.570312 814.667969 690.152344 814.863281 C 692.683594 814.425781 695.210938 814.066406 697.785156 814.03125 C 697.460938 814.328125 697.117188 814.605469 696.773438 814.863281 C 689.8125 822.578125 678.183594 826.542969 667.808594 824.113281 C 664.921875 823.492188 662.054688 822.515625 659.28125 821.257812 C 659.492188 821.683594 659.722656 822.105469 659.933594 822.515625 C 667.386719 837.46875 670.992188 854.367188 669.195312 871.035156 C 666.292969 892.707031 655.285156 913.386719 639.171875 928.050781 C 631.539062 934.589844 624.25 942.402344 614.640625 945.84375 C 616.894531 942.011719 619.746094 938.714844 622.847656 935.683594 C 625.78125 930.398438 628.585938 925.035156 631.34375 919.734375 C 634.980469 911.316406 637.082031 902.214844 637.28125 893.066406 C 637.296875 893.199219 637.296875 893.28125 637.296875 893.394531 C 637.296875 887.554688 636.414062 881.847656 634.636719 876.351562 C 634.652344 879.300781 634.554688 882.222656 634.457031 885.09375 C 633.363281 906.570312 622.046875 925.75 609.046875 942.273438 C 603.617188 950.003906 596.882812 956.851562 590.113281 963.328125 C 590 963.472656 589.851562 963.621094 589.707031 963.765625 C 589.722656 963.734375 589.738281 963.703125 589.738281 963.667969 C 588.464844 964.910156 587.175781 966.117188 585.871094 967.339844 C 587.929688 963.066406 590.375 959.003906 593.03125 955.089844 C 595.023438 950.183594 597.140625 945.289062 599.117188 940.347656 C 591.710938 951.960938 577.800781 964.992188 565.84375 969.835938 C 564.214844 970.992188 562.566406 972.085938 560.886719 973.046875 C 569.742188 962.25 577.652344 950.101562 582.285156 936.9375 C 589.085938 915.996094 585.496094 892.414062 573.949219 873.855469 C 571.929688 870.445312 569.695312 867.167969 567.3125 863.988281 C 562.0625 858.476562 557.183594 852.570312 553.011719 846.210938 C 552.667969 845.804688 552.308594 845.378906 551.980469 844.972656 C 551.964844 844.972656 551.964844 844.957031 551.949219 844.9375 C 549.585938 842.835938 547.515625 840.242188 545.832031 837.371094 C 546.585938 840.550781 547.546875 843.683594 548.753906 846.734375 C 558.765625 869.175781 577.457031 882.679688 571.960938 909.71875 C 570.332031 902.085938 568.925781 894.324219 565.84375 887.113281 C 563.707031 883.527344 561.3125 880.085938 558.847656 876.675781 C 556.53125 874.101562 554.183594 871.523438 552.179688 868.71875 C 547.21875 862 541.820312 855.574219 537.238281 848.574219 C 515.824219 814.148438 517.992188 781.136719 541.070312 748.714844 C 546.371094 737.917969 551.835938 727.203125 555.667969 715.785156 C 559.042969 705.789062 562.4375 695.578125 562.453125 684.945312 C 561.914062 668.914062 556.417969 653.617188 552.082031 638.300781 C 551.183594 635.300781 550.644531 632.21875 550.367188 629.101562 C 546.664062 614.785156 546.601562 597.921875 548.296875 581.074219 C 548.050781 581.53125 547.789062 581.96875 547.546875 582.410156 C 549.324219 571.207031 548.980469 559.917969 550.726562 548.765625 C 552.910156 529.4375 552.863281 510.0625 554.769531 490.734375 C 557.65625 467.152344 558.929688 443.03125 553.011719 419.792969 C 546.257812 393.582031 530.683594 370.945312 516.527344 348.257812 C 493.140625 312.3125 472.980469 295.109375 430.347656 285.777344 C 412.066406 281.523438 388.464844 279.125 380.066406 259.667969 C 379.789062 260.335938 379.171875 260.792969 378.5 260.972656 C 378.484375 263.027344 378.402344 265.066406 378.191406 267.121094 C 371.390625 256.355469 372.15625 242.738281 373.738281 230.589844 C 378.910156 195.964844 407.792969 166.886719 441.652344 159.300781 C 450.800781 157.082031 461.386719 156.367188 469.867188 160.785156 C 461.988281 160.085938 454.09375 161.46875 446.398438 163.363281 C 424.65625 172.640625 406.765625 191.707031 401.59375 215.011719 C 401.382812 216.039062 401.203125 217.070312 401.089844 218.113281 C 408.609375 207.054688 420.007812 198.703125 431.765625 192.472656 C 448.011719 182.933594 467.09375 179.085938 485.800781 181.367188 C 504.3125 183.601562 519.316406 190.257812 531.644531 199.992188 C 534.90625 202 538.070312 204.136719 541.21875 206.304688 C 566.007812 222.367188 582.203125 248.300781 591.957031 275.714844 C 599.980469 297.503906 604.890625 320.792969 607.433594 343.757812 C 609.128906 364.40625 610.027344 385.070312 612.667969 405.519531 C 615.230469 428.566406 620.1875 451.464844 628.457031 473.089844 C 632.191406 483.085938 636.96875 492.824219 644.734375 500.261719 C 652.121094 506.980469 660.078125 513.714844 669.585938 517.15625 C 675.328125 519.066406 681.347656 519.457031 687.105469 521.070312 C 688.605469 521.152344 690.089844 521.167969 691.589844 521.136719 C 697.980469 520.957031 704.832031 521.363281 710.949219 519.585938 L 710.949219 519.570312 C 710.929688 519.488281 710.589844 519.441406 710.652344 519.359375 C 711.421875 519.308594 711.144531 519.929688 710.703125 520.191406 C 705.355469 527.921875 696.855469 532.457031 688.261719 535.78125 C 677.710938 540.007812 666.308594 542.941406 654.910156 541.066406 C 651.875 540.609375 648.90625 539.890625 645.988281 538.945312 C 648.859375 543.039062 652.070312 546.921875 655.609375 550.363281 C 663.210938 558.5 671.007812 566.394531 679.015625 574.09375 Z M 679.015625 574.09375 " fill-opacity="1" fill-rule="nonzero"/></g><g clip-path="url(#c134dd811e)"><g mask="url(#1589367ebe)"><g transform="matrix(1, 0, 0, 1, 371, 185)"><g clip-path="url(#94ef694739)"><g clip-path="url(#8b2790f0b1)"><path fill="#1c1a1b" d="M 213.664062 432.003906 C 214.15625 432.605469 214.628906 433.207031 215.101562 433.796875 C 214.871094 432.996094 214.628906 432.199219 214.382812 431.398438 C 214.15625 430.796875 213.925781 430.160156 213.683594 429.507812 C 213.683594 430.339844 213.683594 431.171875 213.664062 432.003906 Z M 191.796875 685.722656 C 183.316406 676.265625 177.34375 664.40625 174.179688 652.242188 C 169.484375 630.890625 177.460938 608.613281 189.578125 591.097656 C 190.898438 589.386719 192.871094 586.140625 194.371094 585.683594 C 191.699219 592.140625 191.078125 599.253906 189.464844 606.019531 C 176.96875 666.347656 191.875 652.84375 210.878906 700.304688 C 209.980469 699.863281 209.097656 699.40625 208.21875 698.933594 C 206.71875 695.445312 204.941406 692.050781 202.933594 688.804688 C 200.914062 685.398438 198.679688 682.121094 196.296875 678.9375 C 191.046875 673.425781 186.167969 667.523438 181.992188 661.164062 C 181.652344 660.753906 181.292969 660.332031 180.964844 659.921875 C 180.949219 659.921875 180.949219 659.90625 180.933594 659.890625 C 178.570312 657.785156 176.496094 655.191406 174.816406 652.324219 C 175.566406 655.503906 176.53125 658.632812 177.738281 661.683594 C 181.765625 670.652344 187.148438 678.1875 191.796875 685.722656 Z M 1.972656 66.121094 C 1.925781 65.632812 1.875 65.144531 1.824219 64.652344 C 6.734375 60.316406 12.167969 56.859375 17.957031 54.117188 C 18.851562 42.082031 26.8125 26.261719 34.167969 18.808594 C 32.652344 22.414062 31.445312 26.164062 30.59375 30.03125 C 30.382812 31.058594 30.203125 32.085938 30.089844 33.128906 C 37.609375 22.070312 49.007812 13.722656 60.765625 7.492188 C 65.285156 4.832031 70.03125 2.613281 74.925781 0.851562 C 67.226562 9.496094 59.121094 17.832031 53.851562 28.253906 C 53.640625 28.691406 53.410156 29.132812 53.199219 29.558594 C 71.464844 15.074219 96.355469 9.074219 118.355469 18.921875 C 120.734375 19.917969 123.328125 20.996094 125.367188 22.429688 C 121.175781 21.972656 116.9375 22.039062 112.726562 22.136719 C 91.769531 23.132812 69.328125 28.789062 54.488281 44.171875 C 55.875 44.039062 57.261719 43.972656 58.695312 43.992188 C 58.859375 43.992188 59.007812 43.992188 59.167969 43.992188 C 69.851562 36.390625 82.230469 30.226562 95.390625 28.9375 C 120.621094 24.257812 146.878906 33.324219 165.242188 50.824219 C 167.722656 53.253906 170.347656 55.816406 171.472656 59.078125 C 169.140625 56.710938 165.976562 55.488281 163.027344 54.25 C 137.941406 44.464844 113.558594 35.347656 88.902344 42.164062 C 92.261719 42.164062 95.605469 42.507812 98.980469 43.222656 C 122.203125 48.835938 143.765625 61.945312 161.425781 77.816406 C 163.839844 80.375 166.207031 83.230469 168.523438 86.328125 C 175.4375 94.371094 182.011719 104.039062 187.539062 114.382812 C 200.878906 131.832031 216.175781 193.628906 216.519531 201.570312 C 221.296875 219.65625 223.550781 238.378906 226.519531 256.90625 C 235.179688 277.996094 242.792969 299.441406 253.167969 319.730469 C 253.722656 320.367188 254.292969 320.984375 254.847656 321.605469 C 262.121094 329.417969 267.484375 339.105469 276.179688 345.5 C 279.832031 348.839844 286.339844 352.21875 290.105469 354.730469 C 290.644531 355.007812 291.183594 355.285156 291.738281 355.578125 C 292.324219 355.9375 292.914062 356.277344 293.449219 356.605469 C 290.285156 356.75 287.105469 356.605469 283.941406 356.082031 C 280.910156 355.625 277.941406 354.910156 275.019531 353.960938 C 277.890625 358.054688 281.105469 361.9375 284.644531 365.378906 C 286.683594 367.5625 288.753906 369.734375 290.824219 371.886719 C 289.945312 371.65625 289.0625 371.414062 288.183594 371.136719 C 285.261719 371.152344 282.375 370.972656 279.457031 370.5 C 264.078125 369.585938 250.164062 361.433594 238.878906 349.691406 C 241.050781 363.601562 242.957031 377.546875 247.523438 390.789062 C 251.828125 401.160156 259.707031 409.285156 266.261719 418.222656 C 274.207031 428.839844 281.089844 440.1875 288.800781 450.984375 C 299.453125 463.496094 308.210938 478.90625 312.613281 495.117188 C 314.308594 508.933594 312.367188 523.316406 307.148438 536.167969 C 306.515625 537.898438 305.84375 539.609375 305.128906 541.304688 C 299.289062 528.894531 296.777344 515.046875 292.242188 502.34375 C 287.089844 490.84375 281.414062 479.347656 275.414062 468.109375 C 274.859375 467.425781 274.304688 466.742188 273.734375 466.054688 C 277.027344 486.851562 276.097656 508.378906 269.785156 528.308594 C 266.476562 537.015625 263.652344 546.019531 259.265625 554.253906 C 258.058594 556.441406 256.769531 558.542969 255.402344 560.617188 C 254.863281 561.855469 254.144531 562.996094 253.445312 564.171875 C 246.9375 574.429688 241.816406 585.683594 239.546875 597.671875 C 239.074219 601.925781 238.832031 606.214844 238.816406 610.503906 C 240.414062 621.105469 239.695312 631.9375 243.722656 642.0625 C 245.257812 646.074219 247.035156 650.167969 248.859375 654.34375 C 258.746094 667.113281 265.464844 682.542969 265.449219 698.558594 C 265.007812 696.113281 264.421875 693.683594 263.652344 691.316406 C 263.667969 694.269531 263.570312 697.1875 263.472656 700.058594 C 262.382812 721.539062 251.0625 740.71875 238.066406 757.238281 C 232.632812 764.96875 225.898438 771.820312 219.128906 778.292969 C 219.015625 778.441406 218.867188 778.589844 218.722656 778.734375 C 218.738281 778.703125 218.753906 778.667969 218.753906 778.636719 C 217.480469 779.875 216.195312 781.082031 214.890625 782.304688 C 216.945312 778.035156 219.390625 773.972656 222.050781 770.058594 C 224.039062 765.148438 226.160156 760.257812 228.132812 755.316406 C 220.726562 766.925781 206.816406 779.957031 194.863281 784.800781 C 193.230469 785.960938 191.582031 787.050781 189.902344 788.015625 C 190.570312 787.214844 191.207031 786.398438 191.875 785.585938 C 194.878906 784.328125 197.714844 782.714844 200.277344 780.527344 C 220.859375 762.964844 227.023438 742.105469 228.082031 719.171875 C 227.511719 717.003906 226.992188 714.820312 226.535156 712.617188 C 225.390625 706.8125 224.511719 700.941406 223.84375 695.035156 C 223.695312 694.449219 223.566406 693.84375 223.417969 693.257812 C 222.359375 691.464844 221.414062 689.574219 220.664062 687.535156 C 208.316406 661.015625 207.320312 631.007812 211.253906 602.449219 C 215.980469 577.167969 228.605469 553.832031 231.671875 528.273438 C 232.632812 507.496094 228.949219 487.304688 222.277344 467.703125 C 221.429688 464.667969 220.726562 461.585938 220.109375 458.488281 C 218.671875 456.660156 217.15625 454.800781 215.542969 452.84375 C 217.433594 463.316406 219.359375 473.769531 219.308594 484.484375 C 220.613281 512.519531 212.019531 541.796875 193.378906 563.128906 C 188.664062 568.722656 183.003906 573.320312 177.246094 577.804688 C 174.6875 581.019531 172.273438 584.214844 170.25 587.378906 C 159.0625 606.589844 155.832031 629.832031 159.730469 651.589844 C 145.640625 621.464844 149.734375 592.371094 170.105469 563.714844 C 175.40625 552.917969 180.867188 542.203125 184.699219 530.785156 C 188.078125 520.789062 191.46875 510.578125 191.484375 499.945312 C 190.949219 483.914062 185.449219 468.617188 181.113281 453.300781 C 180.214844 450.300781 179.675781 447.21875 179.402344 444.101562 C 175.699219 429.785156 175.632812 412.921875 177.328125 396.074219 C 177.085938 396.53125 176.824219 396.96875 176.578125 397.410156 C 178.355469 386.207031 178.015625 374.917969 179.757812 363.765625 C 181.847656 345.1875 181.894531 326.5625 183.59375 307.96875 C 184.636719 305.199219 186.378906 302.964844 189.429688 301.804688 C 189.660156 294.582031 185.828125 276.492188 198.546875 280.667969 C 197.730469 268.960938 196.328125 257.296875 194.863281 245.636719 C 195.105469 238.265625 189.265625 226.816406 196.996094 222.039062 C 194.601562 209.742188 191.582031 197.558594 187.785156 185.621094 C 186.789062 187.675781 185.664062 189.648438 184.40625 191.539062 C 182.089844 183.207031 181.863281 174.789062 181.667969 166.34375 C 179.675781 160.40625 177.132812 154.730469 172.648438 150.457031 C 172.09375 150 171.3125 149.851562 170.804688 149.511719 C 174.867188 149.296875 178.292969 151.582031 181.226562 154.339844 C 181.160156 153.375 181.0625 152.414062 180.984375 151.453125 C 180.804688 150.097656 180.625 148.726562 180.410156 147.375 C 179.90625 146.671875 179.382812 145.988281 178.863281 145.304688 C 161.167969 115.195312 133.914062 89.867188 101.539062 76.378906 C 86.242188 70.542969 70.226562 67.230469 53.984375 65.109375 C 51.210938 67.917969 48.421875 70.65625 45.355469 73.085938 C 45.632812 70.148438 46.105469 67.164062 46.824219 64.246094 C 45.242188 64.066406 43.644531 63.902344 42.042969 63.742188 C 41.066406 64.101562 40.105469 64.441406 39.125 64.800781 C 35.4375 69.398438 31.476562 73.722656 27.023438 77.554688 C 27.203125 74.390625 27.628906 71.257812 28.296875 68.210938 C 25.492188 68.878906 22.585938 69.351562 19.539062 69.496094 C 17.109375 69.875 14.449219 70.085938 11.53125 70.117188 C 11.839844 69.808594 12.183594 69.515625 12.492188 69.203125 C 10.617188 68.960938 8.691406 68.585938 6.652344 68.046875 C 8.074219 67.261719 9.476562 66.480469 10.894531 65.699219 C 7.910156 66.039062 4.972656 66.1875 1.972656 66.121094 Z M 1.972656 66.121094 " fill-opacity="1" fill-rule="evenodd"/></g></g></g></g></g><path fill="#1c1a1b" d="M 551.019531 546.105469 C 551.542969 544.457031 552.082031 542.828125 552.601562 541.179688 C 556.027344 529.960938 559.320312 518.65625 561.230469 507.0625 C 563.496094 499.167969 561.441406 486.707031 570.132812 482.710938 C 571.144531 473.855469 572.351562 464.917969 574.683594 456.308594 C 574.523438 453.519531 574.359375 450.746094 574.195312 447.972656 C 573.625 437.863281 572.726562 427.765625 572.074219 417.671875 C 568.75 410.445312 565.828125 403.042969 564.71875 395.132812 C 566.53125 396.421875 568.257812 397.757812 569.90625 399.175781 C 563.984375 379.703125 555.683594 360.933594 545.441406 343.382812 C 540.222656 334.738281 536.472656 325.230469 532.117188 316.082031 C 524.828125 308.515625 516.851562 301.597656 508.273438 295.484375 C 502.078125 290.769531 495.992188 285.601562 490.675781 280.039062 C 496.839844 280.203125 503.316406 281.179688 509.074219 283.496094 C 538.265625 298.648438 559.320312 327.042969 574.472656 355.632812 C 582.839844 370.683594 587.453125 387.367188 589.835938 404.347656 C 591.191406 408.71875 592.414062 413.121094 593.539062 417.558594 C 596.765625 431.4375 597.8125 445.707031 598.285156 459.992188 C 600.242188 473.691406 600.78125 487.671875 601.15625 500.585938 C 602.964844 522.898438 595.496094 544.621094 595.121094 566.800781 C 595.691406 581.054688 595.363281 595.375 597.941406 609.484375 C 598.722656 618.699219 599.359375 627.734375 599.605469 636.734375 C 600.550781 641.367188 601.382812 646.015625 601.808594 650.679688 C 604.695312 664.722656 607.007812 678.863281 607.027344 693.261719 C 607.007812 693.363281 607.058594 695.757812 606.324219 695.335938 C 606.308594 695.320312 606.324219 695.300781 606.339844 695.300781 C 606.375 695.320312 606.390625 695.300781 606.4375 695.300781 C 606.453125 695.285156 606.472656 695.269531 606.488281 695.253906 C 596.164062 672.0625 587.324219 647.941406 584.273438 622.53125 C 582.464844 612.058594 581.355469 601.394531 579.722656 591.152344 C 579.234375 587.105469 578.828125 583.0625 578.5 579.019531 C 576.203125 596.140625 573.542969 613.234375 572.957031 630.507812 C 572.679688 655.574219 580.277344 681.765625 570.410156 705.804688 C 565.503906 717.808594 557.625 728.328125 550.546875 739.109375 C 546.910156 745.257812 542.277344 751.078125 536.621094 755.386719 C 538.003906 753.167969 539.488281 750.933594 541.070312 748.714844 C 546.371094 737.917969 551.835938 727.203125 555.667969 715.785156 C 559.042969 705.789062 562.4375 695.578125 562.453125 684.945312 C 561.914062 668.914062 556.417969 653.617188 552.082031 638.300781 C 551.183594 635.300781 550.644531 632.21875 550.367188 629.101562 C 546.664062 614.785156 546.601562 597.921875 548.296875 581.074219 C 548.050781 581.53125 547.789062 581.96875 547.546875 582.410156 C 549.324219 571.207031 548.980469 559.917969 550.726562 548.765625 C 550.824219 547.882812 550.9375 546.988281 551.019531 546.105469 Z M 551.019531 546.105469 " fill-opacity="1" fill-rule="evenodd"/><path fill="#1c1a1b" d="M 592.121094 300.554688 C 576.21875 279.273438 564.230469 255.101562 552.40625 231.484375 C 574.503906 246.71875 601.824219 270.710938 592.136719 300.554688 C 592.136719 300.554688 592.121094 300.554688 592.121094 300.554688 Z M 617.546875 835.820312 C 595.707031 817.929688 603.648438 786.488281 619.257812 767.175781 C 616.0625 789.8125 620.886719 813.25 617.546875 835.820312 Z M 643.949219 834.761719 C 598.824219 813.316406 634.832031 766.230469 646.101562 734.542969 C 651.09375 770.488281 628.210938 798.667969 643.949219 834.761719 Z M 702.449219 668.929688 C 695.175781 655.539062 689.566406 641.433594 684.265625 627.179688 C 676.503906 612.632812 667.925781 597.578125 656.558594 585.640625 C 688.898438 596.828125 716.183594 634.402344 702.449219 668.929688 Z M 690.1875 662.976562 C 669.015625 647.648438 659.851562 622.855469 647.488281 600.9375 C 647.472656 600.9375 647.472656 600.9375 647.472656 600.9375 C 647.40625 601.003906 647.519531 601.183594 647.441406 601.183594 C 647.03125 600.757812 647.488281 600.414062 648.027344 600.675781 C 652.871094 603.171875 657.0625 606.921875 661.382812 610.25 C 677.21875 623.199219 692.144531 641.351562 690.1875 662.976562 Z M 487.578125 448.414062 C 486.371094 447.222656 485.195312 446 484.054688 444.777344 L 484.039062 444.777344 C 484.023438 444.746094 484.003906 444.726562 483.972656 444.695312 C 471.234375 431.402344 459.6875 416.90625 448.828125 402.03125 C 440.085938 389.976562 432.144531 377.027344 426.433594 363.214844 C 430.300781 374.09375 435.128906 384.644531 440.460938 394.773438 C 448.632812 409.84375 458.660156 423.933594 471.464844 435.382812 C 476.617188 440.015625 482.046875 444.273438 487.578125 448.414062 Z M 579.007812 444.273438 C 583.523438 461.984375 586.445312 480.820312 581.484375 498.597656 C 578.238281 511.300781 572.742188 523.222656 568.308594 535.519531 C 564.050781 546.96875 558.457031 558.011719 551.882812 568.222656 C 551.394531 574.417969 550.839844 580.632812 549.8125 586.730469 C 549.796875 586.960938 549.78125 587.171875 549.746094 587.402344 C 546.878906 612.140625 537.515625 633 522.414062 652.671875 C 514.652344 662.78125 506.007812 672.714844 495.015625 679.402344 C 491.101562 681.78125 486.746094 683.152344 482.359375 684.359375 C 482.34375 684.359375 482.34375 684.359375 482.34375 684.375 C 479.636719 685.582031 476.863281 686.414062 473.992188 686.789062 C 484.414062 681.046875 491.980469 671.457031 499.335938 662.339844 C 509.449219 649.390625 514.945312 633.882812 520.570312 618.683594 C 520.585938 618.664062 520.585938 618.648438 520.605469 618.632812 C 520.878906 617.621094 521.140625 616.625 521.402344 615.617188 C 529.425781 583.941406 527.699219 550.769531 525.5625 518.527344 C 525.398438 516.441406 525.25 514.484375 525.105469 512.671875 C 524.355469 501.078125 522.839844 489.5625 521.484375 478.03125 C 518.890625 476.449219 516.429688 474.621094 514.113281 472.617188 C 508.632812 469.242188 503.59375 465 498.277344 461.363281 C 485.246094 452.035156 472.164062 442.609375 461.042969 431.027344 C 441.472656 410.789062 421.214844 371.320312 417.023438 343.480469 C 416.976562 342.648438 416.910156 341.800781 416.84375 340.953125 C 404.921875 359.351562 389.085938 375.121094 373.152344 390.109375 C 351.511719 411.097656 328.042969 430.410156 307.882812 452.867188 C 296.726562 465.328125 288.117188 479.644531 279.554688 493.949219 C 272.542969 518.332031 267.828125 543.351562 265.984375 568.695312 L 265.984375 568.546875 C 265.886719 572.804688 265.738281 576.980469 265.640625 581.007812 C 265.527344 597.414062 267.535156 613.820312 269.605469 630.082031 C 269.996094 631.46875 270.371094 632.855469 270.828125 634.207031 C 273.257812 641.972656 277.367188 649.132812 281.953125 655.835938 C 286.402344 659.929688 290.59375 664.199219 295.976562 666.988281 L 295.976562 666.972656 C 296.058594 667.007812 296.238281 666.957031 296.207031 667.023438 C 295.554688 667.28125 294.769531 667.023438 294.117188 666.890625 C 274.921875 660.792969 260.390625 643.683594 253.996094 624.976562 C 250.261719 613.59375 248.84375 601.621094 247.816406 589.714844 C 247.390625 603.335938 247.847656 616.984375 249.480469 630.570312 C 251.40625 642.003906 253.378906 653.484375 256.394531 664.671875 C 257.910156 669.695312 260.210938 674.539062 261.875 679.546875 C 261.777344 679.464844 261.679688 679.382812 261.597656 679.304688 C 260.359375 678.195312 259.152344 677.019531 257.945312 675.878906 C 257.4375 675.390625 256.949219 674.882812 256.460938 674.378906 C 255.90625 673.808594 255.351562 673.234375 254.765625 672.664062 C 254.746094 672.632812 254.730469 672.617188 254.714844 672.601562 C 254.488281 672.355469 254.242188 672.09375 254.015625 671.851562 C 253.769531 671.589844 253.523438 671.328125 253.261719 671.066406 C 252.90625 670.660156 252.511719 670.269531 252.121094 669.859375 C 251.40625 669.09375 250.671875 668.328125 249.953125 667.558594 C 246.429688 663.289062 243.558594 658.410156 240.753906 653.8125 C 229.792969 636.671875 224.722656 616.660156 222.144531 596.695312 C 220.125 583.289062 219.160156 569.769531 219.128906 556.25 C 217.074219 552.222656 215.507812 547.898438 214.351562 543.578125 C 211.21875 536.058594 209.457031 527.871094 206.601562 520.273438 C 202.542969 508.742188 199.492188 496.902344 197.339844 484.847656 C 195.59375 475.257812 194.078125 465.410156 194.191406 455.621094 C 194.027344 454.285156 193.882812 452.949219 193.703125 451.628906 C 189.96875 424.242188 193.472656 399.011719 207.320312 375.429688 C 208.640625 366.707031 211.152344 358.273438 214.367188 351.976562 C 218.605469 343.789062 227.789062 333.191406 237.3125 328.25 C 238.144531 323.503906 240.640625 319.113281 242.921875 314.890625 C 249.59375 300.996094 262.023438 291.683594 274.140625 282.777344 C 302.109375 261.070312 337.042969 248.691406 372.191406 245.855469 C 376.105469 245.625 380.132812 245.460938 384.097656 245.609375 C 387.015625 245.445312 389.871094 245.414062 392.59375 245.480469 C 409.734375 245.167969 426.582031 248.367188 443.167969 252.394531 C 465.003906 257.140625 486.714844 264.9375 504.539062 278.734375 C 507.703125 281.230469 511.015625 283.660156 514.128906 286.300781 C 519.496094 290.148438 524.4375 294.585938 528.644531 299.757812 C 534.679688 307.878906 540.058594 317.335938 542.867188 327.335938 C 543.746094 328.445312 544.59375 329.632812 545.425781 330.859375 C 546.550781 331.835938 547.644531 332.894531 548.6875 333.921875 C 554.378906 340.054688 559.027344 347.199219 562.828125 354.621094 C 565.226562 359.496094 568.210938 364.324219 568.828125 369.820312 C 569.105469 372.183594 569.042969 374.566406 568.667969 376.898438 C 569.613281 378.546875 570.460938 380.308594 571.261719 382.019531 C 576.316406 395.964844 579.953125 411.015625 581.027344 425.792969 C 581.402344 432.054688 580.441406 438.222656 579.007812 444.273438 Z M 534.726562 248.054688 C 539.359375 245.285156 546.699219 250.273438 551.152344 252.6875 C 573.753906 266.777344 587.273438 295.628906 580.457031 321.773438 C 561.539062 299.953125 560.136719 263.5 534.726562 248.054688 Z M 534.726562 248.054688 C 534.644531 248.121094 534.53125 248.171875 534.449219 248.234375 C 534.449219 248.234375 534.449219 248.21875 534.449219 248.21875 C 534.484375 248.1875 534.5 248.152344 534.53125 248.136719 C 534.582031 248.105469 534.628906 248.074219 534.710938 248.039062 C 534.710938 248.039062 534.726562 248.054688 534.726562 248.054688 Z M 534.726562 248.054688 " fill-opacity="1" fill-rule="evenodd"/><path fill="#000000" d="M 559.925781 511.171875 C 560.1875 510.667969 560.414062 510.175781 560.59375 509.703125 C 560.347656 509.769531 560.105469 509.816406 559.859375 509.867188 C 559.875 510.308594 559.910156 510.746094 559.925781 511.171875 Z M 249.203125 666.664062 C 249.136719 666.355469 249.054688 666.042969 248.972656 665.734375 C 244.097656 655.867188 242.207031 644.058594 240.378906 633.457031 C 236.15625 605.699219 237.507812 576.847656 247.292969 550.378906 C 247.980469 548.714844 248.648438 545.894531 249.480469 544.996094 C 249.414062 551.78125 249.625 558.613281 249.152344 565.417969 C 248.746094 573.878906 247.867188 582.3125 247.214844 590.761719 C 247.214844 590.792969 247.230469 590.824219 247.230469 590.859375 C 247.410156 591.496094 247.554688 592.128906 247.71875 592.78125 C 247.441406 605.390625 247.945312 617.996094 249.449219 630.570312 C 251.371094 642.003906 253.34375 653.484375 256.363281 664.671875 C 257.878906 669.695312 260.179688 674.539062 261.84375 679.546875 C 261.746094 679.464844 261.648438 679.382812 261.566406 679.304688 C 260.324219 678.195312 259.117188 677.019531 257.910156 675.878906 C 257.40625 675.390625 256.917969 674.882812 256.425781 674.378906 C 255.875 673.808594 255.320312 673.234375 254.730469 672.664062 C 254.714844 672.632812 254.699219 672.617188 254.683594 672.601562 C 254.453125 672.355469 254.210938 672.09375 253.980469 671.851562 C 253.738281 671.589844 253.492188 671.328125 253.230469 671.066406 C 252.871094 670.660156 252.480469 670.269531 252.089844 669.859375 C 251.371094 669.09375 250.636719 668.328125 249.921875 667.558594 C 249.691406 667.265625 249.449219 666.957031 249.203125 666.664062 Z M 248.320312 595.390625 C 249.921875 602.632812 250.996094 610.003906 251.8125 617.410156 C 250.066406 610.199219 249.054688 602.796875 248.320312 595.390625 Z M 412.441406 347.394531 C 413.550781 336.417969 413.320312 325.28125 415.6875 314.433594 C 415.605469 312.964844 416.242188 311.695312 416.976562 312.851562 C 418.28125 322.851562 418.753906 334.96875 417.644531 346.988281 C 417.414062 345.796875 417.203125 344.621094 417.039062 343.464844 C 416.992188 342.632812 416.925781 341.785156 416.859375 340.9375 C 415.425781 343.121094 413.957031 345.273438 412.441406 347.394531 Z M 514.226562 472.714844 C 514.113281 471.261719 513.964844 469.796875 513.785156 468.359375 C 513.820312 468.589844 513.835938 468.636719 513.882812 468.929688 C 511.894531 449.71875 504.765625 431.695312 496.480469 414.410156 C 491.523438 404.167969 487.054688 393.125 482.832031 382.738281 C 480.957031 378.90625 479.585938 374.550781 476.601562 371.46875 C 476.585938 371.46875 476.570312 371.46875 476.570312 371.46875 C 476.570312 371.46875 476.550781 371.46875 476.550781 371.46875 C 476.535156 371.777344 476.453125 371.613281 476.453125 371.449219 C 476.453125 371.351562 476.503906 371.238281 476.632812 371.289062 C 481.265625 373.179688 484.445312 377.632812 487.59375 381.335938 C 494.6875 390.371094 499.546875 400.792969 504.195312 411.214844 C 506.644531 416.300781 508.992188 421.488281 511.144531 426.773438 C 511.453125 427.765625 511.78125 428.761719 512.105469 429.773438 C 512.53125 431.421875 513.019531 433.050781 513.492188 434.683594 C 513.882812 435.90625 514.257812 437.144531 514.632812 438.351562 C 514.796875 438.855469 514.960938 439.378906 515.125 439.882812 C 515.1875 440.097656 515.238281 440.339844 515.320312 440.554688 C 515.320312 440.554688 515.320312 440.570312 515.335938 440.570312 C 515.335938 440.585938 515.335938 440.601562 515.351562 440.617188 C 515.367188 440.683594 515.382812 440.75 515.402344 440.832031 C 515.382812 440.796875 515.382812 440.78125 515.367188 440.75 C 515.53125 441.269531 515.679688 441.792969 515.824219 442.332031 L 516.410156 444.890625 C 516.984375 447.402344 517.40625 449.945312 517.894531 452.476562 C 518.890625 457.433594 519.675781 462.421875 520.488281 467.414062 C 520.667969 468.507812 520.832031 469.582031 521.011719 470.675781 C 521.125 473.121094 521.257812 475.570312 521.371094 478.015625 C 518.859375 476.433594 516.476562 474.671875 514.226562 472.714844 Z M 551.199219 575.984375 C 551.394531 569.984375 552.375 563.933594 553.1875 557.898438 C 552.976562 548.765625 552.734375 539.648438 552.488281 530.515625 C 552.128906 515.214844 551.003906 499.96875 548.964844 484.800781 C 547.414062 474.476562 545.636719 464.167969 545.246094 453.699219 C 544.984375 447.46875 544.773438 440.976562 545.246094 434.828125 C 546.714844 439.019531 548.199219 443.195312 549.503906 447.433594 C 551.640625 454.382812 553.367188 461.429688 554.753906 468.523438 C 565.730469 461.460938 573.984375 450.257812 579.039062 438.222656 C 579.757812 436.441406 580.359375 434.617188 580.929688 432.757812 C 580.621094 436.621094 579.902344 440.457031 579.007812 444.253906 C 579.722656 447.042969 580.394531 449.847656 580.996094 452.6875 C 574.976562 461.625 565.683594 468.441406 555.144531 470.546875 C 557.445312 482.761719 558.832031 495.140625 559.695312 507.582031 C 565.84375 503.667969 569.515625 492.238281 572.449219 486.773438 C 576.773438 477.867188 580.066406 468.785156 582.269531 459.292969 C 584.535156 472.40625 585.058594 485.777344 581.484375 498.597656 C 578.238281 511.300781 572.742188 523.222656 568.308594 535.519531 C 564.050781 546.96875 558.457031 558.011719 551.882812 568.222656 C 551.671875 570.8125 551.460938 573.40625 551.199219 575.984375 Z M 574.636719 392.328125 C 572.386719 410.527344 564.800781 419.90625 548.671875 430.75 C 552.652344 423.476562 558.359375 417.199219 561.507812 409.484375 C 567.003906 395.472656 567.769531 380.550781 567.851562 365.597656 C 568.292969 366.964844 568.617188 368.386719 568.796875 369.835938 C 569.074219 372.203125 569.007812 374.582031 568.632812 376.914062 C 569.578125 378.5625 570.429688 380.324219 571.226562 382.035156 C 572.449219 385.394531 573.59375 388.835938 574.636719 392.328125 Z M 545.589844 331.035156 C 545.753906 348.046875 540.730469 367.960938 531.53125 377.796875 C 532.460938 366.949219 537.53125 357.082031 539.246094 346.382812 C 540.371094 339.8125 540.679688 333.15625 541.285156 326.535156 C 541.347656 325.460938 541.445312 324.382812 541.527344 323.324219 C 542 324.644531 542.425781 325.980469 542.800781 327.335938 C 543.679688 328.445312 544.527344 329.632812 545.359375 330.859375 C 545.441406 330.90625 545.523438 330.972656 545.589844 331.035156 Z M 239.726562 320.972656 C 240.332031 324.105469 241.144531 327.1875 241.894531 330.285156 C 244.050781 338.898438 246.039062 347.851562 251.796875 354.898438 C 257.78125 362.660156 266.667969 368.074219 271.433594 376.734375 C 260.539062 372.414062 251.648438 363.820312 245.175781 354.210938 C 241.015625 347.804688 239.125 340.316406 237.542969 332.929688 C 237.265625 331.445312 237.019531 329.960938 236.855469 328.460938 C 237.003906 328.378906 237.132812 328.3125 237.28125 328.230469 C 237.722656 325.71875 238.617188 323.304688 239.726562 320.972656 Z M 225.960938 336.679688 C 225.800781 341.507812 226.351562 346.398438 226.191406 351.226562 C 226.351562 360.378906 226.5 369.722656 228.75 378.628906 C 231.375 388.460938 238.339844 396.796875 240.070312 406.859375 C 223.417969 392.113281 219.273438 367.683594 222.261719 346.53125 C 222.699219 343.96875 223.171875 341.394531 223.824219 338.867188 C 224.527344 338.132812 225.246094 337.398438 225.960938 336.679688 Z M 218.492188 554.996094 C 216.730469 551.324219 215.359375 547.445312 214.316406 543.5625 C 211.1875 536.042969 209.425781 527.855469 206.570312 520.257812 C 202.507812 508.726562 199.460938 496.886719 197.308594 484.832031 C 195.5625 475.242188 194.046875 465.390625 194.160156 455.605469 C 193.996094 454.269531 193.847656 452.933594 193.667969 451.609375 C 191.222656 433.734375 191.875 416.757812 196.476562 400.578125 C 196.605469 400.757812 196.6875 400.988281 196.671875 401.214844 C 196.703125 403.253906 197.03125 405.292969 197.191406 407.332031 C 198.496094 417.980469 198.546875 428.792969 199.328125 439.507812 C 201.335938 447.925781 203.277344 456.78125 205.574219 464.691406 C 208.085938 473.824219 211.105469 482.972656 214.511719 491.765625 C 215.785156 494.40625 217.238281 497.0625 218.394531 499.804688 C 219.097656 497.128906 219.796875 494.472656 220.515625 491.8125 C 222.667969 481.128906 224.378906 470.253906 227.871094 460.027344 C 223.386719 455.835938 220.335938 450.046875 217.53125 444.679688 C 207.273438 427.554688 200.960938 407.722656 201.042969 387.761719 C 202.003906 385.527344 203.03125 383.308594 204.171875 381.105469 C 204.335938 381.710938 204.5 382.296875 204.679688 382.882812 C 209.308594 397.773438 211.722656 413.21875 217.90625 427.570312 C 221.152344 434.878906 225.945312 441.433594 228.472656 449.082031 C 229.011719 450.859375 229.5 452.671875 229.992188 454.480469 C 231.410156 451.171875 233.054688 447.941406 235.046875 444.824219 C 235.257812 444.515625 235.46875 444.207031 235.714844 443.878906 C 236.855469 441.351562 238.078125 438.875 239.402344 436.460938 C 242.140625 431.582031 244.78125 426.460938 248.679688 422.402344 C 249.039062 422.15625 249.007812 422.042969 249.347656 422.125 C 249.546875 422.207031 249.398438 422.515625 249.382812 422.679688 C 249.285156 422.695312 249.316406 422.449219 249.285156 422.367188 C 249.269531 422.367188 249.269531 422.367188 249.269531 422.367188 C 245.664062 431.714844 244.390625 441.890625 241.242188 451.414062 C 236.890625 464.316406 233.089844 477.394531 229.550781 490.539062 C 228.066406 496.964844 226.566406 503.410156 225.066406 509.835938 C 223.972656 523.175781 221.363281 536.371094 219.144531 549.597656 C 218.898438 551.375 218.6875 553.183594 218.492188 554.996094 Z M 218.492188 554.996094 " fill-opacity="1" fill-rule="evenodd"/><g mask="url(#7e42e8232d)"><g transform="matrix(1, 0, 0, 1, 192, 281)"><g clip-path="url(#1fe82f5eca)"><g clip-path="url(#0c1a769f1f)"><path fill="#000000" d="M 122.097656 142.332031 L 122.082031 142.347656 C 122.097656 142.347656 122.097656 142.347656 122.097656 142.347656 Z M 133.332031 152.148438 C 132.910156 152.574219 132.503906 152.996094 132.09375 153.421875 C 132.175781 153.4375 132.273438 153.453125 132.355469 153.46875 C 132.699219 153.03125 133.007812 152.589844 133.332031 152.148438 Z M 122.0625 147.433594 C 122.046875 147.320312 122.046875 147.207031 122.03125 147.09375 C 122 147.273438 121.949219 147.453125 121.917969 147.613281 C 121.949219 147.535156 122 147.484375 122.0625 147.433594 Z M 294.304688 152.3125 C 294.761719 152.832031 295.152344 153.257812 295.511719 153.582031 C 295.300781 153.191406 295.054688 152.785156 294.8125 152.34375 C 294.632812 152.34375 294.453125 152.328125 294.304688 152.3125 Z M 360.277344 255.386719 C 360.257812 257.765625 360.257812 260.164062 360.113281 262.546875 C 359.949219 265.578125 359.804688 268.613281 359.640625 271.644531 C 361.109375 264.484375 360.40625 257.179688 360.359375 249.921875 C 360.359375 251.734375 360.292969 253.558594 360.277344 255.386719 Z M 360.128906 238.734375 C 360.179688 240.578125 360.226562 242.421875 360.257812 244.261719 C 360.375 242.484375 360.242188 240.609375 360.128906 238.734375 Z M 359.035156 183.578125 C 357.878906 201.011719 359.445312 218.460938 360.046875 235.914062 C 360.046875 234.117188 360.226562 232.375 360.796875 230.773438 C 360.832031 230.726562 360.863281 230.675781 360.910156 230.628906 C 360.324219 227.007812 361.742188 222.734375 361.644531 219.179688 C 362.167969 212.117188 362.625 205.007812 362.460938 197.929688 C 361.042969 193.214844 359.964844 188.421875 359.035156 183.578125 Z M 356.460938 115.503906 C 355.773438 116.15625 355.058594 116.824219 354.324219 117.441406 C 354.535156 117.933594 354.730469 118.4375 354.925781 118.925781 C 355.480469 117.800781 355.988281 116.660156 356.460938 115.503906 Z M 357.585938 125.761719 C 357.765625 125.140625 357.878906 124.539062 357.945312 123.984375 C 357.796875 124.128906 357.519531 124.390625 357.175781 124.699219 C 357.308594 125.058594 357.453125 125.402344 357.585938 125.761719 Z M 375.117188 180.265625 C 374.839844 182.109375 374.546875 183.933594 374.238281 185.761719 C 374.1875 186.121094 374.140625 186.496094 374.089844 186.855469 C 375.933594 180.214844 378.214844 173.644531 379.488281 166.859375 C 378.152344 171.378906 375.738281 175.585938 375.117188 180.265625 Z M 32.003906 150.796875 C 31.921875 150.648438 31.824219 150.484375 31.742188 150.339844 C 31.742188 150.648438 31.726562 150.941406 31.726562 151.25 C 31.824219 151.089844 31.90625 150.941406 32.003906 150.796875 Z M 56.175781 335.59375 C 46.570312 312.632812 52.554688 279.554688 56.910156 256.820312 C 56.875 256.96875 56.859375 257.113281 56.828125 257.277344 C 59.09375 246.398438 61.621094 235.570312 64.492188 224.824219 C 66.207031 215.234375 68.652344 205.855469 72.761719 197.046875 C 73.984375 193.394531 75.242188 189.757812 76.527344 186.136719 C 77.753906 182.777344 79.1875 179.417969 80.460938 176.089844 C 80.523438 175.632812 80.621094 175.175781 80.785156 174.769531 C 81.113281 174.035156 82.105469 174.265625 82.238281 174.996094 C 82.058594 186.804688 77.507812 198.074219 74.214844 209.28125 C 72.710938 214.089844 71.308594 218.933594 69.988281 223.792969 C 68.046875 234.363281 66.5 244.996094 65.488281 255.726562 C 65.488281 255.710938 65.488281 255.710938 65.488281 255.710938 C 65.488281 255.761719 65.472656 255.792969 65.472656 255.84375 C 65.472656 255.890625 65.472656 255.941406 65.457031 255.988281 C 62.175781 290.402344 63.792969 325.402344 72.828125 358.851562 C 73.527344 360.988281 74.164062 363.15625 74.667969 365.324219 C 74.898438 366.074219 75.144531 366.828125 75.386719 367.578125 C 69.449219 360.628906 64.882812 352.457031 61.980469 343.976562 C 58.246094 332.59375 56.828125 320.621094 55.800781 308.714844 C 55.507812 317.671875 55.621094 326.640625 56.175781 335.59375 Z M 151.941406 93.566406 L 151.957031 93.550781 Z M 151.941406 93.566406 C 146.59375 104.214844 139.710938 114.035156 133.105469 123.964844 C 130.1875 130.050781 127.738281 136.640625 127.152344 142.167969 C 145.710938 123.625 169.441406 105.375 175.3125 99.566406 C 190.90625 85.054688 202.957031 67.277344 216.851562 51.195312 C 216.851562 51.195312 216.871094 51.179688 216.871094 51.164062 C 217.308594 50.511719 217.75 49.859375 218.15625 49.1875 C 219.820312 44.425781 221.304688 39.582031 222.578125 34.65625 C 222.871094 35.960938 223.117188 37.285156 223.3125 38.589844 C 223.914062 37.871094 224.550781 37.691406 225.1875 38.472656 C 224.976562 38.589844 224.699219 38.164062 224.421875 38.210938 C 224.4375 40.773438 224.304688 43.285156 223.980469 45.78125 C 224.207031 51.878906 223.539062 57.914062 222.21875 63.851562 C 210.65625 80.585938 195.960938 95.179688 181.152344 109.09375 C 162.234375 127.425781 141.945312 144.484375 123.664062 163.46875 C 123.597656 163.273438 123.5 163.074219 123.417969 162.878906 C 121.902344 164.609375 120.402344 166.355469 118.898438 168.082031 C 118.769531 168.359375 118.65625 168.636719 118.542969 168.929688 C 117.644531 169.894531 116.765625 170.871094 115.882812 171.851562 C 109.980469 178.4375 104.792969 185.535156 99.964844 192.871094 C 100.453125 190.574219 101.023438 188.273438 101.675781 186.007812 C 100.632812 188.402344 99.589844 190.785156 98.53125 193.183594 C 97.828125 194.894531 97.144531 196.609375 96.457031 198.335938 C 93.425781 203.164062 90.488281 208.054688 87.554688 212.949219 C 84.617188 223.191406 82.074219 233.53125 79.96875 243.96875 C 79.449219 222.847656 91.257812 197.636719 98.074219 181.277344 C 112.164062 150.257812 126.320312 116.21875 151.941406 93.566406 Z M 290.585938 162.261719 C 290.359375 161.933594 290.113281 161.609375 289.886719 161.28125 C 286.574219 157.007812 283.363281 152.621094 280.410156 148.085938 C 278.992188 145.332031 276.773438 142.886719 273.96875 141.582031 C 274.113281 142.117188 274.472656 142.738281 274.507812 143.210938 C 273.96875 142.429688 272.222656 141.058594 274 140.652344 C 269.808594 136.964844 266.171875 132.707031 263.511719 127.832031 C 263.496094 127.878906 263.464844 127.816406 263.464844 127.78125 C 263.464844 127.78125 263.464844 127.765625 263.464844 127.765625 C 263.433594 127.683594 263.351562 127.472656 263.53125 127.554688 C 265.128906 129.152344 266.90625 130.570312 268.714844 131.894531 C 266.839844 129.773438 265.113281 127.539062 263.53125 125.222656 C 263.335938 123.6875 265.40625 125.582031 265.828125 125.921875 C 275.238281 132.691406 284.878906 140.765625 296.507812 143 C 298.105469 141.839844 298.203125 139.507812 298.480469 137.699219 C 298.757812 133.898438 298.351562 130.132812 297.878906 126.378906 C 295.722656 118.113281 292.675781 109.828125 292.21875 106.808594 C 291.664062 103.90625 291.207031 100.792969 291.191406 97.9375 C 291.273438 98.050781 291.371094 98.148438 291.453125 98.246094 C 291.273438 97.054688 291.15625 95.882812 291.09375 94.691406 C 293.980469 101.769531 298.351562 108.082031 301.023438 115.226562 C 304.417969 124.144531 307.566406 133.164062 310.46875 142.25 C 311.527344 143.40625 312.246094 145.414062 312.785156 146.71875 C 316.730469 156.40625 319.453125 166.550781 322.015625 176.660156 C 322.355469 178.976562 324.835938 186.285156 323.890625 189.855469 C 324.136719 191.09375 324.363281 192.351562 324.574219 193.589844 C 323.757812 192.9375 322.929688 192.269531 322.128906 191.566406 C 316.648438 188.191406 311.609375 183.953125 306.292969 180.316406 C 306.144531 180.214844 306.015625 180.117188 305.886719 180.039062 C 305.820312 179.742188 305.769531 179.464844 305.707031 179.171875 C 301.480469 174.738281 297.175781 170.367188 293.277344 165.652344 C 294.042969 166.238281 294.8125 166.8125 295.578125 167.382812 C 294.371094 166.191406 293.195312 164.96875 292.054688 163.746094 L 292.039062 163.746094 C 292.023438 163.710938 292.003906 163.695312 291.972656 163.664062 C 291.515625 163.222656 291.042969 162.734375 290.585938 162.261719 Z M 305.265625 396.949219 C 312.34375 386.398438 320.5625 376.59375 326.972656 365.636719 C 341.570312 340.308594 349.660156 311.636719 353.492188 282.785156 C 355.96875 262.136719 355.433594 241.246094 354.324219 220.515625 L 354.339844 220.613281 L 354.339844 220.679688 C 354.109375 216.128906 353.898438 211.5625 353.703125 207.046875 C 353.703125 206.929688 353.703125 206.816406 353.6875 206.703125 C 353.6875 206.734375 353.703125 206.785156 353.703125 206.816406 C 353.6875 203.035156 352.804688 183.039062 355.742188 174.199219 C 354.078125 171.882812 353.996094 168.082031 355.300781 165.34375 C 355.398438 164.933594 355.511719 164.511719 355.628906 164.101562 C 354.339844 157.105469 352.789062 150.160156 350.34375 143.441406 C 342.644531 122.058594 333.59375 101.183594 323.660156 80.761719 C 318.378906 71.664062 316.128906 60.035156 308.039062 53.085938 C 308.019531 53.085938 308.019531 53.085938 308.019531 53.085938 C 308.414062 53.527344 307.695312 53.136719 307.824219 52.972656 C 311.480469 52.515625 314.820312 56.121094 317.511719 58.289062 C 318.980469 59.609375 320.351562 60.980469 321.703125 62.398438 C 322.375 62.757812 323.105469 63.28125 323.875 63.933594 L 323.890625 63.917969 L 323.890625 63.933594 C 327.496094 67 331.734375 72.609375 332.84375 73.847656 C 334.476562 75.96875 335.976562 78.171875 337.363281 80.4375 C 337.6875 59.382812 342.777344 36.46875 335.175781 17.078125 C 335.632812 17.613281 336.105469 18.167969 336.5625 18.722656 C 342.597656 26.84375 347.980469 36.304688 350.785156 46.300781 C 351.664062 47.410156 352.511719 48.601562 353.34375 49.824219 C 353.6875 50.136719 354.046875 50.445312 354.386719 50.753906 C 352.757812 63.28125 347.585938 75.363281 340.425781 85.785156 C 344.914062 94.152344 348.371094 103.089844 351.941406 111.863281 C 352.1875 112.4375 352.429688 113.007812 352.675781 113.578125 C 355.367188 108.539062 356.867188 102.535156 358.203125 97.332031 C 361.890625 81.90625 358.953125 66.132812 354.664062 51.03125 C 355.335938 51.652344 355.96875 52.269531 356.605469 52.90625 C 362.296875 59.039062 366.945312 66.183594 370.746094 73.605469 C 373.144531 78.480469 376.128906 83.308594 376.75 88.804688 C 377.027344 91.167969 376.960938 93.550781 376.585938 95.882812 C 377.53125 97.53125 378.378906 99.289062 379.179688 101.003906 C 379.324219 101.425781 379.472656 101.867188 379.636719 102.292969 C 379.40625 103.597656 379.160156 104.886719 378.882812 106.171875 C 379.390625 105.617188 379.914062 105.144531 380.515625 104.769531 C 384.886719 117.636719 387.96875 131.320312 388.964844 144.777344 C 389.355469 151.023438 388.394531 157.203125 386.957031 163.238281 C 389.371094 172.664062 391.328125 182.417969 391.867188 192.171875 C 391.019531 194.144531 390.152344 196.101562 389.273438 198.042969 C 386.875 204.664062 382.390625 210.273438 380.109375 216.78125 C 377.839844 222.945312 374.203125 236.515625 366.457031 235.878906 C 367.5 244.800781 366.585938 253.886719 365.820312 262.804688 C 366.832031 261.714844 368.773438 261.859375 369.605469 263.082031 C 370.550781 264.257812 370.371094 265.757812 370.207031 267.160156 C 370.144531 267.828125 370.046875 268.5 369.964844 269.167969 C 366.945312 275.382812 363.539062 281.414062 359.820312 287.1875 C 359.328125 293.386719 358.777344 299.601562 357.746094 305.699219 C 357.730469 305.929688 357.714844 306.140625 357.683594 306.367188 C 354.8125 331.109375 345.449219 351.96875 330.347656 371.636719 C 323.15625 381.0625 315.179688 390.328125 305.265625 396.949219 Z M 323.90625 63.949219 C 323.484375 56.722656 326.09375 48.128906 325.292969 40.203125 C 324.363281 30.125 323.007812 19.980469 320.074219 10.257812 C 319.257812 7.09375 318.148438 4.09375 316.941406 1.160156 C 318.671875 2.496094 320.398438 3.847656 322.078125 5.285156 C 325.75 7.925781 329.222656 10.828125 332.386719 14.058594 C 332.664062 15.414062 332.925781 16.800781 333.152344 18.234375 C 336.773438 34.296875 332.078125 50.234375 323.90625 63.949219 Z M 58.785156 21.871094 C 59.582031 31.445312 62.292969 41.082031 67.851562 48.878906 C 75.550781 55.972656 82.15625 64.226562 88.941406 72.085938 C 64.3125 69.671875 50.582031 49.222656 54.722656 27.203125 C 55.980469 25.34375 57.347656 23.566406 58.785156 21.871094 Z M 17.960938 249.644531 C 16.917969 246.136719 15.875 242.632812 14.570312 239.238281 C 10.507812 227.710938 7.460938 215.867188 5.308594 203.816406 C 3.5625 194.226562 2.046875 184.375 2.160156 174.589844 C 1.996094 173.253906 1.847656 171.914062 1.667969 170.59375 C -2.066406 143.210938 1.441406 117.980469 15.289062 94.398438 C 16.609375 85.671875 19.121094 77.242188 22.332031 70.945312 C 24.371094 67 27.550781 62.496094 31.386719 58.339844 C 32.085938 70.847656 33.472656 83.144531 33.148438 95.6875 C 35.59375 100.59375 36.847656 106.058594 39.097656 111.066406 C 43.371094 115.160156 45.296875 121.078125 48.101562 126.332031 C 50.988281 120.867188 53.957031 115.421875 57.300781 110.25 C 52.945312 106.644531 49.929688 101.738281 47.839844 96.371094 C 39.6875 85.605469 37.777344 69.738281 38.722656 56.085938 C 38.789062 55.304688 38.96875 53.316406 39.277344 51.082031 C 40.503906 50.167969 41.726562 49.304688 42.964844 48.554688 C 43.308594 51.832031 44.089844 55.09375 45.003906 58.339844 C 44.417969 53.871094 43.878906 48.878906 44.496094 47.65625 C 44.675781 47.574219 44.824219 47.476562 44.988281 47.394531 C 45.148438 47.445312 45.328125 47.605469 45.558594 47.882812 C 45.460938 47.949219 45.199219 47.6875 45.019531 47.65625 C 51.039062 58.796875 55.230469 71.042969 63.121094 80.910156 C 65.554688 83.550781 67.445312 86.519531 69.320312 89.523438 C 71.148438 90.140625 72.957031 90.828125 74.539062 91.835938 C 75.957031 91.054688 77.441406 90.433594 78.976562 90.074219 C 77.914062 90.925781 76.953125 91.917969 76.089844 92.996094 C 76.234375 93.125 76.382812 93.273438 76.527344 93.417969 C 76.644531 93.566406 76.773438 93.730469 76.855469 93.875 C 93.097656 69.933594 112.996094 48.503906 135.941406 30.792969 C 139.15625 28.363281 155.007812 18.757812 157.601562 20.859375 C 156.949219 20.453125 156.117188 21.152344 155.578125 21.464844 C 149.691406 25.933594 144.164062 30.875 138.308594 35.375 C 112.359375 55.632812 90.34375 80.683594 73.316406 108.78125 C 73.496094 111.015625 72.289062 113.203125 70.347656 113.804688 C 66.53125 120.410156 62.976562 127.179688 59.730469 134.078125 C 55.410156 143.046875 51.902344 152.410156 49.015625 161.933594 C 50.304688 159.113281 51.820312 156.421875 53.679688 153.960938 C 48.460938 177.835938 44.5625 202.25 41.332031 226.566406 C 40.191406 235.128906 39.050781 243.707031 38.039062 252.304688 C 37.679688 261.664062 37.355469 271.027344 37.0625 280.386719 C 36.734375 289.179688 36.507812 297.96875 36 306.742188 C 36.261719 313.105469 36.390625 319.480469 36.472656 325.839844 C 36.539062 328.613281 36.570312 331.433594 36.636719 334.273438 C 36.929688 336.554688 37.289062 338.839844 37.648438 341.121094 C 38.871094 347.46875 41.089844 353.746094 41.855469 360.15625 C 35.480469 346.179688 32.085938 330.929688 30.113281 315.714844 C 28.089844 302.308594 27.128906 288.785156 27.097656 275.265625 C 27.078125 275.25 27.078125 275.234375 27.0625 275.203125 C 27.519531 268.089844 27.992188 260.964844 28.320312 253.835938 C 29.476562 236.253906 31.890625 218.707031 36.164062 201.582031 C 36.585938 199.347656 36.863281 197.046875 37.207031 194.765625 C 37.191406 194.160156 37.191406 193.558594 37.191406 192.96875 C 33.960938 201.566406 31.15625 208.496094 30.40625 211.105469 C 27.617188 224.300781 22.675781 237.054688 17.960938 249.644531 Z M 17.960938 249.644531 " fill-opacity="1" fill-rule="evenodd"/></g></g></g></g><path fill="#1c1a1b" d="M 483.808594 287.457031 C 471.007812 285.535156 461.777344 277.167969 450.277344 272.324219 C 449.855469 272.324219 449.640625 271.738281 450 271.460938 C 462.558594 267.449219 481.984375 272.355469 483.808594 287.457031 Z M 451.875 288.632812 C 449.039062 285.421875 446.332031 280.691406 446.625 276.335938 C 448.46875 278.539062 451.320312 280.234375 453.230469 282.582031 C 456.785156 286.152344 458.921875 294.796875 451.875 288.632812 Z M 355.375 287.949219 C 360.367188 272.699219 380.898438 267.660156 394.191406 271.230469 C 381.566406 277.25 370.070312 288.46875 355.375 287.949219 Z M 326.636719 276.367188 C 335.542969 258.214844 369.238281 252.066406 381.421875 261.25 C 362.78125 265.179688 346.339844 279.042969 326.636719 276.367188 Z M 481.59375 405.082031 C 466.441406 402.046875 458.695312 385.625 458.089844 371.386719 C 457.894531 370.097656 459.035156 369.445312 459.167969 370.847656 C 467.273438 381.808594 480.1875 390.582031 481.59375 405.082031 Z M 325.382812 412.679688 C 325.121094 393.777344 337.679688 378.089844 351.867188 366.933594 C 354.886719 365.695312 360.527344 357.035156 362.714844 362.480469 C 361.800781 368.5 357.300781 373.765625 354.722656 379.261719 C 347.285156 393.160156 339.230469 405.242188 325.382812 412.679688 Z M 284.96875 422.320312 C 281.265625 399.09375 300.363281 377.699219 319.96875 368.367188 C 309.1875 386.488281 303.167969 409.550781 284.96875 422.320312 Z M 269.949219 427.863281 C 250.574219 398.507812 276.113281 364.976562 302.597656 350.933594 C 310.117188 347.394531 319.902344 341.636719 328.203125 344.507812 C 328.792969 345.242188 325.96875 346.839844 327.550781 345.03125 C 315.957031 349.761719 307.867188 361.011719 299.386719 369.917969 C 283.695312 385.933594 275.445312 406.515625 269.949219 427.863281 C 269.964844 427.878906 269.949219 427.878906 269.949219 427.863281 Z M 533.488281 418.09375 C 534.839844 423.835938 535.085938 429.839844 533.8125 435.988281 C 514.714844 421.453125 511.160156 396.257812 498.359375 377.730469 C 498.375 377.761719 498.390625 377.8125 498.390625 377.8125 C 499.582031 379.425781 496.792969 377.730469 497.558594 376.800781 C 500.394531 375.007812 504.066406 378.351562 506.496094 379.800781 C 514.910156 386.585938 523.035156 395.214844 528.367188 405 C 526.148438 398.65625 524.175781 392.230469 522.023438 385.882812 C 520.050781 378.203125 515.105469 368.109375 516.65625 361.011719 C 530.84375 379.816406 553.546875 401.949219 538.003906 427.082031 C 536.359375 424.144531 534.875 421.144531 533.488281 418.09375 Z M 533.488281 418.09375 " fill-opacity="1" fill-rule="evenodd"/><path fill="#000000" d="M 328.433594 269.84375 C 332.886719 261.316406 341.871094 256.046875 351.363281 255.347656 C 354.476562 255.167969 358.246094 255.183594 360.773438 256.976562 C 348.820312 257.53125 340.304688 268.832031 328.433594 269.84375 Z M 331.320312 408.554688 C 329.800781 395.898438 338.789062 385.378906 348.363281 378.332031 C 348.964844 377.679688 359.695312 371.011719 358.035156 372.984375 C 348.394531 384.253906 341.21875 397.609375 331.320312 408.554688 Z M 486.828125 406.09375 C 473.894531 397.886719 475.132812 385.625 471.367188 373.066406 C 471.285156 373.261719 471.398438 373.667969 471.269531 373.75 C 470.109375 371.351562 472.785156 372.722656 473.519531 374.027344 C 476.046875 377.257812 478.019531 381.351562 479.796875 384.921875 C 483.371094 391.820312 486.257812 398.507812 486.828125 406.09375 Z M 302.664062 413.511719 C 303.234375 397.53125 314.128906 384.140625 325.15625 373.472656 C 326.71875 372.511719 326.492188 374.042969 325.90625 374.988281 C 325.789062 374.828125 325.90625 374.371094 325.839844 374.109375 C 319.59375 387.972656 314.488281 403.304688 302.714844 413.511719 C 302.679688 413.527344 302.664062 413.527344 302.664062 413.511719 Z M 533.128906 421.632812 C 532.882812 422.921875 532.558594 424.210938 532.117188 425.5 C 524.617188 410.121094 521.46875 392.832031 513.085938 377.910156 C 512.90625 378.367188 512.855469 379.050781 512.628906 379.410156 C 511.160156 372.347656 519.496094 382.363281 520.667969 383.910156 C 524.972656 389.261719 528.839844 395.523438 531.222656 402.175781 C 531.105469 393.875 530.878906 385.640625 526.914062 378.203125 C 530.648438 380.601562 533.210938 384.875 535.019531 388.949219 C 540.191406 399.683594 539.71875 412.761719 533.519531 422.875 C 533.375 422.464844 533.242188 422.058594 533.128906 421.632812 Z M 281.21875 408.015625 C 280.058594 409.957031 278.851562 411.867188 277.582031 413.722656 C 275.460938 401.605469 281.429688 390.289062 287.054688 380.078125 C 292.648438 369.414062 300.445312 359.039062 312.15625 354.816406 C 313.707031 354.050781 315.90625 353.96875 316.820312 354.882812 C 316.886719 354.882812 316.984375 354.863281 317.066406 354.863281 C 318.042969 355.140625 318.140625 355.925781 317.996094 356.757812 C 318.304688 356.625 318.628906 356.511719 318.941406 356.382812 C 318.53125 356.773438 318.15625 357.148438 317.765625 357.554688 C 317.683594 357.816406 317.585938 358.046875 317.503906 358.257812 C 317.34375 358.777344 317.164062 359.300781 317.082031 359.804688 C 316.917969 359.449219 316.871094 358.992188 316.851562 358.535156 C 316.363281 359.054688 315.90625 359.59375 315.449219 360.148438 C 313.964844 364.046875 310.542969 369.96875 310.101562 370.832031 C 305.941406 378.300781 300.902344 385.199219 295.976562 392.164062 C 291.820312 398.636719 286.699219 404.640625 281.003906 409.695312 C 281.085938 409.140625 281.152344 408.585938 281.21875 408.015625 Z M 281.21875 408.015625 " fill-opacity="1" fill-rule="evenodd"/></svg>