<svg xmlns="http://www.w3.org/2000/svg" xmlns:xlink="http://www.w3.org/1999/xlink" width="1080" zoomAndPan="magnify" viewBox="0 0 810 1012.49997" height="1350" preserveAspectRatio="xMidYMid meet" version="1.0"><defs><clipPath id="3a02636e62"><path d="M 115 169.425781 L 691 169.425781 L 691 1012 L 115 1012 Z M 115 169.425781 " clip-rule="nonzero"/></clipPath></defs><g clip-path="url(#3a02636e62)"><path fill="#1c1a1b" d="M 183.613281 485.960938 C 184.515625 486.046875 181.992188 486.757812 181.195312 487.1875 C 179.425781 488.140625 177.734375 489.175781 176.105469 490.351562 C 171.585938 493.589844 167.542969 497.445312 163.601562 501.363281 C 151.84375 513.050781 137.210938 527.394531 135.753906 544.84375 C 134.800781 556.296875 137.375 567.871094 144.160156 577.226562 C 152.832031 589.203125 165.722656 595.644531 161.917969 612.554688 C 156.714844 635.683594 120.359375 633.90625 115.691406 658.261719 C 112.984375 672.394531 135.765625 674.917969 139.734375 686.613281 C 142.625 695.121094 138.777344 706.535156 136.949219 714.929688 C 136.0625 718.976562 133.117188 726.765625 133.117188 726.765625 C 133.117188 726.765625 139.09375 721.675781 140.917969 718.292969 C 144.359375 711.925781 145.699219 704.511719 145.675781 697.335938 C 145.648438 688.609375 143.746094 680.023438 140.03125 672.140625 C 138.105469 668.054688 132.46875 662.089844 134.132812 657.226562 C 136.019531 651.734375 142.667969 648.429688 147.917969 647.203125 C 150.476562 646.609375 155.726562 646.082031 155.726562 646.082031 C 155.726562 646.082031 149.503906 650.640625 148.382812 654.082031 C 146.4375 660.046875 148.285156 667.117188 149.277344 673.09375 C 152.230469 690.949219 165.976562 700.035156 163.53125 719.328125 C 162.402344 728.246094 159.78125 737.15625 153.386719 743.753906 C 148.101562 749.1875 139.042969 752.824219 137.183594 760.890625 C 132.445312 781.453125 162.136719 784.546875 170.382812 795.746094 C 174.851562 801.808594 174.175781 811.777344 174.222656 818.890625 C 174.238281 820.425781 173.109375 827.707031 174.246094 828.96875 C 174.984375 829.773438 179.976562 820.179688 180.171875 819.664062 C 183.089844 811.933594 181.632812 803.699219 178.621094 796.234375 C 175.929688 789.59375 172.53125 782.785156 167.097656 777.96875 C 163.910156 775.136719 156.75 772.175781 155.769531 767.664062 C 154.621094 762.441406 158.929688 758.0625 162.023438 754.476562 C 162.332031 754.121094 165.828125 750.578125 165.496094 750.011719 C 164.058594 747.601562 165.242188 755.722656 166.039062 758.414062 C 167.457031 763.195312 169.875 767.980469 172.8125 772.011719 C 180.820312 783.015625 195.75 785.371094 202.164062 797.601562 C 205.214844 803.410156 207.824219 811.898438 203.398438 817.683594 C 197.179688 825.8125 182.71875 827.074219 184.492188 840.410156 C 186.113281 852.589844 197.957031 849.984375 205.660156 854.796875 C 212.597656 859.140625 211.6875 869.382812 210.144531 876.234375 C 205.421875 897.210938 193.507812 914.6875 209.367188 935.390625 C 211.433594 938.089844 225.550781 950.882812 230.035156 948.21875 C 230.035156 948.21875 227.996094 944.792969 227.925781 944.667969 C 226.304688 941.945312 224.683594 939.21875 223.132812 936.453125 C 220.765625 932.238281 217.945312 927.585938 217.121094 922.738281 C 216.753906 920.636719 218.714844 916.546875 218.714844 916.546875 C 218.714844 916.546875 223.535156 924.957031 226.257812 928.960938 C 231.007812 935.925781 240.304688 942.148438 243.539062 949.832031 C 248.113281 960.6875 230.4375 974.964844 227.101562 984.753906 C 226.75 985.769531 222.71875 994.671875 223.210938 995.496094 C 224.058594 996.914062 229.921875 995.355469 230.921875 995.117188 C 238.324219 993.367188 244.949219 987.871094 249.792969 982.210938 C 251.890625 979.757812 253.835938 977.140625 255.523438 974.386719 C 256.332031 973.074219 256.070312 969.859375 257.558594 970.234375 C 258.8125 970.558594 261.613281 986.085938 262.078125 987.539062 C 265.933594 999.671875 276.929688 1018.90625 292.527344 1017.757812 C 294 1017.652344 290.808594 1015.355469 289.976562 1014.136719 C 288.242188 1011.589844 286.648438 1008.96875 285.21875 1006.234375 C 281.09375 998.296875 278.492188 989.464844 279.128906 980.46875 C 280.796875 957.164062 308.984375 946.378906 306.019531 921.871094 C 304.234375 907.023438 290.707031 901.746094 281.355469 892.222656 C 277.519531 888.308594 273.085938 881.273438 276.800781 875.929688 C 284.449219 864.914062 297.066406 861.15625 303.410156 847.882812 C 305.714844 843.054688 307.363281 838.019531 307.605469 832.648438 C 307.730469 830.070312 304.355469 824.332031 306.855469 824.964844 C 309.246094 825.566406 312.550781 832.890625 313.257812 834.722656 C 319.515625 850.90625 305.835938 860.226562 300.824219 873.582031 C 298.949219 878.582031 299.414062 883.578125 300.949219 888.597656 C 301.613281 890.761719 302.734375 897.191406 303.289062 894.992188 C 305.644531 885.714844 305.582031 876.671875 310.523438 867.902344 C 317.585938 855.355469 328.304688 849.863281 326.4375 833.488281 C 325.113281 821.886719 317.9375 812.050781 316.703125 800.28125 C 315.703125 790.785156 320.953125 780.902344 317.691406 771.667969 C 313.398438 759.535156 298.25 755.074219 301.605469 740.046875 C 305.335938 723.332031 320.339844 713.046875 325.289062 697.378906 C 326.734375 692.78125 326.65625 687.726562 325.183594 683.132812 C 324.84375 682.101562 321.855469 677.605469 322.101562 676.640625 C 322.328125 675.730469 326.847656 673.953125 327.566406 673.488281 C 332.394531 670.289062 336.714844 666.269531 340.414062 661.816406 C 351.03125 649.019531 358.207031 631.171875 357.542969 614.480469 C 356.5 588.371094 340.65625 571.832031 330.082031 549.453125 C 320.292969 528.757812 317.683594 506.644531 311.558594 484.882812 C 308.011719 472.25 301.761719 460.945312 300.476562 447.683594 C 299.195312 434.417969 299.492188 418.558594 305.53125 406.3125 C 311.910156 393.378906 321.101562 387.230469 324.851562 371.878906 C 331.160156 346.121094 336.742188 302.121094 368.792969 294.359375 C 380.886719 291.441406 384.425781 305.109375 393.757812 307.472656 C 394.554688 307.675781 399.320312 303.714844 399.996094 303.3125 C 405.613281 299.972656 411.832031 297.792969 418.195312 296.347656 C 441.394531 291.097656 472.492188 301.464844 484.679688 323 C 497.203125 345.128906 485.574219 370.871094 496.265625 391.890625 C 502.503906 404.15625 515.558594 411.8125 524.453125 421.941406 C 534.640625 433.53125 537.59375 450.984375 534.257812 465.878906 C 531.488281 478.257812 519.851562 479.257812 514.5 488.71875 C 508.382812 499.53125 511.046875 516.328125 504.710938 528.402344 C 493.441406 549.917969 469.601562 567.273438 465.421875 592.175781 C 460.523438 621.394531 485.222656 644.226562 490.070312 671.21875 C 492.539062 685.019531 488.097656 698.300781 482.753906 710.855469 C 480.992188 714.992188 479.117188 719.082031 477.320312 723.199219 C 476.558594 724.953125 473.34375 729.15625 475.148438 728.519531 C 488.1875 723.910156 499.683594 702.523438 504.457031 691.019531 C 505.34375 688.890625 508.066406 673.390625 509.582031 672.488281 C 511.421875 671.386719 511.046875 676.519531 511.597656 678.585938 C 513.4375 685.402344 512.9375 692.472656 510.773438 699.167969 C 503.703125 721.097656 467.105469 735.230469 476.925781 760.628906 C 479.644531 767.65625 481.921875 762.707031 486.730469 756.941406 C 486.933594 756.703125 489.867188 752.867188 490.542969 753.296875 C 495.457031 756.449219 502.921875 770.722656 505.980469 775.855469 C 511.894531 785.773438 510.476562 796.207031 506.183594 806.449219 C 504.289062 810.960938 499.925781 819.734375 499.925781 819.734375 C 499.925781 819.734375 505.140625 817.359375 507.636719 815.972656 C 513.113281 812.933594 517.328125 808.984375 520.964844 803.875 C 522.796875 801.289062 524.480469 798.496094 525.460938 795.464844 C 525.941406 793.964844 525.84375 789.53125 526.652344 790.882812 C 540.636719 814.371094 507.910156 836.835938 513.15625 858.886719 C 514.953125 866.429688 520.738281 873.511719 527.378906 877.417969 C 528.34375 877.976562 533.371094 880.851562 534.609375 879.773438 C 535.554688 878.949219 531.207031 873.5 530.796875 872.78125 C 528.019531 867.957031 525.871094 862.332031 528.296875 856.925781 C 536.640625 838.402344 566.246094 835.773438 569.996094 812.988281 C 573.667969 790.664062 550.625 779.265625 546.183594 759.847656 C 539.601562 731.015625 567.035156 729.675781 582.386719 714.675781 C 585.71875 711.425781 588.320312 707.246094 588.898438 702.566406 C 589.144531 700.597656 586.792969 697.644531 588.496094 696.636719 C 589.132812 696.25 594.023438 706.046875 594.214844 706.648438 C 597.082031 715.421875 593.058594 724.699219 587.730469 731.628906 C 585.59375 734.414062 583.167969 736.902344 580.574219 739.269531 C 579.25 740.488281 574.824219 743.578125 576.367188 742.660156 C 587.785156 735.859375 598.300781 730.210938 600.691406 715.535156 C 601.425781 711.011719 597.519531 698.632812 599.789062 695.101562 C 600.027344 694.734375 605.292969 696.285156 605.695312 696.382812 C 611.855469 697.855469 618.015625 699.867188 624.304688 700.640625 C 636.746094 702.15625 646.007812 694.542969 658.039062 693.78125 C 669.65625 693.042969 678.261719 702.03125 682.632812 711.960938 C 684 715.042969 685.125 718.292969 685.875 721.589844 C 686.296875 723.417969 686.164062 728.765625 687.058594 727.109375 C 696.863281 708.859375 687.09375 680.269531 668.625 672.140625 C 660.378906 668.503906 644.316406 669.292969 640.277344 659.671875 C 633.15625 642.726562 654.832031 633.808594 647.417969 618.28125 C 639.15625 600.960938 624.375 598.316406 626.917969 575.871094 C 627.207031 573.277344 628.167969 564.339844 630.851562 562.734375 C 633.488281 561.167969 632.460938 568.675781 632.910156 571.707031 C 633.804688 577.71875 635.476562 583.703125 638.089844 589.195312 C 645.40625 604.589844 658.023438 610.328125 660.414062 628.332031 C 660.921875 632.136719 659.863281 655.640625 661.957031 649.261719 C 667.609375 632.03125 667.320312 607.3125 658.046875 591.28125 C 652.316406 581.378906 642.671875 574.136719 638.683594 563.21875 C 633.777344 549.785156 635.257812 534.578125 632.269531 520.691406 C 629.949219 509.914062 624.023438 500.539062 619.011719 490.867188 C 611.117188 475.621094 606.796875 461.875 609.09375 444.589844 C 609.339844 442.730469 609.734375 432.894531 611.714844 431.710938 C 612.695312 431.132812 612.003906 433.980469 612.074219 435.128906 C 612.222656 437.476562 612.441406 439.789062 612.851562 442.109375 C 614.203125 449.707031 616.691406 457.160156 619.878906 464.179688 C 622.808594 470.636719 626.136719 477.050781 631.457031 481.886719 C 637.414062 487.320312 645.105469 489.902344 649.039062 497.429688 C 656.601562 511.894531 650.914062 528.417969 649.09375 543.503906 C 648.15625 551.1875 648.585938 559.84375 654.042969 565.882812 C 655.894531 567.941406 658.292969 569.492188 660.851562 570.5 C 662.121094 570.988281 665.277344 573.3125 664.585938 572.144531 C 649.066406 546.089844 670.007812 519.316406 661.832031 492.75 C 655.769531 473.046875 633.015625 465.101562 626.652344 444.710938 C 620.703125 425.601562 629.300781 404.945312 623.105469 384.707031 C 615.421875 359.578125 595.46875 341.679688 582.132812 319.695312 C 547.460938 262.570312 521.464844 192.375 448.730469 175.027344 C 440.667969 173.109375 430.757812 172.523438 423.554688 177.429688 C 422.546875 178.121094 413.664062 188.714844 413.550781 188.6875 C 412.105469 188.320312 407.496094 177.550781 405.359375 175.824219 C 398.367188 170.210938 386.738281 169.527344 378.195312 170.050781 C 348.28125 171.882812 316.472656 200.542969 294.578125 218.378906 C 228.414062 272.269531 183.949219 366.683594 179.628906 451.597656 C 178.148438 480.660156 177.410156 514.347656 191.9375 540.542969 " fill-opacity="1" fill-rule="nonzero"/></g></svg>