<svg xmlns="http://www.w3.org/2000/svg" xmlns:xlink="http://www.w3.org/1999/xlink" width="1080" zoomAndPan="magnify" viewBox="0 0 810 1012.49997" height="1350" preserveAspectRatio="xMidYMid meet" version="1.0"><defs><clipPath id="fe1cca388b"><path d="M 527 373 L 573 373 L 573 399.238281 L 527 399.238281 Z M 527 373 " clip-rule="nonzero"/></clipPath><clipPath id="d58072c671"><path d="M 218.386719 301 L 256 301 L 256 395 L 218.386719 395 Z M 218.386719 301 " clip-rule="nonzero"/></clipPath><clipPath id="ef06323ec0"><path d="M 337 178.847656 L 496 178.847656 L 496 240 L 337 240 Z M 337 178.847656 " clip-rule="nonzero"/></clipPath><clipPath id="594a02ebc0"><path d="M 542 284 L 583.457031 284 L 583.457031 392 L 542 392 Z M 542 284 " clip-rule="nonzero"/></clipPath><clipPath id="b6595d508f"><path d="M 218.386719 286 L 261 286 L 261 300 L 218.386719 300 Z M 218.386719 286 " clip-rule="nonzero"/></clipPath></defs><path fill="#5b3e36" d="M 433.53125 185.761719 C 431.53125 185.761719 429.363281 185.871094 426.695312 186.148438 C 424.308594 186.425781 422.140625 186.816406 420.199219 187.371094 C 415.753906 188.648438 411.53125 190.867188 407.589844 193.976562 C 406.753906 193.476562 405.808594 193.085938 404.921875 192.644531 C 403.976562 192.199219 402.921875 191.867188 401.644531 191.589844 C 398.921875 190.976562 396.089844 190.699219 393.367188 190.480469 L 392.921875 190.421875 C 391.421875 190.3125 389.980469 190.203125 388.421875 190.144531 C 387.535156 190.089844 386.644531 190.035156 385.757812 190.035156 C 385.480469 190.035156 385.203125 190.035156 384.867188 190.035156 C 382.703125 190.035156 380.367188 190.203125 377.589844 190.535156 C 372.648438 191.089844 367.816406 193.03125 364.648438 194.363281 C 360.816406 196.027344 357.039062 198.46875 353.425781 201.691406 C 350.207031 204.519531 347.316406 208.015625 344.707031 212.011719 C 343.316406 214.121094 342.207031 216.453125 341.316406 218.449219 C 340.484375 220.171875 339.816406 221.78125 339.152344 223.390625 C 338.984375 223.277344 338.816406 223.222656 338.597656 223.167969 L 338.152344 223 C 336.597656 222.335938 335.039062 221.667969 333.429688 221.113281 C 331.207031 220.390625 328.820312 220.058594 326.597656 219.78125 C 324.820312 219.558594 322.988281 219.449219 321.210938 219.28125 L 319.988281 219.171875 C 318.265625 219.0625 316.652344 219.003906 315.097656 219.003906 C 313.042969 219.003906 311.097656 219.117188 309.210938 219.339844 C 307.488281 219.558594 305.542969 219.949219 303.433594 220.671875 C 301.542969 221.28125 299.601562 222.003906 297.710938 222.945312 C 296.988281 222.667969 296.265625 222.558594 295.488281 222.558594 C 293.933594 222.558594 292.433594 223.113281 291.378906 224.167969 C 290.878906 224.664062 290.378906 225.109375 289.878906 225.609375 C 289.710938 225.664062 289.492188 225.777344 289.324219 225.832031 C 288.65625 226.164062 288.046875 226.554688 287.269531 227.109375 C 286.378906 227.773438 285.769531 228.496094 285.214844 229.160156 C 284.269531 230.328125 283.65625 231.601562 282.992188 233.046875 C 282.824219 233.378906 282.65625 233.769531 282.546875 234.15625 C 281.714844 235.378906 280.9375 236.597656 280.324219 237.875 C 278.160156 242.148438 276.714844 246.699219 276.046875 251.472656 C 275.101562 252.136719 274.160156 252.859375 273.214844 253.636719 C 270.269531 256.023438 267.4375 258.964844 264.828125 262.40625 C 262.382812 265.566406 260.4375 269.285156 259.160156 273.171875 C 258.4375 275.335938 258.050781 277.667969 257.714844 279.664062 C 257.382812 281.71875 257.160156 283.773438 257.050781 285.992188 C 256.882812 289.875 257.382812 293.707031 258.492188 297.480469 C 256.714844 298.089844 254.882812 298.867188 252.550781 299.921875 C 248.328125 301.863281 244.496094 304.363281 241.105469 307.246094 C 239.328125 308.746094 237.828125 310.523438 236.328125 312.296875 C 235.050781 313.851562 233.886719 315.574219 232.832031 317.679688 C 232.441406 318.402344 232.109375 319.070312 231.832031 319.679688 C 230.273438 320.125 228.773438 321.011719 227.609375 322.121094 C 226.386719 323.285156 225.777344 324.617188 225.054688 326.285156 C 224.664062 327.171875 224.386719 328.171875 224.109375 329.558594 C 223.886719 330.835938 223.664062 332.222656 223.609375 333.71875 C 223.554688 335.164062 223.71875 336.605469 223.886719 337.882812 C 224.054688 339.105469 224.496094 340.324219 224.996094 341.433594 L 225.054688 341.65625 C 225.441406 342.601562 225.886719 343.542969 226.496094 344.542969 C 227.609375 346.320312 228.996094 348.09375 230.71875 349.816406 L 230.71875 349.925781 C 230.332031 352.367188 230.21875 354.867188 230.050781 357.308594 L 229.996094 357.808594 C 229.71875 362.855469 229.554688 368.242188 231.386719 373.179688 C 231.441406 373.402344 231.550781 373.625 231.609375 373.847656 C 231.550781 374.011719 231.496094 374.179688 231.441406 374.34375 C 230.941406 375.953125 231.109375 377.84375 231.886719 379.0625 C 233.550781 381.726562 235.21875 384.28125 237.273438 386.554688 C 238.21875 387.554688 239.21875 388.441406 240.105469 389.164062 L 240.328125 389.332031 C 241.21875 390.105469 242.164062 390.882812 243.164062 391.550781 C 244.773438 392.660156 246.441406 393.714844 248.160156 394.714844 C 248.382812 394.878906 248.660156 394.992188 248.882812 395.15625 C 250.550781 396.15625 252.21875 397.210938 254.160156 397.210938 C 254.605469 397.210938 255.050781 397.15625 255.496094 397.042969 C 257.828125 396.433594 259.714844 394.992188 260.605469 393.214844 L 260.605469 393.160156 C 261.492188 392.382812 262.105469 391.4375 262.492188 390.328125 C 262.882812 389.050781 262.882812 387.664062 262.382812 386.390625 C 263.714844 386.277344 265.328125 386.109375 266.9375 385.722656 C 268.382812 385.390625 269.769531 384.777344 271.324219 384.113281 C 274.046875 382.949219 276.4375 381.28125 278.660156 379.617188 C 280.378906 378.339844 282.046875 376.789062 283.601562 374.957031 C 284.492188 373.902344 285.433594 372.734375 286.269531 371.460938 C 287.101562 370.183594 287.769531 368.738281 288.378906 367.464844 C 289.046875 365.964844 289.601562 364.300781 290.046875 362.523438 C 290.933594 362.691406 291.933594 362.914062 292.933594 362.914062 C 294.488281 362.914062 295.824219 362.636719 297.601562 361.859375 C 299.542969 361.027344 301.324219 359.75 302.988281 358.527344 L 303.265625 358.304688 C 307.097656 355.53125 310.210938 351.867188 312.488281 349.039062 C 314.652344 346.261719 316.652344 343.15625 318.765625 339.160156 C 320.042969 336.773438 321.152344 334.332031 322.152344 331.945312 L 322.207031 331.890625 C 325.597656 328.835938 328.320312 325.117188 330.320312 320.84375 C 330.875 319.625 331.429688 318.347656 332.042969 316.90625 C 333.484375 316.90625 334.875 316.847656 336.207031 316.792969 C 337.984375 318.457031 339.375 319.734375 340.761719 320.902344 C 343.984375 323.675781 346.929688 325.894531 349.761719 327.726562 C 352.648438 329.613281 355.925781 331.277344 360.203125 333 C 367.757812 336.050781 375.757812 336.882812 384.757812 337.605469 C 384.925781 337.605469 385.035156 337.605469 385.203125 337.605469 C 388.3125 337.605469 390.980469 334.886719 391.144531 331.722656 L 391.144531 331.667969 C 392.035156 331.167969 392.980469 330.613281 394.144531 329.835938 C 395.367188 329.058594 396.367188 328.28125 397.3125 327.558594 C 398.144531 328.949219 399.089844 330.222656 400.144531 331.5 C 401.644531 333.277344 403.476562 334.773438 405.199219 336.105469 C 407.367188 337.773438 409.867188 338.9375 411.808594 339.714844 C 414.085938 340.65625 416.53125 341.101562 418.699219 341.433594 C 419.53125 341.546875 420.363281 341.65625 421.199219 341.65625 C 422.808594 341.65625 424.417969 341.433594 426.03125 340.933594 C 427.253906 340.546875 428.476562 340.046875 429.753906 339.4375 C 430.972656 338.828125 432.085938 338.050781 433.03125 337.328125 C 433.972656 336.660156 434.863281 335.828125 435.808594 334.832031 C 436.863281 335.996094 438.027344 336.941406 439.308594 337.992188 C 440.972656 339.382812 442.863281 340.324219 445.140625 341.433594 C 449.25 343.378906 453.695312 344.097656 457.527344 344.542969 C 458.359375 344.652344 459.25 344.710938 460.136719 344.710938 C 463.804688 344.710938 467.582031 343.820312 471.023438 342.101562 C 471.804688 341.710938 472.636719 341.214844 473.523438 340.601562 C 473.914062 342.265625 474.414062 343.988281 475.246094 346.042969 C 476.082031 348.09375 477.136719 349.980469 478.636719 352.035156 C 479.191406 352.8125 479.800781 353.535156 480.46875 354.199219 C 481.191406 354.976562 482.078125 355.699219 482.914062 356.363281 L 483.414062 356.808594 C 485.136719 358.25 487.191406 359.25 489.300781 360.195312 C 491.023438 360.96875 492.910156 361.582031 495.355469 362.136719 C 498.1875 362.746094 500.523438 363.136719 502.6875 363.300781 C 503.242188 363.355469 503.855469 363.355469 504.410156 363.355469 C 506.355469 363.355469 508.355469 363.136719 510.019531 362.914062 C 510.632812 362.855469 511.242188 362.746094 511.855469 362.578125 C 511.796875 363.414062 511.742188 364.246094 511.742188 365.023438 C 511.6875 366.851562 511.796875 368.738281 512.078125 370.847656 C 512.355469 372.679688 512.855469 374.566406 513.742188 376.675781 C 514.519531 378.5625 515.632812 380.171875 516.742188 381.671875 C 517.6875 383.003906 518.742188 384.167969 519.851562 385.113281 C 521.464844 386.5 522.796875 387.386719 524.242188 388.164062 C 526.074219 389.109375 527.964844 389.828125 530.019531 390.382812 C 531.574219 390.828125 533.183594 391.105469 534.742188 391.328125 C 534.960938 391.714844 535.242188 392.105469 535.574219 392.492188 C 536.460938 393.492188 538.074219 394.4375 539.574219 394.4375 C 539.683594 394.4375 539.738281 394.4375 539.796875 394.4375 C 543.515625 394.160156 547.792969 393.824219 551.847656 392.714844 C 555.792969 391.605469 559.515625 390.050781 562.792969 388.109375 C 564.625 387 566.402344 385.722656 568.070312 384.28125 C 569.738281 382.78125 571.179688 381.003906 572.234375 379.5625 C 573.457031 377.898438 574.347656 376.066406 575.234375 374.011719 C 575.902344 372.570312 576.402344 370.90625 576.847656 368.683594 C 577.734375 364.355469 577.957031 360.082031 577.625 355.976562 C 577.402344 353.476562 577.070312 351.425781 576.570312 349.539062 C 578.457031 348.484375 579.679688 346.539062 579.734375 344.433594 L 579.734375 344.15625 C 579.902344 338.992188 580.070312 333.71875 579.625 328.503906 L 579.511719 327.0625 C 579.402344 325.507812 579.289062 323.953125 579.070312 322.34375 C 578.902344 320.789062 578.625 318.734375 578.125 316.683594 C 577.957031 315.960938 577.734375 315.238281 577.570312 314.519531 C 577.457031 314.074219 577.292969 313.574219 577.179688 313.128906 C 576.457031 310.300781 575.734375 307.246094 574.902344 303.863281 C 574.234375 301.144531 571.734375 299.144531 568.902344 299.144531 C 568.792969 299.144531 568.679688 299.144531 568.515625 299.144531 C 567.792969 297.925781 566.957031 296.59375 565.847656 295.09375 C 563.515625 291.929688 560.625 289.433594 558.347656 287.601562 C 556.960938 286.4375 555.625 285.492188 554.347656 284.660156 C 553.238281 283.9375 552.015625 283.328125 550.851562 282.71875 L 550.183594 282.382812 L 549.515625 282.105469 L 549.238281 281.996094 L 549.238281 281.386719 C 549.238281 280.832031 549.183594 280.21875 549.183594 279.664062 C 549.128906 277.890625 548.90625 276.058594 548.683594 273.949219 C 548.40625 271.894531 547.851562 269.675781 547.015625 267.34375 C 546.128906 264.902344 545.128906 262.792969 543.960938 260.851562 C 542.683594 258.742188 541.238281 256.742188 539.683594 254.96875 C 538.019531 253.136719 536.074219 251.527344 534.574219 250.417969 C 532.796875 249.085938 530.742188 247.917969 528.019531 246.808594 C 525.40625 245.753906 522.464844 245.257812 518.964844 245.257812 C 517.242188 245.257812 515.410156 245.367188 513.074219 245.644531 C 511.578125 245.8125 510.019531 246.144531 508.464844 246.585938 C 508.6875 243.980469 508.632812 241.371094 508.519531 239.371094 C 508.300781 234.988281 507.800781 231.546875 506.964844 228.550781 C 505.964844 225.109375 504.1875 221.835938 501.742188 218.839844 C 499.578125 216.175781 496.746094 214.066406 494.023438 212.125 C 493.132812 211.511719 492.023438 211.179688 490.910156 211.179688 C 488.800781 211.179688 486.691406 212.289062 485.578125 214.011719 C 485.46875 214.175781 485.414062 214.34375 485.300781 214.453125 C 484.523438 214.289062 483.691406 214.175781 482.914062 214.066406 L 482.636719 214.011719 C 482.078125 213.953125 481.414062 213.898438 480.636719 213.898438 C 480.191406 213.898438 479.746094 213.898438 479.300781 213.898438 L 479.136719 213.898438 C 476.914062 213.953125 474.46875 214.230469 471.859375 214.730469 C 470.414062 215.007812 468.914062 215.453125 467.246094 216.121094 C 466.96875 214.066406 466.527344 212.179688 465.96875 210.457031 C 464.414062 205.683594 462.027344 201.300781 458.914062 197.472656 C 457.359375 195.585938 455.527344 193.976562 453.972656 192.699219 C 452.359375 191.367188 450.582031 190.203125 448.695312 189.203125 C 446.417969 187.980469 444.304688 187.148438 442.140625 186.648438 C 439.863281 186.09375 437.417969 185.816406 434.308594 185.761719 C 434.03125 185.761719 433.808594 185.761719 433.53125 185.761719 Z M 247.160156 372.457031 C 247.273438 372.402344 247.382812 372.347656 247.496094 372.347656 C 247.382812 372.402344 247.273438 372.402344 247.160156 372.457031 Z M 247.160156 372.457031 " fill-opacity="1" fill-rule="nonzero"/><path fill="#5b3e36" d="M 568.015625 372.292969 C 567.515625 372.402344 567.070312 372.734375 566.847656 373.125 C 566.570312 373.511719 566.402344 374.179688 566.570312 374.621094 C 566.792969 375.234375 567.015625 375.84375 567.125 376.511719 C 567.125 376.675781 567.125 376.789062 567.125 376.953125 C 567.015625 377.453125 566.792969 377.898438 566.625 378.339844 C 566.292969 378.953125 565.957031 379.507812 565.515625 380.007812 C 564.179688 381.503906 562.625 382.78125 561.015625 384.003906 C 558.070312 386.054688 554.960938 387.832031 551.628906 389.164062 C 550.792969 389.496094 549.960938 389.71875 549.070312 389.941406 C 548.070312 390.164062 547.070312 390.328125 546.074219 390.441406 C 543.574219 390.660156 541.074219 390.550781 538.574219 390.164062 C 537.40625 389.941406 536.238281 389.609375 535.128906 389.109375 C 534.40625 388.773438 533.742188 388.332031 533.128906 387.886719 C 532.683594 387.5 532.296875 387.109375 531.960938 386.667969 C 531.742188 386.332031 531.574219 386 531.40625 385.613281 C 531.242188 385.113281 531.074219 384.613281 530.964844 384.167969 C 530.683594 383.167969 529.683594 382.449219 528.628906 382.726562 C 527.628906 382.949219 526.90625 384.058594 527.1875 385.058594 C 527.519531 386.222656 527.851562 387.386719 528.464844 388.386719 C 529.074219 389.441406 529.964844 390.328125 530.90625 391.105469 C 532.90625 392.660156 535.296875 393.546875 537.738281 393.9375 C 540.238281 394.378906 542.738281 394.546875 545.238281 394.378906 C 546.460938 394.324219 547.738281 394.160156 548.960938 393.9375 C 550.238281 393.714844 551.515625 393.324219 552.738281 392.882812 C 555.070312 391.992188 557.292969 390.941406 559.402344 389.664062 C 561.570312 388.386719 563.738281 386.886719 565.679688 385.277344 C 566.570312 384.558594 567.402344 383.726562 568.179688 382.890625 C 568.625 382.394531 569.015625 381.894531 569.347656 381.394531 C 569.792969 380.785156 570.070312 380.171875 570.347656 379.507812 C 570.570312 379.007812 570.734375 378.453125 570.902344 377.953125 C 571.070312 377.285156 571.070312 376.566406 571.015625 375.898438 C 570.902344 375.179688 570.679688 374.457031 570.457031 373.734375 C 570.402344 373.570312 570.347656 373.402344 570.292969 373.234375 C 570.125 372.957031 569.902344 372.679688 569.625 372.515625 C 569.292969 372.292969 568.957031 372.238281 568.570312 372.238281 C 568.292969 372.238281 568.179688 372.292969 568.015625 372.292969 Z M 568.015625 372.292969 " fill-opacity="1" fill-rule="nonzero"/><path fill="#5b3e36" d="M 569.515625 374.84375 C 569.179688 375.179688 568.847656 375.734375 568.902344 376.175781 C 568.902344 376.34375 568.902344 376.511719 568.902344 376.675781 C 568.738281 377.230469 568.570312 377.730469 568.347656 378.230469 C 567.957031 378.953125 567.570312 379.617188 567.070312 380.226562 C 565.960938 381.449219 564.792969 382.558594 563.515625 383.667969 C 562.125 384.890625 560.683594 386 559.183594 387.109375 C 556.515625 388.996094 553.628906 390.664062 550.570312 391.882812 C 548.683594 392.550781 546.792969 393.105469 544.792969 393.324219 C 542.40625 393.492188 540.015625 393.324219 537.683594 392.9375 C 536.238281 392.660156 534.851562 392.382812 533.519531 391.828125 C 533.019531 391.605469 532.574219 391.328125 532.183594 390.996094 C 532.019531 390.828125 531.851562 390.664062 531.742188 390.496094 C 531.519531 390.164062 531.296875 389.773438 531.074219 389.386719 C 530.574219 388.441406 529.351562 388.109375 528.464844 388.609375 C 527.519531 389.109375 527.1875 390.273438 527.683594 391.21875 C 528.128906 392.050781 528.628906 392.882812 529.296875 393.605469 C 530.128906 394.4375 531.183594 394.992188 532.242188 395.492188 C 533.296875 395.933594 534.40625 396.210938 535.519531 396.488281 C 536.796875 396.765625 538.019531 396.988281 539.296875 397.101562 C 541.683594 397.378906 544.128906 397.378906 546.570312 397.042969 C 549.015625 396.710938 551.40625 395.878906 553.683594 394.878906 C 555.792969 393.9375 557.792969 392.769531 559.738281 391.550781 C 561.792969 390.164062 563.792969 388.664062 565.679688 387.054688 C 566.457031 386.390625 567.238281 385.667969 568.015625 384.945312 C 568.847656 384.113281 569.625 383.28125 570.402344 382.394531 C 571.179688 381.503906 571.679688 380.449219 572.179688 379.394531 C 572.570312 378.453125 572.957031 377.398438 572.902344 376.34375 C 572.847656 375.789062 572.734375 375.34375 572.402344 374.957031 C 572.070312 374.566406 571.570312 374.34375 571.070312 374.34375 C 571.070312 374.34375 571.015625 374.34375 571.015625 374.34375 C 570.347656 374.289062 569.847656 374.511719 569.515625 374.84375 Z M 569.515625 374.84375 " fill-opacity="1" fill-rule="nonzero"/><g clip-path="url(#fe1cca388b)"><path fill="#5b3e36" d="M 567.902344 373.511719 C 567.179688 374.179688 567.015625 375.511719 567.792969 376.234375 C 567.957031 376.398438 568.125 376.566406 568.292969 376.730469 C 568.292969 376.789062 568.292969 376.898438 568.292969 376.953125 C 568.179688 377.453125 568.015625 377.953125 567.792969 378.453125 C 567.347656 379.339844 566.738281 380.117188 566.125 380.894531 C 563.347656 384.113281 560.183594 387 556.738281 389.496094 C 554.125 391.328125 551.40625 392.9375 548.460938 394.101562 C 546.90625 394.65625 545.351562 394.992188 543.738281 395.214844 C 542.015625 395.324219 540.296875 395.269531 538.628906 394.992188 C 537.351562 394.769531 536.128906 394.378906 534.960938 393.882812 C 534.074219 393.4375 533.296875 392.9375 532.519531 392.382812 C 531.851562 391.828125 531.183594 391.21875 530.574219 390.605469 C 530.183594 390.21875 529.742188 389.996094 529.242188 389.996094 C 528.742188 389.996094 528.242188 390.164062 527.851562 390.496094 C 527.128906 391.160156 526.964844 392.492188 527.742188 393.214844 C 528.574219 393.992188 529.40625 394.769531 530.296875 395.492188 C 531.183594 396.210938 532.128906 396.765625 533.183594 397.265625 C 534.296875 397.820312 535.460938 398.210938 536.683594 398.488281 C 538.019531 398.820312 539.40625 398.988281 540.738281 399.097656 C 542.015625 399.207031 543.238281 399.097656 544.515625 398.988281 C 545.738281 398.875 546.90625 398.652344 548.070312 398.320312 C 549.292969 397.988281 550.460938 397.488281 551.628906 396.988281 C 552.847656 396.433594 554.015625 395.824219 555.183594 395.15625 C 557.347656 393.9375 559.402344 392.4375 561.347656 390.941406 C 563.292969 389.386719 565.179688 387.664062 566.902344 385.890625 C 568.625 384.113281 570.402344 382.226562 571.457031 379.949219 C 571.902344 378.953125 572.179688 377.953125 572.292969 376.898438 C 572.292969 376.621094 572.292969 376.34375 572.234375 376.121094 C 572.234375 376.011719 572.234375 375.953125 572.179688 375.84375 C 572.070312 375.566406 571.957031 375.34375 571.902344 375.066406 C 571.570312 374.511719 571.179688 374.066406 570.734375 373.625 C 570.347656 373.234375 569.902344 373.011719 569.402344 373.011719 C 569.402344 373.011719 569.347656 373.011719 569.347656 373.011719 C 568.738281 373.011719 568.238281 373.179688 567.902344 373.511719 Z M 568.238281 376.453125 C 568.292969 376.511719 568.292969 376.621094 568.347656 376.675781 C 568.292969 376.621094 568.238281 376.511719 568.238281 376.453125 Z M 568.347656 376.84375 C 568.347656 376.898438 568.347656 376.953125 568.347656 377.007812 C 568.347656 376.953125 568.347656 376.898438 568.347656 376.84375 Z M 566.015625 381.0625 C 565.960938 381.117188 565.960938 381.117188 565.902344 381.171875 C 565.957031 381.171875 566.015625 381.117188 566.015625 381.0625 Z M 544.074219 395.214844 C 544.015625 395.214844 543.960938 395.214844 543.90625 395.214844 C 543.960938 395.269531 544.015625 395.214844 544.074219 395.214844 Z M 544.074219 395.214844 " fill-opacity="1" fill-rule="nonzero"/></g><path fill="#5b3e36" d="M 262.9375 370.015625 C 262.492188 370.238281 262.160156 370.683594 261.992188 371.125 C 261.828125 371.570312 261.882812 372.179688 262.160156 372.625 C 262.714844 373.457031 263.105469 374.34375 263.492188 375.234375 C 263.714844 375.84375 263.828125 376.453125 263.9375 377.066406 C 264.046875 378.730469 263.9375 380.394531 263.769531 382.058594 C 263.605469 383.726562 263.382812 385.390625 263.105469 387.054688 C 262.9375 388.054688 262.660156 388.996094 262.382812 389.941406 C 262.160156 390.773438 261.882812 391.550781 261.550781 392.328125 C 261.328125 392.714844 261.105469 393.105469 260.828125 393.492188 C 260.550781 393.824219 260.214844 394.101562 259.882812 394.378906 C 259.660156 394.492188 259.4375 394.65625 259.214844 394.769531 C 258.992188 394.824219 258.828125 394.878906 258.605469 394.878906 C 258.105469 394.878906 257.605469 394.878906 257.105469 394.824219 C 255.9375 394.546875 254.828125 394.101562 253.714844 393.605469 C 251.496094 392.550781 249.4375 391.21875 247.496094 389.664062 C 246.71875 388.996094 245.941406 388.21875 245.21875 387.441406 C 244.382812 386.554688 243.664062 385.554688 242.996094 384.613281 C 242.21875 383.503906 241.496094 382.394531 240.941406 381.171875 C 240.273438 379.839844 239.71875 378.453125 239.164062 377.066406 C 238.996094 376.621094 238.496094 376.289062 238.050781 376.121094 C 237.550781 375.953125 236.996094 376.011719 236.550781 376.289062 C 236.109375 376.511719 235.773438 376.953125 235.609375 377.398438 C 235.441406 377.953125 235.550781 378.398438 235.773438 378.894531 C 236.273438 380.171875 236.828125 381.449219 237.441406 382.671875 C 238.050781 383.945312 238.773438 385.113281 239.605469 386.277344 C 240.441406 387.5 241.328125 388.664062 242.273438 389.773438 C 243.21875 390.882812 244.273438 391.828125 245.382812 392.769531 C 247.550781 394.546875 249.9375 395.988281 252.496094 397.15625 C 253.714844 397.710938 254.996094 398.265625 256.328125 398.542969 C 257.660156 398.820312 259.214844 398.875 260.550781 398.433594 C 261.992188 397.933594 263.105469 396.933594 264.046875 395.824219 C 264.882812 394.769531 265.4375 393.601562 265.828125 392.328125 C 266.714844 389.664062 267.160156 386.832031 267.546875 384.058594 C 267.714844 382.613281 267.824219 381.171875 267.9375 379.671875 C 267.992188 378.285156 267.992188 376.84375 267.714844 375.457031 C 267.492188 374.34375 267.046875 373.292969 266.546875 372.347656 C 266.269531 371.792969 265.992188 371.238281 265.660156 370.738281 C 265.382812 370.292969 265.046875 369.960938 264.546875 369.792969 C 264.382812 369.738281 264.160156 369.683594 263.9375 369.683594 C 263.550781 369.738281 263.214844 369.851562 262.9375 370.015625 Z M 262.9375 370.015625 " fill-opacity="1" fill-rule="nonzero"/><path fill="#35241d" d="M 397.699219 306.304688 C 397.257812 306.582031 396.8125 306.914062 396.367188 307.246094 C 395.8125 307.691406 395.476562 308.246094 395.089844 308.800781 C 394.699219 309.300781 394.476562 310.078125 394.257812 310.632812 C 394.089844 311.023438 393.976562 311.410156 393.8125 311.796875 C 393.480469 312.742188 393.3125 313.6875 393.144531 314.628906 C 392.921875 315.851562 392.8125 317.070312 392.644531 318.347656 C 392.421875 320.234375 392.3125 322.121094 392.3125 324.007812 C 391.589844 325.394531 390.757812 326.785156 389.867188 328.058594 C 388.8125 329.335938 387.644531 330.558594 386.3125 331.613281 C 385.3125 332.277344 384.3125 332.886719 383.203125 333.386719 C 381.8125 333.886719 380.425781 334.332031 378.980469 334.554688 C 377.203125 334.71875 375.371094 334.71875 373.59375 334.496094 C 371.203125 334.109375 368.925781 333.332031 366.703125 332.445312 C 364.757812 331.554688 362.980469 330.558594 361.261719 329.28125 C 360.203125 328.449219 359.261719 327.503906 358.425781 326.503906 C 357.761719 325.5625 357.203125 324.5625 356.703125 323.507812 C 356.371094 322.675781 356.148438 321.84375 355.925781 320.957031 C 355.59375 319.457031 355.039062 318.070312 354.425781 316.628906 C 353.648438 314.738281 352.648438 312.910156 351.09375 311.578125 C 349.707031 312.410156 348.648438 313.628906 347.761719 314.960938 C 347.09375 315.90625 346.707031 317.070312 346.371094 318.179688 C 345.929688 319.789062 345.984375 321.511719 346.261719 323.121094 C 346.707031 325.285156 347.539062 327.28125 348.59375 329.226562 C 349.648438 331.222656 351.148438 333.109375 352.816406 334.664062 C 354.425781 336.164062 356.203125 337.4375 358.09375 338.605469 C 360.09375 339.824219 362.316406 340.714844 364.480469 341.492188 C 368.648438 342.988281 373.09375 343.765625 377.535156 343.488281 C 382.035156 343.265625 386.480469 341.824219 390.257812 339.324219 C 391.867188 338.214844 393.367188 336.882812 394.699219 335.441406 C 394.8125 335.71875 394.976562 335.996094 395.089844 336.21875 C 395.976562 338.050781 397.367188 339.714844 398.8125 341.15625 C 400.3125 342.601562 402.03125 343.875 403.921875 344.820312 C 405.808594 345.820312 407.867188 346.484375 409.921875 347.097656 C 411.921875 347.707031 413.976562 348.039062 416.085938 348.148438 C 417.308594 348.207031 418.53125 348.039062 419.753906 347.871094 C 420.753906 347.707031 421.753906 347.484375 422.753906 347.207031 C 426.808594 345.984375 430.53125 343.378906 433.25 340.160156 C 435.808594 337.105469 438.25 333.441406 438.027344 329.28125 C 437.917969 327.339844 437.195312 325.171875 435.695312 323.84375 C 434.695312 324.617188 433.808594 325.453125 432.972656 326.394531 C 431.972656 327.617188 430.972656 328.78125 430.03125 330.058594 C 429.085938 331.277344 428.417969 332.667969 427.53125 333.941406 C 426.695312 334.941406 425.863281 335.886719 424.863281 336.71875 C 423.808594 337.496094 422.699219 338.160156 421.53125 338.714844 C 420.53125 339.105469 419.476562 339.382812 418.363281 339.546875 C 417.421875 339.660156 416.476562 339.660156 415.53125 339.601562 C 413.421875 339.214844 411.367188 338.605469 409.367188 337.773438 C 408.308594 337.273438 407.367188 336.71875 406.421875 336.105469 C 405.589844 335.441406 404.867188 334.71875 404.199219 333.886719 C 403.644531 333.109375 403.199219 332.332031 402.8125 331.5 C 402.367188 330.335938 402.03125 329.167969 401.867188 328.003906 C 401.699219 326.503906 401.699219 325.007812 401.699219 323.507812 C 402.3125 321.789062 402.867188 320.011719 403.367188 318.179688 C 403.867188 316.347656 404.421875 314.574219 404.753906 312.6875 C 404.867188 311.964844 405.089844 311.242188 404.976562 310.523438 C 404.976562 309.691406 404.753906 308.96875 404.367188 308.246094 C 404.089844 307.746094 403.753906 307.359375 403.367188 306.914062 C 402.8125 306.359375 402.144531 305.972656 401.367188 305.75 C 400.976562 305.636719 400.535156 305.582031 400.089844 305.582031 C 399.199219 305.695312 398.367188 305.914062 397.699219 306.304688 Z M 408.53125 337.605469 C 408.589844 337.605469 408.644531 337.660156 408.644531 337.660156 C 408.644531 337.605469 408.589844 337.605469 408.53125 337.605469 Z M 408.53125 337.605469 " fill-opacity="1" fill-rule="nonzero"/><path fill="#35241d" d="M 434.472656 317.625 C 432.808594 319.011719 431.753906 321.011719 431.195312 323.007812 C 431.085938 323.34375 431.03125 323.675781 431.03125 324.007812 C 430.917969 324.839844 430.808594 325.5625 430.863281 326.394531 C 430.917969 327.671875 431.085938 329.003906 431.308594 330.28125 C 431.640625 332.277344 432.472656 334.21875 433.25 336.050781 C 434.085938 337.882812 435.25 339.492188 436.527344 341.101562 C 437.75 342.710938 439.308594 343.988281 440.917969 345.207031 C 444.195312 347.652344 448.082031 349.316406 452.082031 350.316406 C 454.195312 350.871094 456.359375 351.203125 458.527344 351.3125 C 460.527344 351.425781 462.527344 351.148438 464.46875 350.8125 C 466.359375 350.480469 468.191406 349.59375 469.859375 348.648438 C 470.527344 348.261719 471.136719 347.871094 471.746094 347.429688 C 472.359375 349.980469 473.304688 352.480469 474.691406 354.753906 C 476.746094 358.085938 479.636719 360.859375 483.078125 362.800781 C 484.800781 363.800781 486.691406 364.523438 488.578125 365.1875 C 490.46875 365.855469 492.410156 366.410156 494.355469 366.742188 C 496.355469 367.128906 498.464844 367.351562 500.523438 367.351562 C 502.578125 367.351562 504.6875 367.074219 506.6875 366.6875 C 508.742188 366.296875 510.6875 365.632812 512.574219 364.800781 C 514.464844 363.96875 516.1875 362.96875 517.796875 361.746094 C 518.574219 361.136719 519.351562 360.527344 520.132812 359.859375 C 520.851562 359.195312 521.464844 358.472656 522.074219 357.808594 C 523.628906 356.03125 524.796875 353.921875 525.074219 351.535156 C 525.296875 349.816406 524.796875 347.984375 523.410156 346.875 C 522.351562 346.042969 521.074219 345.875 519.851562 346.429688 C 519.910156 346.761719 519.964844 347.097656 520.019531 347.429688 C 520.019531 347.59375 520.019531 347.761719 520.019531 347.929688 C 519.964844 348.09375 519.964844 348.207031 519.910156 348.371094 C 519.910156 348.425781 519.851562 348.484375 519.796875 348.539062 C 518.796875 349.703125 517.574219 350.648438 516.574219 351.757812 C 516.074219 352.367188 515.574219 352.980469 515.019531 353.535156 C 514.464844 354.144531 513.910156 354.644531 513.296875 355.144531 C 511.964844 356.085938 510.578125 356.917969 509.078125 357.585938 C 507.410156 358.195312 505.742188 358.640625 504.023438 358.972656 C 502.023438 359.195312 500.023438 359.195312 497.964844 358.972656 C 495.246094 358.527344 492.632812 357.75 490.132812 356.753906 C 488.632812 356.085938 487.191406 355.308594 485.855469 354.367188 C 484.96875 353.589844 484.136719 352.757812 483.414062 351.867188 C 482.691406 350.871094 482.078125 349.871094 481.578125 348.761719 C 480.914062 346.929688 480.414062 345.042969 480.136719 343.15625 C 479.914062 340.933594 479.859375 338.660156 480.023438 336.382812 C 480.300781 335.773438 480.578125 335.164062 480.859375 334.554688 C 481.300781 333.554688 481.691406 332.554688 482.023438 331.5 C 482.414062 330.222656 482.191406 328.890625 481.859375 327.671875 C 481.523438 326.503906 480.800781 325.507812 479.746094 324.953125 C 479.023438 324.507812 478.246094 324.339844 477.414062 324.339844 C 476.582031 324.339844 475.800781 324.5625 475.082031 324.953125 C 474.414062 325.230469 474.136719 325.453125 473.523438 325.949219 C 472.636719 326.617188 472.304688 327.503906 471.914062 328.503906 C 471.414062 329.726562 471.359375 331.167969 471.191406 332.5 C 471.191406 332.445312 471.191406 332.386719 471.191406 332.332031 C 471.023438 333.441406 470.914062 334.554688 470.804688 335.664062 C 470.359375 336.441406 469.914062 337.21875 469.414062 337.9375 C 468.691406 338.769531 467.914062 339.601562 467.082031 340.269531 C 466.25 340.878906 465.359375 341.378906 464.414062 341.824219 C 463.636719 342.101562 462.804688 342.324219 461.972656 342.488281 C 460.636719 342.601562 459.304688 342.601562 457.972656 342.488281 C 455.75 342.101562 453.582031 341.492188 451.472656 340.65625 C 449.804688 339.882812 448.195312 338.992188 446.75 337.882812 C 445.75 337.050781 444.863281 336.164062 444.027344 335.164062 C 443.25 334.054688 442.585938 332.945312 442.027344 331.722656 C 441.585938 330.5 441.195312 329.28125 440.972656 327.949219 C 440.917969 326.894531 440.917969 325.894531 440.804688 324.839844 C 440.695312 323.453125 440.417969 322.066406 440.140625 320.734375 C 439.75 318.902344 439.085938 317.125 437.972656 315.628906 C 436.527344 316.015625 435.472656 316.738281 434.472656 317.625 Z M 434.472656 317.625 " fill-opacity="1" fill-rule="nonzero"/><path fill="#35241d" d="M 511.964844 363.800781 C 511.410156 364.410156 510.910156 365.132812 510.410156 365.855469 C 509.910156 366.632812 509.632812 367.519531 509.296875 368.351562 C 508.964844 369.183594 508.910156 370.292969 508.796875 371.125 C 508.6875 371.902344 508.6875 372.734375 508.6875 373.511719 C 508.6875 375.066406 508.910156 376.675781 509.1875 378.175781 C 509.464844 379.894531 510.1875 381.449219 510.910156 383.003906 C 512.132812 385.722656 514.1875 388.109375 516.519531 389.996094 C 517.6875 390.941406 518.910156 391.828125 520.242188 392.492188 C 521.574219 393.214844 523.019531 393.769531 524.40625 394.269531 C 526.296875 394.992188 528.296875 395.492188 530.351562 395.546875 C 533.296875 395.65625 536.738281 394.601562 538.574219 392.160156 C 537.183594 390.550781 535.460938 389.273438 533.628906 388.164062 C 532.628906 387.554688 531.574219 387.054688 530.464844 386.609375 C 530.183594 386.5 529.851562 386.390625 529.574219 386.332031 C 528.742188 386.109375 527.90625 385.832031 527.128906 385.5 C 525.851562 384.890625 524.628906 384.222656 523.464844 383.449219 C 522.628906 382.726562 521.851562 382.003906 521.128906 381.171875 C 520.519531 380.285156 520.019531 379.394531 519.519531 378.453125 C 519.1875 377.507812 518.910156 376.511719 518.6875 375.511719 C 518.574219 374.234375 518.574219 372.957031 518.6875 371.679688 C 518.851562 370.683594 519.019531 369.683594 519.132812 368.628906 C 519.242188 367.519531 519.1875 366.410156 519.019531 365.300781 C 518.796875 363.523438 518.351562 361.746094 517.351562 360.195312 C 515.242188 360.804688 513.410156 362.191406 511.964844 363.800781 Z M 511.964844 363.800781 " fill-opacity="1" fill-rule="nonzero"/><path fill="#35241d" d="M 317.265625 316.847656 C 316.597656 317.183594 315.988281 317.738281 316.097656 318.515625 C 316.152344 318.515625 316.210938 318.515625 316.265625 318.515625 C 316.265625 318.515625 316.210938 318.515625 316.210938 318.515625 C 316.265625 318.515625 316.320312 318.515625 316.375 318.570312 C 316.433594 318.570312 316.433594 318.625 316.488281 318.625 C 316.597656 318.734375 316.710938 318.847656 316.765625 318.957031 C 316.875 319.125 316.933594 319.234375 317.042969 319.402344 C 317.042969 319.457031 317.097656 319.511719 317.097656 319.570312 C 317.265625 321.34375 317.152344 323.121094 317.210938 324.894531 C 317.210938 325.894531 317.265625 326.839844 317.265625 327.835938 C 317.210938 328.890625 317.152344 329.890625 316.988281 330.945312 C 316.710938 332.945312 316.265625 334.886719 315.820312 336.882812 C 315.375 338.769531 314.710938 340.546875 313.988281 342.378906 C 312.988281 344.652344 311.765625 346.816406 310.320312 348.871094 C 309.097656 350.371094 307.710938 351.757812 306.210938 353.035156 C 304.820312 354.03125 303.320312 354.921875 301.765625 355.640625 C 300.378906 356.199219 298.988281 356.585938 297.488281 356.808594 C 296.601562 356.917969 295.710938 356.972656 294.824219 356.972656 C 294.433594 355.421875 293.878906 353.921875 293.046875 352.535156 C 291.769531 350.480469 289.878906 348.761719 287.824219 347.484375 C 286.878906 346.929688 285.824219 346.539062 284.824219 346.207031 C 283.546875 345.820312 282.324219 345.984375 280.992188 346.207031 C 280.4375 346.320312 279.65625 346.652344 279.214844 346.875 C 278.714844 347.152344 278.101562 347.539062 277.714844 347.929688 C 277.269531 348.371094 276.824219 348.871094 276.546875 349.371094 C 276.101562 350.039062 275.824219 350.757812 275.546875 351.480469 C 275.101562 352.699219 275.269531 354.03125 275.546875 355.253906 C 275.660156 355.808594 276.046875 356.585938 276.269531 357.085938 C 276.4375 357.472656 276.660156 357.808594 276.878906 358.195312 C 278.160156 360.195312 280.046875 361.691406 282.101562 362.800781 C 283.546875 363.523438 284.992188 364.132812 286.492188 364.578125 C 286.15625 366.132812 285.714844 367.6875 285.15625 369.183594 C 284.433594 370.847656 283.546875 372.402344 282.492188 373.902344 C 281.714844 374.789062 280.878906 375.621094 279.992188 376.34375 C 279.101562 376.953125 278.214844 377.507812 277.214844 378.007812 C 275.992188 378.453125 274.769531 378.785156 273.492188 378.953125 C 272.769531 379.007812 272.046875 379.0625 271.324219 379.0625 C 270.605469 379.0625 269.882812 379.007812 269.160156 378.894531 C 267.714844 378.675781 266.328125 378.398438 264.882812 378.007812 C 264.214844 377.84375 263.492188 377.621094 262.828125 377.398438 C 261.992188 377.121094 261.105469 376.953125 260.214844 376.789062 C 259.273438 376.675781 258.4375 376.566406 257.492188 376.511719 C 256.550781 376.511719 255.605469 376.621094 254.714844 376.789062 C 253.550781 376.953125 252.382812 377.398438 251.382812 377.953125 C 251.660156 379.453125 252.382812 380.839844 253.328125 382.058594 C 254.050781 383.003906 254.773438 383.78125 255.660156 384.5 C 256.273438 385 256.828125 385.390625 257.492188 385.777344 C 258.328125 386.277344 259.273438 386.609375 260.160156 386.886719 C 262.4375 387.609375 264.769531 388.054688 267.160156 388.386719 C 268.160156 388.496094 269.214844 388.609375 270.214844 388.664062 C 271.660156 388.71875 273.101562 388.554688 274.546875 388.386719 C 276.4375 388.109375 278.214844 387.664062 279.992188 386.945312 C 281.101562 386.5 282.15625 386 283.214844 385.390625 C 284.378906 384.667969 285.433594 383.78125 286.492188 382.890625 C 288.101562 381.503906 289.433594 379.839844 290.601562 378.0625 C 291.824219 376.175781 292.710938 374.066406 293.546875 372.015625 C 294.269531 370.128906 294.765625 368.128906 295.046875 366.132812 C 295.101562 365.910156 295.101562 365.6875 295.15625 365.464844 C 296.046875 365.410156 296.933594 365.355469 297.765625 365.242188 C 299.765625 364.964844 301.710938 364.578125 303.601562 363.855469 C 307.15625 362.46875 310.375 360.472656 313.15625 357.863281 C 314.488281 356.640625 315.652344 355.199219 316.765625 353.753906 C 317.875 352.3125 318.820312 350.8125 319.652344 349.203125 C 323.097656 342.601562 324.765625 335.164062 325.097656 327.78125 C 325.207031 325.949219 325.097656 324.0625 324.597656 322.289062 C 324.320312 321.34375 323.820312 320.457031 323.320312 319.625 C 322.765625 318.734375 321.929688 317.847656 321.042969 317.238281 C 320.320312 316.792969 319.429688 316.460938 318.597656 316.460938 C 318.210938 316.515625 317.710938 316.628906 317.265625 316.847656 Z M 316.433594 318.570312 C 316.433594 318.570312 316.488281 318.570312 316.488281 318.570312 C 316.488281 318.625 316.433594 318.625 316.433594 318.570312 Z M 316.488281 318.625 C 316.488281 318.625 316.542969 318.625 316.542969 318.625 C 316.542969 318.625 316.542969 318.625 316.488281 318.625 Z M 284.101562 352.867188 C 284.101562 352.921875 284.046875 352.921875 284.101562 352.867188 C 284.046875 352.921875 284.101562 352.921875 284.101562 352.867188 Z M 282.65625 354.476562 C 282.601562 354.476562 282.546875 354.476562 282.492188 354.476562 C 282.546875 354.476562 282.601562 354.476562 282.65625 354.476562 Z M 282.65625 354.476562 " fill-opacity="1" fill-rule="nonzero"/><path fill="#35241d" d="M 335.152344 312.410156 C 333.820312 312.910156 332.707031 313.6875 331.707031 314.628906 C 330.984375 315.296875 330.429688 316.070312 329.875 316.792969 C 329.097656 317.847656 328.542969 318.902344 328.097656 320.125 C 327.765625 320.957031 327.652344 321.789062 327.484375 322.621094 C 327.320312 323.898438 327.152344 325.117188 327.152344 326.449219 C 327.152344 328.671875 327.429688 330.945312 327.984375 333.054688 C 328.265625 334.054688 328.707031 335.050781 329.152344 335.996094 C 329.542969 336.882812 330.042969 337.714844 330.542969 338.492188 C 331.597656 340.214844 332.929688 341.769531 334.261719 343.265625 C 335.429688 344.597656 336.816406 345.765625 338.207031 346.875 C 339.929688 348.207031 341.707031 349.480469 343.59375 350.535156 C 347.039062 352.480469 350.816406 353.867188 354.59375 355.085938 C 356.484375 355.699219 358.371094 356.085938 360.316406 356.417969 C 361.703125 356.640625 363.039062 356.863281 364.480469 356.753906 C 367.371094 356.476562 370.480469 355.53125 372.480469 353.3125 C 371.757812 352.367188 370.980469 351.589844 370.035156 350.871094 C 368.480469 349.703125 366.757812 348.761719 364.871094 348.207031 C 364.480469 348.09375 364.09375 348.039062 363.757812 347.929688 C 362.539062 347.652344 361.316406 347.484375 360.148438 347.207031 C 357.871094 346.652344 355.707031 345.875 353.539062 344.988281 C 350.648438 343.710938 347.929688 342.210938 345.371094 340.324219 C 343.539062 338.828125 341.875 337.21875 340.375 335.386719 C 339.484375 334.164062 338.707031 332.945312 338.039062 331.613281 C 337.707031 330.722656 337.484375 329.78125 337.316406 328.835938 C 337.207031 327.394531 337.207031 326.007812 337.316406 324.5625 C 337.484375 323.507812 337.652344 322.453125 337.761719 321.398438 C 337.875 320.011719 337.707031 318.679688 337.484375 317.347656 C 337.316406 316.238281 336.875 315.238281 336.429688 314.242188 C 335.984375 313.574219 335.597656 312.964844 335.152344 312.410156 Z M 370.257812 351.148438 C 370.148438 351.089844 370.035156 350.980469 369.980469 350.925781 C 370.09375 350.980469 370.203125 351.089844 370.257812 351.148438 Z M 369.980469 350.925781 Z M 369.980469 350.925781 C 369.925781 350.871094 369.816406 350.8125 369.757812 350.757812 C 369.816406 350.8125 369.871094 350.871094 369.980469 350.925781 Z M 369.980469 350.925781 " fill-opacity="1" fill-rule="nonzero"/><path fill="#35241d" d="M 300.265625 213.011719 C 298.324219 213.457031 296.378906 214.121094 294.546875 214.898438 C 292.324219 215.785156 290.210938 216.839844 288.210938 218.117188 C 280.824219 222.890625 275.214844 230.269531 273.046875 238.816406 C 272.492188 240.925781 272.269531 243.035156 271.992188 245.199219 C 271.882812 246.03125 271.769531 246.867188 271.714844 247.640625 C 270.9375 247.976562 270.160156 248.308594 269.4375 248.695312 C 267.546875 249.695312 265.882812 251.027344 264.269531 252.359375 C 262.660156 253.691406 261.160156 255.246094 259.882812 256.855469 C 254.328125 263.792969 251.382812 272.671875 251.105469 281.550781 C 251.050781 283.605469 251.273438 285.714844 251.828125 287.65625 C 252.105469 288.601562 252.550781 289.542969 252.9375 290.488281 C 253.382812 291.542969 254.160156 292.484375 254.9375 293.261719 C 255.605469 293.871094 256.382812 294.425781 257.160156 294.925781 C 257.9375 295.371094 258.828125 295.703125 259.714844 295.980469 C 260.992188 296.371094 262.492188 296.425781 263.660156 295.703125 C 263.492188 295.316406 263.328125 294.984375 263.214844 294.59375 C 262.660156 293.261719 262.160156 291.929688 261.492188 290.597656 C 260.769531 289.15625 259.9375 287.769531 259.273438 286.324219 C 258.992188 285.492188 258.714844 284.660156 258.605469 283.828125 C 258.4375 282.050781 258.492188 280.277344 258.714844 278.5 C 259.214844 275.390625 260.050781 272.339844 261.214844 269.398438 C 262.269531 267.011719 263.660156 264.679688 265.214844 262.570312 C 266.714844 260.738281 268.382812 259.074219 270.214844 257.632812 C 271.105469 256.964844 272.046875 256.355469 272.992188 255.855469 C 274.046875 258.574219 275.769531 261.074219 277.9375 263.070312 C 281.214844 266.066406 285.546875 268.34375 290.101562 268.066406 C 292.433594 267.898438 294.65625 267.011719 296.433594 265.511719 C 298.15625 264.070312 299.488281 261.90625 299.933594 259.683594 C 300.433594 257.410156 300.265625 254.96875 299.265625 252.804688 C 298.324219 250.804688 296.488281 249.363281 294.65625 248.308594 C 290.988281 246.144531 286.546875 245.367188 282.324219 245.421875 C 281.492188 245.421875 280.601562 245.476562 279.769531 245.589844 C 280.15625 243.203125 280.714844 240.816406 281.601562 238.539062 C 282.546875 236.488281 283.714844 234.488281 285.046875 232.65625 C 286.546875 230.828125 288.269531 229.160156 290.101562 227.664062 C 292.046875 226.21875 294.101562 225 296.324219 224 C 298.933594 223 301.601562 222.222656 304.320312 221.78125 C 308.320312 221.335938 312.433594 221.503906 316.433594 222.003906 C 317.929688 222.222656 319.375 222.5 320.820312 222.890625 C 321.652344 223.113281 322.488281 223.335938 323.265625 223.613281 C 324.207031 223.945312 325.152344 224.277344 326.152344 224.5 C 327.929688 224.886719 329.761719 225.054688 331.542969 224.832031 C 332.875 224.664062 334.207031 224.445312 335.375 223.832031 C 335.152344 222.28125 334.539062 220.890625 333.652344 219.558594 C 333.039062 218.671875 332.320312 217.839844 331.484375 217.0625 C 330.261719 215.898438 328.820312 215.121094 327.265625 214.507812 C 322.988281 212.898438 318.320312 212.289062 313.765625 212.011719 C 312.597656 211.957031 311.488281 211.902344 310.320312 211.902344 C 306.988281 211.957031 303.601562 212.234375 300.265625 213.011719 Z M 285.433594 253.746094 C 286.714844 253.96875 287.878906 254.246094 289.101562 254.691406 C 289.933594 255.078125 290.710938 255.46875 291.433594 256.023438 C 291.601562 256.1875 291.769531 256.355469 291.933594 256.523438 C 291.933594 256.523438 291.933594 256.578125 291.988281 256.578125 C 292.046875 256.6875 292.046875 256.800781 292.101562 256.964844 C 292.101562 257.300781 292.101562 257.6875 292.101562 258.019531 C 292.046875 258.242188 291.988281 258.464844 291.933594 258.742188 C 291.769531 259.019531 291.65625 259.242188 291.488281 259.519531 C 291.378906 259.628906 291.269531 259.742188 291.15625 259.90625 C 290.933594 260.074219 290.65625 260.183594 290.378906 260.351562 C 290.101562 260.460938 289.878906 260.519531 289.601562 260.574219 C 289.210938 260.574219 288.769531 260.574219 288.378906 260.574219 C 287.710938 260.460938 287.101562 260.296875 286.433594 260.074219 C 285.546875 259.628906 284.769531 259.128906 283.933594 258.574219 C 283.101562 257.910156 282.324219 257.132812 281.601562 256.300781 C 281.046875 255.523438 280.601562 254.691406 280.214844 253.859375 C 281.9375 253.582031 283.714844 253.582031 285.433594 253.746094 Z M 285.433594 253.746094 " fill-opacity="1" fill-rule="nonzero"/><g clip-path="url(#d58072c671)"><path fill="#35241d" d="M 243.605469 302.199219 C 242.664062 302.363281 241.71875 302.640625 240.828125 302.972656 C 238.605469 303.75 236.441406 304.75 234.386719 306.027344 C 232.496094 307.191406 230.71875 308.578125 229.109375 310.078125 C 227.386719 311.632812 225.941406 313.40625 224.554688 315.238281 C 221.941406 318.679688 220.386719 322.730469 219.441406 326.894531 C 218.941406 329.058594 218.609375 331.222656 218.5 333.441406 C 218.386719 335.664062 218.71875 337.992188 219.332031 340.101562 C 219.609375 341.15625 220.109375 342.210938 220.554688 343.210938 C 221 344.210938 221.664062 345.097656 222.332031 345.929688 C 223.441406 347.316406 224.71875 348.484375 226.109375 349.539062 C 225.773438 350.425781 225.441406 351.367188 225.164062 352.3125 C 224.609375 354.253906 224.277344 356.253906 223.996094 358.195312 C 223.664062 360.472656 223.441406 362.746094 223.441406 365.078125 C 223.386719 369.40625 224.054688 373.847656 225.441406 377.953125 C 226.109375 380.007812 226.996094 382.003906 228.054688 383.890625 C 229.109375 385.777344 230.332031 387.441406 231.664062 389.109375 C 232.273438 389.886719 232.941406 390.664062 233.664062 391.328125 C 234.496094 392.050781 235.441406 392.714844 236.441406 393.214844 C 237.496094 393.769531 238.664062 394.101562 239.828125 394.269531 C 241.105469 394.492188 242.496094 394.492188 243.605469 393.824219 C 243.496094 393.546875 243.382812 393.214844 243.273438 392.9375 C 242.941406 391.992188 242.441406 391.105469 241.941406 390.273438 C 241.382812 389.332031 240.773438 388.441406 240.21875 387.554688 C 239.273438 386.167969 238.105469 384.945312 237.050781 383.613281 C 235.71875 381.835938 234.609375 379.949219 233.71875 377.898438 C 232.832031 375.566406 232.164062 373.234375 231.773438 370.792969 C 231.441406 367.628906 231.441406 364.46875 231.773438 361.304688 C 231.996094 359.859375 232.273438 358.417969 232.609375 356.972656 C 232.886719 355.699219 233.21875 354.421875 233.664062 353.199219 C 235.609375 353.753906 237.664062 354.03125 239.664062 354.3125 C 240.71875 354.421875 241.71875 354.421875 242.773438 354.367188 C 243.882812 354.253906 245.050781 354.089844 246.105469 353.699219 C 247.273438 353.257812 248.496094 352.699219 249.4375 351.8125 C 249.882812 351.371094 250.328125 350.871094 250.660156 350.371094 C 251.105469 349.703125 251.4375 348.984375 251.660156 348.207031 C 251.71875 347.707031 251.773438 347.207031 251.882812 346.707031 C 251.828125 346.097656 251.773438 345.484375 251.605469 344.875 C 251.273438 343.65625 250.496094 342.601562 249.660156 341.65625 C 248.828125 340.714844 247.605469 340.214844 246.496094 339.769531 C 245.71875 339.4375 244.941406 339.214844 244.164062 338.992188 C 243.050781 338.714844 241.882812 338.550781 240.773438 338.4375 C 239.664062 338.328125 238.496094 338.550781 237.441406 338.769531 C 236.328125 338.992188 235.273438 339.4375 234.21875 339.882812 C 233.21875 340.378906 232.386719 340.992188 231.441406 341.710938 C 230.996094 342.101562 230.550781 342.488281 230.164062 342.988281 C 229.550781 342.433594 228.996094 341.878906 228.496094 341.269531 C 228.164062 340.769531 227.832031 340.214844 227.554688 339.660156 C 227.164062 338.605469 226.886719 337.550781 226.71875 336.496094 C 226.609375 335.386719 226.664062 334.277344 226.773438 333.109375 C 227.21875 330.5 227.886719 328.003906 228.886719 325.5625 C 229.609375 323.953125 230.496094 322.453125 231.550781 321.011719 C 232.996094 319.289062 234.550781 317.679688 236.328125 316.238281 C 238.050781 315.019531 239.828125 313.964844 241.71875 313.074219 C 243.164062 312.519531 244.664062 312.078125 246.160156 311.796875 C 247.160156 311.6875 248.105469 311.519531 249.105469 311.355469 C 249.996094 311.1875 250.882812 310.910156 251.773438 310.6875 C 253.160156 310.300781 254.550781 310.023438 255.9375 309.523438 C 255.882812 307.96875 255.214844 306.582031 254.328125 305.417969 C 253.660156 304.582031 252.828125 303.972656 251.9375 303.417969 C 251.382812 303.085938 250.605469 302.753906 250.050781 302.585938 C 249.160156 302.253906 248.328125 302.140625 247.382812 302.03125 C 247.105469 301.976562 246.828125 301.976562 246.605469 301.976562 C 245.550781 301.863281 244.550781 302.03125 243.605469 302.199219 Z M 243.828125 347.59375 C 243.828125 347.59375 243.828125 347.652344 243.828125 347.652344 C 243.828125 347.652344 243.828125 347.59375 243.828125 347.59375 Z M 243.828125 347.59375 " fill-opacity="1" fill-rule="nonzero"/></g><g clip-path="url(#ef06323ec0)"><path fill="#35241d" d="M 432.417969 178.878906 C 427.976562 178.878906 423.476562 179.433594 419.140625 180.433594 C 414.976562 181.433594 410.808594 182.875 407.089844 185.039062 C 406.03125 185.652344 405.03125 186.316406 404.089844 187.09375 C 403.976562 187.039062 403.8125 186.980469 403.699219 186.925781 C 400.144531 185.484375 396.421875 184.761719 392.589844 184.429688 C 390.644531 184.261719 388.757812 184.261719 386.8125 184.207031 C 384.703125 184.207031 382.589844 184.261719 380.480469 184.429688 C 376.371094 184.707031 372.203125 185.371094 368.203125 186.316406 C 364.316406 187.261719 360.539062 188.8125 357.09375 190.8125 C 355.539062 191.753906 354.039062 192.753906 352.59375 193.863281 C 350.871094 195.195312 349.261719 196.582031 347.707031 198.082031 C 344.929688 200.914062 342.484375 204.1875 340.652344 207.683594 C 339.707031 209.515625 338.875 211.511719 338.261719 213.457031 C 337.929688 214.453125 337.707031 215.453125 337.484375 216.453125 C 337.207031 217.730469 337.039062 219.003906 337.207031 220.335938 C 337.261719 220.949219 337.316406 221.503906 337.484375 222.058594 C 337.597656 222.667969 337.984375 223.445312 338.261719 224 C 338.761719 224.945312 339.375 225.777344 340.097656 226.554688 C 341.039062 227.550781 342.261719 228.382812 343.59375 228.828125 C 345.09375 226.832031 345.761719 224.445312 346.484375 222.058594 C 346.929688 220.558594 347.09375 219.0625 347.429688 217.5625 C 347.761719 216.121094 348.207031 214.675781 348.761719 213.289062 C 349.816406 210.957031 351.09375 208.792969 352.648438 206.738281 C 354.539062 204.410156 356.648438 202.300781 358.984375 200.414062 C 361.316406 198.691406 363.816406 197.136719 366.425781 195.972656 C 370.425781 194.363281 374.703125 193.421875 378.980469 192.808594 C 381.589844 192.476562 384.257812 192.308594 386.867188 192.253906 C 389.535156 192.199219 392.199219 192.199219 394.867188 192.476562 C 395.8125 192.644531 396.8125 192.808594 397.753906 193.03125 C 397.699219 193.085938 397.644531 193.199219 397.589844 193.253906 C 396.257812 194.917969 394.976562 196.640625 393.921875 198.46875 C 392.757812 200.46875 391.8125 202.6875 391.089844 204.910156 C 390.367188 206.960938 389.980469 209.183594 389.8125 211.347656 C 389.589844 213.734375 389.921875 216.175781 390.367188 218.503906 C 390.757812 220.558594 391.480469 222.558594 392.367188 224.445312 C 392.867188 225.441406 393.589844 226.332031 394.257812 227.164062 C 395.035156 228.164062 396.089844 228.9375 397.144531 229.660156 C 397.476562 229.9375 397.921875 230.105469 398.3125 230.269531 C 398.921875 230.546875 399.476562 230.769531 400.144531 230.9375 C 401.253906 231.214844 402.421875 231.214844 403.53125 231.160156 C 404.699219 231.105469 405.808594 230.882812 406.921875 230.605469 C 408.199219 230.269531 409.421875 229.660156 410.585938 229.105469 C 412.53125 228.21875 414.253906 226.996094 415.808594 225.5 C 416.644531 224.722656 417.308594 223.777344 418.03125 222.835938 C 418.808594 221.78125 419.253906 220.558594 419.699219 219.394531 C 420.03125 218.503906 420.253906 217.5625 420.421875 216.617188 C 420.585938 215.507812 420.699219 214.34375 420.699219 213.234375 C 420.640625 212.066406 420.476562 210.902344 420.308594 209.792969 C 420.140625 208.625 419.921875 207.460938 419.640625 206.351562 C 419.140625 204.242188 418.253906 202.246094 417.421875 200.246094 C 417.03125 199.359375 416.585938 198.46875 416.085938 197.582031 C 415.476562 196.472656 414.644531 195.417969 413.863281 194.417969 C 413.144531 193.53125 412.367188 192.644531 411.53125 191.867188 C 412.585938 191.199219 413.699219 190.644531 414.863281 190.144531 C 418.640625 188.648438 422.640625 187.59375 426.695312 186.980469 C 430.253906 186.539062 433.863281 186.371094 437.472656 186.761719 C 439.917969 187.148438 442.304688 187.816406 444.640625 188.703125 C 446.582031 189.589844 448.359375 190.644531 450.027344 191.867188 C 451.636719 193.144531 453.082031 194.585938 454.359375 196.140625 C 456.195312 198.582031 457.75 201.246094 458.972656 204.019531 C 460.136719 206.851562 461.027344 209.792969 461.636719 212.789062 C 461.582031 212.84375 461.527344 212.84375 461.472656 212.898438 C 460.472656 213.511719 459.582031 214.230469 458.691406 215.007812 C 457.027344 216.398438 455.636719 218.285156 454.695312 220.28125 C 454.195312 221.335938 453.804688 222.390625 453.472656 223.5 C 453.136719 224.609375 453.027344 225.832031 452.917969 226.996094 C 452.804688 227.996094 452.917969 228.9375 453.027344 229.9375 C 453.195312 231.214844 453.359375 232.4375 453.75 233.65625 C 454.472656 235.933594 455.972656 238.042969 458.082031 239.207031 C 460.75 240.648438 464.25 239.652344 466.082031 237.375 C 467.527344 235.597656 468.527344 233.546875 469.304688 231.382812 C 469.636719 230.4375 469.804688 229.382812 469.96875 228.382812 C 470.191406 227.050781 470.304688 225.664062 470.304688 224.277344 C 470.359375 222.445312 470.191406 220.558594 469.96875 218.726562 C 470.859375 218.503906 471.691406 218.285156 472.582031 218.117188 C 473.636719 218.007812 474.691406 218.007812 475.746094 218.117188 C 476.96875 218.339844 478.136719 218.617188 479.246094 219.0625 C 480.246094 219.503906 481.136719 220.058594 482.023438 220.671875 C 482.746094 221.28125 483.355469 221.945312 483.96875 222.667969 C 484.746094 223.777344 485.355469 224.886719 485.914062 226.109375 C 486.191406 226.832031 486.46875 227.605469 486.691406 228.382812 C 487.078125 229.660156 487.578125 230.882812 488.132812 232.101562 C 488.914062 233.824219 490.078125 235.265625 490.800781 236.988281 C 490.910156 237.207031 490.96875 237.484375 491.078125 237.707031 C 492.523438 237.484375 493.523438 236.429688 494.246094 235.210938 C 494.746094 234.378906 495.023438 233.324219 495.1875 232.378906 C 495.410156 231.160156 495.46875 229.992188 495.355469 228.773438 C 495.246094 228.050781 495.1875 227.328125 494.96875 226.664062 C 494.855469 226.164062 494.632812 225.664062 494.46875 225.164062 C 494.078125 224 493.578125 222.890625 493.078125 221.78125 C 492.132812 219.671875 490.800781 217.785156 489.300781 216.0625 C 487.914062 214.507812 486.132812 213.234375 484.300781 212.179688 C 482.300781 211.070312 480.078125 210.292969 477.800781 209.902344 C 476.636719 209.679688 475.46875 209.570312 474.300781 209.515625 C 473.082031 209.460938 471.859375 209.625 470.636719 209.792969 C 469.914062 209.902344 469.191406 210.015625 468.46875 210.179688 C 467.527344 206.074219 466.082031 202.078125 464.191406 198.304688 C 462.304688 194.53125 459.75 190.867188 456.636719 187.980469 C 455.082031 186.539062 453.417969 185.261719 451.636719 184.097656 C 449.695312 182.820312 447.582031 181.933594 445.472656 181.097656 C 441.304688 179.488281 436.863281 178.878906 432.53125 178.878906 C 432.472656 178.878906 432.417969 178.878906 432.417969 178.878906 Z M 405.421875 196.695312 C 406.476562 197.636719 407.476562 198.636719 408.367188 199.746094 C 409.421875 201.246094 410.253906 202.800781 410.976562 204.464844 C 411.921875 206.796875 412.53125 209.125 412.867188 211.566406 C 412.976562 212.621094 413.03125 213.621094 412.976562 214.675781 C 412.808594 215.507812 412.585938 216.285156 412.308594 217.0625 C 412.03125 217.617188 411.753906 218.171875 411.421875 218.671875 C 410.867188 219.339844 410.199219 219.949219 409.53125 220.558594 C 408.644531 221.167969 407.753906 221.667969 406.753906 222.113281 C 405.867188 222.445312 404.921875 222.777344 403.976562 223 C 403.367188 223.054688 402.753906 223.054688 402.199219 223.054688 C 402.089844 223.054688 401.976562 223 401.867188 222.945312 C 401.699219 222.835938 401.476562 222.722656 401.3125 222.613281 C 400.921875 222.28125 400.535156 221.890625 400.199219 221.503906 C 399.867188 221.003906 399.589844 220.503906 399.3125 219.949219 C 398.753906 218.503906 398.421875 216.953125 398.144531 215.398438 C 397.976562 213.898438 397.976562 212.457031 398.089844 210.957031 C 398.421875 209.015625 398.976562 207.183594 399.699219 205.351562 C 400.699219 203.132812 401.921875 201.023438 403.367188 199.082031 C 404.03125 198.191406 404.699219 197.417969 405.421875 196.695312 Z M 462.472656 223.945312 C 462.472656 224.609375 462.414062 225.277344 462.359375 225.886719 C 462.191406 226.886719 461.972656 227.886719 461.636719 228.828125 C 461.582031 228.105469 461.582031 227.386719 461.636719 226.664062 C 461.804688 225.832031 462.027344 225.054688 462.304688 224.277344 C 462.359375 224.222656 462.414062 224.109375 462.472656 223.945312 Z M 462.472656 223.945312 " fill-opacity="1" fill-rule="nonzero"/></g><path fill="#35241d" d="M 486.078125 207.015625 C 484.246094 207.738281 482.636719 208.738281 481.46875 210.292969 C 482.523438 211.847656 484.023438 213.011719 485.632812 213.953125 C 486.800781 214.675781 488.078125 215.175781 489.355469 215.675781 C 490.246094 216.0625 491.132812 216.339844 492.023438 216.675781 C 493.078125 217.171875 494.132812 217.785156 495.078125 218.449219 C 496.1875 219.394531 497.246094 220.449219 498.1875 221.558594 C 499.300781 223.113281 500.1875 224.722656 500.910156 226.441406 C 501.632812 228.21875 502.1875 229.992188 502.6875 231.878906 C 503.1875 233.933594 503.578125 236.097656 503.855469 238.207031 C 504.078125 240.09375 504.1875 241.980469 504.132812 243.867188 C 502.632812 244.421875 501.1875 245.035156 499.800781 245.753906 C 497.964844 246.699219 496.246094 247.976562 494.6875 249.308594 C 493.023438 250.75 491.632812 252.472656 490.578125 254.359375 C 490.023438 255.355469 489.578125 256.464844 489.191406 257.578125 C 488.800781 258.6875 488.691406 259.851562 488.578125 260.960938 C 488.46875 261.960938 488.691406 263.015625 488.855469 264.015625 C 488.914062 264.402344 489.023438 264.734375 489.191406 265.070312 C 489.523438 265.902344 489.96875 266.898438 490.632812 267.511719 C 491.578125 268.34375 492.632812 269.007812 493.910156 269.285156 C 494.800781 269.507812 495.632812 269.507812 496.523438 269.285156 C 497.132812 269.175781 497.6875 268.898438 498.246094 268.621094 C 498.632812 268.453125 498.964844 268.121094 499.300781 267.84375 C 499.855469 267.457031 500.355469 267.066406 500.910156 266.621094 C 501.742188 265.902344 502.578125 265.179688 503.355469 264.402344 C 504.855469 262.960938 506.132812 261.238281 507.355469 259.519531 C 508.578125 257.796875 509.519531 255.96875 510.410156 254.023438 C 510.964844 252.804688 511.410156 251.582031 511.796875 250.304688 C 513.355469 249.972656 514.910156 249.695312 516.464844 249.472656 C 519.574219 249.085938 522.742188 248.808594 525.851562 249.140625 C 527.796875 249.472656 529.683594 249.917969 531.519531 250.582031 C 532.683594 251.140625 533.796875 251.804688 534.851562 252.582031 C 536.351562 253.800781 537.738281 255.132812 538.960938 256.632812 C 540.238281 258.410156 541.238281 260.296875 542.128906 262.292969 C 543.128906 264.902344 543.792969 267.621094 544.183594 270.339844 C 544.460938 272.5625 544.515625 274.78125 544.238281 277 C 543.960938 278.5 543.628906 279.996094 543.074219 281.386719 C 542.515625 282.605469 541.796875 283.828125 541.015625 284.9375 C 540.90625 285.046875 540.851562 285.160156 540.738281 285.269531 C 540.183594 285.160156 539.628906 285.105469 539.074219 285.046875 C 538.074219 284.9375 536.960938 285.046875 536.019531 285.269531 C 534.742188 285.546875 533.519531 286.046875 532.351562 286.769531 C 531.464844 287.324219 530.628906 288.046875 529.964844 288.878906 C 529.019531 290.042969 528.40625 291.265625 528.464844 292.816406 C 528.519531 293.816406 528.742188 294.371094 529.128906 295.261719 C 529.351562 295.757812 529.683594 296.316406 530.074219 296.648438 C 530.128906 296.703125 530.183594 296.757812 530.296875 296.8125 C 530.796875 297.3125 531.40625 297.703125 532.128906 297.867188 C 532.742188 298.144531 533.460938 298.144531 534.128906 298.144531 C 536.351562 298.089844 538.296875 297.089844 540.128906 295.925781 C 542.074219 294.761719 543.792969 293.207031 545.351562 291.597656 C 548.40625 288.488281 550.40625 284.382812 551.292969 280.164062 C 551.738281 278.054688 551.960938 275.835938 551.90625 273.671875 C 551.90625 271.285156 551.515625 268.84375 551.070312 266.457031 C 550.351562 262.183594 548.738281 258.019531 546.574219 254.246094 C 545.515625 252.414062 544.183594 250.804688 542.738281 249.25 C 541.183594 247.585938 539.40625 246.144531 537.519531 244.867188 C 535.796875 243.757812 533.90625 242.925781 531.964844 242.316406 C 529.851562 241.59375 527.628906 241.261719 525.40625 240.984375 C 521.296875 240.484375 517.074219 240.984375 512.964844 241.59375 C 512.964844 241.261719 512.964844 240.871094 512.964844 240.539062 C 512.910156 238.097656 512.578125 235.65625 512.242188 233.210938 C 511.964844 231.046875 511.578125 228.9375 511.019531 226.832031 C 510.410156 224.554688 509.519531 222.390625 508.578125 220.28125 C 507.632812 218.171875 506.410156 216.285156 504.964844 214.453125 C 503.523438 212.621094 501.910156 211.125 500.023438 209.738281 C 498.132812 208.347656 496.023438 207.40625 493.800781 206.574219 C 492.691406 206.128906 491.46875 205.964844 490.300781 205.964844 C 488.800781 206.183594 487.414062 206.460938 486.078125 207.015625 Z M 486.078125 207.015625 " fill-opacity="1" fill-rule="nonzero"/><g clip-path="url(#594a02ebc0)"><path fill="#35241d" d="M 554.128906 284.105469 C 552.847656 284.160156 551.570312 284.4375 550.40625 284.9375 C 550.628906 286.992188 551.515625 288.933594 552.738281 290.542969 C 553.570312 291.652344 554.460938 292.707031 555.515625 293.59375 C 556.625 294.539062 557.792969 295.316406 558.960938 296.148438 C 562.070312 298.589844 565.070312 301.308594 567.570312 304.417969 C 569.125 306.472656 570.457031 308.691406 571.515625 311.078125 C 572.847656 314.519531 573.734375 318.179688 574.292969 321.84375 C 574.734375 325.507812 574.957031 329.226562 574.679688 332.945312 C 574.179688 332.5 573.625 332.109375 573.070312 331.722656 C 572.292969 331.167969 571.457031 330.722656 570.570312 330.335938 C 569.515625 329.835938 568.457031 329.445312 567.347656 329.226562 C 566.070312 328.949219 564.679688 328.835938 563.347656 328.835938 C 558.792969 328.78125 554.238281 329.835938 550.292969 332.109375 C 548.515625 333.109375 546.90625 334.609375 545.628906 336.164062 C 544.90625 337.050781 544.292969 337.9375 543.738281 338.992188 C 543.183594 340.160156 542.792969 341.324219 542.574219 342.601562 C 542.40625 343.765625 542.296875 344.875 542.351562 346.042969 C 542.351562 347.207031 542.574219 348.371094 542.792969 349.480469 C 543.015625 350.648438 543.460938 351.757812 543.960938 352.867188 C 544.40625 353.867188 544.90625 354.808594 545.574219 355.699219 C 546.183594 356.585938 546.90625 357.417969 547.738281 358.140625 C 548.238281 358.527344 548.683594 358.863281 549.238281 359.195312 C 549.738281 359.472656 550.40625 359.75 550.960938 359.972656 C 551.738281 360.25 552.570312 360.472656 553.40625 360.582031 C 554.125 360.691406 554.792969 360.75 555.460938 360.804688 C 556.347656 360.859375 557.183594 360.691406 558.070312 360.582031 C 560.125 360.304688 562.179688 359.859375 564.125 359.140625 C 566.292969 358.363281 568.457031 357.363281 570.402344 356.085938 C 571.902344 355.085938 573.234375 353.921875 574.457031 352.644531 C 574.847656 356.585938 574.902344 360.582031 574.457031 364.523438 C 574.011719 367.1875 573.347656 369.851562 572.347656 372.347656 C 571.292969 374.679688 570.125 376.898438 568.738281 379.007812 C 568.015625 380.171875 567.125 381.28125 566.347656 382.449219 C 565.957031 383.058594 565.625 383.78125 565.292969 384.445312 C 564.347656 386.554688 563.679688 388.71875 563.515625 391.050781 C 565.292969 391.496094 567.125 390.71875 568.738281 389.996094 C 569.347656 389.71875 569.902344 389.332031 570.457031 388.941406 C 570.902344 388.609375 571.347656 388.277344 571.734375 387.941406 C 572.792969 387.054688 573.625 385.890625 574.402344 384.722656 C 576.902344 381.117188 579.011719 377.121094 580.511719 372.957031 C 582.066406 368.628906 582.679688 364.023438 582.734375 359.417969 C 582.847656 354.867188 582.402344 350.257812 581.402344 345.820312 C 581.179688 344.820312 580.957031 343.875 580.625 342.933594 C 581.847656 339.824219 582.566406 336.550781 582.957031 333.277344 C 583.457031 329.003906 583.234375 324.617188 582.789062 320.402344 C 582.289062 316.015625 581.457031 311.578125 579.789062 307.46875 C 578.570312 304.363281 576.957031 301.53125 575.011719 298.867188 C 573.015625 296.09375 570.625 293.652344 568.125 291.375 C 566.957031 290.320312 565.738281 289.320312 564.515625 288.378906 C 563.625 287.710938 562.738281 286.992188 561.847656 286.378906 C 560.960938 285.714844 559.847656 285.382812 558.847656 284.992188 C 558.238281 284.769531 557.570312 284.660156 556.90625 284.550781 C 556.070312 284.4375 555.292969 284.328125 554.460938 284.328125 C 554.40625 284.105469 554.238281 284.105469 554.128906 284.105469 Z M 565.070312 337.105469 C 565.679688 337.21875 566.292969 337.382812 566.847656 337.605469 C 567.570312 337.992188 568.292969 338.382812 568.957031 338.828125 C 569.515625 339.269531 570.015625 339.769531 570.457031 340.324219 C 570.957031 341.046875 571.402344 341.769531 571.847656 342.542969 C 571.234375 343.65625 570.570312 344.765625 569.792969 345.820312 C 568.902344 346.929688 567.902344 347.984375 566.792969 348.925781 C 565.515625 349.816406 564.125 350.59375 562.679688 351.203125 C 560.902344 351.867188 559.070312 352.367188 557.183594 352.644531 C 556.515625 352.699219 555.847656 352.757812 555.183594 352.699219 C 554.683594 352.589844 554.238281 352.480469 553.738281 352.3125 C 553.515625 352.203125 553.347656 352.089844 553.128906 351.980469 C 552.960938 351.8125 552.738281 351.589844 552.570312 351.425781 C 552.128906 350.757812 551.738281 350.039062 551.40625 349.316406 C 551.128906 348.539062 550.90625 347.707031 550.738281 346.929688 C 550.683594 346.042969 550.683594 345.152344 550.738281 344.265625 C 550.847656 343.820312 550.90625 343.433594 551.070312 342.988281 C 551.292969 342.488281 551.570312 342.046875 551.90625 341.601562 C 552.460938 340.933594 553.128906 340.324219 553.792969 339.714844 C 554.570312 339.160156 555.40625 338.714844 556.238281 338.328125 C 557.625 337.773438 559.070312 337.382812 560.515625 337.160156 C 562.015625 337.050781 563.515625 336.996094 565.070312 337.105469 Z M 565.070312 337.105469 " fill-opacity="1" fill-rule="nonzero"/></g><g clip-path="url(#b6595d508f)"><path fill="#35241d" d="M 234.773438 286.878906 C 232.273438 286.878906 229.832031 287.324219 227.386719 287.824219 C 225.996094 288.101562 224.664062 288.65625 223.496094 289.433594 C 222.664062 289.988281 221.777344 290.652344 221.109375 291.375 C 219.886719 292.707031 218.886719 294.261719 218.5 296.035156 C 219.609375 296.59375 220.777344 296.980469 221.996094 297.257812 C 223.21875 297.480469 224.441406 297.589844 225.664062 297.648438 C 227.71875 297.703125 229.71875 297.203125 231.71875 296.871094 C 234.550781 296.59375 237.386719 296.757812 240.21875 297.089844 C 241.773438 297.3125 243.273438 297.648438 244.828125 297.980469 C 246.550781 298.367188 248.21875 298.976562 249.9375 299.3125 C 251.050781 299.535156 252.160156 299.644531 253.273438 299.699219 C 254.273438 299.753906 255.273438 299.535156 256.214844 299.421875 C 257.605469 299.257812 259.050781 298.644531 260.214844 297.867188 C 259.773438 296.035156 258.660156 294.539062 257.4375 293.152344 C 256.550781 292.097656 255.328125 291.265625 254.160156 290.542969 C 252.882812 289.765625 251.382812 289.378906 249.996094 288.933594 C 247.605469 288.265625 245.21875 287.824219 242.773438 287.433594 C 240.21875 287.046875 237.605469 286.824219 235.050781 286.824219 C 234.996094 286.878906 234.886719 286.878906 234.773438 286.878906 Z M 234.773438 286.878906 " fill-opacity="1" fill-rule="nonzero"/></g><path fill="#35241d" d="M 553.292969 268.066406 C 552.683594 268.730469 552.183594 269.507812 551.683594 270.230469 C 551.238281 270.894531 550.847656 271.671875 550.40625 272.394531 C 549.683594 273.617188 548.90625 274.78125 548.070312 275.890625 C 546.628906 277.613281 545.015625 279.164062 543.628906 280.996094 C 542.460938 282.496094 541.628906 284.160156 540.90625 285.878906 C 540.90625 285.878906 540.90625 285.824219 540.960938 285.824219 C 540.90625 285.992188 540.851562 286.101562 540.796875 286.269531 C 540.796875 286.269531 540.796875 286.324219 540.796875 286.324219 C 540.796875 286.324219 540.796875 286.324219 540.796875 286.269531 C 540.574219 286.824219 540.40625 287.378906 540.238281 287.933594 C 541.738281 288.878906 543.628906 289.15625 545.351562 288.988281 C 547.351562 288.820312 549.351562 288.15625 551.015625 286.992188 C 552.628906 285.878906 553.90625 284.4375 555.183594 282.9375 C 556.40625 281.441406 557.570312 279.886719 558.625 278.277344 C 559.683594 276.667969 560.625 275.003906 561.238281 273.117188 C 561.570312 272.117188 561.625 271.0625 561.738281 270.007812 C 561.792969 269.230469 561.738281 268.453125 561.625 267.734375 C 561.460938 266.289062 561.125 264.902344 560.347656 263.625 C 557.460938 264.238281 555.070312 266.011719 553.292969 268.066406 Z M 553.292969 268.066406 " fill-opacity="1" fill-rule="nonzero"/></svg>