<svg xmlns="http://www.w3.org/2000/svg" xmlns:xlink="http://www.w3.org/1999/xlink" width="1080" zoomAndPan="magnify" viewBox="0 0 810 1012.49997" height="1350" preserveAspectRatio="xMidYMid meet" version="1.0"><defs><clipPath id="39851a7ff5"><path d="M 113.820312 131.488281 L 691.785156 131.488281 L 691.785156 1012 L 113.820312 1012 Z M 113.820312 131.488281 " clip-rule="nonzero"/></clipPath></defs><g clip-path="url(#39851a7ff5)"><path fill="#5b3e36" d="M 314.492188 957.023438 C 345.171875 907.078125 345.21875 828.839844 305.6875 783.71875 L 305.5 783.5 L 305.640625 783.253906 C 311.84375 772.445312 316.511719 762.222656 320.410156 750.414062 C 323.84375 739.996094 326.832031 730.335938 331.347656 720.261719 C 318.710938 708.484375 305.765625 696.96875 293.308594 685.011719 C 283.785156 675.871094 274.640625 666.40625 266.816406 655.746094 C 247.761719 629.777344 237.773438 596.816406 229.355469 566.113281 L 211.617188 562.164062 L 211.527344 562.027344 C 196.234375 538.652344 185 492.335938 185.890625 464.609375 C 186.054688 459.546875 187.335938 444.28125 195.496094 453.214844 C 204.816406 463.417969 215.664062 496.183594 220.484375 511.070312 C 226.511719 414.765625 283.753906 382.59375 363.585938 344.25 C 383.808594 335.363281 404.453125 325.898438 422.410156 312.90625 C 440 300.179688 455.503906 283.804688 470.414062 268.109375 L 470.753906 267.75 L 471.035156 268.15625 C 485.695312 289.234375 501.5625 308.132812 519.238281 326.695312 C 531.453125 339.523438 544.820312 352.316406 555.394531 366.523438 C 566.367188 381.269531 572.988281 396.339844 576.949219 414.3125 C 582.546875 439.710938 582.53125 468.285156 581.371094 494.289062 C 587.609375 479.601562 597.890625 457.414062 609.132812 446.960938 C 615.160156 441.355469 622.234375 438.949219 627.050781 447.171875 C 631.871094 455.398438 631.957031 469.859375 631.292969 479.085938 C 630.183594 494.464844 626.289062 510.363281 620.46875 524.625 C 612.855469 543.277344 605.464844 580.535156 577.460938 562.429688 C 571.820312 579.484375 566.140625 596.71875 559.597656 613.445312 C 555.15625 624.808594 550.238281 635.871094 544.023438 646.390625 C 538.042969 656.511719 531.035156 665.824219 523.644531 674.953125 C 513.148438 687.90625 502.125 700.519531 491.320312 713.21875 C 493.230469 739.210938 504.894531 766.085938 516.085938 789.332031 C 529.3125 816.804688 544.1875 843.472656 555.972656 871.636719 C 582.296875 934.554688 585.339844 989.914062 538.003906 1043.855469 C 562.121094 1029.5625 588.304688 1012.726562 608.050781 992.933594 C 621.945312 979.007812 632.011719 964.050781 637.609375 945.105469 C 643.027344 926.75 643.832031 906.519531 644.386719 887.488281 C 645.1875 860.140625 645.679688 833.328125 648.140625 806.007812 C 650.902344 786.667969 661.675781 769.316406 667.976562 751.066406 C 698.496094 662.707031 703.417969 562.972656 662.144531 477.125 C 647.058594 445.742188 653.09375 422.34375 654.824219 389.414062 C 659.488281 330.855469 642.34375 265.808594 608.707031 217.503906 C 573.273438 166.617188 521.140625 136.09375 457.730469 143.167969 C 431.75 137.453125 396.363281 128.550781 370.101562 132.652344 C 207.90625 157.988281 174.457031 254.234375 170.035156 403.914062 C 168.328125 461.703125 151.621094 521.570312 137.203125 577.472656 C 130.261719 604.386719 123.285156 631.613281 118.597656 659.019531 C 114.769531 681.390625 112.097656 705.90625 115.136719 728.515625 C 129.523438 835.621094 321.769531 925.433594 231.144531 1044.265625 C 327.007812 992.632812 323.089844 929.757812 288.1875 835.722656 L 287.269531 833.242188 L 288.882812 835.335938 C 321.386719 877.445312 320.070312 907.222656 314.488281 957.023438 Z M 314.492188 957.023438 " fill-opacity="1" fill-rule="evenodd"/></g></svg>